<svg width="144" height="32" viewBox="0 0 144 32" fill="none" xmlns="http://www.w3.org/2000/svg">
<g clip-path="url(#clip0_582_26)">
<path fill-rule="evenodd" clip-rule="evenodd" d="M20.07 6.56776V29.8583H12.24V6.56776H20.07ZM7.56 14.9916L11.61 29.9833L4.05 32L0 16.9905L7.56 14.9916ZM28.728 0L36.288 2.01673L28.188 32.0178L20.628 30.0011L28.728 0Z" fill="#006AFF"/>
<path d="M124.398 5.46146C125.802 5.46146 126.828 6.4609 126.828 7.78159C126.828 9.10228 125.784 10.1017 124.398 10.1017C123.048 10.1017 122.004 9.10228 122.004 7.78159C121.986 6.47874 123.048 5.46146 124.398 5.46146ZM82.5297 14.8491C80.7117 14.8491 79.3977 16.027 79.0557 17.9723L79.0377 18.133L79.0197 18.3114H85.7877L85.7697 18.1508L85.7517 17.9902C85.5357 15.9199 84.4377 14.8491 82.5297 14.8491ZM51.0117 14.8491C49.1937 14.8491 47.8797 16.027 47.5377 17.9723L47.5197 18.133L47.5017 18.3114H54.2697L54.2517 18.1508L54.2337 17.9902C54.0177 15.9199 52.9377 14.8491 51.0117 14.8491ZM126.504 12.172V27.2707H122.274V12.172H126.504ZM101.106 11.7972H101.286H101.466C104.886 11.94 106.83 14.0103 106.902 17.5618V17.7582V27.2529H102.636V18.472V18.3114C102.582 16.2947 101.682 15.2239 99.9537 15.1703H99.8097H99.6657H99.5217C97.7217 15.2953 96.5337 16.5981 96.4617 18.5791V18.7398V27.235H92.2317V12.172H96.2097V14.7241L96.4977 14.2958L96.6057 14.1352C97.6317 12.636 99.0537 11.8686 100.89 11.8151L101.106 11.7972ZM63.0717 12.172L66.7437 23.1123L70.3437 12.172H74.8437L69.1917 27.2707H64.2597L58.5717 12.172H63.0717ZM132.966 12.172L135.918 16.6695L138.924 12.172H143.568L138.348 19.525L144 27.2707H139.14L135.756 22.3806L132.3 27.2707H127.656L133.308 19.525L128.088 12.172H132.966ZM114.462 7.7459V12.172H120.51V15.563H114.462V22.2378V22.3627C114.498 23.4157 114.93 23.9868 115.758 24.0225H115.866H115.956H116.046C116.802 23.9333 117.36 23.3086 118.026 21.9522L118.116 21.7559L121.248 23.4514L121.212 23.5228C119.736 26.2713 117.774 27.6277 115.308 27.6277C111.96 27.6277 110.286 26.0214 110.232 22.7554V22.5769V15.563H108.054V12.172H110.412L111.546 7.7459H114.462ZM82.6737 11.7972C84.9957 11.7972 86.8137 12.4932 88.1457 13.9032C89.4237 15.2596 90.0717 17.0264 90.1257 19.2573V19.5072V20.0426V20.3995V20.578H79.0017L79.0197 20.7386L79.0377 20.8993C79.3077 23.0409 80.7477 24.3795 82.8537 24.433H83.0157H83.1777H83.3397C84.7617 24.3259 85.8957 23.5763 86.7237 22.2021L86.8497 21.9879L90.1797 23.6299L90.1437 23.6834C88.7397 26.307 86.3457 27.6277 82.9437 27.6277C80.4777 27.6277 78.4797 26.9138 76.9317 25.486C75.3657 24.0404 74.5917 22.1486 74.5917 19.7214C74.5917 17.3834 75.3657 15.4916 76.9137 13.9924C78.4077 12.5468 80.3517 11.7972 82.6737 11.7972ZM51.1737 11.7972C53.4957 11.7972 55.3137 12.4932 56.6457 13.9032C57.9237 15.2596 58.5717 17.0264 58.6257 19.2573V19.5072V20.0426V20.3995V20.578H47.5017L47.5197 20.7386L47.5377 20.8993C47.8077 23.0409 49.2477 24.3795 51.3537 24.433H51.5157H51.6777H51.8397C53.2617 24.3259 54.3957 23.5763 55.2237 22.2021L55.3497 21.9879L58.6797 23.6299L58.6437 23.6834C57.2397 26.307 54.8457 27.6277 51.4437 27.6277C48.9777 27.6277 46.9797 26.9138 45.4317 25.486C43.8657 24.0404 43.0917 22.1486 43.0917 19.7214C43.0917 17.3834 43.8657 15.4916 45.4137 13.9924C46.8897 12.5468 48.8337 11.7972 51.1737 11.7972Z" fill="black"/>
</g>
<defs>
<clipPath id="clip0_582_26">
<rect width="144" height="32" fill="white"/>
</clipPath>
</defs>
</svg>
