<?xml version="1.0" standalone="no"?>
<!DOCTYPE svg PUBLIC "-//W3C//DTD SVG 20010904//EN"
 "http://www.w3.org/TR/2001/REC-SVG-20010904/DTD/svg10.dtd">
<svg version="1.0" xmlns="http://www.w3.org/2000/svg"
 width="960.000000pt" height="960.000000pt" viewBox="0 0 960.000000 960.000000"
 preserveAspectRatio="xMidYMid meet">
<metadata>
Created by potrace 1.14, written by Peter Selinger 2001-2017
</metadata>
<g transform="translate(0.000000,960.000000) scale(0.100000,-0.100000)"
fill="#000000" stroke="none">
<path d="M2855 9585 c-311 -47 -581 -197 -801 -446 l-49 -56 -85 -12 c-436
-61 -768 -298 -1012 -723 -127 -221 -235 -542 -278 -828 -8 -54 -10 -652 -8
-2180 4 -2356 -2 -2146 78 -2392 153 -468 553 -987 1117 -1450 204 -168 242
-190 519 -309 1780 -762 3149 -1189 3812 -1189 557 0 1090 190 1455 520 43 38
84 70 91 70 27 0 193 52 291 91 344 138 641 369 819 636 75 113 114 195 153
320 l28 88 0 2310 c0 2480 2 2382 -52 2645 -147 727 -579 1287 -1226 1590
-171 80 -314 127 -640 211 -491 126 -614 161 -1522 434 -670 201 -1027 305
-1445 419 -245 66 -386 103 -889 232 -147 38 -206 41 -356 19z m418 -206 c672
-168 1247 -329 2213 -619 896 -270 1026 -307 1499 -429 363 -93 502 -140 680
-226 613 -300 983 -804 1123 -1535 l26 -135 3 -2334 c3 -2319 3 -2334 -17
-2408 -86 -313 -369 -616 -745 -798 -60 -29 -129 -60 -152 -69 l-43 -16 31 50
c44 71 94 192 121 290 l23 85 0 2285 c0 2150 -1 2293 -18 2420 -62 460 -206
835 -445 1157 -87 117 -304 333 -422 420 -124 92 -208 142 -360 218 -209 105
-313 139 -820 270 -248 64 -483 130 -845 235 -33 10 -314 95 -625 188 -843
254 -1456 425 -2177 608 l-112 29 42 44 c97 101 265 207 412 260 93 34 232 60
323 60 68 1 119 -8 285 -50z m-953 -519 c543 -135 1214 -320 1770 -487 102
-30 205 -61 230 -68 25 -7 212 -63 415 -124 623 -189 942 -279 1305 -371 360
-90 487 -133 685 -232 219 -109 392 -235 555 -404 317 -330 500 -732 567
-1249 17 -132 18 -275 18 -2405 l0 -2265 -23 -80 c-58 -201 -198 -405 -386
-563 -253 -214 -537 -341 -921 -414 -105 -20 -152 -23 -375 -23 -275 1 -332 7
-650 75 -716 153 -1836 546 -3102 1088 -246 106 -263 114 -375 200 -171 131
-358 298 -520 465 -390 403 -626 797 -702 1174 -21 100 -21 120 -21 2210 l0
2108 25 117 c115 556 379 976 735 1171 119 65 305 119 450 130 25 2 53 4 63 5
9 1 125 -25 257 -58z"/>
</g>
</svg>
