<svg xmlns="http://www.w3.org/2000/svg" width="204.634" height="201.414" viewBox="0 0 204.634 201.414"><g transform="translate(1304.75 -5520.786)"><path d="M202.5,103.25a9.149,9.149,0,0,0-.814-1.227,11.226,11.226,0,0,0-.916-1.35c-.238-.368-.543-.736-.814-1.1-.78-.941-1.561-1.882-2.443-2.782-.373-.45-.78-.859-1.188-1.268s-.814-.777-1.289-1.186a5.031,5.031,0,0,0-.611-.573,21.249,21.249,0,0,0-1.8-1.473c-.1-.082-.2-.2-.271-.245-.746-.532-1.391-1.064-2.138-1.554-.984-.7-2-1.35-3.02-1.963-.577-.368-1.188-.7-1.764-1.023-1.086-.573-2.273-1.186-3.495-1.718-.814-.368-1.663-.777-2.511-1.064a14.04,14.04,0,0,0-1.357-.532c-.339-.164-.746-.245-1.12-.409-.1,0-.17-.082-.271-.082-.339-.123-.611-.2-.95-.327-.814-.245-1.629-.491-2.477-.7-1.052-.286-2.1-.573-3.223-.777a1.251,1.251,0,0,0-.17-.041c-.509-.123-1.052-.2-1.561-.286s-1.052-.164-1.629-.245c-.577-.123-1.12-.164-1.663-.245s-1.154-.123-1.73-.2c-.068.041-.068,0-.136,0-.984-.123-2.036-.164-3.054-.2-.848-.041-1.7-.082-2.613-.082-.068.041-.17,0-.271,0-.305,0-.645.041-1.018.041-.78,0-1.595.041-2.409.082-.848.082-1.7.123-2.511.2h-.645a.1.1,0,0,0-.068.041h-.509l-.339-.573-1.764-3.232c.78-.286,1.561-.614,2.273-.941a17.735,17.735,0,0,0,1.7-.777h.068c.238-.123.543-.245.814-.409,11.91-6.218,16.32-17.3,13.4-28.429,0-.041-.034-.082-.068-.164v-.082a33.208,33.208,0,0,0-6.277-11.863,46.678,46.678,0,0,0-8.041-7.772h-.034a55,55,0,0,0-5.565-3.722A71.094,71.094,0,0,0,118.7,14.24a17.872,17.872,0,0,0-2.511-.245c-.034-.082-.068,0-.068,0-.2,0-.373-.041-.577-.041A113.479,113.479,0,0,0,101.6,13.5h-.848c-.305,0-.645.041-1.018.041A182.211,182.211,0,0,0,74.282,15.3s-.034.041-.068.041q-5.09.675-10.179,1.718c-4.818.9-9.6,2-14.217,3.313C36.517,24.057,24.4,29.211,15.48,35.634c-.034.041-.068.041-.1.082C5.03,43.078-1.044,52.118.144,62.549a15.538,15.538,0,0,0,.373,2.045c.068.368.17.818.238,1.227a25.483,25.483,0,0,0,.679,2.5A10.813,10.813,0,0,0,1.874,69.5c.17.409.305.818.509,1.227a.362.362,0,0,0,.034.164c.17.327.305.736.509,1.1.305.614.611,1.268.95,1.882.509.9,1.018,1.8,1.595,2.659.17.286.373.614.577.9.509.736,1.086,1.514,1.663,2.209q.713.92,1.527,1.841a45.032,45.032,0,0,0,4.309,4.377A53.807,53.807,0,0,0,20.74,91.1c.746.409,1.493.818,2.307,1.227.78.45,1.527.777,2.341,1.186h.068c.577.245,1.12.491,1.663.7.543.245,1.052.45,1.595.654h.068l.034.041a6.9,6.9,0,0,1,.848.286H29.7a49.353,49.353,0,0,0,5.157,1.513c.645.123,1.289.286,1.968.409.068,0,.17,0,.2.041.339.041.611.082.95.123.746.164,1.561.245,2.375.368.679.082,1.425.164,2.172.2.475.041.984.082,1.459.082,1.527.082,3.02.082,4.648.041.509-.041,1.052-.041,1.595-.082.713-.041,1.527-.123,2.273-.2l2.138,3.845c-1.323.45-2.647.982-3.834,1.513-1.221.532-2.307,1.1-3.393,1.636-1.12.654-2.1,1.268-3.122,1.963,0,.041-.1.082-.1.082-.78.573-1.527,1.145-2.307,1.759-17.542,14.644-10.756,41.192,17.3,54.895.238.082.441.2.679.286.713.368,1.459.7,2.239,1.023,1.052.45,2.172.859,3.257,1.227,1.052.409,2.172.736,3.257,1.1a2.725,2.725,0,0,1-.713-.123c1.12.409,2.239.736,3.359,1.1a110.119,110.119,0,0,0,30.775,3.968c25.448,0,53.169-6.5,73.12-15.012a63.514,63.514,0,0,0,8.041-6.013,60.24,60.24,0,0,0,11.435-13.376c.509-.736.984-1.513,1.425-2.291.1-.164.17-.286.271-.45.373-.614.713-1.227,1.018-1.8l1.12-2.209c.407-.859.78-1.718,1.154-2.577a48.243,48.243,0,0,0,1.968-5.277l.814-2.822c.305-1.268.611-2.536.882-3.8.17-.859.339-1.759.475-2.618.17-1.145.339-2.332.475-3.518.136-1.064.2-2.127.271-3.191a35.869,35.869,0,0,0-2-3.763ZM54.365,67.662c-6.141-9.858.848-18.285,12.181-23.111A53.1,53.1,0,0,1,73.3,42.219a58.641,58.641,0,0,1,17.746-1.963h.034C102.41,40.788,112.86,45,117,54.245c9.4,15.135-10.62,27.161-31.148,27.488A47.6,47.6,0,0,1,72.415,80.22a39.188,39.188,0,0,1-4.445-1.514.148.148,0,0,1-.1-.041,27.814,27.814,0,0,1-13.5-11Zm63.959,76.615a49.287,49.287,0,0,1-19.713-3.109,1.852,1.852,0,0,1-.679-.327c-6.175-2.577-11.027-6.831-13.335-12.926a1.4,1.4,0,0,1-.17-.409,21.333,21.333,0,0,1-1.086-2.373c-4.445-11.74,8.381-21.23,24.4-24.829,1.391-.327,2.816-.573,4.275-.777a.366.366,0,0,1,.2-.041,56.687,56.687,0,0,1,8.347-.736,42.008,42.008,0,0,1,4.547.082,2.389,2.389,0,0,1,.543,0,45.809,45.809,0,0,1,5.734.736c.95.164,1.968.368,2.884.614a34.234,34.234,0,0,1,4.852,1.6c.78.327,1.527.654,2.273.982a22.759,22.759,0,0,1,11.163,11,.385.385,0,0,1,.1.245.887.887,0,0,1,.136.245c.238.368.441.736.611,1.064a14.328,14.328,0,0,1,1.154,2.577,12.23,12.23,0,0,1,.848,4.254c0,.368,0,.777-.034,1.186a13.893,13.893,0,0,1-3.054,7.854,13.139,13.139,0,0,1-.916,1.1c-6.413,7.281-19.714,11.944-33.082,11.985Z" transform="translate(-1304.746 5548.352)" opacity="0.08"/><path d="M155.384,78.9c-.644-.421-1.288-.842-1.97-1.225A21.444,21.444,0,0,0,151.33,76.6c-.568-.268-1.137-.536-1.743-.766a5.85,5.85,0,0,0-.871-.306c-.606-.23-1.212-.421-1.857-.613v4.1h.493c.871,0,1.781.038,2.652.115.682.038,1.364.115,2.008.191.3.038.568.077.834.115.076,0,.152.038.227.038a18.262,18.262,0,0,1,2.084.421,24.352,24.352,0,0,1,2.387.651,23.032,23.032,0,0,0-2.16-1.646ZM35.312,31.5a47.617,47.617,0,0,0-2.766,9.955A4.04,4.04,0,0,1,32.7,40.8c.114-.5.227-1.034.341-1.531.152-.842.379-1.685.606-2.489C37.32,23.88,46.262,13.657,57.932,6c-9.851,5.973-18.073,14.2-22.62,25.5Zm7.123,48.4a.037.037,0,0,0,.038.038h0Zm91.883,39.972c.53-6.662-1.1-11.792-4.13-15.506-.455-.536-.909-1.034-1.4-1.531a17.308,17.308,0,0,0-3.221-2.565,13.591,13.591,0,0,0-2.084-1.11,19.015,19.015,0,0,0-4.319-1.646,1.7,1.7,0,0,0-.417-.115l.076.038a17.231,17.231,0,0,1,2.273,2.718c.189.268.379.536.53.8h.038c.152.306.341.574.493.842a3.41,3.41,0,0,1,.3.651l.114.23a1.2,1.2,0,0,0,.189.383c.076.23.189.459.265.689a5.149,5.149,0,0,1,.265.689c.038.038.076.038,0,.077a23.735,23.735,0,0,1,1.1,8.155v1.761c.038.459.038.919.038,1.378,0,.115-.038.268-.038.383v.191c0,.421,0,.8-.038,1.225-.038.574-.076,1.149-.152,1.723-2.387,17.918-22.582,28.218-39.14,27.261h-.227a29.076,29.076,0,0,1-4.888-.957c-3.978-3.79-6.555-9.342-6.9-16.885-.038-.421-.038-.842-.038-1.263-.834,7.772,1.212,13.554,5.039,17.536a1.714,1.714,0,0,0,.417.5c3.675,3.637,8.866,5.7,14.588,6.356,14.815,2.374,33.419-5.858,39.33-20.637.189-.459.379-.957.53-1.417a22.319,22.319,0,0,0,1.212-5.284,24.187,24.187,0,0,0,.227-3.331c0-.421,0-.881-.038-1.34Zm-61.078,4.1c2.008-14.894,16.444-24.657,30.766-27.031C89.456,99.191,74.831,109.069,73.239,123.963Zm58.729-81.935c.758-11.792-5.835-18.3-14.777-20.445h-.038c.379.383.758.766,1.1,1.187a12.205,12.205,0,0,1,1.137,1.608,10,10,0,0,1,.644,1.072h0c.189.383.379.766.568,1.187l.227.689a2.452,2.452,0,0,1,.227.689,11.7,11.7,0,0,1,.455,1.646c.114.421.189.881.265,1.3A13.417,13.417,0,0,1,122,32.686a21.984,21.984,0,0,1,.114,2.259v2.6a2.38,2.38,0,0,1-.076.727c0,.536-.038,1.072-.038,1.608-.038.536-.076,1.034-.152,1.57a19.792,19.792,0,0,1-.53,2.6c-.114.5-.265.957-.417,1.417a2.659,2.659,0,0,0-.152.383,14.086,14.086,0,0,1-.682,1.761c-.152.345-.3.651-.455.957a8.495,8.495,0,0,1-.682,1.3c-.3.536-.606,1.072-.947,1.57a26.1,26.1,0,0,1-3.41,4.25c-.568.574-1.137,1.11-1.743,1.646-.682.613-1.4,1.187-2.122,1.723a36.954,36.954,0,0,1-6.517,3.829h0a17.244,17.244,0,0,1-1.743.766c-.606.23-1.212.459-1.819.651A35.156,35.156,0,0,1,94.8,65.767c-.379.077-.758.115-1.1.153-.265.038-.53.077-.758.115a30.7,30.7,0,0,1-11.594-.727v.077c14.929,14.817,51.757,2.259,50.583-23.355ZM60.433,86.48A15.991,15.991,0,0,1,58.5,86.4c-.455-.038-.909-.077-1.326-.115a28.39,28.39,0,0,1-3.751-.651c-.379-.077-.758-.191-1.137-.306-.568-.153-1.137-.345-1.667-.536V86.02c-1.023.306-2.008.651-2.993,1.034-.871.306-1.705.651-2.539,1.034a44.544,44.544,0,0,0-24.477,26.38c-.076.23-.189.5-.265.766a51.95,51.95,0,0,0-2.273,23.547c2.084,16.5,11.177,27.529,23.984,33.961.038.038.076.077.114.077a2.014,2.014,0,0,0,.53.23c-.72-.536-1.44-1.149-2.16-1.761a24.791,24.791,0,0,1-2.084-1.953,17.1,17.1,0,0,1-1.364-1.531c-.152-.153-.265-.306-.417-.459-16.634-20.369-10.344-53.6,10.382-69.147.871-.613,1.743-1.225,2.614-1.8.038-.038.114-.077.152-.115,1.1-.689,2.2-1.34,3.372-1.953,1.137-.536,2.273-1.072,3.486-1.57s2.5-.957,3.789-1.34V86.48Z" transform="translate(-1279.724 5537.433)" fill="#226bbd" stroke="#000" stroke-linejoin="bevel" stroke-width="0.25"/><path d="M36.181,33.2l-9.851-5.4V26.58c.53.191,1.1.383,1.667.536.379.115.758.23,1.137.306a28.39,28.39,0,0,0,3.751.651c.417.038.871.077,1.326.115.606.038,1.288.077,1.932.077V33.2Z" transform="translate(-1255.435 5595.648)" fill="#226bbd" stroke="#000" stroke-linejoin="bevel" stroke-width="0.25"/><path d="M24.208,25.3Z" transform="translate(-1261.459 5592.027)" fill="#b3e5ff" stroke="#000" stroke-linejoin="bevel" stroke-width="0.25"/><path d="M27.864,27.929A22.6,22.6,0,0,1,24.34,25.44,23.4,23.4,0,0,0,27.864,27.929Z" transform="translate(-1260.985 5592.423)" fill="#b3e5ff" stroke="#000" stroke-linejoin="bevel" stroke-width="0.25"/><path d="M148.1,10.129a12.751,12.751,0,0,0-1.932-.651c0-.077-.038-.038-.038-.038a60.3,60.3,0,0,0-11.556-2.527h-.114c-.189,0-.379-.077-.568-.077-.265-.038-.53-.077-.834-.115C120.1,4.539,104.639,5.113,89.6,8.483,77.168,11.239,65.082,15.91,55,22.534c-.038.038-.076.038-.114.077-9.851,5.973-18.073,14.2-22.62,25.5A47.617,47.617,0,0,0,29.5,58.065c-.189.842-.3,1.646-.417,2.489-.076.5-.152,1-.189,1.531-.038.5-.114,1.034-.114,1.531a.348.348,0,0,0-.038.191c-.038.459-.076.957-.076,1.417-.038.8-.076,1.646-.076,2.45q0,1.723.114,3.446c0,.383.038.766.076,1.149.076,1,.189,1.991.341,2.948.114.8.265,1.608.417,2.412a43.424,43.424,0,0,0,1.553,5.9,35.122,35.122,0,0,0,3.524,7.313c.417.613.834,1.225,1.288,1.838s.909,1.149,1.4,1.723v.038c.341.383.682.727,1.023,1.072s.682.651,1.023,1c-12.92-3.714-19.286-16.081-20.46-29.52v-.077A54.292,54.292,0,0,1,22.38,42.75C27.874,29.081,38.71,19.93,51.366,13.843c.455-.23.834-.421,1.25-.613C71.864,3.7,105.245-3.961,130.328,2.548a2.019,2.019,0,0,1,.8.191,43.917,43.917,0,0,1,16.937,7.389Z" transform="translate(-1276.682 5520.822)" fill="#226bbd" stroke="#000" stroke-linejoin="bevel" stroke-width="0.25"/><path d="M61.028,40.23a40.83,40.83,0,0,1-2.2,4.939C59.626,43.561,60.346,41.915,61.028,40.23Z" transform="translate(-1164.793 5634.26)" fill="none" stroke="#000" stroke-linejoin="bevel" stroke-width="0.25"/><path d="M62.415,29.628a24.351,24.351,0,0,0-2.387-.651c-.682-.153-1.364-.306-2.084-.421-.076,0-.152-.038-.227-.038-.265-.038-.53-.077-.834-.115-.644-.077-1.326-.153-2.008-.191-.871-.077-1.781-.115-2.652-.115H51.73V24c.644.191,1.25.383,1.857.613a5.849,5.849,0,0,1,.871.306c.606.23,1.175.5,1.743.766a21.445,21.445,0,0,1,2.084,1.072c.682.383,1.326.8,1.97,1.225a23.031,23.031,0,0,1,2.16,1.646Z" transform="translate(-1184.595 5588.35)" fill="#226bbd" stroke="#000" stroke-linejoin="bevel" stroke-width="0.25"/><path d="M44.727,29.985a.767.767,0,0,1-.341-.077l-.076-.038A1.709,1.709,0,0,1,44.727,29.985Z" transform="translate(-1205.289 5604.955)" fill="none" stroke="#000" stroke-linejoin="bevel" stroke-width="0.25"/><path d="M59.548,52.232l-9.776-5.36-.152-.077V45.034a23.736,23.736,0,0,0-1.1-8.155c.076-.038.038-.038,0-.077a5.148,5.148,0,0,0-.265-.689c-.076-.23-.189-.459-.265-.689a1.2,1.2,0,0,1-.189-.383c0-.077-.076-.153-.114-.23a3.41,3.41,0,0,0-.3-.651,14.454,14.454,0,0,0-2.955-4.25,21.4,21.4,0,0,1,4.282,1.608,13.591,13.591,0,0,1,2.084,1.11,21.153,21.153,0,0,1,3.221,2.565c.493.5.947,1,1.4,1.531,3.031,3.714,4.66,8.844,4.13,15.506Z" transform="translate(-1204.955 5605.068)" fill="none" stroke="#000" stroke-linejoin="bevel" stroke-width="0.25"/><path d="M89.567,41.1a24.184,24.184,0,0,1-.227,3.331,22.32,22.32,0,0,1-1.212,5.284c-.152.459-.341.957-.53,1.417C81.611,65.639,63.082,73.45,48.268,71.765c-5.721-.651-10.912-2.718-14.588-6.356.606.191,1.212.345,1.857.5a43.978,43.978,0,0,0,4.509.574h.227c16.558.957,36.753-9.342,39.14-27.261.076-.574.114-1.149.152-1.723.038-.421.038-.8.038-1.225v-.191s.038-.268.038-.383c0-.459,0-.919-.038-1.378l.152.077,9.776,5.36c.038.459.038.919.038,1.34Z" transform="translate(-1234.936 5617.542)" fill="none" stroke="#000" stroke-linejoin="bevel" stroke-width="0.25"/><path d="M34.45,53.842a30.564,30.564,0,0,0,11.556.651c.227-.038.493-.077.758-.115a5.424,5.424,0,0,0,1.1-.153A35.156,35.156,0,0,0,53.7,52.77c.606-.191,1.212-.421,1.819-.651.568-.268,1.175-.5,1.743-.766a36.955,36.955,0,0,0,6.517-3.829c.72-.536,1.44-1.11,2.122-1.723.606-.536,1.175-1.072,1.743-1.646a26.1,26.1,0,0,0,3.41-4.25c.341-.5.644-1.034.947-1.57a8.5,8.5,0,0,0,.682-1.3c.152-.306.3-.613.455-.957a14.086,14.086,0,0,0,.682-1.761,2.655,2.655,0,0,1,.152-.383c.152-.459.3-.919.417-1.417a19.791,19.791,0,0,0,.53-2.6c.076-.536.114-1.034.152-1.57.076-.766.114-1.531.114-2.336V23.4a14.792,14.792,0,0,0-.114-2.259,13.409,13.409,0,0,0-.227-1.723c-.076-.421-.152-.881-.265-1.3a11.7,11.7,0,0,0-.455-1.646,2.45,2.45,0,0,0-.227-.689l-.227-.689q-.284-.632-.568-1.149H73.06a9.763,9.763,0,0,0-.606-1.072,12.205,12.205,0,0,0-1.137-1.608,15.726,15.726,0,0,0-1.061-1.187c8.942,2.144,15.535,8.653,14.777,20.445C86.207,56.14,49.379,68.7,34.45,53.881Z" transform="translate(-1232.789 5548.974)" fill="none" stroke="#000" stroke-linejoin="bevel" stroke-width="0.25"/><path d="M172.374,124.062c-.038-.574-.076-1.187-.152-1.761-.038-.459-.114-.957-.189-1.417-.189-1.263-.417-2.527-.72-3.752-.114-.574-.265-1.11-.417-1.685-.152-.536-.3-1.072-.493-1.608a6.126,6.126,0,0,0-.265-.766,16.675,16.675,0,0,0-.8-2.068.736.736,0,0,0-.114-.306c-.341-.766-.644-1.493-1.023-2.182-.493-.957-1.023-1.914-1.591-2.795-.3-.5-.644-1-.985-1.455a21.618,21.618,0,0,0-2.046-2.565,21.331,21.331,0,0,0-1.553-1.646,8.715,8.715,0,0,0-.871-.8c-.227-.23-.493-.421-.72-.651-.076-.038-.114-.115-.189-.153a7.29,7.29,0,0,1-.644-.5c-.53-.421-1.1-.8-1.667-1.187a22.509,22.509,0,0,0-2.273-1.378c-.038,0-.076-.038-.114-.077-.379-.191-.758-.383-1.137-.536-.379-.191-.8-.345-1.212-.536s-.834-.345-1.25-.5-.871-.306-1.326-.459c0,0,0-.038-.076-.038a24.354,24.354,0,0,0-2.387-.651c-.682-.153-1.364-.306-2.084-.421-.076,0-.152-.038-.227-.038-.265-.038-.53-.077-.834-.115-.644-.077-1.326-.153-2.008-.191-.871-.077-1.781-.115-2.652-.115h-.493V86.731a22.182,22.182,0,0,0,2.236-.8c.606-.23,1.175-.459,1.743-.727h.038a8.066,8.066,0,0,0,.834-.383c12.428-6.011,20.915-18.952,23.492-32.889a.289.289,0,0,0,.038-.191v-.115c1.895-10.682.265-21.939-5.721-31.128A36.514,36.514,0,0,0,144.146,6.213a12.75,12.75,0,0,0-1.932-.651c0-.077-.038-.038-.038-.038A60.3,60.3,0,0,0,130.619,3h-.114c-.189,0-.379-.077-.568-.077-.265-.038-.53-.077-.834-.115C116.145.623,100.686,1.2,85.644,4.567,73.216,7.324,61.129,11.995,51.051,18.618c-.038.038-.076.038-.114.077C39.418,26.237,30.59,36.269,26.8,48.942c-.038.191-.114.345-.152.536-.227.8-.455,1.646-.606,2.489-.114.5-.227,1.034-.341,1.531-.227,1.034-.417,2.068-.568,3.14-.076.5-.152,1-.189,1.531-.038.5-.114,1.034-.114,1.531a.348.348,0,0,0-.038.191c-.038.459-.076.957-.076,1.417-.038.8-.076,1.646-.076,2.45q0,1.723.114,3.446c0,.383.038.766.076,1.149.076,1,.189,1.991.341,2.948.114.8.265,1.608.417,2.412l.114.459a36.947,36.947,0,0,0,1.44,5.437,35.122,35.122,0,0,0,3.524,7.313c.417.613.834,1.225,1.288,1.838s.909,1.149,1.4,1.723v.038c.341.383.682.727,1.023,1.072s.682.651,1.023,1h.038l.038.038a6.319,6.319,0,0,1,.53.5h.038a23.4,23.4,0,0,0,3.524,2.489c.455.268.909.536,1.4.766.038.038.114.038.152.077.227.115.455.191.682.306.568.268,1.175.5,1.781.727.53.191,1.1.383,1.667.536.379.115.758.23,1.137.306a28.39,28.39,0,0,0,3.751.651c.417.038.871.077,1.326.115.606.038,1.288.077,1.932.077v4.939c-1.25.383-2.539.842-3.751,1.34s-2.349,1.034-3.486,1.57c-1.175.613-2.273,1.263-3.372,1.953-.038,0-.114.077-.152.115-.871.574-1.743,1.187-2.614,1.8-.114.077-.227.191-.341.268-20.46,15.66-26.6,48.625-10.041,68.879.152.153.265.306.417.459a17.1,17.1,0,0,0,1.364,1.532,25.266,25.266,0,0,0,2.084,1.953c.682.613,1.44,1.187,2.16,1.761a2.013,2.013,0,0,1-.53-.23c.72.613,1.478,1.187,2.235,1.761,5.646,4.1,12.617,6.777,20.385,8.347,25.8,5.207,60.055-2.374,81.652-14.051a71.406,71.406,0,0,0,8.98-5.628,60.477,60.477,0,0,0,12.769-12.52c.568-.689,1.1-1.417,1.591-2.144.114-.153.189-.268.3-.421.417-.574.8-1.149,1.137-1.685l1.25-2.068c.455-.8.871-1.608,1.288-2.412.8-1.608,1.516-3.254,2.2-4.939l.909-2.642c.341-1.187.682-2.374.985-3.561.189-.8.379-1.646.53-2.45.189-1.072.379-2.182.53-3.293.152-1,.227-1.991.3-2.986,0-.153.038-.268.038-.421,0-.191.038-.421.038-.613.076-.919.114-1.914.114-2.872a48.6,48.6,0,0,0,.076-5.245c-.038-.536-.038-1.072-.114-1.608ZM86.061,164.57c-5.721-.651-10.912-2.718-14.588-6.356a1.714,1.714,0,0,1-.417-.5c-3.827-3.982-5.873-9.763-5.039-17.536a2.379,2.379,0,0,1,.038-.5,26.447,26.447,0,0,1,.189-3.025,25.011,25.011,0,0,1,2.69-8.844c5.153-9.916,16.634-16.425,28.076-18.186a38.7,38.7,0,0,1,11.1-.23,24.5,24.5,0,0,1,2.918.536,2.424,2.424,0,0,1,.72.153,1.694,1.694,0,0,1,.417.115,3.7,3.7,0,0,1,.606.191,18.273,18.273,0,0,1,3.713,1.455,13.591,13.591,0,0,1,2.084,1.11,17.307,17.307,0,0,1,3.221,2.565c.493.5.947,1,1.4,1.531,3.031,3.714,4.66,8.844,4.13,15.506.038.459.038.919.038,1.34a24.185,24.185,0,0,1-.227,3.331,22.32,22.32,0,0,1-1.212,5.284c-.152.459-.341.957-.53,1.417a31.5,31.5,0,0,1-12.466,14.549c-7.995,5.169-18.111,7.5-26.864,6.088Zm24.1-130.292h.038c8.942,2.144,15.535,8.653,14.777,20.445a24.251,24.251,0,0,1-2.614,12.252c-8.563,16.961-35.692,23.317-47.968,11.1V78C70.9,74.518,68.631,69.54,68.328,62.84a23.608,23.608,0,0,1,4.585-15.162c8.071-11.065,24.894-16.387,37.284-13.4Z" transform="translate(-1272.729 5524.738)" fill="#ee7cb7" stroke="#000" stroke-linejoin="bevel" stroke-width="0.25"/><path d="M88.48,53.685a24.185,24.185,0,0,1-.227,3.331A22.32,22.32,0,0,1,87.04,62.3c-.152.459-.341.957-.53,1.417C80.6,78.495,61.995,86.727,47.18,84.353a24.088,24.088,0,0,1-12.731-5.858,3.592,3.592,0,0,1-.379-.383,29.076,29.076,0,0,0,4.888.957h.227c16.558.957,36.753-9.342,39.14-27.261.076-.574.114-1.149.152-1.723.038-.421.038-.8.038-1.225v-.191s.038-.268.038-.383c0-.459,0-.919-.038-1.378V45.147a23.736,23.736,0,0,0-1.1-8.155c.076-.038.038-.038,0-.077a5.148,5.148,0,0,0-.265-.689c-.076-.23-.189-.459-.265-.689a1.2,1.2,0,0,1-.189-.383c0-.077-.076-.153-.114-.23a3.41,3.41,0,0,0-.3-.651c-.152-.268-.341-.536-.493-.8h-.038a6.3,6.3,0,0,0-.53-.842,17.231,17.231,0,0,0-2.273-2.718l-.076-.038a1.709,1.709,0,0,1,.417.115,19.015,19.015,0,0,1,4.319,1.646,13.591,13.591,0,0,1,2.084,1.11,17.307,17.307,0,0,1,3.221,2.565c.493.5.947,1,1.4,1.531,3.031,3.714,4.66,8.844,4.13,15.506.038.459.038.919.038,1.34Z" transform="translate(-1233.848 5604.955)" fill="#226bbd" stroke="#000" stroke-linejoin="bevel" stroke-width="0.25"/><path d="M74.56,35.6C72.59,53.863,52.092,64.545,35.42,62.861,51.978,63.818,72.173,53.518,74.56,35.6Z" transform="translate(-1230.083 5621.163)" fill="none" stroke="#000" stroke-linejoin="bevel" stroke-width="0.25"/><path d="M39.31,55.878a10.948,10.948,0,0,1-1.894-.613c-3.827-3.982-5.873-9.763-5.039-17.536,0,.421,0,.842.038,1.263.341,7.543,2.918,13.094,6.9,16.885Z" transform="translate(-1239.088 5627.188)" fill="none" stroke="#000" stroke-linejoin="bevel" stroke-width="0.25"/><path d="M63.066,29.75C48.744,32.124,34.308,41.887,32.3,56.781,33.891,41.887,48.517,32.009,63.066,29.75Z" transform="translate(-1238.785 5604.615)" fill="none" stroke="#000" stroke-linejoin="bevel" stroke-width="0.25"/><path d="M46.76,41.723c-.038.421-.076.842-.114,1.3,0-.459,0-.919-.038-1.378V39.885a23.736,23.736,0,0,0-1.1-8.155,23.082,23.082,0,0,1,1.25,9.993Z" transform="translate(-1201.943 5610.216)" fill="none" stroke="#000" stroke-linejoin="bevel" stroke-width="0.25"/><path d="M34.45,53.842v-.077a30.7,30.7,0,0,0,11.594.727c.227-.038.493-.077.758-.115a5.818,5.818,0,0,0,1.1-.153,35.156,35.156,0,0,0,5.835-1.455c.606-.191,1.212-.421,1.819-.651.568-.268,1.175-.5,1.743-.766a36.955,36.955,0,0,0,6.517-3.829c.72-.536,1.44-1.11,2.122-1.723.606-.536,1.175-1.072,1.743-1.646a26.1,26.1,0,0,0,3.41-4.25c.341-.5.644-1.034.947-1.57a8.494,8.494,0,0,0,.682-1.3c.152-.306.3-.613.455-.957a14.089,14.089,0,0,0,.682-1.761,2.653,2.653,0,0,1,.152-.383c.152-.459.3-.919.417-1.417a19.793,19.793,0,0,0,.53-2.6c.076-.536.114-1.034.152-1.57,0-.536.038-1.072.038-1.608.038-.23.038-.5.076-.727V23.4a14.792,14.792,0,0,0-.114-2.259,13.412,13.412,0,0,0-.227-1.723c-.076-.421-.152-.881-.265-1.3a11.7,11.7,0,0,0-.455-1.646,2.451,2.451,0,0,0-.227-.689L73.7,15.1q-.284-.632-.568-1.149H73.1a9.762,9.762,0,0,0-.606-1.072,12.2,12.2,0,0,0-1.137-1.608c-.341-.421-.72-.8-1.1-1.187h.038c8.942,2.144,15.535,8.653,14.777,20.445C86.245,56.14,49.416,68.7,34.488,53.881Z" transform="translate(-1232.789 5548.974)" fill="#226bbd" stroke="#000" stroke-linejoin="bevel" stroke-width="0.25"/><path d="M60.218,15.94c-2.387,9.916-10.95,17.038-20.688,20.254C49.154,32.9,57.641,25.78,60.218,15.94Z" transform="translate(-1218.621 5565.55)" fill="none" stroke="#000" stroke-linejoin="bevel" stroke-width="0.25"/><path d="M47.256,23.129a5.794,5.794,0,0,0-.076.842V23.09A20.491,20.491,0,0,0,44.49,10.8a20.081,20.081,0,0,1,2.8,12.329Z" transform="translate(-1204.787 5551.011)" fill="none" stroke="#000" stroke-linejoin="bevel" stroke-width="0.25"/></g></svg>