<svg xmlns="http://www.w3.org/2000/svg" width="231.311" height="190.053" viewBox="0 0 231.311 190.053"><g transform="translate(1842.281 -5588.992)"><path d="M212.6,92.63c.583.789,1.132,1.544,1.647,2.333.343.48.618.926.926,1.372,4.769,7.136,7.136,14.374,6.518,21.133-1.612,12.213-21.922,24.221-48,31.116-23.843,7.547-53.038,9.64-77.5,2.676-1.921-.549-3.877-1.166-5.729-1.818a72.988,72.988,0,0,1-21.373-11.733c-1.2-.961-2.333-1.99-3.465-3.019l34.615-12.762,5.283-1.921,2.161.446h0a33.905,33.905,0,0,0,10.6,6.381h.034c25.73,10.12,61.1-7.17,46.829-25.112-7.582-9.469-20.207-14.306-32.626-15.369-19.143-1.715-37.806,5.352-36.845,17.565l-48.064,4.872-2.642-4.082L0,35.441,136.06,12.97l10.5-1.75,16.4,22.711L60.826,50.844l13.38,20.824h0L79.9,80.554c4.6-4.391,10.807-8.062,18.114-10.91,2.058-.823,4.22-1.578,6.415-2.3a116.513,116.513,0,0,1,25.9-4.631c1.166-.069,2.333-.137,3.465-.172.789-.069,1.578-.069,2.333-.069q1.389-.051,2.779,0h2.95c1.955,0,3.911.1,5.9.24q2.933.206,5.866.515c.686.1,1.372.137,2.058.24.652.1,1.3.172,1.955.274h.172c1.441.24,2.882.446,4.288.72a.51.51,0,0,1,.309.069c.823.172,1.681.309,2.539.515a1.616,1.616,0,0,1,.583.137c.858.172,1.715.377,2.573.583,1.887.446,3.739.961,5.592,1.509.823.24,1.544.48,2.333.755a7.979,7.979,0,0,1,.995.309c.72.24,1.441.515,2.2.789,1.338.48,2.676.995,3.98,1.544h0c1.3.583,2.573,1.132,3.877,1.75,1.75.823,3.4,1.647,4.974,2.573.823.446,1.612.926,2.436,1.407a67.027,67.027,0,0,1,6.793,4.769c.72.549,1.407,1.132,2.127,1.75.686.583,1.372,1.2,2.058,1.818a14.518,14.518,0,0,1,1.921,1.921c.618.652,1.235,1.3,1.853,1.99.583.686,1.2,1.407,1.784,2.161.48.583.961,1.235,1.441,1.853Z" transform="matrix(0.998, -0.07, 0.07, 0.998, -1843.063, 5623.915)" opacity="0.08"/><path d="M64.9,45.843,31.551,58.777,22.7,53.905,62.221,38.57l.309,1.235A19.141,19.141,0,0,0,64.9,45.843Z" transform="translate(-1782.342 5682.455)" fill="#8bd4fa" stroke="#000" stroke-linejoin="bevel" stroke-width="0.25"/><path d="M106.587,27.283a3.918,3.918,0,0,0-.892-.309h-.034l-.069-.069-1.338-.515c-.48-.172-.961-.309-1.441-.48a41.813,41.813,0,0,0-4.185-1.166c-1.441-.343-2.882-.618-4.357-.823-.72-.1-1.475-.206-2.23-.274a21.272,21.272,0,0,0-2.127-.206,15.7,15.7,0,0,0-1.818-.1c-.892-.034-1.818-.069-2.745-.069A72.888,72.888,0,0,0,63.086,26.8c-2.058.686-4.117,1.441-6.141,2.3A73.345,73.345,0,0,0,37.15,41.178l.549-11.6c.686-.412,1.372-.823,2.093-1.235a.034.034,0,0,1,.034-.034A78.816,78.816,0,0,1,72.04,18.638c.755-.034,1.475-.069,2.2-.1a58.289,58.289,0,0,1,6.484.1c.789.034,1.612.1,2.4.206,8.748.858,16.879,3.6,23.466,8.439Z" transform="translate(-1747.219 5633.636)" fill="#8bd4fa" stroke="#000" stroke-linejoin="bevel" stroke-width="0.25"/><path d="M87.7,50.623c.961,23.706-35.473,42.266-49.47,27.342,16.536,3.5,41.34-12.591,40.516-32.18C78.437,38,75.59,32.269,71.37,28.53,80.221,30.966,87.151,38.1,87.7,50.623Z" transform="translate(-1744.594 5658.051)" fill="#226bbd" stroke="#000" stroke-linejoin="bevel" stroke-width="0.25"/><path d="M151.77.12v6L35.882,22.351l-3.911,90.57-9.091.446L27,17.582Z" transform="translate(-1781.905 5588.996)" fill="#8bd4fa" stroke="#000" stroke-linejoin="bevel" stroke-width="0.25"/><path d="M45.651,71.343C34.6,66.986,26.3,58.547,23.146,45.133c-.172-.686-.309-1.372-.446-2.093l8.851,4.872c.274,1.407.583,2.779.961,4.082a36.041,36.041,0,0,0,9.777,16.57,37.043,37.043,0,0,0,3.362,2.779Z" transform="translate(-1782.342 5693.32)" fill="#226bbd" stroke="#000" stroke-linejoin="bevel" stroke-width="0.25"/><path d="M71.107,43.442l-1.132.446L64.9,45.843,31.551,58.777,22.7,53.905,62.221,38.57Z" transform="translate(-1782.342 5682.455)" fill="#226bbd" stroke="#000" stroke-linejoin="bevel" stroke-width="0.25"/><path d="M31.971,33l-.24,5.318L22.88,33.446Z" transform="translate(-1781.905 5668.916)" fill="#8bd4fa" stroke="#000" stroke-linejoin="bevel" stroke-width="0.25"/><path d="M35.882,9.979l-3.911,90.57-.24,5.318-8.851-4.872L27,5.21Z" transform="translate(-1781.905 5601.368)" fill="#226bbd" stroke="#000" stroke-linejoin="bevel" stroke-width="0.25"/><path d="M157.807,4.854l-8.954,1.269L32.965,22.351,24.08,17.582,148.853.12Z" transform="translate(-1778.988 5588.996)" fill="#226bbd" stroke="#000" stroke-linejoin="bevel" stroke-width="0.25"/><path d="M105.592,26.906l-1.338-.515c-.48-.172-.961-.309-1.441-.48a41.812,41.812,0,0,0-4.185-1.166c-1.441-.343-2.882-.618-4.357-.823-.72-.1-1.475-.206-2.23-.274a21.271,21.271,0,0,0-2.127-.206,15.7,15.7,0,0,0-1.818-.1c-.892-.034-1.818-.069-2.745-.069A72.888,72.888,0,0,0,63.086,26.8c-2.058.686-4.117,1.441-6.141,2.3A73.345,73.345,0,0,0,37.15,41.178l.549-11.6h0c.686-.446,1.372-.858,2.093-1.235a.034.034,0,0,1,.034-.034A76.039,76.039,0,0,1,72.04,18.638c.755-.034,1.475-.069,2.2-.1a58.289,58.289,0,0,1,6.484.1c.789.034,1.612.1,2.4.206a47.275,47.275,0,0,1,22.471,8.062Z" transform="translate(-1747.219 5633.636)" fill="#226bbd" stroke="#000" stroke-linejoin="bevel" stroke-width="0.25"/><path d="M160.242,109.12c0,1.029,0,2.024-.034,3.053,0,.618-.034,1.2-.069,1.818a65.192,65.192,0,0,1-6.69,27c-7.959,15.164-30.018,28.406-53.656,34.753-22.3,7.342-45.662,7.445-60.414-3.431a37.044,37.044,0,0,1-3.362-2.779,36.041,36.041,0,0,1-9.777-16.57c-.377-1.3-.686-2.676-.961-4.082l33.346-12.934,5.077-1.955,1.407.755h0a18.225,18.225,0,0,0,4.563,8.92h.034c14,14.923,50.431-3.637,49.47-27.342-.549-12.522-7.479-19.658-16.33-22.093-13.62-3.808-31.7,3.4-37.7,18.766L25.9,114.883l.24-5.318L30.049,19,145.937,2.769,154.891,1.5V31.347L67.855,43.594l-1.3,27.239h0L66,82.464A73.346,73.346,0,0,1,85.8,70.388c2.024-.858,4.083-1.612,6.141-2.3A72.888,72.888,0,0,1,114.2,64.556c.926,0,1.853.034,2.745.069a15.706,15.706,0,0,1,1.818.1,21.277,21.277,0,0,1,2.127.206c.755.069,1.509.172,2.23.274,1.475.206,2.916.48,4.357.823,1.407.343,2.813.72,4.185,1.166.48.172.961.309,1.441.48l1.338.515.069.034h.034c.995.412,1.955.823,2.882,1.269a.3.3,0,0,1,.206.1c.549.274,1.1.549,1.647.858a.818.818,0,0,1,.377.206c.549.309,1.1.618,1.647.961a33.82,33.82,0,0,1,3.431,2.367c.48.377.926.72,1.372,1.132a2.4,2.4,0,0,1,.583.48c.412.377.823.755,1.235,1.166.755.72,1.475,1.475,2.2,2.264h0c.686.823,1.338,1.647,1.99,2.539a25.757,25.757,0,0,1,2.367,3.671c.377.652.72,1.3,1.064,1.99a41.266,41.266,0,0,1,2.539,6.553c.24.755.446,1.544.652,2.367.206.789.377,1.612.549,2.47a15.491,15.491,0,0,1,.412,2.573c.1.858.206,1.75.309,2.642.069.926.137,1.887.172,2.847.034.789.069,1.612.069,2.436Z" transform="translate(-1776.071 5592.35)" fill="#ee7cb7" stroke="#000" stroke-linejoin="bevel" stroke-width="0.25"/><path d="M37.887,41.191l-1.407-.755,1.132-.446a12.31,12.31,0,0,0,.274,1.2Z" transform="translate(-1748.848 5685.906)" fill="#d9f2ff" stroke="#000" stroke-linejoin="bevel" stroke-width="0.25"/></g></svg>