<svg xmlns="http://www.w3.org/2000/svg" width="195.957" height="176.542" viewBox="0 0 195.957 176.542"><g transform="translate(2150.918 -5623.367)"><path d="M169.364,103.24h.035c2.333-.557,4.632-1.114,6.965-1.672,4.876-1.149,9.786-2.333,14.662-3.483l-.7-.836-16.02-18.458-11.493,2.716-10.274,2.4-3.587-4.11-11.319-12.99-9.02-10.378L116.392,42.4l-7.244-8.324L98,21.293,92.361,14.78l-2.856.662L80.868,17.5,23.543,30.87,0,122.848l14.732,16.891L106.5,118.077l11.423-2.716,10.587,12.189,3.8,4.388,1.985,2.264,1.637,1.881,1.637-.383,21.558-5.085,10.239-2.438,9.09-2.159V113.723L169.4,103.275h-.035Zm-122.8-3.692c1.184-5.189,2.368-10.378,3.378-15.568a151.344,151.344,0,0,0,3.483-28.732c2.438,3.239,4.98,6.443,7.557,9.647,2.264,2.856,4.6,5.677,6.965,8.533,5.851,7.07,11.946,14.14,18.075,21.21l-30.439,7.14L46.6,103.9l-1.045.244C45.9,102.614,46.25,101.081,46.564,99.549Z" transform="translate(-2150.918 5659.767)" opacity="0.08"/><path d="M57.755,43.555V54.561L57.72,66.855v8.08l-9.09-4.98v-.94l.035-24.9v-5.5l6.965,3.8Z" transform="translate(-2030.185 5718.93)" fill="none" stroke="#000" stroke-linejoin="bevel" stroke-width="0.25"/><path d="M36.9,53.531,77.752,47.61l9.09,4.98L45.955,58.511,36.9,53.531Z" transform="translate(-2059.307 5741.274)" fill="none" stroke="#000" stroke-linejoin="bevel" stroke-width="0.25"/><path d="M36.9,40.3V71.679l9.055,4.98.035-31.414L36.9,40.3Z" transform="translate(-2059.307 5723.125)" fill="#0182e5" stroke="#000" stroke-linejoin="bevel" stroke-width="0.25"/><path d="M13.38,52.072,95.293,40.3l9.09,4.945L22.365,57.052l-8.985-4.98Z" transform="translate(-2117.7 5723.125)" fill="none" stroke="#000" stroke-linejoin="bevel" stroke-width="0.25"/><path d="M81.735,2.32,13.37,120.8l.035,25.563,8.985,4.98v-25.6L90.825,7.161,81.735,2.32Z" transform="translate(-2117.725 5628.833)" fill="#0182e5" stroke="#000" stroke-linejoin="bevel" stroke-width="0.25"/><path d="M87.574.12,33,7.782l9.09,4.841L96.7,4.961,87.574.12Z" transform="translate(-2068.989 5623.371)" fill="#0182e5" stroke="#000" stroke-linejoin="bevel" stroke-width="0.25"/><path d="M65.889,29.5,48.65,31.973l9.09,4.911,17.274-2.473L65.889,29.5Z" transform="translate(-2030.135 5696.312)" fill="#0182e5" stroke="#000" stroke-linejoin="bevel" stroke-width="0.25"/><path d="M48.64,40.373,65.879,37.9l9.09,4.945L57.73,45.318l-9.09-4.945Z" transform="translate(-2030.16 5717.167)" fill="none" stroke="#000" stroke-linejoin="bevel" stroke-width="0.25"/><path d="M78.017,36.825l-45,6.443L24,38.323l12.782-1.846,32.145-4.6Z" transform="translate(-2091.333 5702.221)" fill="none" stroke="#000" stroke-linejoin="bevel" stroke-width="0.25"/><path d="M48.323,14.346C46.338,40.4,45.99,66.308,45.99,92.463L36.9,87.517c.035-19.886.209-39.633,1.184-59.415.279-5.5.592-11.005,1.01-16.508.035-.7.07-1.428.139-2.124Z" transform="translate(-2059.307 5646.584)" fill="none" stroke="#000" stroke-linejoin="bevel" stroke-width="0.25"/><path d="M75.857,14.286c-1.776,4.7-3.692,9.368-5.746,13.966C60.5,50.332,48.518,71.193,36.782,92.263L33.02,99.055,24,94.109q5.746-10.4,11.563-20.757c8.672-15.568,17.135-31.2,24.379-47.469,1.637-3.587,3.169-7.209,4.632-10.866,0-.035.035-.07.07-.139.418-.975.8-1.985,1.184-2.96l.94-2.508,4.353,2.333,4.736,2.542Z" transform="translate(-2091.333 5646.435)" fill="none" stroke="#000" stroke-linejoin="bevel" stroke-width="0.25"/><path d="M36.28,9.41l4.493.209,9.09,4.876-4.493-.209L36.28,9.41Z" transform="translate(-2060.846 5646.435)" fill="none" stroke="#000" stroke-linejoin="bevel" stroke-width="0.25"/><path d="M147.049,105.225l-8.149,1.149V100.14L139,1.51,129.879,2.8,84.4,9.172,58.379,54.238,28.324,106.374,15.96,127.758v25.6l72.928-10.483,9.09-1.323v31.414l40.887-5.921V146.669l.035-11.005,17.239-2.508.07-29.255-9.125,1.323ZM88.992,89.378c-.07,5.955-.1,11.911-.1,17.9l-32.145,4.6C63.5,99.722,70.36,87.637,76.768,75.343,81.5,66.323,86,57.2,90.072,47.865,89.375,61.691,89.1,75.517,88.992,89.378Z" transform="translate(-2111.294 5626.822)" fill="#ee7cb7" stroke="#000" stroke-linejoin="bevel" stroke-width="0.25"/><path d="M73.92,11.019c-1.985,26.051-2.333,51.962-2.333,78.117l-45,6.443,3.761-6.791L62.5,84.19c.035-19.886.209-39.633,1.184-59.415,2.055-4.6,3.97-9.264,5.746-13.966l4.493.209Z" transform="translate(-2084.903 5649.911)" fill="#0182e5" stroke="#000" stroke-linejoin="bevel" stroke-width="0.25"/></g></svg>