<svg xmlns="http://www.w3.org/2000/svg" width="216.642" height="212.193" viewBox="0 0 216.642 212.193"><g transform="translate(1132.894 -5498.456)"><path d="M169.271,58.34c-13.417-19.493-31.915-33.589-54.287-39.992h-.062c-.837-.242-1.642-.483-2.448-.725-.837-.2-1.642-.4-2.479-.6a1.979,1.979,0,0,1-.465-.121,98.692,98.692,0,0,0-12.146-1.933c-18.034-1.812-38.019.886-59.523,9.062-1.239.4-2.448.886-3.718,1.41C7.68,36.109-7.657,64.784,3.9,86.452a31.963,31.963,0,0,0,4.679,7.733,36.676,36.676,0,0,0,8.645,7.894h.062c9.11,6.122,22.4,10.109,40.684,10.431h.093a100.627,100.627,0,0,0,53.915-11.478c.713-.362,1.425-.725,2.107-1.128.155-.121.372-.2.527-.322.372-.2.744-.443,1.146-.685a63.38,63.38,0,0,0,10.163-7.572,54.151,54.151,0,0,0,4.338-4.35c.434-.524.868-1.007,1.239-1.49.713-.886,1.3-1.772,1.921-2.658,10.845,17.519,19.118,41.845-11.651,49.175-9.729,2.336-20.048,2.578-29.1-.6a33.689,33.689,0,0,1-11.31-6.484l-5.515,2.618L42.477,143.52c.5.524.992,1.047,1.518,1.571.5.483.992.926,1.487,1.369.186.161.372.322.527.443a18.684,18.684,0,0,0,1.518,1.289c.093.081.155.121.248.2.062,0,.093.081.155.081.434.362.93.685,1.394,1.007,1.084.765,2.2,1.49,3.377,2.175.713.443,1.518.886,2.293,1.289.806.4,1.549.805,2.324,1.168h.062c.62.322,1.3.6,1.921.886a3.411,3.411,0,0,1,.651.282c.651.282,1.239.483,1.828.725.868.322,1.766.6,2.665.886.5.161.992.282,1.518.483.713.242,1.425.4,2.169.6,1.952.524,3.9.967,5.918,1.329h.062c17.662,3.182,38.019,1.087,55.712-3.423a1213.21,1213.21,0,0,1,.372-.081,11203.861,11203.861,0,0,0,.372-.081c13.138-3.343,24.7-8.055,32.628-12.727,7.5-4.511,12.983-9.626,16.794-15.183v-.081a37.353,37.353,0,0,0,3.718-6.645c5.577-12.767,3.749-27.306-2.6-41.724-.434-.967-.868-1.933-1.363-2.859-.527-1.047-1.023-2.014-1.549-3.061-.465-.846-.9-1.692-1.363-2.537-.558-1.007-1.115-1.973-1.7-2.9-1.828-3.3-3.811-6.484-5.918-9.545ZM111.7,55.481a27.34,27.34,0,0,1,1.549,2.618,15.89,15.89,0,0,1,.868,2.175,10.822,10.822,0,0,1,.434,1.651,14.081,14.081,0,0,1,.31,2.739c.279,11.4-14.222,19.855-30.18,20.9-.527.04-.992.081-1.487.081a46.919,46.919,0,0,1-18.436-2.175,2.078,2.078,0,0,1-.744-.282C57.319,80.733,51.8,76.383,48.86,69.7a1.973,1.973,0,0,1-.341-.564,1.011,1.011,0,0,1-.186-.362c-.155-.2-.217-.4-.341-.564-7.87-14.257,8.025-25.695,26.152-28.152a16.466,16.466,0,0,1,2.417-.282c.775-.04,1.549-.121,2.355-.161,1.023-.04,2.076-.081,3.068-.081h1.054a37.927,37.927,0,0,1,18.622,4.954h.062c.713.443,1.394.886,2.045,1.369a26.864,26.864,0,0,1,3.718,3.262,16.924,16.924,0,0,1,1.58,1.933,26.243,26.243,0,0,1,2.6,4.43Z" transform="translate(-1110.512 5525.347) rotate(8)" opacity="0.08"/><path d="M69,45.6,33.771,60.223l-9.591-5.6L65.193,37.6A26.863,26.863,0,0,0,69,45.6Z" transform="translate(-1096.19 5608.721)" fill="#b3e5ff" stroke="#000" stroke-linejoin="bevel" stroke-width="0.25"/><path d="M78.655,20.48C73.318,35.575,57.271,43.891,43.65,42.2,57.309,43.221,73.244,35.26,78.655,20.48Z" transform="translate(-1043.001 5558.368)" fill="#b3e5ff" stroke="#000" stroke-linejoin="bevel" stroke-width="0.25"/><path d="M64.708,21.208a20.866,20.866,0,0,0-12.8-10.089c-.3-.079-.6-.158-.858-.236-.858-.236-1.754-.394-2.65-.552.858.118,1.754.276,2.575.473h0c.3.079.56.158.821.236A20.318,20.318,0,0,1,64.671,21.208Z" transform="translate(-1030.024 5528.515)" fill="#b3e5ff" stroke="#000" stroke-linejoin="bevel" stroke-width="0.25"/><path d="M96.6,27.49c.336,25.224-4.739,58.921-33.587,62.626C53.87,91.3,45.286,89.6,39.39,83.692a34.126,34.126,0,0,0,13.957.828C76.522,81.563,84.322,59.177,86.3,37.382h0v-.118c1.978-1.537,3.881-3.192,5.672-4.887.6-.591,1.194-1.143,1.754-1.734C94.734,29.618,95.667,28.554,96.6,27.49Z" transform="translate(-1054.639 5578.985)" fill="#226bbd" stroke="#000" stroke-linejoin="bevel" stroke-width="0.25"/><path d="M60.329,6.009c-.56-.473-1.12-.906-1.679-1.379.448.315.9.631,1.343.985A3.148,3.148,0,0,0,60.329,6.009Z" transform="translate(-1002.023 5511.75)" fill="#b3e5ff" stroke="#000" stroke-linejoin="bevel" stroke-width="0.25"/><path d="M52.057,74.356a34.524,34.524,0,0,1-3.993-1.419c-10.673-4.414-18.958-12.73-22.69-25.973-.261-.867-.485-1.774-.709-2.719-.187-.749-.336-1.537-.485-2.325l9.591,5.6c.149.788.3,1.576.485,2.365.187.709.373,1.419.56,2.089.075.236.149.473.224.67a17.2,17.2,0,0,0,.634,1.971c.037.118.075.2.112.315.037.039.037.118.075.158.187.552.411,1.1.634,1.616a38.336,38.336,0,0,0,1.717,3.547,19.607,19.607,0,0,0,1.269,2.128c.448.709.9,1.34,1.343,1.971h.037c.373.552.784,1.064,1.157,1.537a4.64,4.64,0,0,1,.411.473c.411.473.784.867,1.157,1.3.56.591,1.157,1.143,1.754,1.695.336.315.672.591,1.008.906.485.434.97.828,1.493,1.222a31.138,31.138,0,0,0,4.217,2.877Z" transform="translate(-1096.19 5621.427)" fill="#226bbd" stroke="#000" stroke-linejoin="bevel" stroke-width="0.25"/><path d="M65.8,42.976a52.623,52.623,0,0,1-6.68,7.8,75.116,75.116,0,0,0,6.307-8.04l.373.236Z" transform="translate(-1000.739 5623.839)" fill="none" stroke="#000" stroke-linejoin="bevel" stroke-width="0.25"/><path d="M74.822,43.2,69,45.6,33.771,60.223l-9.591-5.6L65.193,37.6Z" transform="translate(-1096.19 5608.721)" fill="#226bbd" stroke="#000" stroke-linejoin="bevel" stroke-width="0.25"/><path d="M66.429,28.73A56.154,56.154,0,0,1,60.794,33.7h0A71.635,71.635,0,0,1,48.74,41.618a80.559,80.559,0,0,0,12.054-8c1.978-1.537,3.881-3.192,5.672-4.887Z" transform="translate(-1029.095 5582.633)" fill="none" stroke="#000" stroke-linejoin="bevel" stroke-width="0.25"/><path d="M79.059,28.65C77.417,48.514,72.23,68.1,61.183,84.418l-.373-.236C71.632,68.417,77.23,48.868,79.059,28.65Z" transform="translate(-996.122 5582.397)" fill="none" stroke="#000" stroke-linejoin="bevel" stroke-width="0.25"/><path d="M155.6,18.852c-.448-.355-.9-.67-1.343-.985-.6-.434-1.157-.867-1.754-1.261l-.336-.236a49.433,49.433,0,0,0-9.031-4.927c-13.92-5.912-31.684-6.188-53.329.394-1.232.315-2.463.709-3.732,1.143C59.131,21.926,32.522,56.766,31.44,87.587A50.2,50.2,0,0,0,31.515,98.7a38.528,38.528,0,0,0,3.247,12.06c-9.815-11.627-14.218-29.126-8.7-52.418A65.542,65.542,0,0,1,43.2,27.877a67.158,67.158,0,0,1,6.083-5.754c.746-.631,1.493-1.222,2.239-1.813a4.02,4.02,0,0,0,.411-.355C76.26,1,111.862-5.741,138.06,5.806A48.3,48.3,0,0,1,155.6,18.852Z" transform="translate(-1097.629 5498.513)" fill="#226bbd" stroke="#000" stroke-linejoin="bevel" stroke-width="0.25"/><path d="M85.445,69.345c-1.493-28.337-9.815-50.487-25.078-63.3h-.037c-.56-.512-1.12-.946-1.679-1.419.448.315.9.631,1.343.985C75.817,18.07,84.1,40.259,85.445,69.345Z" transform="translate(-1002.023 5511.75)" fill="none" stroke="#000" stroke-linejoin="bevel" stroke-width="0.25"/><path d="M51.908,11.118c-.3-.079-.6-.158-.858-.236-.858-.236-1.754-.394-2.65-.552.858.118,1.754.276,2.575.473h0c.3.079.56.158.821.236.037,0,.037.039.075.079Z" transform="translate(-1030.024 5528.515)" fill="none" stroke="#000" stroke-linejoin="bevel" stroke-width="0.25"/><path d="M175.55,77.488c-1.493-28.337-9.815-50.487-25.078-63.3h-.037c-.56-.512-1.12-.946-1.679-1.419-.6-.434-1.157-.867-1.754-1.261l-.336-.236a49.432,49.432,0,0,0-9.031-4.927C123.714.438,105.95.162,84.305,6.744c-1.232.315-2.463.709-3.732,1.143C53.629,16.833,27.021,51.673,25.939,82.494a50.2,50.2,0,0,0,.075,11.114,38.528,38.528,0,0,0,3.247,12.06l.037.039c4.478,9.853,13.472,17.657,28.325,21.637l.075.039c15.674,5.715,34,2.956,49.9-4.69.746-.315,1.53-.67,2.276-1.064.187-.118.41-.2.6-.315.411-.2.821-.434,1.269-.67a80.558,80.558,0,0,0,12.054-8c1.978-1.537,3.881-3.192,5.672-4.887.6-.591,1.194-1.143,1.754-1.734,1.008-1.025,1.941-2.089,2.874-3.153.336,25.224-4.74,58.921-33.587,62.626-9.143,1.182-17.726-.512-23.623-6.424a24.825,24.825,0,0,1-6.12-10.759l-5.822,2.4L29.708,165.338c.149.788.3,1.576.485,2.365.187.709.373,1.419.56,2.089.075.236.149.473.224.67a17.2,17.2,0,0,0,.634,1.971c.037.118.075.2.112.315.037.039.037.118.075.158.187.552.411,1.1.634,1.616a38.334,38.334,0,0,0,1.717,3.547,19.608,19.608,0,0,0,1.269,2.128c.448.709.9,1.34,1.343,1.971H36.8c.373.552.784,1.064,1.157,1.537a4.641,4.641,0,0,1,.411.473c.411.473.784.867,1.157,1.3.56.591,1.157,1.143,1.754,1.695.336.315.672.591,1.008.906.485.434.97.828,1.493,1.222a31.137,31.137,0,0,0,4.217,2.877h0c12.95,7.646,30.713,8.789,47.432,6.306a3565.691,3565.691,0,0,1,.373-.079,3088.285,3088.285,0,0,1,.373-.079A106.752,106.752,0,0,0,129.2,187.842a77.161,77.161,0,0,0,21.234-16.79l.037-.079a75.116,75.116,0,0,0,6.307-8.04C167.6,147.169,173.2,127.62,175.027,107.4c.112-1.34.224-2.719.3-4.059.075-1.458.149-2.877.224-4.335,0-1.222.075-2.4.112-3.626.037-1.419.037-2.8.037-4.178.112-4.729.037-9.3-.187-13.755Zm-45.9-14.937c.075,1.261,0,2.522,0,3.744-.075,1.025-.187,2.049-.336,3.035a21.631,21.631,0,0,1-.448,2.246,29.454,29.454,0,0,1-1.082,3.665C122.445,90.337,106.4,98.652,92.777,96.958a12.473,12.473,0,0,1-1.269-.158,23.2,23.2,0,0,1-14.069-6.464,2.04,2.04,0,0,1-.485-.512c-4.292-4.532-6.717-11.351-5.859-20.731a2.785,2.785,0,0,1,0-.788v-1.34c.485-20.337,19.145-32.318,35.229-32.042A12.656,12.656,0,0,1,108.45,35c.672.079,1.343.118,2.015.236.858.118,1.754.276,2.575.473h0c.3.079.56.158.821.236a20.318,20.318,0,0,1,12.875,10.168h.037a19.522,19.522,0,0,1,1.008,2.207,24.957,24.957,0,0,1,1.455,5.005c.149.906.3,1.852.373,2.838a44.943,44.943,0,0,1,0,6.345Z" transform="translate(-1092.127 5503.606)" fill="#ee7cb7" stroke="#000" stroke-linejoin="bevel" stroke-width="0.25"/><path d="M86.928,32.49c0,.434-.037.867-.075,1.3,0,.434,0,.828-.037,1.261,0,.434,0,.867-.037,1.261-.933,20.731-20.227,32.318-36.386,30.426a23.743,23.743,0,0,1-4.7-.946,10.455,10.455,0,0,1-1.866-.631c-4.292-4.532-6.717-11.351-5.859-20.731V42.3C38.451,21.967,57.11,9.986,73.195,10.262a12.656,12.656,0,0,1,2.127.079c.672.079,1.343.118,2.015.236.9.158,1.791.315,2.65.552.261.079.56.158.858.236A21.952,21.952,0,0,1,86.48,23.819a12.9,12.9,0,0,1,.224,1.734,32.505,32.505,0,0,1,.187,6.937Z" transform="translate(-1058.999 5528.268)" fill="none" stroke="#000" stroke-linejoin="bevel" stroke-width="0.25"/><path d="M92.1,37.054c.075,1.261,0,2.522,0,3.744-.075,1.025-.187,2.049-.336,3.035a21.632,21.632,0,0,1-.448,2.246,29.447,29.447,0,0,1-1.082,3.665c-5.411,14.78-21.346,22.741-35.005,21.716a12.475,12.475,0,0,1-1.269-.158A23.2,23.2,0,0,1,39.9,64.84a2.04,2.04,0,0,1-.485-.512,10.454,10.454,0,0,0,1.866.631,23.741,23.741,0,0,0,4.7.946c16.159,1.892,35.453-9.7,36.386-30.426.037-.394.037-.828.037-1.261.037-.434.037-.828.037-1.261.037-.434.075-.867.075-1.3a32.506,32.506,0,0,0-.187-6.937,8.8,8.8,0,0,0-.224-1.734A21.952,21.952,0,0,0,76.468,10.53a20.866,20.866,0,0,1,12.8,10.089h.037a19.515,19.515,0,0,1,1.008,2.207,24.954,24.954,0,0,1,1.455,5.005c.149.906.3,1.852.373,2.838a44.945,44.945,0,0,1,0,6.345Z" transform="translate(-1054.584 5529.103)" fill="#226bbd" stroke="#000" stroke-linejoin="bevel" stroke-width="0.25"/><path d="M78.655,20.48C73.318,35.575,57.271,43.891,43.65,42.2,57.309,43.221,73.244,35.26,78.655,20.48Z" transform="translate(-1043.001 5558.368)" fill="#d9f2ff" stroke="#000" stroke-linejoin="bevel" stroke-width="0.25"/><path d="M64.708,21.208a20.866,20.866,0,0,0-12.8-10.089c-.3-.079-.6-.158-.858-.236-.858-.236-1.754-.394-2.65-.552.858.118,1.754.276,2.575.473h0c.3.079.56.158.821.236A20.318,20.318,0,0,1,64.671,21.208Z" transform="translate(-1030.024 5528.515)" fill="#d9f2ff" stroke="#000" stroke-linejoin="bevel" stroke-width="0.25"/><path d="M78.655,20.48C73.318,35.575,57.271,43.891,43.65,42.2,57.309,43.221,73.244,35.26,78.655,20.48Z" transform="translate(-1043.001 5558.368)" fill="#8bd4fa" stroke="#000" stroke-linejoin="bevel" stroke-width="0.25"/><path d="M64.708,21.208a20.866,20.866,0,0,0-12.8-10.089c-.3-.079-.6-.158-.858-.236-.858-.236-1.754-.394-2.65-.552.858.118,1.754.276,2.575.473h0c.3.079.56.158.821.236A20.318,20.318,0,0,1,64.671,21.208Z" transform="translate(-1030.024 5528.515)" fill="#8bd4fa" stroke="#000" stroke-linejoin="bevel" stroke-width="0.25"/><path d="M51.05,10.882c-.858-.236-1.754-.394-2.65-.552.858.118,1.754.276,2.575.473h0l.037.079Z" transform="translate(-1030.024 5528.515)" fill="none" stroke="#000" stroke-linejoin="bevel" stroke-width="0.25"/></g></svg>