<svg xmlns="http://www.w3.org/2000/svg" width="240.206" height="192.218" viewBox="0 0 240.206 192.218"><g transform="translate(1523.912 -5540.67)"><path d="M128.217,41.546,113.978,28.92,0,77.217,18.716,93.7,93.007,62.166c-6.025,31.7,15.552,62.8,43.356,90.42L174.8,136.1c-29.252-28.89-52.781-61.309-46.588-94.61h0Z" transform="matrix(0.996, 0.087, -0.087, 0.996, -1510.614, 5559.726)" opacity="0.08"/><path d="M39.09,55.817,82.131,49.58l9.52,5.252L48.574,61.106,39.09,55.817Z" transform="translate(-1421.162 5671.623)" fill="none" stroke="#000" stroke-linejoin="bevel" stroke-width="0.25"/><path d="M83.554,10.586C51.966,53.153,41.68,107.283,39.09,159.151l9.484,5.252C51.163,112.463,61.486,58.26,93.11,15.657L83.554,10.55h0Z" transform="translate(-1421.162 5568.289)" fill="#226bbd" stroke="#000" stroke-linejoin="bevel" stroke-width="0.25"/><path d="M28.54,22.232,111.485,10.56l9.557,5.107L38.024,27.375,28.54,22.232Z" transform="translate(-1449.094 5568.315)" fill="none" stroke="#000" stroke-linejoin="bevel" stroke-width="0.25"/><path d="M28.53,4.99l.036,31.989,9.484,5.143V10.1L28.53,4.99Z" transform="translate(-1449.12 5553.568)" fill="#226bbd" stroke="#000" stroke-linejoin="bevel" stroke-width="0.25"/><path d="M155.72.12,28.53,17.884l9.52,5.107L165.313,5.19,155.72.12Z" transform="translate(-1449.12 5540.674)" fill="#226bbd" stroke="#000" stroke-linejoin="bevel" stroke-width="0.25"/><path d="M93.868,10.421,96.494,6.81l9.593,5.07C72.931,56.709,63.01,113.574,60.42,168.068l-9.52-5.252c2.517-52.962,11.927-108.15,43-152.395h0Z" transform="translate(-1389.895 5558.387)" fill="none" stroke="#000" stroke-linejoin="bevel" stroke-width="0.25"/><path d="M158.367,25.949V1.51L31.14,19.31V51.336l83.018-11.672c-31.624,42.6-41.947,96.806-44.537,148.747l43.078-6.274c2.626-54.494,12.548-111.36,45.667-156.188h0Z" transform="translate(-1442.21 5544.354)" fill="#ee7cb7" stroke="#000" stroke-linejoin="bevel" stroke-width="0.25"/></g></svg>