<svg xmlns="http://www.w3.org/2000/svg" width="212.951" height="190.966" viewBox="0 0 212.951 190.966"><g transform="translate(1649.191 -5562.375)"><path d="M210.519,98.192A28.876,28.876,0,0,0,208.9,95.6l-4.167-5.335-1.081-1.216c-.191-.2-.382-.431-.573-.588h0a.827.827,0,0,0-.159-.2c-1.081-1.177-2.163-2.275-3.276-3.373-.509-.431-.986-.9-1.527-1.334a9.7,9.7,0,0,0-.986-.863l-.064-.078s-.223-.2-.318-.275a2.1,2.1,0,0,0-.509-.431c-1.018-.863-2.131-1.726-3.244-2.51-.668-.51-1.368-1.059-2.067-1.53a2.738,2.738,0,0,1-.445-.275c-.7-.471-1.4-.941-2.1-1.373-.032,0-.127-.078-.159-.078a57.44,57.44,0,0,0-5.089-2.9.614.614,0,0,0-.223-.118c-.6-.353-1.272-.667-1.94-.981a8.768,8.768,0,0,0-1.018-.51c-.636-.314-1.272-.628-1.94-.9-1.463-.628-2.958-1.255-4.485-1.8H173.5c-.509-.235-1.018-.392-1.527-.588-.636-.275-1.272-.471-1.94-.706q-1.67-.53-3.244-1.059c-.032,0-.1-.039-.127-.039a.164.164,0,0,1-.127-.039c-.509-.118-1.081-.314-1.59-.431-.541-.157-1.145-.314-1.749-.471h-.064a.933.933,0,0,0-.191-.039c-1.3-.353-2.608-.667-3.944-.941h-.064s-.191-.078-.318-.118c-1.145-.235-2.29-.471-3.435-.667a2.321,2.321,0,0,0-.477-.078c-1.145-.235-2.29-.392-3.531-.588a3.524,3.524,0,0,1-.636-.078c-1.018-.157-2.131-.314-3.212-.431-1.145-.118-2.258-.235-3.371-.314h-.509a7.315,7.315,0,0,0-.922-.078h-.223l-1.431-.118h-.032l-3.4-.118c-1.018-.039-2-.078-3.022-.078h-.382c-1.336,0-2.735,0-4.1.039-.191,0-.318.039-.509.039H128.3c-.35,0-.7.039-1.018.039-1.113.039-2.226.118-3.34.2s-2.195.2-3.276.314c-1.145.118-2.226.2-3.34.353s-2.163.275-3.244.431h-.032c-1.463.235-2.926.51-4.357.785-1.209.2-2.449.471-3.658.745h-.064c-.8.2-1.622.392-2.417.588a8.3,8.3,0,0,1-.859.2c-.573.157-1.177.314-1.718.471-.859.235-1.718.471-2.545.745-.859.235-1.686.51-2.513.785s-1.654.549-2.481.863c-2.385.863-4.739,1.765-6.966,2.824l-.286.118A61.568,61.568,0,0,0,79.7,74.931a40.767,40.767,0,0,0-3.976,2.628c-.573.392-1.113.785-1.654,1.216a44.425,44.425,0,0,0-4.676,4.276,20.01,20.01,0,0,0-1.908,2.275,26.507,26.507,0,0,0-1.654,2.354c-.509.824-.954,1.648-1.368,2.432-.891-.9-1.813-1.883-2.735-2.864-.445-.471-.954-.981-1.4-1.491-.541-.549-1.05-1.138-1.559-1.726-.191-.2-.286-.353-.445-.51l-.286-.353c-.159-.235-.382-.432-.573-.667-.573-.745-1.145-1.412-1.718-2.157-.668-.824-1.3-1.648-1.908-2.51,0-.039-.064-.078-.127-.157-.6-.9-1.24-1.8-1.845-2.667-.413-.667-.827-1.334-1.209-2-.032,0-.032-.078-.064-.078-.254-.432-.509-.863-.7-1.255-.032-.078-.1-.157-.127-.235-.382-.745-.732-1.491-1.081-2.2-.286-.588-.509-1.216-.763-1.8-.1-.275-.191-.51-.286-.745a21.211,21.211,0,0,1-.6-2.2,13.809,13.809,0,0,1-.477-2.432v-.118a12.44,12.44,0,0,1-.064-2.432,7.4,7.4,0,0,1,.127-1.177,5.589,5.589,0,0,1,.127-.785c.1-.392.191-.745.286-1.1a4.229,4.229,0,0,1,.286-.824c0-.078.064-.118.1-.2.1-.275.286-.588.413-.863a7.537,7.537,0,0,1,.6-1.02,5.757,5.757,0,0,1,.732-1.1A12.412,12.412,0,0,1,50.246,51.2c.318-.314.636-.588.954-.863,0-.039.064-.078.1-.118a13.713,13.713,0,0,1,1.686-1.255,6.069,6.069,0,0,1,.636-.431,21.662,21.662,0,0,1,2.354-1.294c.509-.275,1.05-.51,1.686-.785.477-.2.986-.392,1.495-.628.6-.2,1.24-.392,1.877-.628.827-.275,1.686-.51,2.576-.785a62.755,62.755,0,0,1,10.083-1.844h.159c.445-.078.891-.118,1.336-.157h.573a18.561,18.561,0,0,1,2.131-.118,1.961,1.961,0,0,1,.477-.039c.859-.039,1.718-.039,2.576-.039.032,0,.064.039.064.039h.064c.827-.039,1.622,0,2.481.039s1.813.078,2.735.157c.6.078,1.177.118,1.749.2h.413c.954.118,1.877.275,2.831.431.159,0,.382.078.541.078.668.157,1.4.275,2,.392.127,0,.223.078.318.078l.127.039c.191.039.382.078.6.118.477.157.954.235,1.431.353.064.039.127.039.191.078.159.039.223.039.35.078.413.118.827.275,1.24.353.827.275,1.686.549,2.481.824h.064a48.212,48.212,0,0,1,9.256,4.472l4.612-2.236h.064l8.27-4.08h.032L146.842,31.9c-.7-.51-1.368-.981-2.036-1.451-.732-.471-1.463-.941-2.163-1.412-.7-.392-1.4-.824-2.1-1.255-.35-.2-.7-.392-1.05-.549,0-.039-.032-.039-.064-.039a75.833,75.833,0,0,0-13.868-5.727,82.541,82.541,0,0,0-8.938-2.236,106.036,106.036,0,0,0-11.832-1.765c-1.336-.157-2.735-.235-4.039-.353-2.545-.157-5.057-.235-7.634-.235-3.467-.039-6.934.078-10.369.314A181.372,181.372,0,0,0,47.924,22.72a131.243,131.243,0,0,0-22.9,8.081C14.59,35.7,7.72,41.627,3.872,48.257-2.967,59.75-.422,73.479,9.024,87.954c21.151,32.44,60.5,58.447,105.025,63.625,1.59.2,3.181.353,4.707.471,2.226.2,4.453.314,6.679.392,1.209,0,2.385.078,3.594,0a135.8,135.8,0,0,0,42.875-6.512c1.081-.314,2.195-.706,3.276-1.1a73.2,73.2,0,0,0,10.051-6.708,9.62,9.62,0,0,0,1.209-.941c.032-.039.064-.039.1-.078a64.987,64.987,0,0,0,18.416-22.634,70.849,70.849,0,0,0,5.63-16.24l-.064-.078Zm-93.7-11.807,1.431-.118a9.452,9.452,0,0,1,1.05-.078q1.861-.118,3.721-.118a32.691,32.691,0,0,1,3.785,1.138c.032-.039.064,0,.1.039a37.546,37.546,0,0,1,8.047,3.766,13.087,13.087,0,0,1,1.654,1.1,30.948,30.948,0,0,1,5.025,4.55l1.24,1.216a8.006,8.006,0,0,1,.732.745,4.95,4.95,0,0,1,.382.471c.509.549.986,1.059,1.431,1.569.223.235.414.51.6.745,3.149,4.276,3.594,8.277,2.1,11.768a2.308,2.308,0,0,1-.223.51,16.731,16.731,0,0,1-5.693,6.276,2.318,2.318,0,0,0-.382.275c-4.294,2.9-10.178,5.021-16.762,6.159a57.137,57.137,0,0,1-9.065.588A46.97,46.97,0,0,1,94.52,115.059l-.35-.353a19.733,19.733,0,0,1-1.368-1.53c-3.562-4.315-4.357-8.394-3.181-12,2.513-7.688,13.963-13.337,27.195-14.788Z" transform="translate(-1649.195 5599.014)" opacity="0.08"/><path d="M36.191,50.408c.389.295.778.589,1.2.884-1.414-.663-2.829-1.4-4.208-2.172l-.212-.11a.139.139,0,0,1-.141-.074,5.737,5.737,0,0,1-.6-.405c.071.037.177.074.248.11a.035.035,0,0,0,.035.037C33.715,49.3,34.953,49.856,36.191,50.408Z" transform="translate(-1591.004 5692.25)" fill="#b3e5ff" stroke="#000" stroke-linejoin="bevel" stroke-width="0.25"/><path d="M157.972,103.792c-1.132-14.839-7.072-25.259-15.665-32.035,0-.037-.071-.074-.106-.074h-.035a43.252,43.252,0,0,0-18.883-8.1c-.743-.147-1.45-.258-2.192-.368-.6-.11-1.2-.184-1.768-.258-.884-.11-1.768-.184-2.688-.258a50.3,50.3,0,0,0-7.815-.074c-.849.037-1.7.11-2.511.184A76.691,76.691,0,0,0,74.2,73.6l-2.228,1.436a24.332,24.332,0,0,0-2.228,1.547c-.566.442-1.167.884-1.733,1.326-.707.552-1.45,1.141-2.157,1.694a.122.122,0,0,0-.071.037c-.6.515-1.2,1.031-1.8,1.583-1.026.921-2.016,1.878-3.006,2.872-.884.921-1.768,1.878-2.617,2.835-.318-23.418,4.137-54.091,30.836-58.436a29.034,29.034,0,0,1,3.006-.368,37.974,37.974,0,0,1,5.41-.037,26.952,26.952,0,0,1,9.017,2.246A18.016,18.016,0,0,1,109.1,31.7a1.994,1.994,0,0,1,.46.295,9.717,9.717,0,0,1,.99.7c.283.221.566.442.849.7.283.221.566.479.849.736h.071a14.417,14.417,0,0,1,1.238,1.326,22.388,22.388,0,0,1,2.263,3.13c.318.589.637,1.178.955,1.8a6.921,6.921,0,0,1,.6,1.4.5.5,0,0,1,.106.295c.106.221.177.479.283.736l.035.074c.212.516.354,1.031.53,1.583l5.658-2.32,33.064-13.44c-.141-.736-.283-1.473-.46-2.209a35.049,35.049,0,0,0-12.978-20.51C131.38.986,116.1.655,102.136,2.827A103.424,103.424,0,0,0,80.246,8.645,74.256,74.256,0,0,0,53.159,26.761c-12.8,13.366-20.439,31.372-23.693,51.7C22.182,123.97,32.3,164.842,60.479,180.122a33.536,33.536,0,0,0,3.041,1.51c18.53,3.866,39-.331,56.12-10.163.5-.295,1.026-.552,1.556-.884,19.874-11.783,34.9-31.225,36.812-54.275.035-.037.035-.074,0-.147.071-.552.071-1.1.106-1.694v-1.8c.106-2.025.106-4.014.035-5.891-.035-1.031-.106-2.025-.177-3.019Zm-40.03,15.281c0,.773,0,1.51-.035,2.246l-.106,1.1c-1.98,17.122-17.893,27.4-32.144,27.763a24.98,24.98,0,0,1-6.86-1.031c-4.208-4.2-6.931-10.568-7.072-19.4v-.515c0-20.694,19.7-32.808,35.645-31.7a16.854,16.854,0,0,1,1.91.221,22.433,22.433,0,0,1,2.723.589,18.97,18.97,0,0,1,5.092,8.616,13.677,13.677,0,0,1,.424,1.731,29.949,29.949,0,0,1,.424,6.812v1.8a5.422,5.422,0,0,1,.071,1.068A5.229,5.229,0,0,1,117.942,119.073Z" transform="translate(-1603.799 5566.255)" fill="#226bbd" stroke="#000" stroke-linejoin="bevel" stroke-width="0.25"/><path d="M137.11,9.856C124.874,4.848,109.6,4.517,95.63,6.689a103.424,103.424,0,0,0-21.889,5.818A74.256,74.256,0,0,0,46.653,30.623a49.617,49.617,0,0,0-7.78,8.616l-7.815-4.419-1.308-.736A57.789,57.789,0,0,1,40.96,22.523c.035-.037.035-.074.071-.074A58.2,58.2,0,0,1,53.761,12.4c9.194-5.265,22.1-9.537,35.5-11.341.106-.037.212-.037.318-.074,15.17-1.952,30.977-.773,42.788,5.781a.122.122,0,0,0,.071.037,41.4,41.4,0,0,1,4.668,3.056Z" transform="translate(-1597.294 5562.43)" fill="#226bbd" stroke="#000" stroke-linejoin="bevel" stroke-width="0.25"/><path d="M37.393,51.292a43.341,43.341,0,0,0,3.961,2.5,38.034,38.034,0,0,1-3.43-1.767,1.627,1.627,0,0,1-.354-.184c-.389-.221-.743-.405-1.132-.626-.5-.295-.99-.589-1.485-.921a8.873,8.873,0,0,1-.778-.479,11.476,11.476,0,0,1-1.2-.81.139.139,0,0,1-.141-.074,5.734,5.734,0,0,1-.6-.405c.071.037.177.074.248.11a.035.035,0,0,0,.035.037c1.2.626,2.44,1.178,3.678,1.731C36.58,50.7,36.969,51,37.393,51.292Z" transform="translate(-1591.004 5692.25)" fill="#b3e5ff" stroke="#000" stroke-linejoin="bevel" stroke-width="0.25"/><path d="M143.429,37.385a59.149,59.149,0,0,1-.707,7.622,55.534,55.534,0,0,1-1.485,7c-4.173,15.281-13.968,27.653-26.663,36.564-.035.037-.071.037-.106.074a10.666,10.666,0,0,1-1.344.884A82.32,82.32,0,0,1,99.509,96.41c-.424.147-.813.331-1.2.442-18.671,7.254-34.549,8.874-47.668,6.112a52.377,52.377,0,0,1-11-3.572,33.534,33.534,0,0,1-3.041-1.51c19.237,4.455,41.02.957,59.161-8.653.5-.295,1.025-.552,1.556-.884,17.61-9.795,31.472-25.554,35.645-45.474h0a60.446,60.446,0,0,0,1.167-8.8c.035-.037.035-.074,0-.147.071-.552.071-1.1.106-1.694l9.194,5.155Z" transform="translate(-1579.921 5648.531)" fill="#b3e5ff" stroke="#000" stroke-linejoin="bevel" stroke-width="0.25"/><path d="M145.682,153.386a83.873,83.873,0,0,1-11.174,6.3c-17.115,8.064-37.166,10.789-55.306,7.107a73.4,73.4,0,0,1-16.373-5.413,43.341,43.341,0,0,1-3.961-2.5c-.424-.295-.813-.589-1.2-.884-1.238-.552-2.475-1.1-3.678-1.731h-.035c-.071-.037-.177-.074-.248-.11a5.734,5.734,0,0,0,.6.405c-.672-.368-1.308-.773-1.945-1.178C33.8,143.7,25.132,121.351,23.93,96.534a140.584,140.584,0,0,1,2.4-33.139c.106-.479.177-.994.283-1.473a145.656,145.656,0,0,1,5.128-22.056,104.522,104.522,0,0,1,13.19-27.984l1.308.736,7.815,4.419a49.617,49.617,0,0,1,7.78-8.616A85.232,85.232,0,0,0,43.273,39.571a115.065,115.065,0,0,0-5.128,20.546c-.177,1.215-.389,2.43-.53,3.609a173.233,173.233,0,0,0-1.733,26.99,124.8,124.8,0,0,0,3.5,27.984,90.32,90.32,0,0,0,3.536,11.267c5.516,14.176,14.216,25.3,26.239,31.814a33.528,33.528,0,0,0,3.041,1.51,52.376,52.376,0,0,0,11,3.572c13.119,2.762,29,1.141,47.668-6.112.389-.11.778-.295,1.2-.442a82.32,82.32,0,0,0,13.614-6.886Z" transform="translate(-1612.479 5584.669)" fill="#226bbd" stroke="#000" stroke-linejoin="bevel" stroke-width="0.25"/><path d="M41.151,53.688a38.034,38.034,0,0,1-3.43-1.767,1.627,1.627,0,0,1-.354-.184c-.389-.221-.743-.405-1.132-.626-.5-.295-.99-.589-1.485-.921a8.874,8.874,0,0,1-.778-.479c-.318-.221-.672-.442-.99-.7a7.009,7.009,0,0,1-.672-.442c1.2.626,2.44,1.178,3.678,1.731.389.295.778.589,1.2.884a43.341,43.341,0,0,0,3.961,2.5Z" transform="translate(-1590.801 5692.357)" fill="#b3e5ff" stroke="#000" stroke-linejoin="bevel" stroke-width="0.25"/><path d="M83.507,1.91C64.871,5.924,46.412,14.982,34.53,25.844A74.256,74.256,0,0,1,61.617,7.728,103.424,103.424,0,0,1,83.507,1.91Z" transform="translate(-1585.17 5567.209)" fill="#8bd4fa" stroke="#000" stroke-linejoin="bevel" stroke-width="0.25"/><path d="M52.96,24.7,91.682,8.94l9.23,5.081-38.757,15.8L52.96,24.7Z" transform="translate(-1538.428 5586.064)" fill="none" stroke="#000" stroke-linejoin="bevel" stroke-width="0.25"/><path d="M36,67.667c-.283-23.418,4.137-54.091,30.836-58.436,12.836-2.1,25.072,2.1,29.174,16.017l9.194,5.118c-4.1-13.918-16.337-18.116-29.174-16.054-26.7,4.345-31.154,35.054-30.871,58.472L36,67.593h0Z" transform="translate(-1581.476 5585.479)" fill="#226bbd" stroke="#000" stroke-linejoin="bevel" stroke-width="0.25"/><path d="M64.2,33.507l.071-1.767,9.194,5.192L73.43,38.7,64.2,33.507Z" transform="translate(-1509.921 5647.217)" fill="none" stroke="#000" stroke-linejoin="bevel" stroke-width="0.25"/><path d="M135.817,68.319C138.081,6.569,67.392,6.5,35.99,42.507L45.149,47.7c31.4-36.048,102.161-35.975,99.9,25.812l-9.23-5.192Z" transform="translate(-1581.468 5610.639)" fill="none" stroke="#000" stroke-linejoin="bevel" stroke-width="0.25"/><path d="M87.11,32.408a.507.507,0,0,1,.106.074,2.564,2.564,0,0,0-.566-.147,22.432,22.432,0,0,0-2.723-.589,16.849,16.849,0,0,0-1.91-.221c-16.2-1.362-36.317,10.789-35.645,31.7v.516l-9.159-5.192C35.906,30.6,72.859,17.458,87.11,32.408Z" transform="translate(-1578.448 5632.263)" fill="none" stroke="#000" stroke-linejoin="bevel" stroke-width="0.25"/><path d="M65.935,51.888l-9.088-5.118L56.74,46.7v-1.8a32.013,32.013,0,0,0-.46-6.812,13.676,13.676,0,0,0-.424-1.731A18.564,18.564,0,0,0,51.33,27.88,19.445,19.445,0,0,1,65.581,43.64,31.1,31.1,0,0,1,65.935,51.888Z" transform="translate(-1542.562 5636.864)" fill="none" stroke="#000" stroke-linejoin="bevel" stroke-width="0.25"/><path d="M51.524,58.894a5.21,5.21,0,0,0,.778.773c-9.265-2.541-16.125-10.384-15.029-24.6v-.11l9.159,5.192C45.76,48.547,47.846,54.7,51.524,58.894Z" transform="translate(-1578.507 5655.854)" fill="none" stroke="#000" stroke-linejoin="bevel" stroke-width="0.25"/><path d="M91.018,38.155c.035,1.141.035,2.246,0,3.351-1.1,18.521-18.247,29.6-33.24,29.6h-.99c-5.905-.184-11.422-2.136-15.347-6.149a9.512,9.512,0,0,0,1.768.405,25.4,25.4,0,0,0,6.294.516c14.251-.368,30.164-10.641,32.144-27.763l.106-1.1c.071-.957.106-1.952.106-2.946,0-.368,0-.7-.035-1.068l.106.074,9.088,5.118Z" transform="translate(-1567.645 5650.597)" fill="none" stroke="#000" stroke-linejoin="bevel" stroke-width="0.25"/><path d="M167.29,109.767c-.035-.442-.071-.884-.106-1.289v-.516a4.221,4.221,0,0,0-.071-.663c-.141-1.289-.354-2.577-.566-3.829-.141-.773-.283-1.583-.46-2.32l-.106-.442c-.177-.736-.354-1.473-.566-2.172,0-.037-.035-.11-.035-.147a38.544,38.544,0,0,0-1.627-4.713c-.035-.074-.035-.11-.071-.184-.212-.552-.46-1.1-.707-1.62a6.1,6.1,0,0,0-.389-.847l-.743-1.547a42.051,42.051,0,0,0-2.652-4.234c-.283-.442-.6-.847-.919-1.252q-.8-1.049-1.591-1.988c-.318-.331-.637-.7-.955-.994a11.526,11.526,0,0,0-.919-.957h-.035s-.071-.11-.106-.11c-.707-.7-1.414-1.362-2.157-1.988h-.035a.815.815,0,0,0-.177-.184c-.637-.552-1.308-1.068-1.98-1.547a1.233,1.233,0,0,0-.283-.184c-.672-.516-1.379-.957-2.122-1.436-.141-.074-.248-.147-.389-.221-.637-.405-1.308-.81-2.016-1.178-1.025-.515-2.051-1.031-3.112-1.473-.035-.037-.071-.074-.106-.074h-.035c-.318-.147-.637-.295-.955-.405h-.035c-.778-.295-1.556-.589-2.334-.847-.672-.258-1.379-.479-2.086-.7a.412.412,0,0,1-.283-.074c-.955-.258-1.945-.515-2.935-.736-.141-.037-.248-.037-.389-.074-.5-.11-1.061-.221-1.591-.295-.813-.147-1.662-.295-2.511-.405s-1.7-.184-2.546-.258c-.884-.074-1.733-.147-2.617-.184s-1.733-.074-2.617-.074h-.035q-1.8,0-3.607.11c-1.025.037-2.086.147-3.147.258h-.035c-.707.074-1.414.147-2.122.258-.248.037-.53.074-.778.11-.5.074-1.026.147-1.521.258q-1.167.166-2.334.442c-.778.147-1.556.331-2.334.516s-1.556.368-2.334.589c-2.4.663-4.809,1.436-7.214,2.357a74.265,74.265,0,0,0-7,3.13A72.759,72.759,0,0,0,75.95,83.992c-1.026.81-1.98,1.657-2.935,2.541-.955.847-1.91,1.767-2.794,2.688-.919.921-1.8,1.878-2.652,2.835,0-1.362,0-2.762.035-4.2,0-.7,0-1.473.035-2.209,0-.81.035-1.657.071-2.5v-.11c0-.221.035-.405.035-.626V81.93c.035-.331.035-.663.071-.994.071-1.031.141-2.025.248-3.056h0c.106-1.215.212-2.393.354-3.572a.566.566,0,0,0,.035-.258l.53-3.756c.141-.921.318-1.841.5-2.762v-.147c.106-.589.212-1.178.354-1.731.035-.11.035-.221.071-.331q.371-1.546.743-2.983a.381.381,0,0,0,.035-.11c.212-.81.424-1.583.672-2.357.106-.368.212-.7.318-1.031.318-.994.672-1.952,1.061-2.909.424-1.1.849-2.172,1.344-3.2a.1.1,0,0,1,.071-.11c.5-1.068,1.025-2.1,1.627-3.13.283-.516.6-.994.919-1.51.212-.331.424-.663.637-.957.318-.479.637-.921.955-1.362.248-.331.5-.663.778-.994l.177-.184c.283-.368.6-.7.884-1.031.354-.405.743-.81,1.132-1.178a14.562,14.562,0,0,1,1.308-1.289,18.97,18.97,0,0,1,1.627-1.362c.424-.331.849-.626,1.273-.957.035-.037.106-.074.141-.11.672-.442,1.344-.884,2.086-1.289a7.381,7.381,0,0,1,.743-.405,27.193,27.193,0,0,1,2.546-1.178,14.105,14.105,0,0,1,1.733-.663c.5-.184.99-.331,1.521-.515.566-.147,1.167-.295,1.768-.442.778-.184,1.556-.331,2.369-.479a34.606,34.606,0,0,1,8.452-.405h.141a10.269,10.269,0,0,1,1.061.074c.141.037.283.037.424.074a17.887,17.887,0,0,1,1.945.331,15.5,15.5,0,0,1,1.874.442.036.036,0,0,1,.035.037h0a13.644,13.644,0,0,1,1.733.552,19.554,19.554,0,0,1,1.839.773c.46.221.919.442,1.379.7a17.369,17.369,0,0,1,1.733,1.1,1.656,1.656,0,0,1,.318.221c.389.295.813.589,1.167.884.071,0,.106.11.177.147l.071.074s.212.184.318.295c.248.258.53.479.778.736l.106.11.177.184c.212.221.424.479.637.7a15.879,15.879,0,0,1,1.2,1.51h.035a25.079,25.079,0,0,1,3.536,7.512l38.757-15.8c-.141-.773-.283-1.51-.46-2.209-.177-.773-.389-1.51-.566-2.246L164.6,27.4A34.988,34.988,0,0,0,146.25,7.219C145.4,6.777,144.482,6.372,143.6,6,131.362,1,116.086.665,102.118,2.837A103.424,103.424,0,0,0,80.228,8.655,74.256,74.256,0,0,0,53.141,26.771,85.232,85.232,0,0,0,34.576,57.922a115.065,115.065,0,0,0-5.128,20.546c-.177,1.215-.389,2.43-.53,3.608a173.232,173.232,0,0,0-1.733,26.99,124.8,124.8,0,0,0,3.5,27.984,90.32,90.32,0,0,0,3.536,11.267c5.517,14.176,14.216,25.3,26.239,31.814a33.529,33.529,0,0,0,3.041,1.51,52.376,52.376,0,0,0,11,3.572c13.119,2.762,29,1.141,47.668-6.112.389-.11.778-.295,1.2-.442a82.32,82.32,0,0,0,13.614-6.886,10.662,10.662,0,0,0,1.344-.884c.035-.037.071-.037.106-.074a64.424,64.424,0,0,0,20.475-21.246,59.906,59.906,0,0,0,6.259-15.244,63.831,63.831,0,0,0,1.415-7.07l.707-7.622.071-1.767c.071-1.988.071-3.94,0-5.781v-.295c-.035-.663-.071-1.362-.141-2.025ZM107.422,97.505a11.247,11.247,0,0,1,1.91.221,22.436,22.436,0,0,1,2.723.589,18.478,18.478,0,0,1,4.208,6.186,17.874,17.874,0,0,1,.884,2.43,13.677,13.677,0,0,1,.424,1.731,29.949,29.949,0,0,1,.424,6.812v1.8a5.422,5.422,0,0,1,.071,1.068,5.23,5.23,0,0,1-.071.7c0,.773,0,1.51-.035,2.246l-.106,1.1c-1.521,13.108-11.21,22.2-22.066,25.922A33.5,33.5,0,0,1,85.71,150.16a24.979,24.979,0,0,1-6.86-1.031c-4.208-4.2-6.931-10.568-7.072-19.4v-.516a31.581,31.581,0,0,1,.424-5.229c1.91-11.12,9.76-19.221,18.954-23.382a35.264,35.264,0,0,1,14.251-3.167c.672,0,1.344.037,2.016.074Z" transform="translate(-1603.852 5566.281)" fill="#ee7cb7" stroke="#000" stroke-linejoin="bevel" stroke-width="0.25"/><path d="M90.155,55.775C88.1,68.736,73.146,87.036,55.925,85.342A25.985,25.985,0,0,1,42.346,79.6a3.837,3.837,0,0,1-.566-.516,24.979,24.979,0,0,0,6.86,1.031C62.891,79.745,78.8,69.472,80.784,52.35l.106-1.1c.035-.736.035-1.473.035-2.246V45.428a32.013,32.013,0,0,0-.46-6.812,13.676,13.676,0,0,0-.424-1.731,18.97,18.97,0,0,0-5.092-8.616,22.429,22.429,0,0,0-2.723-.589,21.146,21.146,0,0,1,2.652.515,2.854,2.854,0,0,1,.53.147A19.526,19.526,0,0,1,85.452,34.6a21.85,21.85,0,0,1,4.314,9.574,33.776,33.776,0,0,1,.354,11.6Z" transform="translate(-1566.783 5636.328)" fill="#226bbd" stroke="#000" stroke-linejoin="bevel" stroke-width="0.25"/><path d="M75.864,34.38C74.308,52.165,58.148,62.512,43.72,62.143,57.971,61.775,73.884,51.5,75.864,34.38Z" transform="translate(-1561.863 5654.298)" fill="none" stroke="#000" stroke-linejoin="bevel" stroke-width="0.25"/></g></svg>