<svg xmlns="http://www.w3.org/2000/svg" width="228.427" height="183.879" viewBox="0 0 228.427 183.879"><g transform="translate(2016.781 -5604.049)"><path d="M173.232,95.885s-.238.324-.374.468h0A11.52,11.52,0,0,0,170,92.935a6.181,6.181,0,0,0-.986-.719,9.42,9.42,0,0,0-1.054-.719c-.34-.216-.68-.432-1.088-.647-.374-.216-.782-.432-1.19-.647a22.011,22.011,0,0,0-2.583-1.115h-.034a24.565,24.565,0,0,0-2.855-1.007c-1.5-.468-3.059-.863-4.725-1.223-1.122-.252-2.277-.468-3.433-.647-1.767-.288-3.5-.539-5.37-.719h0c-2.719-.252-5.574-.432-8.429-.468-1.02-.036-1.971-.072-2.991-.072-1.156,0-2.311.036-3.5.072l-4.894-2.841-20.564,5.826L91.861,73.91c.476-.108,1.02-.216,1.53-.324,1.054-.252,2.107-.5,3.161-.827.544-.108,1.088-.288,1.632-.432.578-.18,1.088-.324,1.665-.5,1.665-.5,3.331-1.115,4.963-1.762.578-.216,1.088-.432,1.665-.683a13.137,13.137,0,0,0,1.632-.683,16.859,16.859,0,0,0,1.6-.719,32.531,32.531,0,0,0,3.127-1.546,32.481,32.481,0,0,0,2.889-1.618h.034a12.413,12.413,0,0,0,1.326-.863c.85-.539,1.7-1.115,2.481-1.726a25.631,25.631,0,0,0,2.957-2.733q.612-.7,1.122-1.4a7.482,7.482,0,0,0,.816-1.4,4.393,4.393,0,0,0,.374-.971,2.4,2.4,0,0,0,.17-.827,3.444,3.444,0,0,0,.1-.827,4.674,4.674,0,0,0-.1-1.187,5.638,5.638,0,0,0-.68-1.87,10.181,10.181,0,0,0-2.719-2.913c-.238-.18-.476-.36-.748-.539-.34-.216-.68-.432-1.088-.683a5.492,5.492,0,0,0-.646-.36,32.305,32.305,0,0,0-4.827-2.158c-.578-.216-1.122-.468-1.767-.647-.612-.216-1.292-.432-1.9-.611-2.039-.611-4.317-1.187-6.866-1.762a21.034,21.034,0,0,0-2.073-.4c-.612-.144-1.326-.252-1.937-.36-.578-.108-1.156-.18-1.631-.252-.442-.036-.884-.108-1.224-.108a8.366,8.366,0,0,0-.884-.108c-.918-.108-1.835-.18-2.787-.216-.442,0-.85-.036-1.292-.072-.646,0-1.258-.036-1.869,0-.068-.036-.136,0-.17,0-.578,0-1.19,0-1.835.036H88.02a55.971,55.971,0,0,0-6.186.539c-1.224.18-2.379.4-3.535.647-.578.108-1.156.252-1.7.4-.986.252-1.937.539-2.855.827-.136.072-.272.108-.408.18a21.47,21.47,0,0,0-2.651,1.007,27.08,27.08,0,0,0-3.5,1.654c-.476.288-.918.575-1.394.863a26.663,26.663,0,0,0-2.889,2.05,12.638,12.638,0,0,0-1.224,1.115A13.9,13.9,0,0,0,60.284,50.6a3.6,3.6,0,0,0-.646.827A11.758,11.758,0,0,0,57.7,55.064a9.659,9.659,0,0,0-.442,1.906,8.978,8.978,0,0,0-.034,1.906,4.773,4.773,0,0,0,.136.971,3.12,3.12,0,0,0,.2.755,8.732,8.732,0,0,0,.306.863,6.206,6.206,0,0,0,.544,1.187,7.935,7.935,0,0,0,.578.9,10.353,10.353,0,0,0,1.5,1.8L7.125,74.09A28.223,28.223,0,0,1,4.3,70.6c-.17-.252-.374-.468-.51-.719A23.153,23.153,0,0,1,2.5,67.8c-.374-.683-.714-1.4-1.02-2.086a16.98,16.98,0,0,1-1.19-4.1c-.1-.611-.2-1.223-.272-1.87,0-.575-.034-1.187,0-1.762.068-.5.136-1.007.2-1.546A10.355,10.355,0,0,1,.5,55.1c.1-.4.238-.827.374-1.223a21.7,21.7,0,0,1,2.923-5.826c.306-.468.68-.935,1.054-1.4.408-.5.816-1.007,1.292-1.511.1-.072.17-.18.306-.288a7.776,7.776,0,0,1,.918-.935c.442-.468.952-.9,1.462-1.367,7.138-6.222,21.481-12.911,38.816-18.054A216.572,216.572,0,0,1,88.9,16.51c-.068.683-.1,1.4-.136,2.122L97.537,23.7l39.734-1.187a17.9,17.9,0,0,1,.2-2.661c.782.216,1.5.432,2.209.647a70.588,70.588,0,0,1,20.428,9.531,51.786,51.786,0,0,1-17.233,5.395v22.91l8.8,5.071c.782-.18,1.6-.324,2.379-.432a31.7,31.7,0,0,1,3.671-.36h.408a32.418,32.418,0,0,1,3.739,0,6.985,6.985,0,0,1-1.02.539,38.786,38.786,0,0,1-4.657,2.122l3.025,2.949q1.733-.27,3.467-.432c.748-.072,1.53-.18,2.277-.216,1.224-.108,2.413-.18,3.637-.252.782,0,1.5-.036,2.243-.036.918-.036,1.767-.036,2.685-.036h.034c.816,0,1.631,0,2.413.072h.306c5.506,6.582,6.152,16.328-3.025,28.592Z" transform="translate(-2016.787 5645.226)" opacity="0.08"/><path d="M31.27,40.542,51.641,34.77l4.849,2.815h-.438a.116.116,0,0,1-.067.036c-2.323.071-4.579.214-6.8.428-3.2.285-6.263.677-9.226,1.211a2.884,2.884,0,0,0-.539.107c-1.616.249-3.165.57-4.714.926-.976.249-1.987.5-2.929.748l-.505-.5Z" transform="translate(-1941.09 5692.771)" fill="#d9f2ff" stroke="#000" stroke-linejoin="bevel" stroke-width="0.25"/><path d="M34.8,24.174,26.11,19.15c.034-.713.067-1.425.135-2.1,3.131-.285,6.263-.5,9.361-.606,3.2-.143,6.4-.178,9.563-.107a122.9,122.9,0,0,1,17.61,1.532c.37.071.774.107,1.145.178.774.143,1.515.285,2.29.392,2.828.57,5.522,1.176,8.115,1.924h.034a17.736,17.736,0,0,0-.2,2.636L34.8,24.174Z" transform="translate(-1953.304 5645.436)" fill="#d9f2ff" stroke="#000" stroke-linejoin="bevel" stroke-width="0.25"/><path d="M50.751,53.333,42.03,48.309V25.614A51.3,51.3,0,0,0,59.1,20.27a37.521,37.521,0,0,1,6.7,5.95c7.1,8.123,7.206,17.137-1.246,23.8a12.035,12.035,0,0,1-1.044.819,3.079,3.079,0,0,1-.269.178,16.912,16.912,0,0,1-1.919,1.247l-.4.214-.067.036a32.112,32.112,0,0,0-3.7,0h-.4a31.4,31.4,0,0,0-3.636.356c-.774.107-1.583.249-2.357.428Z" transform="translate(-1915.62 5655.61)" fill="#d9f2ff" stroke="#000" stroke-linejoin="bevel" stroke-width="0.25"/><path d="M95.877,74.568a181.273,181.273,0,0,1-32.762-1.176c-1.111-.107-2.189-.285-3.232-.428a8.607,8.607,0,0,1-1.077-.178h-.067c-14.075-2.316-26.87-6.556-36.9-13.254-.64-.428-1.347-.926-1.987-1.389-.3-.214-.572-.392-.842-.606-.438-.321-.909-.677-1.313-1.033-.774-.606-1.515-1.211-2.222-1.853l36.5-11.828c4.074,10.546,11.617,17.529,21.078,21.7A38.082,38.082,0,0,1,59.007,42.61,40.692,40.692,0,0,0,73.149,64.557h.034a3.934,3.934,0,0,0,.572.5c.572.428,1.145.855,1.785,1.247a53.907,53.907,0,0,0,20.337,8.266Z" transform="translate(-1978.491 5712.863)" opacity="0.08"/><path d="M162.476,53.646c-2.66,14.786-11.953,27.042-24.445,35.984-.606.463-1.246.891-1.886,1.318C118.3,98.786,94.258,104.095,70.217,105.27A53.907,53.907,0,0,1,49.88,97c-.64-.392-1.212-.819-1.785-1.247-.2-.143-.4-.321-.572-.463h-.034A40.921,40.921,0,0,1,33.347,73.312,38.082,38.082,0,0,0,47.388,95.223c-9.462-4.168-17-11.152-21.078-21.7l2.189-.713,4.411-1.425,4.445-1.461a19.772,19.772,0,0,0,2.963,2.28,11.483,11.483,0,0,0,1.246.891c.37.214.707.428,1.145.641a9.463,9.463,0,0,0,1.448.784,5.241,5.241,0,0,0,1.077.57c.37.178.808.392,1.246.57.438.214.976.428,1.448.641.37.143.774.285,1.212.463.606.249,1.28.463,1.919.677q2.677.909,5.556,1.6c.976.249,1.987.463,2.963.641h.034c1.28.249,2.559.463,3.872.677,2.155.285,4.411.534,6.667.677,1.145.036,2.323.107,3.5.107,2.323.071,4.647,0,6.9-.107A77.525,77.525,0,0,0,90.891,79.69a54.929,54.929,0,0,0,6.2-1.71,35.212,35.212,0,0,0,5.185-2.28c.875-.5,1.684-1.033,2.458-1.568.438-.356.842-.713,1.246-1.069.034,0,.034-.036.067-.071a10.832,10.832,0,0,0,2.02-2.351,6.964,6.964,0,0,0,.741-1.283c.3-.641.539-1.283.774-1.888a9.958,9.958,0,0,0,.4-1.817,6.492,6.492,0,0,0,.168-1.6,7.591,7.591,0,0,0-.2-1.96,3.356,3.356,0,0,0-.3-1.14c.034-.107-.034-.178-.034-.214a6.744,6.744,0,0,0-.64-1.318h0s.236-.321.37-.463c9.091-12.149,8.451-21.8,3-28.324a8.749,8.749,0,0,1,1.347.071h.168c.505,0,.976.036,1.482.071h.034c.471.036.976.107,1.448.143,1.044.071,2.054.178,3.03.285.976.143,1.886.249,2.828.392.606.107,1.279.214,1.886.321.909.178,1.785.321,2.66.534.875.178,1.751.356,2.626.606a28,28,0,0,1,2.963.784,8.7,8.7,0,0,1,1.448.428,2.12,2.12,0,0,1,.505.143c.842.249,1.684.534,2.458.819.707.249,1.414.5,2.088.784,1.145.428,2.189.891,3.266,1.354.875.428,1.717.819,2.593,1.247.1.036.135.107.236.143.842.428,1.616.855,2.424,1.318.741.463,1.448.855,2.189,1.318a.5.5,0,0,0,.2.178c.808.5,1.549,1.033,2.256,1.568a5.981,5.981,0,0,1,.741.57c.269.214.505.392.774.606l.067.071c.337.285.707.57,1.077.891a33.263,33.263,0,0,1,3.1,3.135c.774.748,1.414,1.5,2.088,2.245a23.716,23.716,0,0,1,2.155,2.993Z" transform="translate(-1952.831 5682.161)" fill="#d9f2ff" stroke="#000" stroke-linejoin="bevel" stroke-width="0.25"/><path d="M49.661,76.387c-9.462-4.168-17-11.152-21.078-21.7A51.438,51.438,0,0,1,25.35,37.98L34,43.039c.034,1,.1,2,.2,2.957.034.57.1,1.14.168,1.675a5.432,5.432,0,0,0,.135,1.033c.1.748.236,1.532.37,2.245l.3,1.6a17.657,17.657,0,0,0,.438,1.924A38.082,38.082,0,0,0,49.661,76.387Z" transform="translate(-1955.104 5700.997)" fill="#226bbd" stroke="#000" stroke-linejoin="bevel" stroke-width="0.25"/><path d="M74.375,39.829l-7.509,2.138L34,51.266,25.35,46.207l19.933-5.665L65.654,34.77,70.5,37.585Z" transform="translate(-1955.104 5692.771)" fill="#226bbd" stroke="#000" stroke-linejoin="bevel" stroke-width="0.25"/><path d="M53,53.933a23.231,23.231,0,0,1-15.32-15.6l7.509-2.138a21.834,21.834,0,0,0,.4,3.705,6.613,6.613,0,0,0,.236,1.425,6.744,6.744,0,0,0,.3,1.1,5.419,5.419,0,0,0,.4,1.389,3.648,3.648,0,0,0,.337.962,5.435,5.435,0,0,0,.4,1.033,8.83,8.83,0,0,0,.505,1.176,5.4,5.4,0,0,0,.471.855,10.661,10.661,0,0,0,.774,1.354,23.411,23.411,0,0,0,2.492,3.278A14.48,14.48,0,0,0,53,53.933Z" transform="translate(-1925.917 5696.41)" fill="#8bd4fa" stroke="#000" stroke-linejoin="bevel" stroke-width="0.25"/><path d="M72.772,35.231c-.572-.214-1.145-.392-1.751-.57-.808-.249-1.65-.5-2.525-.677h-.067a40.3,40.3,0,0,0-4.613-.784,26.463,26.463,0,0,0-2.9-.249c-1.246-.036-2.525-.036-3.771.036h-.4a31.4,31.4,0,0,0-3.636.356c-.774.107-1.583.249-2.357.428L42.03,28.747a40.667,40.667,0,0,1,22.526,1.71A27.12,27.12,0,0,1,72.772,35.2Z" transform="translate(-1915.62 5675.137)" fill="#8bd4fa" stroke="#000" stroke-linejoin="bevel" stroke-width="0.25"/><path d="M87.349,47.087a19.453,19.453,0,0,1-.37,5.13c-.135.641-.3,1.283-.471,1.96a1.521,1.521,0,0,1-.1.285,15.81,15.81,0,0,1-.572,1.639,20.415,20.415,0,0,1-1.145,2.708,22.02,22.02,0,0,1-1.145,2.138c-.438.784-.909,1.568-1.448,2.387-.539.784-1.111,1.6-1.717,2.423a20.115,20.115,0,0,1-1.313,1.6,26.628,26.628,0,0,1-4.411,4.062A29.4,29.4,0,0,1,72.063,73.1a25.1,25.1,0,0,1-3,1.354c-.269.107-.505.249-.774.356-.37.143-.707.249-1.044.356A24.574,24.574,0,0,1,62.2,76.231a25,25,0,0,1-7.475-.249,27.821,27.821,0,0,1-4.478-1.211,23.038,23.038,0,0,1-2.155-.891,24.173,24.173,0,0,1-3.8-2.245c-.707-.534-1.381-1.1-2.054-1.675a26.173,26.173,0,0,0,29.058-8.8c.135-.143.236-.321.37-.463,9.091-12.149,8.451-21.8,3-28.324A20.4,20.4,0,0,0,72.4,30.057l-.1-.107a32.814,32.814,0,0,1,5.118,2.423h.034a.965.965,0,0,1,.2.143h.034c.943.606,1.818,1.247,2.694,1.888a20.4,20.4,0,0,1,3.94,4.168A17.427,17.427,0,0,1,85.5,40.46h0c.337.677.64,1.389.909,2.066.135.356.236.748.337,1.1s.2.748.269,1.1a7.16,7.16,0,0,1,.2,1.176c.067.356.1.784.135,1.176Z" transform="translate(-1915.147 5680.418)" fill="#226bbd" stroke="#000" stroke-linejoin="bevel" stroke-width="0.25"/><path d="M50.751,26.794V49.488L42.03,44.465V21.77Z" transform="translate(-1915.62 5659.455)" fill="#226bbd" stroke="#000" stroke-linejoin="bevel" stroke-width="0.25"/><path d="M53.077,26.156a26.637,26.637,0,0,0-1.684,2.316c-.539.819-1.044,1.639-1.515,2.494s-.875,1.71-1.246,2.565c-.2.428-.37.855-.539,1.318-.135.356-.269.713-.37,1.069-.135.392-.269.819-.37,1.247-.168.57-.3,1.14-.4,1.675-.1.463-.168.926-.236,1.354v.071a17.734,17.734,0,0,0-.2,2.636l-7.946-4.56-.774-.428c.236-19.1,27.105-39.333,42.594-23.942a16.884,16.884,0,0,0-4.243-.5,21.776,21.776,0,0,0-2.66.178,8.822,8.822,0,0,0-1.347.214q-1.162.214-2.323.534a1.584,1.584,0,0,0-.37.143,2.376,2.376,0,0,0-.471.143,19.376,19.376,0,0,0-1.852.677c-.539.214-1.044.428-1.549.677-.438.214-.875.428-1.279.641-.168.071-.3.178-.471.249l-1.414.855c-.2.143-.4.249-.606.392-.4.249-.808.534-1.212.819-.471.321-.909.641-1.347,1-.505.392-1.01.819-1.482,1.247a22.039,22.039,0,0,0-1.852,1.746,12.354,12.354,0,0,0-.943.962c-.64.713-1.28,1.425-1.852,2.138a.113.113,0,0,1-.034.071Z" transform="translate(-1925.657 5625.533)" fill="#8bd4fa" stroke="#000" stroke-linejoin="bevel" stroke-width="0.25"/><path d="M86.318,29.548A15.048,15.048,0,0,1,85.274,35a17.185,17.185,0,0,1-.707,1.639c-.168.356-.37.713-.606,1.1a8.956,8.956,0,0,1-.64,1.069,13.119,13.119,0,0,1-.842,1.211c-.3.392-.64.784-.943,1.176-.168.178-.337.392-.505.57-.505.57-1.044,1.14-1.616,1.675a39.973,39.973,0,0,1-3.636,3.1c-.875.641-1.785,1.247-2.694,1.853-.438.321-.909.606-1.381.891h0c-.943.57-1.886,1.1-2.862,1.6-.976.534-1.953,1-2.963,1.461-.034,0-.034.036-.067.036a12.056,12.056,0,0,1-1.414.606c-.505.214-.976.428-1.482.606-.505.214-.976.392-1.482.57-1.448.534-2.9,1-4.276,1.389-.471.143-.909.249-1.381.356-.438.107-.875.214-1.313.285a23.634,23.634,0,0,1-2.525.463c-.4.071-.808.107-1.178.143L42.04,51.78a51.3,51.3,0,0,0,17.071-5.344c14.277-7.161,26.769-20.593,11.448-36.2l-.168-.178c.4.107.808.214,1.178.321a.119.119,0,0,1,.1.036c.4.107.774.249,1.178.392.269.107.505.249.774.356.1.036.168.071.269.107a8.392,8.392,0,0,1,.808.392c.168.107.37.214.539.321a3.972,3.972,0,0,1,.505.321,5.024,5.024,0,0,1,.673.428,10.429,10.429,0,0,1,.875.641,7.68,7.68,0,0,1,1.01.855,8.943,8.943,0,0,1,1.044.962,38.5,38.5,0,0,1,3.2,3.741c.269.392.539.819.808,1.211s.471.819.707,1.211a18.194,18.194,0,0,1,1.65,3.883,4.505,4.505,0,0,1,.168.641c.1.392.168.784.236,1.14a7.517,7.517,0,0,1,.135.855,13.967,13.967,0,0,1,.1,1.675Z" transform="translate(-1915.596 5629.444)" fill="#226bbd" stroke="#000" stroke-linejoin="bevel" stroke-width="0.25"/><path d="M68.052,21.742,28.69,22.918a45.045,45.045,0,0,1,.471-5.273l28.654-.855h1.515l.774.392,7.946,4.56Z" transform="translate(-1947.197 5646.692)" fill="none" stroke="#000" stroke-linejoin="bevel" stroke-width="0.25"/><path d="M136.215,7.013c-12.593-4.6-28.688-3.919-43.772-.249C78.166,10.256,64.8,16.419,56.246,23.4c-.606.5-1.212,1-1.785,1.532-.4.356-.842.713-1.212,1.1-.135.107-.236.214-.37.321-.606.57-1.212,1.176-1.785,1.781a18.091,18.091,0,0,0-1.583,1.675c-.505.57-1.01,1.14-1.515,1.746a48.655,48.655,0,0,0-5.118,7.126c-.37.57-.707,1.176-1.044,1.746l-1.111,2.031c-.4.784-.774,1.6-1.145,2.387-.37.855-.707,1.71-1.044,2.565a49.965,49.965,0,0,0-1.886,5.772c-.269,1-.505,2-.707,3.028-.1.534-.236,1.1-.337,1.675l-.2,1.389a5.8,5.8,0,0,0-.135,1.069,45.041,45.041,0,0,0-.471,5.273L26.11,60.6c.034-.713.067-1.425.135-2.1C28.635,25.718,56.818,7.9,85.2,2.7c15.96-3.1,36.7-5.095,51.012,4.311Z" transform="translate(-1953.304 5603.989)" fill="#226bbd" stroke="#000" stroke-linejoin="bevel" stroke-width="0.25"/><path d="M81.435,2.845C61.872,6.408,42.41,15.956,31.4,32.309a60.045,60.045,0,0,1,5.589-7.268c.505-.57,1.044-1.1,1.583-1.675.572-.606,1.178-1.211,1.785-1.781.135-.107.236-.214.37-.321.37-.392.808-.748,1.212-1.1.572-.534,1.178-1.033,1.785-1.532,8.552-6.983,21.92-13.147,36.2-16.638l1.515.855Z" transform="translate(-1940.782 5608.763)" fill="#8bd4fa" stroke="#000" stroke-linejoin="bevel" stroke-width="0.25"/><path d="M91.67,5.877C78.067.5,60.962,2.35,47.325,4.986L45.81,4.131C60.895.462,76.989-.215,89.582,4.381,90.29,4.844,91,5.343,91.67,5.877Z" transform="translate(-1906.672 5606.621)" fill="#8bd4fa" stroke="#000" stroke-linejoin="bevel" stroke-width="0.25"/><path d="M70.272,74.626a11.5,11.5,0,0,1-1.448.784,31.46,31.46,0,0,1-4.31,1.924L55.76,72.346c22.257-7.981,33.267-38.015,20.876-59.962a32.577,32.577,0,0,0-8.519-9.9A33.523,33.523,0,0,1,81.99,12.349c.37.428.707.891,1.01,1.318a30.654,30.654,0,0,1,2.424,3.67C96.7,37.288,88.589,63.974,70.272,74.626Z" transform="translate(-1883.12 5610.019)" fill="#8bd4fa" stroke="#000" stroke-linejoin="bevel" stroke-width="0.25"/><path d="M55.76,26.686v-4.6l8.788,4.988-.034,4.6L55.76,26.686Z" transform="translate(-1883.12 5660.274)" fill="none" stroke="#000" stroke-linejoin="bevel" stroke-width="0.25"/><path d="M84.751,58.972C86,39.413,75.054,23.416,55.76,23.38l8.754,4.988C83.842,28.4,94.785,44.436,93.539,64l-8.788-5.024Z" transform="translate(-1883.12 5663.581)" fill="#8bd4fa" stroke="#000" stroke-linejoin="bevel" stroke-width="0.25"/><path d="M159.507,116.064a48.2,48.2,0,0,1-.067,4.917c0,1.176-.067,2.316-.135,3.456a45.091,45.091,0,0,1-.64,4.774C156,144,146.712,156.252,134.22,165.195c-.606.463-1.246.891-1.886,1.318a83.476,83.476,0,0,1-8.552,5.095,2.759,2.759,0,0,1-.471.214c-17.644,9.049-38.924,12.541-56.9,9.014a53.907,53.907,0,0,1-20.337-8.266c-.64-.392-1.212-.819-1.785-1.247-.2-.143-.4-.321-.572-.463h-.034a40.921,40.921,0,0,1-14.142-21.982c-.135-.641-.3-1.283-.438-1.924l-.3-1.6c-.135-.713-.269-1.5-.37-2.245-.067-.356-.1-.677-.135-1.033-.067-.534-.135-1.1-.168-1.675-.1-.962-.168-1.96-.2-2.957l32.863-9.3L68.292,126a21.834,21.834,0,0,0,.4,3.705,6.614,6.614,0,0,0,.236,1.425,5.892,5.892,0,0,0,.3,1.1,7.212,7.212,0,0,0,.4,1.389,3.647,3.647,0,0,0,.337.962,5.435,5.435,0,0,0,.4,1.033c.135.392.337.784.505,1.176.135.285.3.57.471.855.236.463.505.926.774,1.354a23.41,23.41,0,0,0,2.492,3.278,14.481,14.481,0,0,0,1.482,1.461h0c.673.606,1.347,1.176,2.054,1.71a24.171,24.171,0,0,0,3.8,2.245,23.039,23.039,0,0,0,2.155.891,26.319,26.319,0,0,0,11.953,1.461,31.908,31.908,0,0,0,5.051-1.069,7.11,7.11,0,0,0,1.111-.428,5.862,5.862,0,0,0,.707-.285,25.1,25.1,0,0,0,3-1.354,29.4,29.4,0,0,0,2.593-1.674,26.628,26.628,0,0,0,4.411-4.062,20.11,20.11,0,0,0,1.313-1.6c.606-.819,1.178-1.639,1.717-2.423.539-.819,1.01-1.6,1.448-2.387a22.02,22.02,0,0,0,1.145-2.138,20.415,20.415,0,0,0,1.145-2.708,12.021,12.021,0,0,0,.572-1.639,1.521,1.521,0,0,0,.1-.285,15.071,15.071,0,0,0,.471-1.96,18.127,18.127,0,0,0,.37-5.13,4.67,4.67,0,0,0-.135-1.176,7.158,7.158,0,0,0-.2-1.176,5.844,5.844,0,0,0-.269-1.1c-.1-.356-.2-.748-.337-1.1a10.882,10.882,0,0,0-.909-2.031h0a11.188,11.188,0,0,0-1.178-1.924,19.524,19.524,0,0,0-2.189-2.6,18.8,18.8,0,0,0-1.751-1.568c-.875-.641-1.751-1.283-2.694-1.888h-.034a1.994,1.994,0,0,0-.2-.143h-.034a31.35,31.35,0,0,0-5.017-2.316c-.606-.249-1.212-.463-1.852-.677-.808-.249-1.65-.5-2.525-.677h-.067a40.3,40.3,0,0,0-4.613-.784c-.976-.107-1.953-.178-2.963-.214-.471-.036-.976-.071-1.482-.071-.741,0-1.482.036-2.222.071h-.4a31.4,31.4,0,0,0-3.637.356c-.774.107-1.583.249-2.357.428V79.617c.37-.036.774-.071,1.178-.143a23.636,23.636,0,0,0,2.525-.463c.438-.071.875-.178,1.313-.285.471-.107.909-.214,1.381-.356a36.945,36.945,0,0,0,4.276-1.389c.505-.178.976-.356,1.482-.57a8.647,8.647,0,0,0,1.482-.606A12.057,12.057,0,0,0,99.2,75.2s0-.036.067-.036a32.874,32.874,0,0,0,2.963-1.461c.976-.5,1.919-1.033,2.862-1.6h0c.471-.285.943-.57,1.381-.891.909-.57,1.818-1.176,2.694-1.853a39.974,39.974,0,0,0,3.636-3.1c.572-.534,1.111-1.1,1.616-1.675.168-.178.337-.392.505-.57.337-.392.64-.784.943-1.176a13.121,13.121,0,0,0,.842-1.211,8.96,8.96,0,0,0,.64-1.069c.236-.392.438-.748.606-1.1a17.183,17.183,0,0,0,.707-1.639,15.049,15.049,0,0,0,1.044-5.451,13.97,13.97,0,0,0-.1-1.675,3.767,3.767,0,0,0-.135-.855c-.067-.356-.135-.748-.236-1.14a4.5,4.5,0,0,0-.168-.641,18.193,18.193,0,0,0-1.65-3.883c-.236-.392-.438-.819-.707-1.211s-.539-.819-.808-1.211A38.5,38.5,0,0,0,112.7,38a8.942,8.942,0,0,0-1.044-.962,7.681,7.681,0,0,0-1.01-.855,10.43,10.43,0,0,0-.875-.641,5.023,5.023,0,0,0-.673-.428,3.968,3.968,0,0,0-.505-.321c-.168-.107-.37-.214-.539-.321a8.393,8.393,0,0,0-.808-.392c-.1,0-.168-.071-.269-.107-.269-.107-.505-.249-.774-.356-.4-.143-.774-.285-1.178-.392a.119.119,0,0,0-.1-.036c-.37-.107-.774-.214-1.178-.321h-.034a18.928,18.928,0,0,0-4.243-.5,21.776,21.776,0,0,0-2.66.178,8.821,8.821,0,0,0-1.347.214q-1.162.214-2.323.534a1.584,1.584,0,0,0-.37.143,2.377,2.377,0,0,0-.471.143,19.375,19.375,0,0,0-1.852.677c-.539.214-1.044.428-1.549.677a10.725,10.725,0,0,0-1.28.641c-.168.071-.3.178-.471.249l-1.414.855c-.2.143-.4.249-.606.392-.4.249-.808.534-1.212.819-.471.321-.909.641-1.347,1-.505.392-1.01.819-1.482,1.247a22.045,22.045,0,0,0-1.852,1.746,8.193,8.193,0,0,0-.943.962c-.64.677-1.246,1.389-1.852,2.138a.113.113,0,0,1-.034.071,22.131,22.131,0,0,0-1.684,2.316c-.539.819-1.044,1.639-1.515,2.494s-.875,1.71-1.246,2.565c-.2.428-.37.855-.539,1.318-.135.356-.269.713-.37,1.069-.135.428-.269.819-.37,1.247-.168.57-.3,1.14-.4,1.675-.1.463-.168.926-.236,1.354v.071a17.735,17.735,0,0,0-.2,2.636L30.479,62.979a45.044,45.044,0,0,1,.471-5.273c.034-.356.067-.713.135-1.069l.2-1.389c.1-.57.236-1.14.337-1.675.2-1.033.438-2.031.707-3.028a49.967,49.967,0,0,1,1.886-5.772c.337-.855.673-1.71,1.044-2.565.37-.784.741-1.6,1.145-2.387l1.111-2.031c.337-.57.673-1.176,1.044-1.746.337-.534.673-1.069,1.044-1.6.774-1.1,1.549-2.209,2.391-3.278.034-.071.1-.107.135-.178.539-.677,1.01-1.425,1.549-2.066.505-.606,1.01-1.176,1.515-1.746s1.044-1.1,1.583-1.675c.572-.606,1.178-1.211,1.785-1.781.135-.107.236-.214.37-.321.37-.392.808-.748,1.212-1.1.572-.534,1.178-1.033,1.785-1.532,8.552-6.983,21.92-13.147,36.2-16.638C103.209.452,119.3-.225,131.9,4.371A36.7,36.7,0,0,1,142.132,10a32.216,32.216,0,0,1,5.724,5.736c.37.428.707.891,1.01,1.318,13.132,18.241,7.61,46.886-10.4,59.463l-.3.214a19.845,19.845,0,0,1-2.02,1.283,11.5,11.5,0,0,1-1.448.784,31.462,31.462,0,0,1-4.31,1.924v4.6c.842,0,1.65.036,2.458.107a11.348,11.348,0,0,1,1.583.178l.909.107c.539.071,1.044.178,1.549.285s.976.214,1.448.356c.606.143,1.145.321,1.717.5h.034c.505.178,1.01.356,1.482.57a6.121,6.121,0,0,1,1.01.428c.034,0,.067.036.1.036.606.285,1.212.57,1.751.891.606.321,1.178.677,1.717,1.033s1.044.713,1.549,1.1c.337.249.673.534,1.01.784.471.428.909.819,1.347,1.247a15.766,15.766,0,0,1,1.279,1.354,16.161,16.161,0,0,1,1.381,1.675,5.327,5.327,0,0,1,.64.891.946.946,0,0,1,.236.285c.37.5.707,1.069,1.044,1.6l.808,1.5c.438.819.808,1.639,1.178,2.53.3.713.572,1.425.842,2.209a.272.272,0,0,0,.067.214,22.94,22.94,0,0,1,.673,2.316c.2.748.37,1.461.539,2.245v.249c.168.855.3,1.71.4,2.6a7.75,7.75,0,0,1,.1.926l.1.962v.107c.034.463.067.926.1,1.425Z" transform="translate(-1948.02 5605.596)" fill="#ee7cb7" stroke="#000" stroke-linejoin="bevel" stroke-width="0.25"/></g></svg>