<svg xmlns="http://www.w3.org/2000/svg" width="216.909" height="184.37" viewBox="0 0 216.909 184.37"><g transform="translate(2343 -5650.815)"><path d="M142.554,42.678c-3.571-2.343-10.732-6.987-24.565-10.43C81.254,23.1,26.451,29.542,7.572,40.96,1.422,44.682.435,48.17.188,49.295c-2.031,9.233,13,18.062,18.93,21.262L76.257,63.92c-17-8.99-9.021-16,2.422-14.927,4.761.449,12.389,4.037,15.826,7.141,1.224,1.108,4.01,4.02-.041,9.961a30.591,30.591,0,0,1-8.842,8.095A355.506,355.506,0,0,0,56.034,94.45l24.774,15.877L215.087,90.265l-27.405-17.64c-20.508,3.049-41.708,5.831-61.091,9.439l-1.471-.782c17.455-10.019,40.984-23.138,17.434-38.6" transform="translate(-2342.999 5718.615)" opacity="0.08"/><rect width="215.086" height="82.426" transform="translate(-2343 5746.515)" fill="none"/><rect width="216.909" height="184.369" transform="translate(-2343 5650.815)" fill="none"/><path d="M41.736,38.09l-.216-1.941L50.427,41l.213,1.945Z" transform="translate(-2242.109 5738.653)" fill="none" stroke="#040000" stroke-linejoin="bevel" stroke-width="0.25"/><path d="M105.15,33.856c-21.183,3.035-42.6,5.371-63.567,9.8l8.9,4.857C71.471,44.077,92.9,41.735,114.1,38.7Z" transform="translate(-2241.956 5733.083)" fill="#ffa766"/><path d="M105.15,33.856c-21.183,3.035-42.6,5.371-63.567,9.8l8.9,4.857C71.471,44.077,92.9,41.735,114.1,38.7Z" transform="translate(-2241.956 5733.083)" fill="#2982e5" stroke="#040000" stroke-linejoin="bevel" stroke-width="0.25"/><path d="M19.627,66.409,158.45,46.347l8.945,4.877L28.472,71.324Z" transform="translate(-2295.309 5763.436)" fill="none" stroke="#040000" stroke-linejoin="bevel" stroke-width="0.25"/><path d="M19.614,40.948l.045,38.583L28.5,84.446l-.041-38.618Z" transform="translate(-2295.34 5750.315)" fill="#ffa766"/><path d="M19.614,40.948l.045,38.583L28.5,84.446l-.041-38.618Z" transform="translate(-2295.34 5750.315)" fill="#2982e5" stroke="#040000" stroke-linejoin="bevel" stroke-width="0.25"/><path d="M58.752,88.965Q43.728,100.438,28.465,111.6l-8.849-4.9c10.153-7.409,20.271-14.92,30.252-22.6C64.1,73.187,107.7,45.988,103.238,22.184a31.344,31.344,0,0,0-2.264-7.683c4.6-2.058,9.021.789,11.216,12.485,4.459,23.8-39.2,51.072-53.438,61.979" transform="translate(-2295.334 5684.556)" fill="#ffa766"/><path d="M58.752,88.965Q43.728,100.438,28.465,111.6l-8.849-4.9c10.153-7.409,20.271-14.92,30.252-22.6C64.1,73.187,107.7,45.988,103.238,22.184a31.344,31.344,0,0,0-2.264-7.683c4.6-2.058,9.021.789,11.216,12.485C116.649,50.79,72.986,78.058,58.752,88.965Z" transform="translate(-2295.334 5684.556)" fill="#2982e5" stroke="#040000" stroke-linejoin="bevel" stroke-width="0.25"/><path d="M19.878,27.183,75.8,22.748l8.9,4.816L28.737,32.012Z" transform="translate(-2294.698 5706.09)" fill="none" stroke="#040000" stroke-linejoin="bevel" stroke-width="0.25"/><path d="M144.77,9.215C119.732-.663,80.939,7.877,60.017,19.745,35.733,33.67,26.986,60.184,28.907,86.971l-8.849-4.8c-1.921-26.788,6.791-53.3,31.075-67.192C74.731,1.566,121.1-7.558,144.77,9.215" transform="translate(-2294.885 5651.118)" fill="#ffa766"/><path d="M144.77,9.215C119.732-.663,80.939,7.877,60.017,19.745,35.733,33.67,26.986,60.184,28.907,86.971l-8.849-4.8c-1.921-26.788,6.791-53.3,31.075-67.192C74.731,1.566,121.1-7.558,144.77,9.215Z" transform="translate(-2294.885 5651.118)" fill="#2982e5" stroke="#040000" stroke-linejoin="bevel" stroke-width="0.25"/><path d="M106.517,14.064l.041-1.341,8.962,4.771c-.449,37.51-37.345,61.794-65.1,80.432l-8.9-4.857C68.839,74.729,105.313,50.823,106.517,14.064Z" transform="translate(-2242.109 5681.731)" fill="none" stroke="#040000" stroke-linejoin="bevel" stroke-width="0.25"/><path d="M79.765,41.67,70.813,36.9C71.568,20.439,65.7,9.532,56.236,2.775c14.577,5.694,24.49,17.7,23.529,38.9" transform="translate(-2206.35 5657.558)" fill="#f08825"/><path d="M79.765,41.67,70.813,36.9C71.568,20.439,65.7,9.532,56.236,2.775,70.813,8.469,80.726,20.473,79.765,41.67Z" transform="translate(-2206.35 5657.558)" fill="none" stroke="#040000" stroke-linejoin="bevel" stroke-width="0.25"/><path d="M162.6,45.869c.069-5.687.123-16.961-6.983-26.808C136.745-7.083,82.326-2.648,51.556,18.766A68.858,68.858,0,0,0,34.465,35.5c-13.775,19.609-12.7,41.3-11.909,49.25Q50.873,82.519,79.191,80.3c-2.518-22.38,13.342-36.148,21.543-31.847,3.409,1.79,5.121,10.869,3.948,18.179-.418,2.61-1.886,9.381-13.054,21.523a114.33,114.33,0,0,1-18,15.963c-12.283,8.475-28.441,20.528-51.319,38.673q.021,19.309.038,38.618l138.926-20.1.058-42.881c-21.2,3.039-42.634,5.382-63.615,9.82l-.213-1.941c27.748-18.638,64.644-42.922,65.093-80.432" transform="translate(-2289.188 5653.356)" fill="#ee7cb7"/><path d="M162.6,45.869c.069-5.687.123-16.961-6.983-26.808C136.745-7.083,82.326-2.648,51.556,18.766A68.858,68.858,0,0,0,34.465,35.5c-13.775,19.609-12.7,41.3-11.909,49.25Q50.873,82.519,79.191,80.3c-2.518-22.38,13.342-36.148,21.543-31.847,3.409,1.79,5.121,10.869,3.948,18.179-.418,2.61-1.886,9.381-13.054,21.523a114.33,114.33,0,0,1-18,15.963c-12.283,8.475-28.441,20.528-51.319,38.673q.021,19.309.038,38.618l138.926-20.1.058-42.881c-21.2,3.039-42.634,5.382-63.615,9.82l-.213-1.941C125.255,107.663,162.151,83.379,162.6,45.869Z" transform="translate(-2289.188 5653.356)" fill="none" stroke="#040000" stroke-linejoin="bevel" stroke-width="0.25"/><rect width="216.909" height="184.369" transform="translate(-2343 5650.815)" fill="none"/><rect width="216.909" height="184.37" transform="translate(-2343 5650.815)" fill="none"/></g></svg>