<svg xmlns="http://www.w3.org/2000/svg" width="188.821" height="194.599" viewBox="0 0 188.821 194.599"><g transform="translate(2631.696 -5691.813)"><path d="M156.023,41.241c-2.243-1.213-4.539-2.386-6.943-3.518h-.027a150.526,150.526,0,0,0-25.768-9.34h-.027a1.8,1.8,0,0,0-.32-.081c-.187-.081-.427-.162-.587-.243-.587-.2-1.2-.445-1.762-.607a.239.239,0,0,0-.16-.04c-2.029-.485-4.139-.97-6.3-1.415q-1.6-.364-3.2-.607a228.749,228.749,0,0,0-33-4.043,14.456,14.456,0,0,1-1.869-.081H76c-1.469-.081-2.937-.162-4.406-.2-29.773-.687-55.46,4.731-64.833,15.567C-3.656,48.721-1.573,65.016,9.829,81.15a105.388,105.388,0,0,0,22.27,22.4h0C46.17,114.306,64.221,123.808,85.075,130.4c1.762.566,3.525,1.092,5.34,1.617,2.59.728,5.207,1.415,7.877,2.062q2.644.667,5.367,1.213a204.386,204.386,0,0,0,31.028,4.205l2.457.121c1.656.081,3.311.162,4.993.2a13.28,13.28,0,0,0,1.6-.647c.854-.364,1.682-.728,2.483-1.132q1.842-.91,3.6-1.941a50.739,50.739,0,0,0,9.746-7.359c.668-.647,1.308-1.294,1.949-1.941.561-.566,1.121-1.173,1.656-1.779a11.858,11.858,0,0,0,1.068-1.213,13.812,13.812,0,0,0,1.095-1.334,22.08,22.08,0,0,0,1.522-1.941q1.041-1.334,2-2.79c1.282-1.9,2.51-3.922,3.685-5.984.427-.768.881-1.577,1.282-2.386,5.447-10.594,9.266-23.129,11.589-36.957.32-1.981.614-3.963.881-5.984.08-.526.134-1.092.187-1.617a118.774,118.774,0,0,0-30.467-23.573Zm-15.167,76.988a57.117,57.117,0,0,1-9,.728,75.131,75.131,0,0,1-31.4-6.187c-.027-.04-.107-.04-.16-.121A63.208,63.208,0,0,1,82.645,100.8a59.937,59.937,0,0,1-9.773-12.13c-.481-.809-.908-1.577-1.335-2.345C65.8,76.7,56.13,62.59,58.293,53.007c1.629-4.043,4.913-7.238,10.307-9.057a.2.2,0,0,1,.214-.04c.4-.121.8-.2,1.2-.283a37.327,37.327,0,0,1,5.794-.849,47.173,47.173,0,0,1,4.967-.243,83.207,83.207,0,0,1,12.149.728c.134.04.267.04.427.081,1.469.2,2.937.445,4.3.768.721.121,1.389.243,2.056.4a63.651,63.651,0,0,1,9.372,2.911c.32.121.668.243.988.364.16.081.32.121.481.2,14.553,5.782,23.311,14.88,28.625,23.412.828,1.253,1.549,2.547,2.216,3.76l.107.2c.988,1.658,2.056,3.4,3.178,5.257a.243.243,0,0,1,.053.121c1.9,3.113,3.872,6.429,5.527,9.826,6.115,12.13,8.652,24.584-9.4,27.657Z" transform="translate(-2631.695 5743.195)" opacity="0.08"/><path d="M45.13,148.621a28.655,28.655,0,0,0,11.1-.532,32.1,32.1,0,0,1-11.1.532Zm13.077-.988c13.571-3.5,20.528-13.685,24.063-26.04C78.621,133.643,71.436,143.983,58.207,147.632ZM83.031,118.7A87.773,87.773,0,0,0,85.5,100.494,102.454,102.454,0,0,1,83.031,118.7ZM85.616,93.88c0,1.863,0,3.8-.076,5.74.228-4.182.3-8.4.266-12.393C85.73,89.622,85.654,91.827,85.616,93.88ZM82.423,37.618C91.47,44.84,94.967,58.944,95.5,72.515c-.342-13.533-3.345-27.6-13.077-34.9Zm-11.937-4.79a18.78,18.78,0,0,1,3.421.722c-.038-.076-.114-.114-.152-.152A21.7,21.7,0,0,0,70.486,32.828ZM45.13,148.621a28.655,28.655,0,0,0,11.1-.532A32.1,32.1,0,0,1,45.13,148.621Zm13.077-.988c13.571-3.5,20.528-13.685,24.063-26.04-3.649,12.051-10.834,22.391-24.063,26.04ZM83.031,118.7A87.774,87.774,0,0,0,85.5,100.494,102.455,102.455,0,0,1,83.031,118.7ZM85.616,93.88c0,1.863,0,3.8-.076,5.74.228-4.182.3-8.4.266-12.393C85.73,89.622,85.654,91.827,85.616,93.88ZM82.423,37.618C91.47,44.84,94.967,58.944,95.5,72.515c-.342-13.533-3.345-27.6-13.077-34.9Zm-11.937-4.79a18.78,18.78,0,0,1,3.421.722c-.038-.076-.114-.114-.152-.152A21.7,21.7,0,0,0,70.486,32.828ZM45.13,148.621a28.655,28.655,0,0,0,11.1-.532A32.1,32.1,0,0,1,45.13,148.621Zm13.077-.988c13.571-3.5,20.528-13.685,24.063-26.04-3.649,12.051-10.834,22.391-24.063,26.04ZM83.031,118.7A87.774,87.774,0,0,0,85.5,100.494,102.455,102.455,0,0,1,83.031,118.7ZM85.616,93.88c0,1.863,0,3.8-.076,5.74.228-4.182.3-8.4.266-12.393C85.73,89.622,85.654,91.827,85.616,93.88ZM82.423,37.618C91.47,44.84,94.967,58.944,95.5,72.515c-.342-13.533-3.345-27.6-13.077-34.9Zm-11.937-4.79a18.78,18.78,0,0,1,3.421.722c-.038-.076-.114-.114-.152-.152A21.7,21.7,0,0,0,70.486,32.828ZM45.13,148.621a28.655,28.655,0,0,0,11.1-.532A32.1,32.1,0,0,1,45.13,148.621Zm13.077-.988c13.571-3.5,20.528-13.685,24.063-26.04-3.649,12.051-10.834,22.391-24.063,26.04ZM83.031,118.7A87.774,87.774,0,0,0,85.5,100.494,102.455,102.455,0,0,1,83.031,118.7ZM85.616,93.88c0,1.863,0,3.8-.076,5.74.228-4.182.3-8.4.266-12.393C85.73,89.622,85.654,91.827,85.616,93.88ZM82.423,37.618C91.47,44.84,94.967,58.944,95.5,72.515c-.342-13.533-3.345-27.6-13.077-34.9Zm-11.937-4.79a18.78,18.78,0,0,1,3.421.722c-.038-.076-.114-.114-.152-.152A21.7,21.7,0,0,0,70.486,32.828ZM45.13,148.621a28.655,28.655,0,0,0,11.1-.532A32.1,32.1,0,0,1,45.13,148.621Zm13.077-.988c13.571-3.5,20.528-13.685,24.063-26.04-3.649,12.051-10.834,22.391-24.063,26.04ZM83.031,118.7A87.774,87.774,0,0,0,85.5,100.494,102.455,102.455,0,0,1,83.031,118.7ZM85.616,93.88c0,1.863,0,3.8-.076,5.74.228-4.182.3-8.4.266-12.393C85.73,89.622,85.654,91.827,85.616,93.88ZM82.423,37.618C91.47,44.84,94.967,58.944,95.5,72.515c-.342-13.533-3.345-27.6-13.077-34.9Zm-11.937-4.79a18.78,18.78,0,0,1,3.421.722c-.038-.076-.114-.114-.152-.152A21.7,21.7,0,0,0,70.486,32.828ZM45.13,148.621a28.655,28.655,0,0,0,11.1-.532A32.1,32.1,0,0,1,45.13,148.621Zm13.077-.988c13.571-3.5,20.528-13.685,24.063-26.04-3.649,12.051-10.834,22.391-24.063,26.04ZM83.031,118.7A87.774,87.774,0,0,0,85.5,100.494,102.455,102.455,0,0,1,83.031,118.7ZM85.616,93.88c0,1.863,0,3.8-.076,5.74.228-4.182.3-8.4.266-12.393C85.73,89.622,85.654,91.827,85.616,93.88ZM82.423,37.618C91.47,44.84,94.967,58.944,95.5,72.515c-.342-13.533-3.345-27.6-13.077-34.9Zm-11.937-4.79a18.78,18.78,0,0,1,3.421.722c-.038-.076-.114-.114-.152-.152A21.7,21.7,0,0,0,70.486,32.828Zm31.932-30.3a4.169,4.169,0,0,1,.38.3.54.54,0,0,1,.228.076C102.8,2.758,102.608,2.644,102.418,2.53Zm-20,35.088C91.47,44.84,94.967,58.944,95.5,72.515,95.157,58.982,92.154,44.916,82.423,37.618Zm-11.937-4.79a18.78,18.78,0,0,1,3.421.722c-.038-.076-.114-.114-.152-.152A21.7,21.7,0,0,0,70.486,32.828ZM85.616,93.88c0,1.863,0,3.8-.076,5.74.228-4.182.3-8.4.266-12.393C85.73,89.622,85.654,91.827,85.616,93.88ZM83.031,118.7A87.774,87.774,0,0,0,85.5,100.494,102.455,102.455,0,0,1,83.031,118.7ZM58.207,147.632c13.571-3.5,20.528-13.685,24.063-26.04-3.649,12.051-10.834,22.391-24.063,26.04Zm-13.077.988a28.655,28.655,0,0,0,11.1-.532A32.1,32.1,0,0,1,45.13,148.621Zm0,0a28.655,28.655,0,0,0,11.1-.532A32.1,32.1,0,0,1,45.13,148.621Zm13.077-.988c13.571-3.5,20.528-13.685,24.063-26.04-3.649,12.051-10.834,22.391-24.063,26.04ZM83.031,118.7A87.774,87.774,0,0,0,85.5,100.494,102.455,102.455,0,0,1,83.031,118.7ZM85.616,93.88c0,1.863,0,3.8-.076,5.74.228-4.182.3-8.4.266-12.393C85.73,89.622,85.654,91.827,85.616,93.88ZM82.423,37.618C91.47,44.84,94.967,58.944,95.5,72.515c-.342-13.533-3.345-27.6-13.077-34.9Zm-11.937-4.79a18.78,18.78,0,0,1,3.421.722c-.038-.076-.114-.114-.152-.152A21.7,21.7,0,0,0,70.486,32.828ZM45.13,148.621a28.655,28.655,0,0,0,11.1-.532A32.1,32.1,0,0,1,45.13,148.621Zm13.077-.988c13.571-3.5,20.528-13.685,24.063-26.04-3.649,12.051-10.834,22.391-24.063,26.04ZM83.031,118.7A87.774,87.774,0,0,0,85.5,100.494,102.455,102.455,0,0,1,83.031,118.7ZM85.616,93.88c0,1.863,0,3.8-.076,5.74.228-4.182.3-8.4.266-12.393C85.73,89.622,85.654,91.827,85.616,93.88ZM82.423,37.618C91.47,44.84,94.967,58.944,95.5,72.515c-.342-13.533-3.345-27.6-13.077-34.9Zm-11.937-4.79a18.78,18.78,0,0,1,3.421.722c-.038-.076-.114-.114-.152-.152A21.7,21.7,0,0,0,70.486,32.828ZM45.13,148.621a28.655,28.655,0,0,0,11.1-.532A32.1,32.1,0,0,1,45.13,148.621Zm13.077-.988c13.571-3.5,20.528-13.685,24.063-26.04-3.649,12.051-10.834,22.391-24.063,26.04ZM83.031,118.7A87.774,87.774,0,0,0,85.5,100.494,102.455,102.455,0,0,1,83.031,118.7ZM85.616,93.88c0,1.863,0,3.8-.076,5.74.228-4.182.3-8.4.266-12.393C85.73,89.622,85.654,91.827,85.616,93.88ZM82.423,37.618C91.47,44.84,94.967,58.944,95.5,72.515c-.342-13.533-3.345-27.6-13.077-34.9Zm-11.937-4.79a18.78,18.78,0,0,1,3.421.722c-.038-.076-.114-.114-.152-.152A21.7,21.7,0,0,0,70.486,32.828ZM45.13,148.621a28.655,28.655,0,0,0,11.1-.532A32.1,32.1,0,0,1,45.13,148.621Zm13.077-.988c13.571-3.5,20.528-13.685,24.063-26.04-3.649,12.051-10.834,22.391-24.063,26.04ZM83.031,118.7A87.774,87.774,0,0,0,85.5,100.494,102.455,102.455,0,0,1,83.031,118.7ZM85.616,93.88c0,1.863,0,3.8-.076,5.74.228-4.182.3-8.4.266-12.393C85.73,89.622,85.654,91.827,85.616,93.88ZM82.423,37.618C91.47,44.84,94.967,58.944,95.5,72.515c-.342-13.533-3.345-27.6-13.077-34.9Zm-11.937-4.79a18.78,18.78,0,0,1,3.421.722c-.038-.076-.114-.114-.152-.152A21.7,21.7,0,0,0,70.486,32.828ZM45.13,148.621a28.655,28.655,0,0,0,11.1-.532A32.1,32.1,0,0,1,45.13,148.621Zm13.077-.988c13.571-3.5,20.528-13.685,24.063-26.04-3.649,12.051-10.834,22.391-24.063,26.04ZM83.031,118.7A87.774,87.774,0,0,0,85.5,100.494,102.455,102.455,0,0,1,83.031,118.7ZM85.616,93.88c0,1.863,0,3.8-.076,5.74.228-4.182.3-8.4.266-12.393C85.73,89.622,85.654,91.827,85.616,93.88ZM82.423,37.618C91.47,44.84,94.967,58.944,95.5,72.515c-.342-13.533-3.345-27.6-13.077-34.9Zm-11.937-4.79a18.78,18.78,0,0,1,3.421.722c-.038-.076-.114-.114-.152-.152A21.7,21.7,0,0,0,70.486,32.828ZM45.13,148.621a28.655,28.655,0,0,0,11.1-.532A32.1,32.1,0,0,1,45.13,148.621Zm13.077-.988c13.571-3.5,20.528-13.685,24.063-26.04-3.649,12.051-10.834,22.391-24.063,26.04ZM83.031,118.7A87.774,87.774,0,0,0,85.5,100.494,102.455,102.455,0,0,1,83.031,118.7ZM85.616,93.88c0,1.863,0,3.8-.076,5.74.228-4.182.3-8.4.266-12.393C85.73,89.622,85.654,91.827,85.616,93.88ZM82.423,37.618C91.47,44.84,94.967,58.944,95.5,72.515c-.342-13.533-3.345-27.6-13.077-34.9Zm-11.937-4.79a18.78,18.78,0,0,1,3.421.722c-.038-.076-.114-.114-.152-.152A21.7,21.7,0,0,0,70.486,32.828Z" transform="translate(-2584.269 5698.547)" fill="#b3e5ff" stroke="#000" stroke-linejoin="bevel" stroke-width="0.25"/><path d="M154.207,8.468c-1.483-.494-3.041-.95-4.638-1.369a83.993,83.993,0,0,0-29.842-1.825h0C93.688,8.05,67.571,21.583,53.734,42.225,39.06,64.159,32.864,91.188,34.651,116.392a106.518,106.518,0,0,0,7.869,34.023h0c6.653,15.776,17.259,28.815,31.666,36.494,1.216.684,2.433,1.292,3.725,1.863a63.445,63.445,0,0,1-7.071-1.6c-10.34-2.889-19.654-8.211-26.8-16.612C20.2,142.508,23.094,84.307,36.057,52.375,49.78,18.352,83.5.447,119.347.142a6.7,6.7,0,0,1,.874,0H122.2c12.811.266,23.417,3.269,32.008,8.325Z" transform="translate(-2637.351 5691.811)" fill="#2982e5" stroke="#000" stroke-linejoin="bevel" stroke-width="0.25"/><path d="M69.985,47.65A77.471,77.471,0,0,1,56.11,54.569,89.114,89.114,0,0,0,69.985,47.65Z" transform="translate(-2553.509 5824.95)" fill="none" stroke="#000" stroke-linejoin="bevel" stroke-width="0.25"/><path d="M51.44.13C64.4.13,75.009,3.1,83.448,8.455,74.857,3.4,64.251.4,51.44.13Z" transform="translate(-2566.592 5691.823)" fill="none" stroke="#000" stroke-linejoin="bevel" stroke-width="0.25"/><path d="M188.3,83.287c-.722-34.365-10.416-65.88-38.167-77.018h-.038a.766.766,0,0,0-.228-.076,2.662,2.662,0,0,0-.38-.3c-.38-.266-.8-.532-1.178-.76a.14.14,0,0,0-.114-.038c-1.483-.494-3.041-.95-4.638-1.369A83.993,83.993,0,0,0,113.712,1.9h0c-26.04,2.775-52.156,16.308-65.994,36.95A114.023,114.023,0,0,0,31.6,76.444a122.532,122.532,0,0,0-2.965,36.57A106.518,106.518,0,0,0,36.5,147.038h0q.855,2.11,1.825,4.106c6.729,13.913,16.688,25.394,29.842,32.389.038,0,.038.038.076.038,1.178.684,2.395,1.255,3.649,1.825,9.694,4.372,20.946,6.424,33.719,5.474.646-.038,1.331-.114,2.015-.19a97.287,97.287,0,0,0,14.256-2.547c.38-.076.76-.19,1.14-.3.76-.152,1.521-.38,2.281-.608,1.216-.342,2.395-.684,3.535-1.064q2.623-.855,5.132-1.825a89.115,89.115,0,0,0,13.875-6.919c.95-.608,1.863-1.216,2.775-1.825.8-.532,1.6-1.1,2.357-1.673a14.415,14.415,0,0,0,1.521-1.14,16.078,16.078,0,0,0,1.559-1.255,24.992,24.992,0,0,0,2.167-1.825q1.483-1.255,2.851-2.623c1.825-1.787,3.573-3.687,5.246-5.626.608-.722,1.254-1.483,1.825-2.243a93.632,93.632,0,0,0,16.5-34.746c.456-1.863.874-3.725,1.254-5.626.114-.494.19-1.026.266-1.521.418-2.2.8-4.448,1.064-6.729.38-2.737.608-5.474.8-8.287,0-.266.038-.532.038-.8q.228-3.935.228-7.983v-.8c0-1.216.076-2.509,0-3.763.038-.874.038-1.787.038-2.7,0-.988-.038-1.977-.038-2.965Zm-53.753,58.239a30.6,30.6,0,0,1-13.381,12.659,33.078,33.078,0,0,1-7.945,2.661c-10.53,2.167-18.1-.266-23.493-5.36a.284.284,0,0,1-.114-.114c-9.086-8.705-11.747-25.128-11.442-39.573-.038-3.155-.114-6.653-.152-10.3-.114-6.691-.076-14.027.532-21.25a78.691,78.691,0,0,1,4.676-22.2C86.569,51.012,90.9,45.12,96.339,41.2c.076-.076.152-.152.228-.152a32.975,32.975,0,0,1,10.758-4.22,33.576,33.576,0,0,1,9.884-.684,1.052,1.052,0,0,1,.342.038,21.7,21.7,0,0,1,3.269.57c.532.114,1.026.228,1.521.38a20.357,20.357,0,0,1,6.5,3.383,2.5,2.5,0,0,1,.646.456c9.732,7.3,12.735,21.364,13.077,34.9.076,2.015.076,4.03.038,6.006v.3c.038,3.916.114,8.325.152,12.963.076,15.472-.722,33.643-8.211,46.378Z" transform="translate(-2631.335 5695.188)" fill="#ee7cb7" stroke="#000" stroke-linejoin="bevel" stroke-width="0.25"/><path d="M76,128.078a33.079,33.079,0,0,1-7.945,2.661c-10.53,2.167-18.1-.266-23.493-5.36a.284.284,0,0,1-.114-.114,22.943,22.943,0,0,0,2.319.57c.114,0,.19.038.266.038a28.655,28.655,0,0,0,11.1-.532c.646-.114,1.293-.266,1.977-.456,13.571-3.5,20.528-13.685,24.063-26.04.266-.95.532-1.939.76-2.889a87.773,87.773,0,0,0,2.471-18.209,7.026,7.026,0,0,0,.038-.874c.228-4.182.3-8.4.266-12.393v-.342c-.038-4.9-.114-9.542-.152-13.685V47.334C87.635,33.573,84.4,18.861,75.812,10.8c-.038-.076-.114-.114-.152-.152.532.114,1.026.228,1.521.38a20.357,20.357,0,0,1,6.5,3.383,2.5,2.5,0,0,1,.646.456C93.375,22.092,96.872,36.2,97.4,49.767c.076,2.015.076,4.03.038,6.006v.3c.19,22.657,2.775,60.367-21.44,72Z" transform="translate(-2586.174 5721.295)" fill="#2982e5" stroke="#000" stroke-linejoin="bevel" stroke-width="0.25"/><path d="M56.23,40.82a28.655,28.655,0,0,1-11.1.532A32.1,32.1,0,0,0,56.23,40.82Z" transform="translate(-2584.269 5805.815)" fill="#8bd4fa" stroke="#000" stroke-linejoin="bevel" stroke-width="0.25"/><path d="M57.571,28.3A87.773,87.773,0,0,1,55.1,46.509,102.456,102.456,0,0,0,57.571,28.3Z" transform="translate(-2556.339 5770.741)" fill="#8bd4fa" stroke="#000" stroke-linejoin="bevel" stroke-width="0.25"/><path d="M56.23,40.82a28.655,28.655,0,0,1-11.1.532A32.1,32.1,0,0,0,56.23,40.82Z" transform="translate(-2584.269 5805.815)" fill="none" stroke="#000" stroke-linejoin="bevel" stroke-width="0.25"/><path d="M72.633,33.85C69.1,46.2,62.141,56.393,48.57,59.89,61.8,56.241,68.984,45.9,72.633,33.85Z" transform="translate(-2574.632 5786.289)" fill="none" stroke="#000" stroke-linejoin="bevel" stroke-width="0.25"/><path d="M57.571,28.3A87.773,87.773,0,0,1,55.1,46.509,102.456,102.456,0,0,0,57.571,28.3Z" transform="translate(-2556.339 5770.741)" fill="none" stroke="#000" stroke-linejoin="bevel" stroke-width="0.25"/><path d="M56.23,40.82a28.655,28.655,0,0,1-11.1.532A32.1,32.1,0,0,0,56.23,40.82Z" transform="translate(-2584.269 5805.815)" fill="none" stroke="#000" stroke-linejoin="bevel" stroke-width="0.25"/><path d="M57.571,28.3A87.773,87.773,0,0,1,55.1,46.509,102.456,102.456,0,0,0,57.571,28.3Z" transform="translate(-2556.339 5770.741)" fill="none" stroke="#000" stroke-linejoin="bevel" stroke-width="0.25"/></g></svg>