<svg xmlns="http://www.w3.org/2000/svg" width="95.326" height="98.245" viewBox="0 0 95.326 98.245">
  <g id="图层_1" data-name="图层 1" transform="translate(0.089 0.124)">
    <g id="组_3624" data-name="组 3624" transform="translate(0 0)">
      <path id="路径_12023" data-name="路径 12023" d="M95.127,48.264V67.982q-12.8,5.639-25.545,11.3c-1.711.752-3.44,1.523-5.15,2.274L39.544,56.14,9.6,69.335.09,59.674c19.511-8.7,35.789-16.466,29.116-24.285l14.849-6.522L66.593,18.96Z" transform="translate(-0.09 16.453)" stroke="#040000" stroke-linejoin="bevel" stroke-width="0.25" opacity="0.08"/>
      <path id="路径_12024" data-name="路径 12024" d="M71.961.12l-.094,89.3L41.491,93.86V41.078l-20.6,2.914V23.917C34.33,21.83,45.815,19.349,46.284,3.691Z" transform="translate(18.207 -0.12)" fill="#f3a165" stroke="#040000" stroke-linejoin="bevel" stroke-width="0.25"/>
      <path id="路径_12025" data-name="路径 12025" d="M20.88,24.824l20.6-2.913,4.906,2.65-20.62,2.914-4.887-2.65Z" transform="translate(18.199 19.048)" fill="none" stroke="#040000" stroke-linejoin="bevel" stroke-width="0.25"/>
      <path id="路径_12026" data-name="路径 12026" d="M20.87,12.79l.019,20.056,4.887,2.65L25.757,15.4,20.87,12.79Z" transform="translate(18.19 11.026)" fill="#0182e5" stroke="#040000" stroke-linejoin="bevel" stroke-width="0.25"/>
      <path id="路径_12027" data-name="路径 12027" d="M46.293,2.02C45.823,17.7,34.339,20.159,20.88,22.245l4.868,2.632C39.244,22.79,50.729,20.29,51.2,4.614L46.293,2.02h0Z" transform="translate(18.199 1.551)" fill="#0182e5" stroke="#040000" stroke-linejoin="bevel" stroke-width="0.25"/>
      <path id="路径_12028" data-name="路径 12028" d="M48.01,89.424,48.1.12l4.944,2.594L52.916,92.13,48.01,89.424Z" transform="translate(42.064 -0.12)" fill="none" stroke="#040000" stroke-linejoin="bevel" stroke-width="0.25"/>
      <path id="路径_12029" data-name="路径 12029" d="M31.84,21.91l.019,52.781L36.746,77.4V24.56L31.84,21.91Z" transform="translate(27.84 19.048)" fill="#0182e5" stroke="#040000" stroke-linejoin="bevel" stroke-width="0.25"/>
      <path id="路径_12030" data-name="路径 12030" d="M74.626,1.5l-.075,62.123V83.341l-.038,7.575C66,92.138,57.5,93.4,49.006,94.638c-1.635.244-3.271.47-4.906.714V42.5L23.48,45.428V25.334c13.459-2.086,24.962-4.586,25.432-20.263L74.626,1.5Z" transform="translate(20.486 1.094)" fill="#b3e5ff" stroke="#040000" stroke-linejoin="bevel" stroke-width="0.25"/>
      <path id="路径_12031" data-name="路径 12031" d="M60.076.12,34.4,3.691l4.906,2.594L65.02,2.714,60.076.12Z" transform="translate(30.092 -0.12)" fill="#0182e5" stroke="#040000" stroke-linejoin="bevel" stroke-width="0.25"/>
    </g>
  </g>
</svg>
