<svg xmlns="http://www.w3.org/2000/svg" width="155.516" height="132.004" viewBox="0 0 155.516 132.004">
  <g id="图层_1" data-name="图层 1" transform="translate(0.001 0.159)">
    <g id="组_3625" data-name="组 3625" transform="translate(-0.001 0)">
      <path id="路径_12032" data-name="路径 12032" d="M102.315,38.509c-2.561-1.674-7.706-5.023-17.628-7.485-26.369-6.574-65.713-1.945-79.254,6.254C1.026,39.962.312,42.448.139,43.261-1.313,49.884,9.471,56.236,13.73,58.526q20.5-2.4,41.018-4.776C42.536,47.3,48.273,42.276,56.5,43.039c3.422.32,8.888,2.905,11.35,5.121.886.788,2.881,2.881-.025,7.14a21.406,21.406,0,0,1-6.352,5.81c-5.441,3.25-12.187,7.8-21.248,14.551,5.934,3.792,11.867,7.608,17.776,11.4l96.39-14.4L134.716,60c-14.723,2.191-29.939,4.186-43.85,6.771l-1.059-.566c12.532-7.189,29.422-16.619,12.507-27.723Z" transform="translate(-0.006 40.475)" opacity="0.08"/>
      <path id="路径_12033" data-name="路径 12033" d="M41.668,37.529,41.52,36.15l6.4,3.472.148,1.4-6.4-3.5Z" transform="translate(60.691 52.534)" fill="none" stroke="#040000" stroke-linejoin="bevel" stroke-width="0.25"/>
      <path id="路径_12034" data-name="路径 12034" d="M87.212,33.86C72,36.027,56.633,37.725,41.59,40.9l6.4,3.5c15.068-3.176,30.431-4.875,45.672-7.042l-6.426-3.472h0Z" transform="translate(60.794 49.186)" fill="#eb356f" stroke="#040000" stroke-linejoin="bevel" stroke-width="0.25"/>
      <path id="路径_12035" data-name="路径 12035" d="M19.63,60.753l99.64-14.4,6.426,3.5L25.982,64.274,19.63,60.753Z" transform="translate(28.686 67.447)" fill="none" stroke="#040000" stroke-linejoin="bevel" stroke-width="0.25"/>
      <path id="路径_12036" data-name="路径 12036" d="M19.61,40.95l.049,27.7,6.352,3.521-.049-27.723-6.352-3.5Z" transform="translate(28.657 59.552)" fill="#eb356f" stroke="#040000" stroke-linejoin="bevel" stroke-width="0.25"/>
      <path id="路径_12037" data-name="路径 12037" d="M47.712,67.784q-10.784,8.236-21.74,16.25L19.62,80.513c7.288-5.318,14.551-10.71,21.716-16.225,10.218-7.829,41.511-27.354,38.31-44.44a22.5,22.5,0,0,0-1.625-5.515c3.3-1.477,6.475.566,8.051,8.962C89.272,40.381,57.93,59.954,47.712,67.784Z" transform="translate(28.672 19.99)" fill="#eb356f" stroke="#040000" stroke-linejoin="bevel" stroke-width="0.25"/>
      <path id="路径_12038" data-name="路径 12038" d="M19.88,25.926,60.012,22.75l6.4,3.447L26.232,29.4,19.88,25.926Z" transform="translate(29.052 32.943)" fill="none" stroke="#040000" stroke-linejoin="bevel" stroke-width="0.25"/>
      <path id="路径_12039" data-name="路径 12039" d="M109.511,6.655c-17.973-7.091-45.819-.96-60.838,7.559-17.431,10-23.71,29.028-22.331,48.257l-6.352-3.447C18.611,39.794,24.864,20.762,42.3,10.791,59.235,1.164,92.522-5.385,109.511,6.655Z" transform="translate(28.942 -0.13)" fill="#eb356f" stroke="#040000" stroke-linejoin="bevel" stroke-width="0.25"/>
      <path id="路径_12040" data-name="路径 12040" d="M88.191,13.68v-.96l6.451,3.422c-.32,26.935-26.812,44.367-46.73,57.736l-6.4-3.5C61.133,57.21,87.3,40.049,88.166,13.68h0Z" transform="translate(60.677 18.278)" fill="none" stroke="#040000" stroke-linejoin="bevel" stroke-width="0.25"/>
      <path id="路径_12041" data-name="路径 12041" d="M73.13,30.7,66.7,27.278C67.245,15.46,63.035,7.63,56.24,2.78,66.7,6.867,73.819,15.484,73.13,30.7Z" transform="translate(82.213 3.745)" fill="#f08825" stroke="#040000" stroke-linejoin="bevel" stroke-width="0.25"/>
      <path id="路径_12042" data-name="路径 12042" d="M122.962,33.222c.049-4.087.1-12.163-5.023-19.253C104.4-4.792,65.325-1.616,43.24,13.748A49.176,49.176,0,0,0,30.979,25.762c-9.9,14.083-9.11,29.643-8.543,35.355q20.312-1.588,40.649-3.2c-1.8-16.053,9.577-25.95,15.462-22.848,2.437,1.28,3.669,7.8,2.831,13.049-.3,1.871-1.354,6.746-9.381,15.462A80.882,80.882,0,0,1,59.071,75.028c-8.814,6.081-20.411,14.748-36.833,27.748,0,9.233,0,18.49.025,27.723l99.714-14.428.049-30.776c-15.216,2.191-30.6,3.865-45.672,7.042l-.148-1.4c19.918-13.369,46.41-30.8,46.73-57.736Z" transform="translate(32.356 1.198)" fill="#ffcae9" stroke="#040000" stroke-linejoin="bevel" stroke-width="0.25"/>
    </g>
  </g>
</svg>
