<svg xmlns="http://www.w3.org/2000/svg" width="119.315" height="101.309" viewBox="0 0 119.315 101.309">
  <g id="图层_1" data-name="图层 1" transform="translate(0 0.152)">
    <g id="组_3625" data-name="组 3625" transform="translate(0 0)">
      <path id="路径_12032" data-name="路径 12032" d="M78.481,36.038A40.588,40.588,0,0,0,64.959,30.3c-20.226-5.042-50.4-1.492-60.791,4.8C.788,37.152.24,39.059.108,39.683c-1.114,5.08,7.157,9.952,10.424,11.709q15.722-1.841,31.462-3.664c-9.367-4.948-4.967-8.8,1.341-8.215a18.978,18.978,0,0,1,8.706,3.928c.68.6,2.21,2.21-.019,5.477a16.419,16.419,0,0,1-4.872,4.457c-4.174,2.493-9.348,5.986-16.3,11.161,4.551,2.908,9.1,5.835,13.635,8.744l73.934-11.048-15.089-9.707C92.04,54.205,80.369,55.735,69.7,57.718l-.812-.434c9.612-5.514,22.567-12.747,9.594-21.264Z" transform="translate(-0.006 24.545)" fill="#d9f2ff" opacity="0.08"/>
      <path id="路径_12033" data-name="路径 12033" d="M41.633,37.208,41.52,36.15l4.91,2.663.113,1.076-4.91-2.682Z" transform="translate(36.879 31.874)" fill="none" stroke="#040000" stroke-linejoin="bevel" stroke-width="0.25"/>
      <path id="路径_12034" data-name="路径 12034" d="M76.584,33.86c-11.671,1.662-23.455,2.965-34.994,5.4l4.91,2.682c11.558-2.436,23.342-3.739,35.032-5.4L76.6,33.879h0Z" transform="translate(36.941 29.839)" fill="#0182e5" stroke="#040000" stroke-linejoin="bevel" stroke-width="0.25"/>
      <path id="路径_12035" data-name="路径 12035" d="M19.63,57.4,96.057,46.35l4.929,2.682L24.5,60.1,19.63,57.4Z" transform="translate(17.43 40.936)" fill="none" stroke="#040000" stroke-linejoin="bevel" stroke-width="0.25"/>
      <path id="路径_12036" data-name="路径 12036" d="M19.61,40.95,19.648,62.2l4.872,2.7-.038-21.264L19.61,40.95Z" transform="translate(17.412 36.138)" fill="#0182e5" stroke="#040000" stroke-linejoin="bevel" stroke-width="0.25"/>
      <path id="路径_12037" data-name="路径 12037" d="M41.168,55.228Q32.9,61.545,24.492,67.692l-4.872-2.7c5.59-4.079,11.161-8.215,16.656-12.445,7.837-6.005,31.84-20.981,29.385-34.087a17.257,17.257,0,0,0-1.246-4.23c2.531-1.133,4.967.434,6.175,6.874C73.045,34.21,49,49.223,41.168,55.228Z" transform="translate(17.421 12.096)" fill="#0182e5" stroke="#040000" stroke-linejoin="bevel" stroke-width="0.25"/>
      <path id="路径_12038" data-name="路径 12038" d="M19.88,25.186,50.662,22.75l4.91,2.644-30.82,2.455L19.88,25.186Z" transform="translate(17.652 19.968)" fill="none" stroke="#040000" stroke-linejoin="bevel" stroke-width="0.25"/>
      <path id="路径_12039" data-name="路径 12039" d="M88.612,5.135C74.826-.3,53.467,4.4,41.947,10.932,28.577,18.6,23.761,33.2,24.819,47.947L19.947,45.3c-1.058-14.749,3.739-29.347,17.11-37C50.049.923,75.581-4.1,88.612,5.135Z" transform="translate(17.586 -0.13)" fill="#0182e5" stroke="#040000" stroke-linejoin="bevel" stroke-width="0.25"/>
      <path id="路径_12040" data-name="路径 12040" d="M77.316,13.457V12.72l4.948,2.625C82.018,36.005,61.7,49.376,46.42,59.63l-4.91-2.682C56.561,46.845,76.636,33.682,77.3,13.457h0Z" transform="translate(36.87 11.056)" fill="none" stroke="#040000" stroke-linejoin="bevel" stroke-width="0.25"/>
      <path id="路径_12041" data-name="路径 12041" d="M69.2,24.2,64.266,21.57c.415-9.065-2.814-15.07-8.026-18.79C64.266,5.915,69.724,12.525,69.2,24.2Z" transform="translate(49.958 2.225)" fill="#d9f2ff" stroke="#040000" stroke-linejoin="bevel" stroke-width="0.25"/>
      <path id="路径_12042" data-name="路径 12042" d="M99.474,25.724c.038-3.135.076-9.329-3.853-14.768C85.235-3.434,55.264-1,38.325,10.787A37.719,37.719,0,0,0,28.92,20c-7.592,10.8-6.987,22.737-6.553,27.119q15.58-1.218,31.179-2.455c-1.379-12.313,7.346-19.9,11.86-17.525,1.87.982,2.814,5.986,2.172,10.009-.227,1.435-1.039,5.174-7.2,11.86a62.039,62.039,0,0,1-9.915,8.781C43.707,62.455,34.812,69.1,22.216,79.074c0,7.082,0,14.183.019,21.264L98.718,89.272l.038-23.606c-11.671,1.681-23.474,2.965-35.032,5.4l-.113-1.076c15.278-10.254,35.6-23.625,35.844-44.285Z" transform="translate(19.66 0.677)" fill="#b3e5ff" stroke="#040000" stroke-linejoin="bevel" stroke-width="0.25"/>
    </g>
  </g>
</svg>
