<svg xmlns="http://www.w3.org/2000/svg" width="147.347" height="125.078" viewBox="0 0 147.347 125.078">
  <g id="图层_1" data-name="图层 1" transform="translate(0 0.158)">
    <g id="组_3625" data-name="组 3625" transform="translate(0 0)">
      <path id="路径_12032" data-name="路径 12032" d="M96.937,37.951a50.134,50.134,0,0,0-16.7-7.091c-24.983-6.228-62.258-1.843-75.088,5.925C.972,39.328.3,41.684.132,42.453c-1.376,6.275,8.841,12.293,12.876,14.462Q32.428,54.641,51.87,52.39c-11.57-6.112-6.135-10.87,1.656-10.147A23.442,23.442,0,0,1,64.28,47.1c.84.746,2.729,2.729-.023,6.765a20.281,20.281,0,0,1-6.018,5.505c-5.155,3.079-11.547,7.394-20.131,13.786,5.622,3.592,11.243,7.208,16.842,10.8l91.323-13.646-18.638-11.99C113.685,60.391,99.27,62.281,86.09,64.73l-1-.537c11.873-6.811,27.875-15.745,11.85-26.266Z" transform="translate(-0.006 36.88)" opacity="0.08"/>
      <path id="路径_12033" data-name="路径 12033" d="M41.66,37.456l-.14-1.306,6.065,3.289.14,1.33L41.66,37.456Z" transform="translate(55.318 47.872)" fill="none" stroke="#040000" stroke-linejoin="bevel" stroke-width="0.25"/>
      <path id="路径_12034" data-name="路径 12034" d="M84.814,33.86C70.4,35.913,55.842,37.522,41.59,40.531l6.065,3.312c14.276-3.009,28.831-4.619,43.271-6.671l-6.088-3.289h0Z" transform="translate(55.411 44.82)" fill="#dcdc03" stroke="#040000" stroke-linejoin="bevel" stroke-width="0.25"/>
      <path id="路径_12035" data-name="路径 12035" d="M19.63,60l94.4-13.646,6.088,3.312L25.648,63.332,19.63,60Z" transform="translate(26.146 61.465)" fill="none" stroke="#040000" stroke-linejoin="bevel" stroke-width="0.25"/>
      <path id="路径_12036" data-name="路径 12036" d="M19.61,40.95l.047,26.242,6.018,3.336-.047-26.266L19.61,40.95Z" transform="translate(26.12 54.269)" fill="#dcdc03" stroke="#040000" stroke-linejoin="bevel" stroke-width="0.25"/>
      <path id="路径_12037" data-name="路径 12037" d="M46.235,64.951q-10.217,7.8-20.6,15.4L19.62,77.01c6.9-5.039,13.786-10.147,20.574-15.372,9.68-7.418,39.328-25.916,36.3-42.1a21.316,21.316,0,0,0-1.54-5.225c3.126-1.4,6.135.537,7.628,8.491C85.61,38.988,55.916,57.533,46.235,64.951Z" transform="translate(26.133 18.208)" fill="#dcdc03" stroke="#040000" stroke-linejoin="bevel" stroke-width="0.25"/>
      <path id="路径_12038" data-name="路径 12038" d="M19.88,25.759,57.9,22.75l6.065,3.266L25.9,29.048,19.88,25.759Z" transform="translate(26.48 30.015)" fill="none" stroke="#040000" stroke-linejoin="bevel" stroke-width="0.25"/>
      <path id="路径_12039" data-name="路径 12039" d="M104.795,6.312C87.766-.406,61.384,5.4,47.155,13.473,30.64,22.944,24.692,40.975,26,59.193L19.98,55.927c-1.306-18.218,4.619-36.249,21.134-45.7C57.162,1.11,88.7-5.095,104.795,6.312Z" transform="translate(26.38 -0.13)" fill="#dcdc03" stroke="#040000" stroke-linejoin="bevel" stroke-width="0.25"/>
      <path id="路径_12040" data-name="路径 12040" d="M85.737,13.63v-.91l6.112,3.242c-.3,25.519-25.4,42.034-44.274,54.7L41.51,67.351C60.1,54.871,84.9,38.612,85.714,13.63h0Z" transform="translate(55.305 16.648)" fill="none" stroke="#040000" stroke-linejoin="bevel" stroke-width="0.25"/>
      <path id="路径_12041" data-name="路径 12041" d="M72.242,29.232,66.154,25.99c.513-11.2-3.476-18.614-9.914-23.21C66.154,6.652,72.9,14.816,72.242,29.232Z" transform="translate(74.934 3.402)" fill="#f08825" stroke="#040000" stroke-linejoin="bevel" stroke-width="0.25"/>
      <path id="路径_12042" data-name="路径 12042" d="M117.662,31.531c.047-3.872.093-11.523-4.759-18.241-12.83-17.775-49.849-14.766-70.772-.21A46.591,46.591,0,0,0,30.514,24.463c-9.377,13.343-8.631,28.085-8.094,33.5q19.244-1.5,38.512-3.032c-1.7-15.209,9.074-24.586,14.649-21.647,2.309,1.213,3.476,7.394,2.683,12.363-.28,1.773-1.283,6.391-8.887,14.649A76.629,76.629,0,0,1,57.13,71.139c-8.351,5.762-19.338,13.973-34.9,26.289,0,8.747,0,17.518.023,26.266l94.472-13.669.047-29.158c-14.416,2.076-28.995,3.662-43.271,6.671l-.14-1.33c18.871-12.666,43.97-29.181,44.274-54.7Z" transform="translate(29.491 1.08)" fill="#ffff5a" stroke="#040000" stroke-linejoin="bevel" stroke-width="0.25"/>
    </g>
  </g>
</svg>
