<svg xmlns="http://www.w3.org/2000/svg" width="165.099" height="127.957" viewBox="0 0 165.099 127.957">
  <g id="图层_1" data-name="图层 1" transform="translate(0 0.085)">
    <g id="组_3626" data-name="组 3626" transform="translate(0 0)">
      <path id="路径_12043" data-name="路径 12043" d="M125.484,70.848s-.172.222-.271.32h0a8.009,8.009,0,0,0-2.068-2.339,4.473,4.473,0,0,0-.714-.492,6.856,6.856,0,0,0-.763-.492c-.246-.148-.492-.3-.788-.443-.271-.148-.566-.3-.862-.443a16.448,16.448,0,0,0-1.871-.763h-.025a18.49,18.49,0,0,0-2.068-.689c-1.083-.32-2.216-.591-3.422-.837-.812-.172-1.65-.32-2.487-.443-1.28-.2-2.536-.369-3.89-.492h0c-1.97-.172-4.038-.3-6.106-.32-.739-.025-1.428-.049-2.167-.049-.837,0-1.674.025-2.536.049L91.9,61.467l-14.9,3.989L66.542,55.8c.345-.074.739-.148,1.108-.222.763-.172,1.526-.345,2.29-.566.394-.074.788-.2,1.182-.3.419-.123.788-.222,1.206-.345,1.206-.345,2.413-.763,3.595-1.206.419-.148.788-.3,1.206-.468a9.829,9.829,0,0,0,1.182-.468,12.572,12.572,0,0,0,1.157-.492,24.153,24.153,0,0,0,2.265-1.059c.739-.345,1.428-.714,2.093-1.108h.025a9.061,9.061,0,0,0,.96-.591c.616-.369,1.231-.763,1.8-1.182a18.21,18.21,0,0,0,2.142-1.871q.443-.48.813-.96a5.061,5.061,0,0,0,.591-.96,2.908,2.908,0,0,0,.271-.665,1.564,1.564,0,0,0,.123-.566,2.235,2.235,0,0,0,.074-.566,3.03,3.03,0,0,0-.074-.812,3.726,3.726,0,0,0-.492-1.28,7.138,7.138,0,0,0-1.97-1.994c-.172-.123-.345-.246-.542-.369-.246-.148-.492-.3-.788-.468a4.05,4.05,0,0,0-.468-.246,24.1,24.1,0,0,0-3.5-1.477c-.419-.148-.812-.32-1.28-.443-.443-.148-.936-.3-1.379-.419-1.477-.419-3.127-.812-4.973-1.206-.517-.123-.985-.2-1.5-.271-.443-.1-.96-.172-1.4-.246-.419-.074-.837-.123-1.182-.172-.32-.025-.64-.074-.886-.074a6.4,6.4,0,0,0-.64-.074c-.665-.074-1.33-.123-2.019-.148-.32,0-.616-.025-.936-.049-.468,0-.911-.025-1.354,0-.049-.025-.1,0-.123,0-.419,0-.862,0-1.33.025H63.76a42.843,42.843,0,0,0-4.481.369c-.886.123-1.723.271-2.561.443-.419.074-.837.172-1.231.271-.714.172-1.4.369-2.068.566-.1.049-.2.074-.3.123a16.122,16.122,0,0,0-1.92.689,20.148,20.148,0,0,0-2.536,1.133c-.345.2-.665.394-1.009.591a19.345,19.345,0,0,0-2.093,1.4,8.988,8.988,0,0,0-.886.763,9.766,9.766,0,0,0-1.009,1.009,2.488,2.488,0,0,0-.468.566A7.913,7.913,0,0,0,41.8,42.9a6.308,6.308,0,0,0-.32,1.3,5.811,5.811,0,0,0-.025,1.3,3.1,3.1,0,0,0,.1.665,2.044,2.044,0,0,0,.148.517,5.763,5.763,0,0,0,.222.591,4.142,4.142,0,0,0,.394.812,5.406,5.406,0,0,0,.419.616,7.194,7.194,0,0,0,1.083,1.231L5.162,55.928A19.569,19.569,0,0,1,3.119,53.54c-.123-.172-.271-.32-.369-.492a15.733,15.733,0,0,1-.936-1.428c-.271-.468-.517-.96-.739-1.428a11.143,11.143,0,0,1-.862-2.807c-.074-.419-.148-.837-.2-1.28,0-.394-.025-.812,0-1.206.049-.345.1-.689.148-1.059a6.748,6.748,0,0,1,.2-.911c.074-.271.172-.566.271-.837A14.553,14.553,0,0,1,2.749,38.1c.222-.32.492-.64.763-.96.3-.345.591-.689.936-1.034.074-.049.123-.123.222-.2a5.48,5.48,0,0,1,.665-.64c.32-.32.689-.616,1.059-.936,5.17-4.259,15.56-8.839,28.117-12.36A164.988,164.988,0,0,1,64.4,16.51c-.049.468-.074.96-.1,1.453l6.352,3.472,28.782-.812a11.6,11.6,0,0,1,.148-1.822c.566.148,1.083.3,1.6.443a52.509,52.509,0,0,1,14.8,6.524A39.116,39.116,0,0,1,103.5,29.46V45.144l6.377,3.472c.566-.123,1.157-.222,1.723-.3a24.26,24.26,0,0,1,2.659-.246h.3a24.843,24.843,0,0,1,2.708,0,5.163,5.163,0,0,1-.739.369,28.91,28.91,0,0,1-3.373,1.453l2.191,2.019q1.256-.185,2.511-.3c.542-.049,1.108-.123,1.65-.148.886-.074,1.748-.123,2.634-.172.566,0,1.083-.025,1.625-.025.665-.025,1.28-.025,1.945-.025h.025c.591,0,1.182,0,1.748.049h.222c3.989,4.506,4.456,11.178-2.191,19.573Z" transform="translate(-0.006 23.826)" opacity="0.08"/>
      <path id="路径_12044" data-name="路径 12044" d="M31.27,38.759l14.9-3.989,3.545,1.945h-.32a.086.086,0,0,1-.049.025c-1.7.049-3.348.148-4.973.3-2.339.2-4.579.468-6.746.837a2.218,2.218,0,0,0-.394.074c-1.182.172-2.314.394-3.447.64-.714.172-1.453.345-2.142.517l-.369-.345Z" transform="translate(45.705 50.523)" fill="#d9f2ff" stroke="#000" stroke-linejoin="bevel" stroke-width="0.25"/>
      <path id="路径_12045" data-name="路径 12045" d="M32.462,21.741,26.11,18.27c.025-.492.049-.985.1-1.453,2.29-.2,4.579-.345,6.845-.419,2.339-.1,4.678-.123,6.992-.074a94.957,94.957,0,0,1,12.877,1.059c.271.049.566.074.837.123.566.1,1.108.2,1.674.271,2.068.394,4.038.812,5.934,1.33h.025a11.6,11.6,0,0,0-.148,1.822l-28.782.812Z" transform="translate(38.161 23.519)" fill="#d9f2ff" stroke="#000" stroke-linejoin="bevel" stroke-width="0.25"/>
      <path id="路径_12046" data-name="路径 12046" d="M48.407,43.118,42.03,39.647V23.963A39.116,39.116,0,0,0,54.513,20.27a27,27,0,0,1,4.9,4.112C64.607,30,64.681,36.224,58.5,40.828a8.744,8.744,0,0,1-.763.566,2.271,2.271,0,0,1-.2.123,12.468,12.468,0,0,1-1.4.862l-.3.148-.049.025a24.847,24.847,0,0,0-2.708,0h-.3a24.259,24.259,0,0,0-2.659.246c-.566.074-1.157.172-1.723.3Z" transform="translate(61.437 29.323)" fill="#d9f2ff" stroke="#000" stroke-linejoin="bevel" stroke-width="0.25"/>
      <path id="路径_12047" data-name="路径 12047" d="M74.264,64.695a140.192,140.192,0,0,1-23.956-.812c-.812-.074-1.6-.2-2.364-.3a6.63,6.63,0,0,1-.788-.123h-.049c-10.291-1.6-19.647-4.53-26.984-9.159-.468-.3-.985-.64-1.453-.96-.222-.148-.419-.271-.616-.419-.32-.222-.665-.468-.96-.714-.566-.419-1.108-.837-1.625-1.28l26.689-8.174c2.979,7.288,8.494,12.113,15.413,14.994A26.236,26.236,0,0,1,47.3,42.61,28.033,28.033,0,0,0,57.645,57.776h.025a2.834,2.834,0,0,0,.419.345c.419.3.837.591,1.3.862a40.724,40.724,0,0,0,14.871,5.712Z" transform="translate(22.605 61.986)" opacity="0.08"/>
      <path id="路径_12048" data-name="路径 12048" d="M125.876,46.535C123.931,56.753,117.136,65.222,108,71.4c-.443.32-.911.616-1.379.911-13.049,5.417-30.628,9.085-48.207,9.9A40.723,40.723,0,0,1,43.545,76.5c-.468-.271-.886-.566-1.3-.862-.148-.1-.3-.222-.419-.32H41.8A28.188,28.188,0,0,1,31.456,60.126,26.236,26.236,0,0,0,41.723,75.267C34.8,72.387,29.289,67.561,26.31,60.273l1.6-.492,3.225-.985,3.25-1.009a14.393,14.393,0,0,0,2.167,1.576,8.408,8.408,0,0,0,.911.616c.271.148.517.3.837.443a7.055,7.055,0,0,0,1.059.542,3.911,3.911,0,0,0,.788.394c.271.123.591.271.911.394.32.148.714.3,1.059.443.271.1.566.2.886.32.443.172.936.32,1.4.468q1.957.628,4.062,1.108c.714.172,1.453.32,2.167.443h.025c.936.172,1.871.32,2.831.468,1.576.2,3.225.369,4.875.468.837.025,1.7.074,2.561.074,1.7.049,3.4,0,5.047-.074a59.813,59.813,0,0,0,7.559-.936,42.013,42.013,0,0,0,4.53-1.182,26.536,26.536,0,0,0,3.792-1.576c.64-.345,1.231-.714,1.8-1.083.32-.246.616-.492.911-.739.025,0,.025-.025.049-.049a7.62,7.62,0,0,0,1.477-1.625,4.755,4.755,0,0,0,.542-.886c.222-.443.394-.886.566-1.3a6.563,6.563,0,0,0,.3-1.256,4.25,4.25,0,0,0,.123-1.108,4.969,4.969,0,0,0-.148-1.354,2.22,2.22,0,0,0-.222-.788c.025-.074-.025-.123-.025-.148a4.556,4.556,0,0,0-.468-.911h0s.172-.222.271-.32c6.648-8.4,6.18-15.068,2.191-19.573a6.765,6.765,0,0,1,.985.049h.123c.369,0,.714.025,1.083.049h.025c.345.025.714.074,1.059.1.763.049,1.5.123,2.216.2.714.1,1.379.172,2.068.271.443.074.936.148,1.379.222.665.123,1.3.222,1.945.369.64.123,1.28.246,1.92.419a21.432,21.432,0,0,1,2.167.542,6.647,6.647,0,0,1,1.059.3,1.62,1.62,0,0,1,.369.1c.616.172,1.231.369,1.8.566.517.172,1.034.345,1.526.542.837.3,1.6.616,2.388.936.64.3,1.256.566,1.9.862.074.025.1.074.172.1.616.3,1.182.591,1.773.911.542.32,1.059.591,1.6.911a.362.362,0,0,0,.148.123c.591.345,1.133.714,1.65,1.083a4.354,4.354,0,0,1,.542.394c.2.148.369.271.566.419l.049.049c.246.2.517.394.788.616a23.673,23.673,0,0,1,2.265,2.167c.566.517,1.034,1.034,1.527,1.551A16.448,16.448,0,0,1,125.876,46.535Z" transform="translate(38.454 44.47)" fill="#d9f2ff" stroke="#000" stroke-linejoin="bevel" stroke-width="0.25"/>
      <path id="路径_12049" data-name="路径 12049" d="M43.126,64.521c-6.918-2.881-12.433-7.706-15.413-14.994A33.844,33.844,0,0,1,25.35,37.98l6.328,3.5c.025.689.074,1.379.148,2.044.025.394.074.788.123,1.157a3.559,3.559,0,0,0,.1.714c.074.517.172,1.059.271,1.551l.222,1.108a11.632,11.632,0,0,0,.32,1.33A26.236,26.236,0,0,0,43.126,64.521Z" transform="translate(37.05 55.216)" fill="#eb356f" stroke="#000" stroke-linejoin="bevel" stroke-width="0.25"/>
      <path id="路径_12050" data-name="路径 12050" d="M61.2,38.266l-5.49,1.477-24.03,6.426-6.328-3.5,14.575-3.915,14.9-3.989,3.545,1.945Z" transform="translate(37.05 50.523)" fill="#eb356f" stroke="#000" stroke-linejoin="bevel" stroke-width="0.25"/>
      <path id="路径_12051" data-name="路径 12051" d="M48.882,48.451a16.535,16.535,0,0,1-11.2-10.784l5.49-1.477a14.293,14.293,0,0,0,.3,2.561,4.342,4.342,0,0,0,.172.985,4.46,4.46,0,0,0,.222.763,3.59,3.59,0,0,0,.3.96,2.429,2.429,0,0,0,.246.665,3.634,3.634,0,0,0,.3.714,5.929,5.929,0,0,0,.369.812,3.674,3.674,0,0,0,.345.591,7.276,7.276,0,0,0,.566.936A16.306,16.306,0,0,0,47.8,47.442a10.327,10.327,0,0,0,1.083,1.009Z" transform="translate(55.077 52.599)" fill="#8bd4fa" stroke="#000" stroke-linejoin="bevel" stroke-width="0.25"/>
      <path id="路径_12052" data-name="路径 12052" d="M64.509,32.963c-.419-.148-.837-.271-1.28-.394-.591-.172-1.206-.345-1.847-.468h-.049a31.035,31.035,0,0,0-3.373-.542,20.447,20.447,0,0,0-2.117-.172c-.911-.025-1.847-.025-2.758.025h-.3a24.259,24.259,0,0,0-2.659.246c-.566.074-1.157.172-1.723.3L42.03,28.482a30.592,30.592,0,0,1,6.377-.591A30.19,30.19,0,0,1,58.5,29.664a20.137,20.137,0,0,1,6.007,3.275Z" transform="translate(61.437 40.463)" fill="#8bd4fa" stroke="#000" stroke-linejoin="bevel" stroke-width="0.25"/>
      <path id="路径_12053" data-name="路径 12053" d="M75.222,41.793a12.723,12.723,0,0,1-.271,3.545c-.1.443-.222.886-.345,1.354a1.013,1.013,0,0,1-.074.2,10.529,10.529,0,0,1-.419,1.133,13.7,13.7,0,0,1-.837,1.871,14.958,14.958,0,0,1-.837,1.477c-.32.542-.665,1.083-1.059,1.65-.394.542-.812,1.108-1.256,1.674a14.1,14.1,0,0,1-.96,1.108,19.106,19.106,0,0,1-3.225,2.807,21.683,21.683,0,0,1-1.9,1.157,18.9,18.9,0,0,1-2.191.936c-.2.074-.369.172-.566.246-.271.1-.517.172-.763.246a18.878,18.878,0,0,1-3.693.739,19.328,19.328,0,0,1-5.466-.172,21.283,21.283,0,0,1-3.275-.837c-.542-.172-1.059-.394-1.576-.616a17.931,17.931,0,0,1-2.782-1.551c-.517-.369-1.009-.763-1.5-1.157a19.819,19.819,0,0,0,21.248-6.081c.1-.1.172-.222.271-.32,6.648-8.4,6.18-15.068,2.191-19.573a14.5,14.5,0,0,0-1.65-1.6l-.074-.074a24.642,24.642,0,0,1,3.742,1.674h.025a.708.708,0,0,1,.148.1h.025c.689.419,1.33.862,1.97,1.3a14.109,14.109,0,0,1,1.28,1.083,13.714,13.714,0,0,1,1.6,1.8,11.961,11.961,0,0,1,.862,1.3h0c.246.468.468.96.665,1.428.1.246.172.517.246.763s.148.517.2.763a4.7,4.7,0,0,1,.148.812,8.148,8.148,0,0,1,.1.812Z" transform="translate(61.73 43.476)" fill="#eb356f" stroke="#000" stroke-linejoin="bevel" stroke-width="0.25"/>
      <path id="路径_12054" data-name="路径 12054" d="M48.407,25.242V40.925L42.03,37.453V21.77Z" transform="translate(61.437 31.516)" fill="#eb356f" stroke="#000" stroke-linejoin="bevel" stroke-width="0.25"/>
      <path id="路径_12055" data-name="路径 12055" d="M48.968,20.712a18.486,18.486,0,0,0-1.231,1.6c-.394.566-.763,1.133-1.108,1.723s-.64,1.182-.911,1.773c-.148.3-.271.591-.394.911-.1.246-.2.492-.271.739a8.814,8.814,0,0,0-.271.862,11.427,11.427,0,0,0-.3,1.157c-.074.32-.123.64-.172.936v.049a11.6,11.6,0,0,0-.148,1.822l-5.811-3.151-.566-.3c.172-13.2,19.82-27.181,31.145-16.545a13.029,13.029,0,0,0-3.1-.345,16.835,16.835,0,0,0-1.945.123,6.8,6.8,0,0,0-.985.148q-.849.148-1.7.369a1.2,1.2,0,0,0-.271.1,1.814,1.814,0,0,0-.345.1c-.443.123-.911.3-1.354.468-.394.148-.763.3-1.133.468-.32.148-.64.3-.936.443-.123.049-.222.123-.345.172l-1.034.591c-.148.1-.3.172-.443.271-.3.172-.591.369-.886.566-.345.222-.665.443-.985.689-.369.271-.739.566-1.083.862a15.783,15.783,0,0,0-1.354,1.206,8.787,8.787,0,0,0-.689.665c-.468.492-.936.985-1.354,1.477a.076.076,0,0,1-.025.049Z" transform="translate(55.238 12.164)" fill="#8bd4fa" stroke="#000" stroke-linejoin="bevel" stroke-width="0.25"/>
      <path id="路径_12056" data-name="路径 12056" d="M74.416,23.528a9.767,9.767,0,0,1-.2,1.92,9.979,9.979,0,0,1-.566,1.847,11.541,11.541,0,0,1-.517,1.133,8.581,8.581,0,0,1-.443.763,6.126,6.126,0,0,1-.468.739,9.072,9.072,0,0,1-.616.837c-.222.271-.468.542-.689.812-.123.123-.246.271-.369.394-.369.394-.763.788-1.182,1.157a28.862,28.862,0,0,1-2.659,2.142c-.64.443-1.3.862-1.97,1.28-.32.222-.665.419-1.009.616h0c-.689.394-1.379.763-2.093,1.108-.714.369-1.428.689-2.167,1.009-.025,0-.025.025-.049.025a9.093,9.093,0,0,1-1.034.419c-.369.148-.714.3-1.083.419-.369.148-.714.271-1.083.394-1.059.369-2.117.689-3.127.96-.345.1-.665.172-1.009.246-.32.074-.64.148-.96.2a18.187,18.187,0,0,1-1.847.32c-.3.049-.591.074-.862.1L42.04,38.891A39.116,39.116,0,0,0,54.523,35.2C64.962,30.249,74.1,20.967,62.894,10.183l-.123-.123c.3.074.591.148.862.222a.09.09,0,0,1,.074.025c.3.074.566.172.862.271.2.074.369.172.566.246.074.025.123.049.2.074a6.3,6.3,0,0,1,.591.271c.123.074.271.148.394.222a2.932,2.932,0,0,1,.369.222,3.71,3.71,0,0,1,.492.3,7.621,7.621,0,0,1,.64.443,5.549,5.549,0,0,1,.739.591,6.417,6.417,0,0,1,.763.665,27.072,27.072,0,0,1,2.339,2.585c.2.271.394.566.591.837s.345.566.517.837a12.211,12.211,0,0,1,1.206,2.684,2.977,2.977,0,0,1,.123.443c.074.271.123.542.172.788a4.93,4.93,0,0,1,.1.591,9.127,9.127,0,0,1,.074,1.157Z" transform="translate(61.452 14.395)" fill="#eb356f" stroke="#000" stroke-linejoin="bevel" stroke-width="0.25"/>
      <path id="路径_12057" data-name="路径 12057" d="M57.472,20.212l-28.782.812a29.463,29.463,0,0,1,.345-3.644l20.952-.591h1.108l.566.271,5.811,3.151Z" transform="translate(41.933 24.235)" fill="none" stroke="#000" stroke-linejoin="bevel" stroke-width="0.25"/>
      <path id="路径_12058" data-name="路径 12058" d="M106.62,4.886C97.412,1.71,85.643,2.178,74.613,4.714,64.174,7.126,54.4,11.386,48.146,16.211c-.443.345-.886.689-1.3,1.059-.3.246-.616.492-.886.763-.1.074-.172.148-.271.222-.443.394-.886.812-1.3,1.231a12.829,12.829,0,0,0-1.157,1.157c-.369.394-.739.788-1.108,1.206a33.737,33.737,0,0,0-3.742,4.924c-.271.394-.517.812-.763,1.206l-.812,1.4c-.3.542-.566,1.108-.837,1.65-.271.591-.517,1.182-.763,1.773a33.2,33.2,0,0,0-1.379,3.989c-.2.689-.369,1.379-.517,2.093-.074.369-.172.763-.246,1.157l-.148.96a3.8,3.8,0,0,0-.1.739,29.462,29.462,0,0,0-.345,3.644L26.11,41.916c.025-.492.049-.985.1-1.453C27.957,17.812,48.564,5.5,69.319,1.907c11.67-2.142,26.837-3.521,37.3,2.979Z" transform="translate(38.161 -0.127)" fill="#eb356f" stroke="#000" stroke-linejoin="bevel" stroke-width="0.25"/>
      <path id="路径_12059" data-name="路径 12059" d="M67.986,2.581c-14.3,2.462-28.535,9.06-36.586,20.361a41.861,41.861,0,0,1,4.087-5.023c.369-.394.763-.763,1.157-1.157.419-.419.862-.837,1.3-1.231.1-.074.172-.148.271-.222.271-.271.591-.517.886-.763.419-.369.862-.714,1.3-1.059C46.665,8.662,56.439,4.4,66.879,1.99Z" transform="translate(45.896 2.596)" fill="#8bd4fa" stroke="#000" stroke-linejoin="bevel" stroke-width="0.25"/>
      <path id="路径_12060" data-name="路径 12060" d="M79.343,4.418C69.4.7,56.889,1.981,46.918,3.8L45.81,3.212c11.03-2.536,22.8-3,32.007.172C78.334,3.7,78.851,4.049,79.343,4.418Z" transform="translate(66.964 1.375)" fill="#8bd4fa" stroke="#000" stroke-linejoin="bevel" stroke-width="0.25"/>
      <path id="路径_12061" data-name="路径 12061" d="M66.372,52.337a8.572,8.572,0,0,1-1.059.542,23.693,23.693,0,0,1-3.151,1.33l-6.4-3.447c16.274-5.515,24.325-26.27,15.265-41.437A22.929,22.929,0,0,0,64.8,2.48,24.54,24.54,0,0,1,74.94,9.3c.271.3.517.616.739.911a21.126,21.126,0,0,1,1.773,2.536C85.7,26.534,79.765,44.975,66.372,52.337Z" transform="translate(81.512 3.313)" fill="#8bd4fa" stroke="#000" stroke-linejoin="bevel" stroke-width="0.25"/>
      <path id="路径_12062" data-name="路径 12062" d="M55.76,25.266V22.09l6.426,3.447-.025,3.176-6.4-3.447Z" transform="translate(81.512 31.984)" fill="none" stroke="#000" stroke-linejoin="bevel" stroke-width="0.25"/>
      <path id="路径_12063" data-name="路径 12063" d="M76.958,47.976c.911-13.517-7.091-24.571-21.2-24.6l6.4,3.447c14.132.025,22.134,11.1,21.223,24.621l-6.426-3.472Z" transform="translate(81.512 33.87)" fill="#eb356f" stroke="#000" stroke-linejoin="bevel" stroke-width="0.25"/>
      <path id="路径_12064" data-name="路径 12064" d="M124.138,80.56a31.472,31.472,0,0,1-.049,3.4c0,.812-.049,1.6-.1,2.388a29.547,29.547,0,0,1-.468,3.3c-1.945,10.218-8.74,18.687-17.875,24.867-.443.32-.911.616-1.379.911a61.885,61.885,0,0,1-6.254,3.521,2.075,2.075,0,0,1-.345.148c-12.9,6.254-28.462,8.666-41.609,6.229a40.724,40.724,0,0,1-14.871-5.712c-.468-.271-.886-.566-1.3-.862-.148-.1-.3-.222-.419-.32h-.025A28.188,28.188,0,0,1,29.1,103.236c-.1-.443-.222-.886-.32-1.33L28.56,100.8c-.1-.492-.2-1.034-.271-1.551a7.1,7.1,0,0,1-.1-.714c-.049-.369-.1-.763-.123-1.157-.074-.665-.123-1.354-.148-2.044l24.03-6.426,5.49-1.477a14.293,14.293,0,0,0,.3,2.561,4.341,4.341,0,0,0,.172.985,3.9,3.9,0,0,0,.222.763,4.778,4.778,0,0,0,.3.96,2.429,2.429,0,0,0,.246.665,3.634,3.634,0,0,0,.3.714c.1.271.246.542.369.812.1.2.222.394.345.591.172.32.369.64.566.936a16.307,16.307,0,0,0,1.822,2.265,10.331,10.331,0,0,0,1.083,1.009h0c.492.419.985.812,1.5,1.182a17.931,17.931,0,0,0,2.782,1.551c.517.222,1.034.443,1.576.616a20.271,20.271,0,0,0,8.74,1.009,24.514,24.514,0,0,0,3.693-.739,5.391,5.391,0,0,0,.812-.3,4.438,4.438,0,0,0,.517-.2,18.9,18.9,0,0,0,2.191-.936,21.685,21.685,0,0,0,1.9-1.157,19.108,19.108,0,0,0,3.225-2.807,14.1,14.1,0,0,0,.96-1.108c.443-.566.862-1.133,1.256-1.674.394-.566.739-1.108,1.059-1.65a14.965,14.965,0,0,0,.837-1.477,13.7,13.7,0,0,0,.837-1.871A8,8,0,0,0,95.455,89a1.013,1.013,0,0,0,.074-.2,9.941,9.941,0,0,0,.345-1.354,11.856,11.856,0,0,0,.271-3.545,3.058,3.058,0,0,0-.1-.812,4.7,4.7,0,0,0-.148-.812,3.858,3.858,0,0,0-.2-.763c-.074-.246-.148-.517-.246-.763a7.322,7.322,0,0,0-.665-1.4h0a7.666,7.666,0,0,0-.862-1.33,13.711,13.711,0,0,0-1.6-1.8,13.525,13.525,0,0,0-1.28-1.083c-.64-.443-1.28-.886-1.97-1.3h-.025a1.46,1.46,0,0,0-.148-.1h-.025a23.572,23.572,0,0,0-3.669-1.6c-.443-.172-.886-.32-1.354-.468-.591-.172-1.206-.345-1.847-.468h-.049a31.033,31.033,0,0,0-3.373-.542c-.714-.074-1.428-.123-2.167-.148-.345-.025-.714-.049-1.083-.049-.542,0-1.083.025-1.625.049h-.3a24.259,24.259,0,0,0-2.659.246c-.566.074-1.157.172-1.723.3V55.373c.271-.025.566-.049.862-.1a18.191,18.191,0,0,0,1.847-.32c.32-.049.64-.123.96-.2.345-.074.665-.148,1.009-.246a28.149,28.149,0,0,0,3.127-.96c.369-.123.714-.246,1.083-.394a6.537,6.537,0,0,0,1.083-.419,9.1,9.1,0,0,0,1.034-.419s0-.025.049-.025c.739-.3,1.453-.64,2.167-1.009.714-.345,1.4-.714,2.093-1.108h0c.345-.2.689-.394,1.009-.616.665-.394,1.33-.812,1.97-1.28a28.864,28.864,0,0,0,2.659-2.142c.419-.369.812-.763,1.182-1.157.123-.123.246-.271.369-.394.246-.271.468-.542.689-.812a9.076,9.076,0,0,0,.616-.837,6.13,6.13,0,0,0,.468-.739,8.585,8.585,0,0,0,.443-.763,11.538,11.538,0,0,0,.517-1.133,9.977,9.977,0,0,0,.566-1.847,9.766,9.766,0,0,0,.2-1.92,9.127,9.127,0,0,0-.074-1.157,2.472,2.472,0,0,0-.1-.591c-.049-.246-.1-.517-.172-.788a2.977,2.977,0,0,0-.123-.443,12.21,12.21,0,0,0-1.206-2.684c-.172-.271-.32-.566-.517-.837s-.394-.566-.591-.837a27.07,27.07,0,0,0-2.339-2.585,6.414,6.414,0,0,0-.763-.665,5.551,5.551,0,0,0-.739-.591,7.622,7.622,0,0,0-.64-.443,3.71,3.71,0,0,0-.492-.3,2.929,2.929,0,0,0-.369-.222c-.123-.074-.271-.148-.394-.222a6.3,6.3,0,0,0-.591-.271c-.074,0-.123-.049-.2-.074-.2-.074-.369-.172-.566-.246-.3-.1-.566-.2-.862-.271a.09.09,0,0,0-.074-.025c-.271-.074-.566-.148-.862-.222h-.025a14.608,14.608,0,0,0-3.1-.345,16.834,16.834,0,0,0-1.945.123,6.8,6.8,0,0,0-.985.148q-.849.148-1.7.369a1.2,1.2,0,0,0-.271.1,1.813,1.813,0,0,0-.345.1c-.443.123-.911.3-1.354.468-.394.148-.763.3-1.133.468a8.033,8.033,0,0,0-.936.443c-.123.049-.222.123-.345.172l-1.034.591c-.148.1-.3.172-.443.271-.3.172-.591.369-.886.566-.345.222-.665.443-.985.689-.369.271-.739.566-1.083.862A15.782,15.782,0,0,0,65.442,29.3a5.827,5.827,0,0,0-.689.665c-.468.468-.911.96-1.354,1.477a.076.076,0,0,1-.025.049,15.36,15.36,0,0,0-1.231,1.6c-.394.566-.763,1.133-1.108,1.723s-.64,1.182-.911,1.773c-.148.3-.271.591-.394.911-.1.246-.2.492-.271.739-.1.3-.2.566-.271.862a11.423,11.423,0,0,0-.3,1.157c-.074.32-.123.64-.172.936v.049a11.6,11.6,0,0,0-.148,1.822l-28.782.812a29.462,29.462,0,0,1,.345-3.644c.025-.246.049-.492.1-.739l.148-.96c.074-.394.172-.788.246-1.157.148-.714.32-1.4.517-2.093a33.2,33.2,0,0,1,1.379-3.989c.246-.591.492-1.182.763-1.773.271-.542.542-1.108.837-1.65l.812-1.4c.246-.394.492-.812.763-1.206.246-.369.492-.739.763-1.108.566-.763,1.133-1.526,1.748-2.265.025-.049.074-.074.1-.123.394-.468.739-.985,1.133-1.428.369-.419.739-.812,1.108-1.206s.763-.763,1.157-1.157c.419-.419.862-.837,1.3-1.231.1-.074.172-.148.271-.222.271-.271.591-.517.886-.763.419-.369.862-.714,1.3-1.059C51.728,9.874,61.5,5.615,71.942,3.2c11.03-2.536,22.8-3,32.007.172a27.329,27.329,0,0,1,7.485,3.89,22.952,22.952,0,0,1,4.186,3.964c.271.3.517.616.739.911,9.6,12.606,5.564,32.4-7.608,41.092l-.222.148a14.656,14.656,0,0,1-1.477.886,8.573,8.573,0,0,1-1.059.542,23.693,23.693,0,0,1-3.151,1.33v3.176c.616,0,1.206.025,1.8.074a8.762,8.762,0,0,1,1.157.123l.665.074c.394.049.763.123,1.133.2s.714.148,1.059.246c.443.1.837.222,1.256.345h.025c.369.123.739.246,1.083.394a4.622,4.622,0,0,1,.739.3c.025,0,.049.025.074.025.443.2.886.394,1.28.616.443.222.862.468,1.256.714s.763.492,1.133.763c.246.172.492.369.739.542.345.3.665.566.985.862a11.182,11.182,0,0,1,.936.936,11.33,11.33,0,0,1,1.009,1.157,3.693,3.693,0,0,1,.468.616.663.663,0,0,1,.172.2c.271.345.517.739.763,1.108l.591,1.034a19.211,19.211,0,0,1,.862,1.748c.222.492.419.985.616,1.526a.181.181,0,0,0,.049.148,15.185,15.185,0,0,1,.492,1.6c.148.517.271,1.009.394,1.551v.172c.123.591.222,1.182.3,1.8a5.075,5.075,0,0,1,.074.64l.074.665v.074c.025.32.049.64.074.985Z" transform="translate(40.807 1.36)" fill="#ffcae9" stroke="#000" stroke-linejoin="bevel" stroke-width="0.25"/>
    </g>
  </g>
</svg>
