<svg xmlns="http://www.w3.org/2000/svg" width="125.417" height="97.239" viewBox="0 0 125.417 97.239">
  <g id="图层_1" data-name="图层 1" transform="translate(0 0.094)">
    <g id="组_3626" data-name="组 3626" transform="translate(0 0)">
      <path id="路径_12043" data-name="路径 12043" d="M95.3,57.778s-.131.168-.206.243h0a6.082,6.082,0,0,0-1.571-1.776,3.4,3.4,0,0,0-.542-.374,5.208,5.208,0,0,0-.58-.374c-.187-.112-.374-.224-.6-.337-.206-.112-.43-.224-.654-.337a12.49,12.49,0,0,0-1.421-.58h-.019a14.042,14.042,0,0,0-1.571-.524c-.823-.243-1.683-.449-2.6-.636-.617-.131-1.253-.243-1.889-.337-.972-.15-1.926-.28-2.954-.374h0c-1.5-.131-3.067-.224-4.637-.243-.561-.019-1.085-.037-1.645-.037-.636,0-1.272.019-1.926.037L69.8,50.654,58.484,53.683l-7.947-7.33c.262-.056.561-.112.841-.168.58-.131,1.159-.262,1.739-.43.3-.056.6-.15.9-.224.318-.093.6-.168.916-.262.916-.262,1.832-.58,2.73-.916.318-.112.6-.224.916-.355a7.465,7.465,0,0,0,.9-.355,9.548,9.548,0,0,0,.879-.374,18.339,18.339,0,0,0,1.72-.8c.561-.262,1.085-.542,1.589-.841h.019a6.883,6.883,0,0,0,.729-.449c.467-.28.935-.58,1.365-.9A13.829,13.829,0,0,0,67.4,38.855q.337-.365.617-.729a3.844,3.844,0,0,0,.449-.729,2.209,2.209,0,0,0,.206-.5,1.188,1.188,0,0,0,.093-.43,1.7,1.7,0,0,0,.056-.43,2.3,2.3,0,0,0-.056-.617,2.83,2.83,0,0,0-.374-.972,5.421,5.421,0,0,0-1.5-1.515c-.131-.093-.262-.187-.411-.28-.187-.112-.374-.224-.6-.355a3.077,3.077,0,0,0-.355-.187,18.3,18.3,0,0,0-2.655-1.122c-.318-.112-.617-.243-.972-.337-.337-.112-.711-.224-1.047-.318-1.122-.318-2.375-.617-3.777-.916-.393-.093-.748-.15-1.141-.206-.337-.075-.729-.131-1.066-.187-.318-.056-.636-.093-.9-.131-.243-.019-.486-.056-.673-.056a4.857,4.857,0,0,0-.486-.056c-.5-.056-1.01-.093-1.533-.112-.243,0-.467-.019-.711-.037-.355,0-.692-.019-1.028,0-.037-.019-.075,0-.093,0-.318,0-.654,0-1.01.019h-.019a32.539,32.539,0,0,0-3.4.28c-.673.093-1.309.206-1.945.337-.318.056-.636.131-.935.206-.542.131-1.066.28-1.571.43-.075.037-.15.056-.224.093a12.244,12.244,0,0,0-1.458.524,15.3,15.3,0,0,0-1.926.86c-.262.15-.5.3-.767.449a14.694,14.694,0,0,0-1.589,1.066,6.827,6.827,0,0,0-.673.58,7.416,7.416,0,0,0-.767.767,1.889,1.889,0,0,0-.355.43,6.01,6.01,0,0,0-1.066,1.889,4.791,4.791,0,0,0-.243.991,4.413,4.413,0,0,0-.019.991,2.354,2.354,0,0,0,.075.5,1.552,1.552,0,0,0,.112.393,4.376,4.376,0,0,0,.168.449,3.146,3.146,0,0,0,.3.617,4.105,4.105,0,0,0,.318.467,5.464,5.464,0,0,0,.823.935L3.922,46.446A14.862,14.862,0,0,1,2.37,44.633c-.093-.131-.206-.243-.28-.374a11.947,11.947,0,0,1-.711-1.085c-.206-.355-.393-.729-.561-1.085a8.463,8.463,0,0,1-.654-2.132c-.056-.318-.112-.636-.15-.972,0-.3-.019-.617,0-.916.037-.262.075-.524.112-.8a5.125,5.125,0,0,1,.15-.692c.056-.206.131-.43.206-.636a11.053,11.053,0,0,1,1.608-3.029c.168-.243.374-.486.58-.729.224-.262.449-.524.711-.785.056-.037.093-.093.168-.15a4.162,4.162,0,0,1,.5-.486c.243-.243.524-.467.8-.711,3.927-3.235,11.818-6.713,21.354-9.387a125.3,125.3,0,0,1,22.7-4.151c-.037.355-.056.729-.075,1.1L53.66,20.25l21.859-.617a8.807,8.807,0,0,1,.112-1.384c.43.112.823.224,1.215.337a39.879,39.879,0,0,1,11.238,4.955,29.707,29.707,0,0,1-9.48,2.8V38.256l4.843,2.637c.43-.093.879-.168,1.309-.224a18.423,18.423,0,0,1,2.019-.187H87a18.869,18.869,0,0,1,2.057,0,3.922,3.922,0,0,1-.561.28,21.955,21.955,0,0,1-2.562,1.1L87.6,43.4q.954-.14,1.907-.224c.411-.037.841-.093,1.253-.112.673-.056,1.328-.093,2-.131.43,0,.823-.019,1.234-.019.5-.019.972-.019,1.477-.019h.019c.449,0,.9,0,1.328.037h.168c3.029,3.422,3.384,8.489-1.664,14.865Z" transform="translate(-0.006 14.124)" opacity="0.08"/>
      <path id="路径_12044" data-name="路径 12044" d="M31.27,37.8,42.583,34.77l2.693,1.477h-.243a.065.065,0,0,1-.037.019c-1.29.037-2.543.112-3.777.224-1.776.15-3.478.355-5.123.636a1.684,1.684,0,0,0-.3.056c-.9.131-1.758.3-2.618.486-.542.131-1.1.262-1.627.393l-.28-.262Z" transform="translate(27.19 30.007)" fill="#d9f2ff" stroke="#000" stroke-linejoin="bevel" stroke-width="0.25"/>
      <path id="路径_12045" data-name="路径 12045" d="M30.934,20.432,26.11,17.8c.019-.374.037-.748.075-1.1,1.739-.15,3.478-.262,5.2-.318,1.776-.075,3.553-.093,5.31-.056a72.116,72.116,0,0,1,9.779.8c.206.037.43.056.636.093.43.075.841.15,1.272.206,1.571.3,3.067.617,4.506,1.01h.019a8.807,8.807,0,0,0-.112,1.384l-21.859.617Z" transform="translate(22.702 13.941)" fill="#d9f2ff" stroke="#000" stroke-linejoin="bevel" stroke-width="0.25"/>
      <path id="路径_12046" data-name="路径 12046" d="M46.873,37.622,42.03,34.986V23.075a29.707,29.707,0,0,0,9.48-2.8,20.5,20.5,0,0,1,3.721,3.123c3.945,4.263,4,8.994-.692,12.491a6.642,6.642,0,0,1-.58.43,1.721,1.721,0,0,1-.15.093,9.467,9.467,0,0,1-1.066.654l-.224.112-.037.019a18.867,18.867,0,0,0-2.057,0H50.2a18.422,18.422,0,0,0-2.019.187c-.43.056-.879.131-1.309.224Z" transform="translate(36.55 17.394)" fill="#d9f2ff" stroke="#000" stroke-linejoin="bevel" stroke-width="0.25"/>
      <path id="路径_12047" data-name="路径 12047" d="M60.122,59.383a106.471,106.471,0,0,1-18.194-.617c-.617-.056-1.215-.15-1.8-.224a5.036,5.036,0,0,1-.6-.093H39.5C31.682,57.232,24.576,55.007,19,51.492c-.355-.224-.748-.486-1.1-.729-.168-.112-.318-.206-.467-.318-.243-.168-.5-.355-.729-.542-.43-.318-.841-.636-1.234-.972l20.269-6.208A20.659,20.659,0,0,0,47.445,54.11a19.925,19.925,0,0,1-7.8-11.5A21.29,21.29,0,0,0,47.5,54.128h.019a2.152,2.152,0,0,0,.318.262c.318.224.636.449.991.654a30.928,30.928,0,0,0,11.294,4.338Z" transform="translate(13.446 36.827)" opacity="0.08"/>
      <path id="路径_12048" data-name="路径 12048" d="M101.927,42.709c-1.477,7.76-6.638,14.192-13.575,18.886-.337.243-.692.467-1.047.692-9.91,4.114-23.261,6.9-36.612,7.517A30.928,30.928,0,0,1,39.4,65.465c-.355-.206-.673-.43-.991-.654-.112-.075-.224-.168-.318-.243h-.019a21.408,21.408,0,0,1-7.853-11.537,19.925,19.925,0,0,0,7.8,11.5A20.659,20.659,0,0,1,26.31,53.143l1.215-.374,2.45-.748,2.468-.767a10.931,10.931,0,0,0,1.645,1.2,6.384,6.384,0,0,0,.692.467c.206.112.393.224.636.337a5.358,5.358,0,0,0,.8.411,2.97,2.97,0,0,0,.6.3c.206.093.449.206.692.3.243.112.542.224.8.337.206.075.43.15.673.243.337.131.711.243,1.066.355q1.487.477,3.085.841c.542.131,1.1.243,1.645.337H44.8c.711.131,1.421.243,2.15.355,1.2.15,2.45.28,3.7.355.636.019,1.29.056,1.945.056,1.29.037,2.58,0,3.833-.056a45.426,45.426,0,0,0,5.74-.711,31.908,31.908,0,0,0,3.441-.9,20.153,20.153,0,0,0,2.88-1.2c.486-.262.935-.542,1.365-.823.243-.187.467-.374.692-.561.019,0,.019-.019.037-.037a5.787,5.787,0,0,0,1.122-1.234,3.611,3.611,0,0,0,.411-.673c.168-.337.3-.673.43-.991a4.983,4.983,0,0,0,.224-.954,3.228,3.228,0,0,0,.093-.841,3.774,3.774,0,0,0-.112-1.028,1.685,1.685,0,0,0-.168-.6c.019-.056-.019-.093-.019-.112a3.461,3.461,0,0,0-.355-.692h0s.131-.168.206-.243c5.049-6.376,4.693-11.444,1.664-14.865a5.138,5.138,0,0,1,.748.037h.093c.28,0,.542.019.823.037h.019c.262.019.542.056.8.075.58.037,1.141.093,1.683.15.542.075,1.047.131,1.571.206.337.056.711.112,1.047.168.5.093.991.168,1.477.28.486.093.972.187,1.458.318a16.278,16.278,0,0,1,1.645.411,5.047,5.047,0,0,1,.8.224,1.23,1.23,0,0,1,.28.075c.467.131.935.28,1.365.43.393.131.785.262,1.159.411.636.224,1.215.467,1.814.711.486.224.954.43,1.44.654.056.019.075.056.131.075.467.224.9.449,1.346.692.411.243.8.449,1.215.692a.275.275,0,0,0,.112.093c.449.262.86.542,1.253.823a3.307,3.307,0,0,1,.411.3c.15.112.28.206.43.318l.037.037c.187.15.393.3.6.467a17.979,17.979,0,0,1,1.72,1.645c.43.393.785.785,1.159,1.178a12.491,12.491,0,0,1,1.2,1.571Z" transform="translate(22.876 26.406)" fill="#d9f2ff" stroke="#000" stroke-linejoin="bevel" stroke-width="0.25"/>
      <path id="路径_12049" data-name="路径 12049" d="M38.85,58.137A20.659,20.659,0,0,1,27.145,46.75a25.7,25.7,0,0,1-1.8-8.77l4.806,2.655c.019.524.056,1.047.112,1.552.019.3.056.6.093.879a2.7,2.7,0,0,0,.075.542c.056.393.131.8.206,1.178l.168.841a8.836,8.836,0,0,0,.243,1.01,19.925,19.925,0,0,0,7.8,11.5Z" transform="translate(22.041 32.799)" fill="#0182e5" stroke="#000" stroke-linejoin="bevel" stroke-width="0.25"/>
      <path id="路径_12050" data-name="路径 12050" d="M52.575,37.425l-4.17,1.122-18.25,4.88L25.35,40.772,36.42,37.8,47.732,34.77l2.693,1.477Z" transform="translate(22.041 30.007)" fill="#0182e5" stroke="#000" stroke-linejoin="bevel" stroke-width="0.25"/>
      <path id="路径_12051" data-name="路径 12051" d="M46.188,45.5a12.558,12.558,0,0,1-8.508-8.19l4.17-1.122a10.855,10.855,0,0,0,.224,1.945,3.3,3.3,0,0,0,.131.748,3.388,3.388,0,0,0,.168.58,2.727,2.727,0,0,0,.224.729,1.845,1.845,0,0,0,.187.5,2.76,2.76,0,0,0,.224.542,4.5,4.5,0,0,0,.28.617,2.79,2.79,0,0,0,.262.449,5.526,5.526,0,0,0,.43.711,12.383,12.383,0,0,0,1.384,1.72,7.844,7.844,0,0,0,.823.767Z" transform="translate(32.766 31.242)" fill="#8bd4fa" stroke="#000" stroke-linejoin="bevel" stroke-width="0.25"/>
      <path id="路径_12052" data-name="路径 12052" d="M59.1,31.743c-.318-.112-.636-.206-.972-.3-.449-.131-.916-.262-1.4-.355H56.69a23.569,23.569,0,0,0-2.562-.411,15.53,15.53,0,0,0-1.608-.131c-.692-.019-1.4-.019-2.094.019H50.2a18.423,18.423,0,0,0-2.019.187c-.43.056-.879.131-1.309.224L42.03,28.339a23.234,23.234,0,0,1,4.843-.449,22.928,22.928,0,0,1,7.666,1.346A15.293,15.293,0,0,1,59.1,31.724Z" transform="translate(36.55 24.022)" fill="#8bd4fa" stroke="#000" stroke-linejoin="bevel" stroke-width="0.25"/>
      <path id="路径_12053" data-name="路径 12053" d="M67.286,38.944a9.662,9.662,0,0,1-.206,2.693c-.075.337-.168.673-.262,1.028a.769.769,0,0,1-.056.15,8,8,0,0,1-.318.86,10.4,10.4,0,0,1-.636,1.421,11.362,11.362,0,0,1-.636,1.122c-.243.411-.5.823-.8,1.253-.3.411-.617.841-.954,1.272a10.705,10.705,0,0,1-.729.841,14.511,14.511,0,0,1-2.45,2.132,16.471,16.471,0,0,1-1.44.879,14.351,14.351,0,0,1-1.664.711c-.15.056-.28.131-.43.187-.206.075-.393.131-.58.187a14.337,14.337,0,0,1-2.8.561,14.679,14.679,0,0,1-4.151-.131,16.166,16.166,0,0,1-2.487-.636c-.411-.131-.8-.3-1.2-.467a13.619,13.619,0,0,1-2.113-1.178c-.393-.28-.767-.58-1.141-.879A15.052,15.052,0,0,0,58.367,46.33c.075-.075.131-.168.206-.243,5.049-6.376,4.693-11.444,1.664-14.865a11.015,11.015,0,0,0-1.253-1.215l-.056-.056a18.715,18.715,0,0,1,2.842,1.272h.019a.538.538,0,0,1,.112.075h.019c.524.318,1.01.654,1.5.991a10.713,10.713,0,0,1,.972.823A10.413,10.413,0,0,1,65.6,34.475a9.081,9.081,0,0,1,.654.991h0c.187.355.355.729.5,1.085.075.187.131.393.187.58s.112.393.15.58a3.57,3.57,0,0,1,.112.617,6.191,6.191,0,0,1,.075.617Z" transform="translate(36.724 25.814)" fill="#0182e5" stroke="#000" stroke-linejoin="bevel" stroke-width="0.25"/>
      <path id="路径_12054" data-name="路径 12054" d="M46.873,24.407V36.318L42.03,33.681V21.77Z" transform="translate(36.55 18.699)" fill="#0182e5" stroke="#000" stroke-linejoin="bevel" stroke-width="0.25"/>
      <path id="路径_12055" data-name="路径 12055" d="M46.279,17.783A14.039,14.039,0,0,0,45.344,19c-.3.43-.58.86-.841,1.309s-.486.9-.692,1.346c-.112.224-.206.449-.3.692-.075.187-.15.374-.206.561a6.694,6.694,0,0,0-.206.654,8.677,8.677,0,0,0-.224.879c-.056.243-.093.486-.131.711v.037a8.807,8.807,0,0,0-.112,1.384L38.22,24.178l-.43-.224C37.921,13.931,52.842,3.31,61.444,11.388a9.9,9.9,0,0,0-2.356-.262,12.785,12.785,0,0,0-1.477.093,5.162,5.162,0,0,0-.748.112q-.645.112-1.29.28a.912.912,0,0,0-.206.075,1.377,1.377,0,0,0-.262.075c-.337.093-.692.224-1.028.355-.3.112-.58.224-.86.355-.243.112-.486.224-.711.337-.093.037-.168.093-.262.131l-.785.449c-.112.075-.224.131-.337.206-.224.131-.449.28-.673.43-.262.168-.5.337-.748.524-.28.206-.561.43-.823.654a11.986,11.986,0,0,0-1.028.916,6.675,6.675,0,0,0-.524.5c-.355.374-.711.748-1.028,1.122a.058.058,0,0,1-.019.037Z" transform="translate(32.862 7.185)" fill="#8bd4fa" stroke="#000" stroke-linejoin="bevel" stroke-width="0.25"/>
      <path id="路径_12056" data-name="路径 12056" d="M66.629,20.288a7.417,7.417,0,0,1-.15,1.458,7.578,7.578,0,0,1-.43,1.4,8.766,8.766,0,0,1-.393.86,6.518,6.518,0,0,1-.337.58,4.655,4.655,0,0,1-.355.561,6.891,6.891,0,0,1-.467.636c-.168.206-.355.411-.524.617-.093.093-.187.206-.28.3-.28.3-.58.6-.9.879a21.921,21.921,0,0,1-2.019,1.627c-.486.337-.991.654-1.5.972-.243.168-.5.318-.767.467h0c-.524.3-1.047.58-1.589.841-.542.28-1.085.524-1.645.767-.019,0-.019.019-.037.019a6.908,6.908,0,0,1-.785.318c-.28.112-.542.224-.823.318-.28.112-.542.206-.823.3-.8.28-1.608.524-2.375.729-.262.075-.5.131-.767.187-.243.056-.486.112-.729.15a13.814,13.814,0,0,1-1.4.243c-.224.037-.449.056-.654.075L42.04,31.956a29.707,29.707,0,0,0,9.48-2.8c7.928-3.758,14.865-10.808,6.358-19l-.093-.093c.224.056.449.112.654.168a.069.069,0,0,1,.056.019c.224.056.43.131.654.206.15.056.28.131.43.187.056.019.093.037.15.056a4.781,4.781,0,0,1,.449.206c.093.056.206.112.3.168a2.227,2.227,0,0,1,.28.168,2.818,2.818,0,0,1,.374.224,5.788,5.788,0,0,1,.486.337,4.215,4.215,0,0,1,.561.449,4.873,4.873,0,0,1,.58.5,20.559,20.559,0,0,1,1.776,1.963c.15.206.3.43.449.636s.262.43.393.636a9.274,9.274,0,0,1,.916,2.038,2.26,2.26,0,0,1,.093.337c.056.206.093.411.131.6a3.744,3.744,0,0,1,.075.449,6.933,6.933,0,0,1,.056.879Z" transform="translate(36.559 8.513)" fill="#0182e5" stroke="#000" stroke-linejoin="bevel" stroke-width="0.25"/>
      <path id="路径_12057" data-name="路径 12057" d="M50.549,19.389l-21.859.617a22.375,22.375,0,0,1,.262-2.767l15.913-.449h.841l.43.206,4.413,2.393Z" transform="translate(24.946 14.367)" fill="none" stroke="#000" stroke-linejoin="bevel" stroke-width="0.25"/>
      <path id="路径_12058" data-name="路径 12058" d="M87.254,3.741C80.261,1.329,71.323,1.684,62.946,3.61c-7.928,1.832-15.352,5.067-20.1,8.732-.337.262-.673.524-.991.8-.224.187-.467.374-.673.58-.075.056-.131.112-.206.168-.337.3-.673.617-.991.935a9.744,9.744,0,0,0-.879.879c-.28.3-.561.6-.841.916a25.622,25.622,0,0,0-2.842,3.74c-.206.3-.393.617-.58.916l-.617,1.066c-.224.411-.43.841-.636,1.253-.206.449-.393.9-.58,1.346a25.217,25.217,0,0,0-1.047,3.029c-.15.524-.28,1.047-.393,1.589-.056.28-.131.58-.187.879l-.112.729a2.887,2.887,0,0,0-.075.561,22.374,22.374,0,0,0-.262,2.767L26.11,31.864c.019-.374.037-.748.075-1.1,1.328-17.2,16.978-26.552,32.741-29.282C67.789-.148,79.308-1.2,87.254,3.741Z" transform="translate(22.702 -0.127)" fill="#0182e5" stroke="#000" stroke-linejoin="bevel" stroke-width="0.25"/>
      <path id="路径_12059" data-name="路径 12059" d="M59.186,2.439C48.322,4.309,37.514,9.32,31.4,17.9a31.792,31.792,0,0,1,3.1-3.815c.28-.3.58-.58.879-.879.318-.318.654-.636.991-.935.075-.056.131-.112.206-.168.206-.206.449-.393.673-.58.318-.28.654-.542.991-.8,4.749-3.665,12.173-6.9,20.1-8.732l.841.449Z" transform="translate(27.303 1.493)" fill="#8bd4fa" stroke="#000" stroke-linejoin="bevel" stroke-width="0.25"/>
      <path id="路径_12060" data-name="路径 12060" d="M71.277,3.633C63.723.81,54.224,1.782,46.651,3.166l-.841-.449C54.187.791,63.125.436,70.118,2.848,70.511,3.091,70.9,3.353,71.277,3.633Z" transform="translate(39.838 0.766)" fill="#8bd4fa" stroke="#000" stroke-linejoin="bevel" stroke-width="0.25"/>
      <path id="路径_12061" data-name="路径 12061" d="M63.819,40.345a6.51,6.51,0,0,1-.8.411,17.994,17.994,0,0,1-2.393,1.01L55.76,39.148C68.12,34.959,74.234,19.2,67.353,7.678a17.414,17.414,0,0,0-4.731-5.2,18.637,18.637,0,0,1,7.7,5.18c.206.224.393.467.561.692a16.041,16.041,0,0,1,1.346,1.926C78.5,20.749,73.991,34.754,63.819,40.345Z" transform="translate(48.493 1.919)" fill="#8bd4fa" stroke="#000" stroke-linejoin="bevel" stroke-width="0.25"/>
      <path id="路径_12062" data-name="路径 12062" d="M55.76,24.5V22.09l4.88,2.618-.019,2.412L55.76,24.5Z" transform="translate(48.493 18.977)" fill="none" stroke="#000" stroke-linejoin="bevel" stroke-width="0.25"/>
      <path id="路径_12063" data-name="路径 12063" d="M71.859,42.06c.692-10.266-5.385-18.661-16.1-18.68L60.622,26c10.733.019,16.81,8.433,16.118,18.7l-4.88-2.636Z" transform="translate(48.493 20.1)" fill="#8bd4fa" stroke="#000" stroke-linejoin="bevel" stroke-width="0.25"/>
      <path id="路径_12064" data-name="路径 12064" d="M100.994,61.458a23.9,23.9,0,0,1-.037,2.58c0,.617-.037,1.215-.075,1.814a22.441,22.441,0,0,1-.355,2.506c-1.477,7.76-6.638,14.192-13.575,18.886-.337.243-.692.467-1.047.692a47,47,0,0,1-4.749,2.674,1.576,1.576,0,0,1-.262.112c-9.8,4.749-21.616,6.582-31.6,4.731A30.928,30.928,0,0,1,38,91.114c-.355-.206-.673-.43-.991-.654-.112-.075-.224-.168-.318-.243h-.019a21.408,21.408,0,0,1-7.853-11.537c-.075-.337-.168-.673-.243-1.01l-.168-.841c-.075-.374-.15-.785-.206-1.178a5.4,5.4,0,0,1-.075-.542c-.037-.28-.075-.58-.093-.879-.056-.5-.093-1.028-.112-1.552L46.17,67.8l4.17-1.122a10.855,10.855,0,0,0,.224,1.945,3.3,3.3,0,0,0,.131.748,2.961,2.961,0,0,0,.168.58,3.629,3.629,0,0,0,.224.729,1.845,1.845,0,0,0,.187.5,2.76,2.76,0,0,0,.224.542c.075.206.187.411.28.617.075.15.168.3.262.449.131.243.28.486.43.711a12.384,12.384,0,0,0,1.384,1.72,7.845,7.845,0,0,0,.823.767h0c.374.318.748.617,1.141.9a13.618,13.618,0,0,0,2.113,1.178c.393.168.785.337,1.2.467a15.4,15.4,0,0,0,6.638.767,18.618,18.618,0,0,0,2.8-.561,4.094,4.094,0,0,0,.617-.224,3.37,3.37,0,0,0,.393-.15,14.349,14.349,0,0,0,1.664-.711,16.469,16.469,0,0,0,1.44-.879,14.512,14.512,0,0,0,2.45-2.132,10.705,10.705,0,0,0,.729-.841c.337-.43.654-.86.954-1.272.3-.43.561-.841.8-1.253a11.364,11.364,0,0,0,.636-1.122,10.4,10.4,0,0,0,.636-1.421,6.078,6.078,0,0,0,.318-.86.769.769,0,0,0,.056-.15,7.549,7.549,0,0,0,.262-1.028A9,9,0,0,0,79.734,64a2.323,2.323,0,0,0-.075-.617,3.569,3.569,0,0,0-.112-.617,2.929,2.929,0,0,0-.15-.58c-.056-.187-.112-.393-.187-.58a5.561,5.561,0,0,0-.5-1.066h0a5.823,5.823,0,0,0-.654-1.01,10.413,10.413,0,0,0-1.215-1.365,10.27,10.27,0,0,0-.972-.823c-.486-.337-.972-.673-1.5-.991h-.019a1.108,1.108,0,0,0-.112-.075h-.019a17.9,17.9,0,0,0-2.786-1.215c-.337-.131-.673-.243-1.028-.355-.449-.131-.916-.262-1.4-.355h-.037a23.568,23.568,0,0,0-2.562-.411c-.542-.056-1.085-.093-1.645-.112-.262-.019-.542-.037-.823-.037-.411,0-.823.019-1.234.037h-.224a18.423,18.423,0,0,0-2.019.187c-.43.056-.879.131-1.309.224V42.329c.206-.019.43-.037.654-.075a13.815,13.815,0,0,0,1.4-.243c.243-.037.486-.093.729-.15.262-.056.5-.112.767-.187a21.377,21.377,0,0,0,2.375-.729c.28-.093.542-.187.823-.3a4.964,4.964,0,0,0,.823-.318,6.908,6.908,0,0,0,.785-.318s0-.019.037-.019c.561-.224,1.1-.486,1.645-.767.542-.262,1.066-.542,1.589-.841h0c.262-.15.524-.3.767-.467.5-.3,1.01-.617,1.5-.972a21.921,21.921,0,0,0,2.019-1.627c.318-.28.617-.58.9-.879.093-.093.187-.206.28-.3.187-.206.355-.411.524-.617a6.893,6.893,0,0,0,.467-.636,4.655,4.655,0,0,0,.355-.561,6.519,6.519,0,0,0,.337-.58,8.764,8.764,0,0,0,.393-.86,7.579,7.579,0,0,0,.43-1.4,7.417,7.417,0,0,0,.15-1.458,6.934,6.934,0,0,0-.056-.879,1.877,1.877,0,0,0-.075-.449c-.037-.187-.075-.393-.131-.6a2.261,2.261,0,0,0-.093-.337,9.274,9.274,0,0,0-.916-2.038c-.131-.206-.243-.43-.393-.636s-.3-.43-.449-.636A20.559,20.559,0,0,0,75,20.489a4.873,4.873,0,0,0-.58-.5,4.215,4.215,0,0,0-.561-.449,5.79,5.79,0,0,0-.486-.337A2.818,2.818,0,0,0,73,18.975a2.226,2.226,0,0,0-.28-.168c-.093-.056-.206-.112-.3-.168a4.78,4.78,0,0,0-.449-.206c-.056,0-.093-.037-.15-.056-.15-.056-.28-.131-.43-.187-.224-.075-.43-.15-.654-.206a.069.069,0,0,0-.056-.019c-.206-.056-.43-.112-.654-.168h-.019a11.094,11.094,0,0,0-2.356-.262,12.785,12.785,0,0,0-1.477.093,5.162,5.162,0,0,0-.748.112q-.645.112-1.29.28a.912.912,0,0,0-.206.075,1.377,1.377,0,0,0-.262.075c-.337.093-.692.224-1.028.355-.3.112-.58.224-.86.355a6.1,6.1,0,0,0-.711.337c-.093.037-.168.093-.262.131l-.785.449c-.112.075-.224.131-.337.206-.224.131-.449.28-.673.43-.262.168-.5.337-.748.524-.28.206-.561.43-.823.654a11.986,11.986,0,0,0-1.028.916,4.427,4.427,0,0,0-.524.5c-.355.355-.692.729-1.028,1.122a.058.058,0,0,1-.019.037,11.666,11.666,0,0,0-.935,1.215c-.3.43-.58.86-.841,1.309s-.486.9-.692,1.346c-.112.224-.206.449-.3.692-.075.187-.15.374-.206.561-.075.224-.15.43-.206.654a8.679,8.679,0,0,0-.224.879c-.056.243-.093.486-.131.711V31.6A8.808,8.808,0,0,0,51.2,32.98L29.341,33.6A22.376,22.376,0,0,1,29.6,30.83c.019-.187.037-.374.075-.561l.112-.729c.056-.3.131-.6.187-.879.112-.542.243-1.066.393-1.589a25.216,25.216,0,0,1,1.047-3.029c.187-.449.374-.9.58-1.346.206-.411.411-.841.636-1.253l.617-1.066c.187-.3.374-.617.58-.916.187-.28.374-.561.58-.841.43-.58.86-1.159,1.328-1.72.019-.037.056-.056.075-.093.3-.355.561-.748.86-1.085.28-.318.561-.617.841-.916s.58-.58.879-.879c.318-.318.654-.636.991-.935.075-.056.131-.112.206-.168.206-.206.449-.393.673-.58.318-.28.654-.542.991-.8,4.749-3.665,12.173-6.9,20.1-8.732C69.73.781,78.668.426,85.661,2.838a20.756,20.756,0,0,1,5.684,2.954A17.431,17.431,0,0,1,94.524,8.8c.206.224.393.467.561.692,7.292,9.574,4.226,24.607-5.778,31.208l-.168.112a11.13,11.13,0,0,1-1.122.673,6.511,6.511,0,0,1-.8.411,17.994,17.994,0,0,1-2.393,1.01v2.412c.467,0,.916.019,1.365.056a6.655,6.655,0,0,1,.879.093l.5.056c.3.037.58.093.86.15s.542.112.8.187c.337.075.636.168.954.262h.019c.28.093.561.187.823.3a3.509,3.509,0,0,1,.561.224c.019,0,.037.019.056.019.337.15.673.3.972.467.337.168.654.355.954.542s.58.374.86.58c.187.131.374.28.561.411.262.224.5.43.748.654a8.492,8.492,0,0,1,.711.711,8.6,8.6,0,0,1,.767.879,2.8,2.8,0,0,1,.355.467.5.5,0,0,1,.131.15c.206.262.393.561.58.841l.449.785a14.593,14.593,0,0,1,.654,1.328c.168.374.318.748.467,1.159a.137.137,0,0,0,.037.112,11.536,11.536,0,0,1,.374,1.215c.112.393.206.767.3,1.178v.131c.093.449.168.9.224,1.365a3.855,3.855,0,0,1,.056.486l.056.5v.056c.019.243.037.486.056.748Z" transform="translate(24.276 0.758)" fill="#b3e5ff" stroke="#000" stroke-linejoin="bevel" stroke-width="0.25"/>
    </g>
  </g>
</svg>
