<svg xmlns="http://www.w3.org/2000/svg" width="181.408" height="140.581" viewBox="0 0 181.408 140.581">
  <g id="图层_1" data-name="图层 1" transform="translate(0 0.081)">
    <g id="组_3626" data-name="组 3626" transform="translate(0 0)">
      <path id="路径_12043" data-name="路径 12043" d="M137.888,76.22s-.189.243-.3.352h0A8.8,8.8,0,0,0,135.318,74a4.917,4.917,0,0,0-.785-.541,7.539,7.539,0,0,0-.839-.541c-.271-.162-.541-.325-.866-.487-.3-.162-.622-.325-.947-.487a18.071,18.071,0,0,0-2.056-.839H129.8a20.32,20.32,0,0,0-2.273-.758c-1.19-.352-2.435-.649-3.761-.92-.893-.189-1.813-.352-2.732-.487-1.407-.216-2.787-.406-4.275-.541h0c-2.164-.189-4.437-.325-6.71-.352-.812-.027-1.569-.054-2.381-.054-.92,0-1.84.027-2.787.054l-3.9-2.137L84.618,70.295l-11.5-10.605c.379-.081.812-.162,1.217-.243.839-.189,1.677-.379,2.516-.622.433-.081.866-.216,1.3-.325.46-.135.866-.243,1.326-.379,1.326-.379,2.651-.839,3.95-1.326.46-.162.866-.325,1.326-.514a10.8,10.8,0,0,0,1.3-.514,13.816,13.816,0,0,0,1.272-.541,26.533,26.533,0,0,0,2.489-1.163c.812-.379,1.569-.785,2.3-1.217h.027a9.958,9.958,0,0,0,1.055-.649c.676-.406,1.353-.839,1.975-1.3a20.009,20.009,0,0,0,2.354-2.056q.487-.528.893-1.055a5.562,5.562,0,0,0,.649-1.055,3.2,3.2,0,0,0,.3-.73,1.718,1.718,0,0,0,.135-.622,2.456,2.456,0,0,0,.081-.622,3.329,3.329,0,0,0-.081-.893,4.1,4.1,0,0,0-.541-1.407,7.844,7.844,0,0,0-2.164-2.191c-.189-.135-.379-.271-.6-.406-.271-.162-.541-.325-.866-.514a4.452,4.452,0,0,0-.514-.271,26.476,26.476,0,0,0-3.842-1.623c-.46-.162-.893-.352-1.407-.487-.487-.162-1.028-.325-1.515-.46-1.623-.46-3.436-.893-5.465-1.326-.568-.135-1.082-.216-1.65-.3-.487-.108-1.055-.189-1.542-.271-.46-.081-.92-.135-1.3-.189-.352-.027-.7-.081-.974-.081a7.027,7.027,0,0,0-.7-.081c-.73-.081-1.461-.135-2.218-.162-.352,0-.676-.027-1.028-.054-.514,0-1-.027-1.488,0-.054-.027-.108,0-.135,0-.46,0-.947,0-1.461.027h-.027a47.08,47.08,0,0,0-4.924.406c-.974.135-1.894.3-2.814.487-.46.081-.92.189-1.353.3-.785.189-1.542.406-2.273.622-.108.054-.216.081-.325.135a17.715,17.715,0,0,0-2.11.758,22.138,22.138,0,0,0-2.787,1.245c-.379.216-.73.433-1.109.649a21.261,21.261,0,0,0-2.3,1.542,9.877,9.877,0,0,0-.974.839,10.73,10.73,0,0,0-1.109,1.109,2.734,2.734,0,0,0-.514.622,8.7,8.7,0,0,0-1.542,2.733,6.931,6.931,0,0,0-.352,1.434,6.385,6.385,0,0,0-.027,1.434,3.406,3.406,0,0,0,.108.73,2.246,2.246,0,0,0,.162.568,6.332,6.332,0,0,0,.243.649,4.551,4.551,0,0,0,.433.893,5.939,5.939,0,0,0,.46.676,7.905,7.905,0,0,0,1.19,1.353L5.672,59.824A21.5,21.5,0,0,1,3.426,57.2c-.135-.189-.3-.352-.406-.541A17.287,17.287,0,0,1,1.993,55.09c-.3-.514-.568-1.055-.812-1.569a12.244,12.244,0,0,1-.947-3.084c-.081-.46-.162-.92-.216-1.407,0-.433-.027-.893,0-1.326.054-.379.108-.758.162-1.163a7.416,7.416,0,0,1,.216-1c.081-.3.189-.622.3-.92a15.992,15.992,0,0,1,2.327-4.383c.243-.352.541-.7.839-1.055.325-.379.649-.758,1.028-1.136.081-.054.135-.135.243-.216a6.021,6.021,0,0,1,.73-.7c.352-.352.758-.676,1.163-1.028,5.681-4.68,17.1-9.713,30.9-13.581A181.3,181.3,0,0,1,70.766,16.51c-.054.514-.081,1.055-.108,1.6l6.98,3.815,31.627-.893a12.742,12.742,0,0,1,.162-2c.622.162,1.19.325,1.759.487a57.7,57.7,0,0,1,16.26,7.169,42.983,42.983,0,0,1-13.717,4.058V47.974l7.007,3.815c.622-.135,1.272-.243,1.894-.325a26.655,26.655,0,0,1,2.922-.271h.325a27.3,27.3,0,0,1,2.976,0,5.674,5.674,0,0,1-.812.406,31.764,31.764,0,0,1-3.706,1.6l2.408,2.218q1.38-.2,2.76-.325c.6-.054,1.217-.135,1.813-.162.974-.081,1.921-.135,2.895-.189.622,0,1.19-.027,1.786-.027.73-.027,1.407-.027,2.137-.027h.027c.649,0,1.3,0,1.921.054h.243c4.383,4.951,4.9,12.283-2.408,21.508Z" transform="translate(-0.006 27.813)" opacity="0.08"/>
      <path id="路径_12044" data-name="路径 12044" d="M31.27,39.153,47.638,34.77l3.9,2.137h-.352a.094.094,0,0,1-.054.027c-1.867.054-3.679.162-5.465.325-2.57.216-5.032.514-7.413.92a2.437,2.437,0,0,0-.433.081c-1.3.189-2.543.433-3.788.7-.785.189-1.6.379-2.354.568l-.406-.379Z" transform="translate(53.315 58.955)" fill="#d9f2ff" stroke="#000" stroke-linejoin="bevel" stroke-width="0.25"/>
      <path id="路径_12045" data-name="路径 12045" d="M33.09,22.279l-6.98-3.815c.027-.541.054-1.082.108-1.6,2.516-.216,5.032-.379,7.521-.46,2.57-.108,5.14-.135,7.684-.081a104.344,104.344,0,0,1,14.15,1.163c.3.054.622.081.92.135.622.108,1.217.216,1.84.3,2.273.433,4.437.893,6.52,1.461h.027a12.743,12.743,0,0,0-.162,2l-31.627.893Z" transform="translate(44.515 27.455)" fill="#d9f2ff" stroke="#000" stroke-linejoin="bevel" stroke-width="0.25"/>
      <path id="路径_12046" data-name="路径 12046" d="M49.037,45.377,42.03,41.562V24.328A42.983,42.983,0,0,0,55.747,20.27a29.663,29.663,0,0,1,5.384,4.518c5.709,6.168,5.79,13.013-1,18.072a9.609,9.609,0,0,1-.839.622,2.491,2.491,0,0,1-.216.135,13.7,13.7,0,0,1-1.542.947l-.325.162-.054.027a27.3,27.3,0,0,0-2.976,0h-.325a26.656,26.656,0,0,0-2.922.271c-.622.081-1.272.189-1.894.325Z" transform="translate(71.666 34.226)" fill="#d9f2ff" stroke="#000" stroke-linejoin="bevel" stroke-width="0.25"/>
      <path id="路径_12047" data-name="路径 12047" d="M80.077,66.878a154.051,154.051,0,0,1-26.324-.893c-.893-.081-1.759-.216-2.6-.325a7.286,7.286,0,0,1-.866-.135h-.054c-11.309-1.759-21.59-4.978-29.652-10.064-.514-.325-1.082-.7-1.6-1.055-.243-.162-.46-.3-.676-.46-.352-.243-.73-.514-1.055-.785-.622-.46-1.217-.92-1.786-1.407L44.8,42.772c3.274,8.008,9.334,13.311,16.936,16.476A28.829,28.829,0,0,1,50.452,42.61,30.8,30.8,0,0,0,61.815,59.276h.027a3.113,3.113,0,0,0,.46.379c.46.325.92.649,1.434.947a44.75,44.75,0,0,0,16.341,6.277Z" transform="translate(26.369 72.326)" opacity="0.08"/>
      <path id="路径_12048" data-name="路径 12048" d="M135.719,48.107c-2.137,11.228-9.6,20.534-19.642,27.325-.487.352-1,.676-1.515,1-14.339,5.952-33.656,9.983-52.973,10.876a44.749,44.749,0,0,1-16.341-6.277c-.514-.3-.974-.622-1.434-.947-.162-.108-.325-.243-.46-.352h-.027A30.974,30.974,0,0,1,31.964,63.041,28.829,28.829,0,0,0,43.246,79.68c-7.6-3.165-13.663-8.468-16.936-16.476l1.759-.541,3.544-1.082,3.571-1.109A15.816,15.816,0,0,0,37.565,62.2a9.237,9.237,0,0,0,1,.676c.3.162.568.325.92.487a7.752,7.752,0,0,0,1.163.6,4.3,4.3,0,0,0,.866.433c.3.135.649.3,1,.433.352.162.785.325,1.163.487.3.108.622.216.974.352.487.189,1.028.352,1.542.514q2.151.69,4.464,1.217c.785.189,1.6.352,2.381.487h.027c1.028.189,2.056.352,3.111.514,1.731.216,3.544.406,5.357.514.92.027,1.867.081,2.814.081,1.867.054,3.734,0,5.546-.081A65.729,65.729,0,0,0,78.2,67.884a46.168,46.168,0,0,0,4.978-1.3,29.157,29.157,0,0,0,4.166-1.731c.7-.379,1.353-.785,1.975-1.19.352-.271.676-.541,1-.812.027,0,.027-.027.054-.054A8.373,8.373,0,0,0,92,61.012a5.226,5.226,0,0,0,.6-.974c.243-.487.433-.974.622-1.434a7.21,7.21,0,0,0,.325-1.38,4.67,4.67,0,0,0,.135-1.217,5.461,5.461,0,0,0-.162-1.488,2.439,2.439,0,0,0-.243-.866c.027-.081-.027-.135-.027-.162a5.007,5.007,0,0,0-.514-1h0s.189-.243.3-.352c7.3-9.226,6.791-16.557,2.408-21.508a7.434,7.434,0,0,1,1.082.054h.135c.406,0,.785.027,1.19.054h.027c.379.027.785.081,1.163.108.839.054,1.65.135,2.435.216.785.108,1.515.189,2.273.3.487.081,1.028.162,1.515.243.73.135,1.434.243,2.137.406.7.135,1.407.271,2.11.46a23.551,23.551,0,0,1,2.381.6,7.3,7.3,0,0,1,1.163.325,1.78,1.78,0,0,1,.406.108c.676.189,1.353.406,1.975.622.568.189,1.136.379,1.677.6.92.325,1.759.676,2.624,1.028.7.325,1.38.622,2.083.947.081.027.108.081.189.108.676.325,1.3.649,1.948,1,.6.352,1.163.649,1.759,1a.4.4,0,0,0,.162.135c.649.379,1.244.785,1.813,1.19a4.784,4.784,0,0,1,.6.433c.216.162.406.3.622.46l.054.054c.271.216.568.433.866.676a26.013,26.013,0,0,1,2.489,2.381c.622.568,1.136,1.136,1.677,1.7a18.072,18.072,0,0,1,1.732,2.273Z" transform="translate(44.856 51.894)" fill="#d9f2ff" stroke="#000" stroke-linejoin="bevel" stroke-width="0.25"/>
      <path id="路径_12049" data-name="路径 12049" d="M44.883,67.145c-7.6-3.165-13.663-8.468-16.936-16.476a37.19,37.19,0,0,1-2.6-12.689L32.3,41.822c.027.758.081,1.515.162,2.246.027.433.081.866.135,1.272a3.911,3.911,0,0,0,.108.785c.081.568.189,1.163.3,1.7l.243,1.217a12.782,12.782,0,0,0,.352,1.461A28.829,28.829,0,0,0,44.883,67.145Z" transform="translate(43.219 64.429)" fill="#dcdc03" stroke="#000" stroke-linejoin="bevel" stroke-width="0.25"/>
      <path id="路径_12050" data-name="路径 12050" d="M64.742,38.612l-6.033,1.623L32.3,47.3,25.35,43.455l16.016-4.3L57.734,34.77l3.9,2.137Z" transform="translate(43.219 58.955)" fill="#dcdc03" stroke="#000" stroke-linejoin="bevel" stroke-width="0.25"/>
      <path id="路径_12051" data-name="路径 12051" d="M49.99,49.663a18.169,18.169,0,0,1-12.31-11.85l6.033-1.623A15.706,15.706,0,0,0,44.038,39a4.771,4.771,0,0,0,.189,1.082,4.9,4.9,0,0,0,.243.839A3.945,3.945,0,0,0,44.8,41.98a2.669,2.669,0,0,0,.271.73,3.993,3.993,0,0,0,.325.785,6.514,6.514,0,0,0,.406.893,4.038,4.038,0,0,0,.379.649,8,8,0,0,0,.622,1.028,17.917,17.917,0,0,0,2,2.489,11.349,11.349,0,0,0,1.19,1.109Z" transform="translate(64.247 61.377)" fill="#8bd4fa" stroke="#000" stroke-linejoin="bevel" stroke-width="0.25"/>
      <path id="路径_12052" data-name="路径 12052" d="M66.731,33.465c-.46-.162-.92-.3-1.407-.433-.649-.189-1.326-.379-2.029-.514h-.054a34.1,34.1,0,0,0-3.706-.6,22.47,22.47,0,0,0-2.327-.189c-1-.027-2.029-.027-3.03.027h-.325a26.655,26.655,0,0,0-2.922.271c-.622.081-1.272.189-1.894.325L42.03,28.541a33.616,33.616,0,0,1,7.007-.649A33.175,33.175,0,0,1,60.13,29.839a22.127,22.127,0,0,1,6.6,3.6Z" transform="translate(71.666 47.22)" fill="#8bd4fa" stroke="#000" stroke-linejoin="bevel" stroke-width="0.25"/>
      <path id="路径_12053" data-name="路径 12053" d="M78.483,42.963a13.98,13.98,0,0,1-.3,3.9c-.108.487-.243.974-.379,1.488a1.113,1.113,0,0,1-.081.216,11.567,11.567,0,0,1-.46,1.244,15.051,15.051,0,0,1-.92,2.056,16.438,16.438,0,0,1-.92,1.623c-.352.6-.73,1.19-1.163,1.813-.433.6-.893,1.217-1.38,1.84a15.486,15.486,0,0,1-1.055,1.217,21,21,0,0,1-3.544,3.084A23.831,23.831,0,0,1,66.2,62.713a20.768,20.768,0,0,1-2.408,1.028c-.216.081-.406.189-.622.271-.3.108-.568.189-.839.271a20.745,20.745,0,0,1-4.058.812,21.238,21.238,0,0,1-6.006-.189,23.389,23.389,0,0,1-3.6-.92c-.6-.189-1.163-.433-1.731-.676a19.7,19.7,0,0,1-3.057-1.7c-.568-.406-1.109-.839-1.65-1.272A21.778,21.778,0,0,0,65.578,53.65c.108-.108.189-.243.3-.352,7.3-9.226,6.791-16.557,2.408-21.508a15.938,15.938,0,0,0-1.813-1.759l-.081-.081A27.078,27.078,0,0,1,70.5,31.79h.027a.779.779,0,0,1,.162.108h.027c.758.46,1.461.947,2.164,1.434a15.5,15.5,0,0,1,1.407,1.19A15.067,15.067,0,0,1,76.048,36.5,13.139,13.139,0,0,1,77,37.931h0c.271.514.514,1.055.73,1.569.108.271.189.568.271.839s.162.568.216.839a5.166,5.166,0,0,1,.162.893,8.957,8.957,0,0,1,.108.893Z" transform="translate(72.007 50.734)" fill="#dcdc03" stroke="#000" stroke-linejoin="bevel" stroke-width="0.25"/>
      <path id="路径_12054" data-name="路径 12054" d="M49.037,25.585V42.818L42.03,39V21.77Z" transform="translate(71.666 36.784)" fill="#dcdc03" stroke="#000" stroke-linejoin="bevel" stroke-width="0.25"/>
      <path id="路径_12055" data-name="路径 12055" d="M50.073,21.916a20.311,20.311,0,0,0-1.353,1.759c-.433.622-.839,1.245-1.217,1.894s-.7,1.3-1,1.948c-.162.325-.3.649-.433,1-.108.271-.216.541-.3.812a9.685,9.685,0,0,0-.3.947,12.553,12.553,0,0,0-.325,1.272c-.081.352-.135.7-.189,1.028v.054a12.743,12.743,0,0,0-.162,2l-6.385-3.463-.622-.325c.189-14.5,21.779-29.868,34.224-18.181a14.317,14.317,0,0,0-3.409-.379,18.5,18.5,0,0,0-2.137.135,7.469,7.469,0,0,0-1.082.162q-.933.162-1.867.406a1.319,1.319,0,0,0-.3.108,1.993,1.993,0,0,0-.379.108c-.487.135-1,.325-1.488.514-.433.162-.839.325-1.245.514-.352.162-.7.325-1.028.487-.135.054-.243.135-.379.189l-1.136.649c-.162.108-.325.189-.487.3-.325.189-.649.406-.974.622-.379.243-.73.487-1.082.758-.406.3-.812.622-1.19.947a17.344,17.344,0,0,0-1.488,1.326,9.66,9.66,0,0,0-.758.73c-.514.541-1.028,1.082-1.488,1.623a.084.084,0,0,1-.027.054Z" transform="translate(64.435 14.21)" fill="#8bd4fa" stroke="#000" stroke-linejoin="bevel" stroke-width="0.25"/>
      <path id="路径_12056" data-name="路径 12056" d="M77.617,24.859a10.731,10.731,0,0,1-.216,2.11A10.965,10.965,0,0,1,76.778,29a12.68,12.68,0,0,1-.568,1.245,9.429,9.429,0,0,1-.487.839,6.733,6.733,0,0,1-.514.812,9.972,9.972,0,0,1-.676.92c-.243.3-.514.6-.758.893-.135.135-.271.3-.406.433-.406.433-.839.866-1.3,1.272a31.717,31.717,0,0,1-2.922,2.354c-.7.487-1.434.947-2.164,1.407-.352.243-.73.46-1.109.676h0c-.758.433-1.515.839-2.3,1.217-.785.406-1.569.758-2.381,1.109-.027,0-.027.027-.054.027a10,10,0,0,1-1.136.46c-.406.162-.785.325-1.19.46-.406.162-.785.3-1.19.433-1.163.406-2.327.758-3.436,1.055-.379.108-.73.189-1.109.271-.352.081-.7.162-1.055.216a19.988,19.988,0,0,1-2.029.352c-.325.054-.649.081-.947.108L42.04,41.741a42.982,42.982,0,0,0,13.717-4.058c11.471-5.438,21.508-15.638,9.2-27.487l-.135-.135c.325.081.649.162.947.243a.1.1,0,0,1,.081.027c.325.081.622.189.947.3.216.081.406.189.622.271.081.027.135.054.216.081a6.918,6.918,0,0,1,.649.3c.135.081.3.162.433.243a3.222,3.222,0,0,1,.406.243,4.077,4.077,0,0,1,.541.325,8.376,8.376,0,0,1,.7.487,6.1,6.1,0,0,1,.812.649,7.05,7.05,0,0,1,.839.73,29.746,29.746,0,0,1,2.57,2.841c.216.3.433.622.649.92s.379.622.568.92a13.418,13.418,0,0,1,1.326,2.949,3.272,3.272,0,0,1,.135.487c.081.3.135.6.189.866a5.417,5.417,0,0,1,.108.649,10.03,10.03,0,0,1,.081,1.272Z" transform="translate(71.683 16.813)" fill="#dcdc03" stroke="#000" stroke-linejoin="bevel" stroke-width="0.25"/>
      <path id="路径_12057" data-name="路径 12057" d="M60.317,20.551l-31.627.893a32.374,32.374,0,0,1,.379-4l23.024-.649H53.31l.622.3,6.385,3.463Z" transform="translate(48.915 28.291)" fill="none" stroke="#000" stroke-linejoin="bevel" stroke-width="0.25"/>
      <path id="路径_12058" data-name="路径 12058" d="M114.579,5.356C104.46,1.866,91.528,2.38,79.408,5.167,67.937,7.818,57.2,12.5,50.324,17.8c-.487.379-.974.758-1.434,1.163-.325.271-.676.541-.974.839-.108.081-.189.162-.3.243-.487.433-.974.893-1.434,1.353a14.1,14.1,0,0,0-1.272,1.272c-.406.433-.812.866-1.217,1.326a37.072,37.072,0,0,0-4.112,5.411c-.3.433-.568.893-.839,1.326l-.893,1.542c-.325.6-.622,1.217-.92,1.813-.3.649-.568,1.3-.839,1.948a36.486,36.486,0,0,0-1.515,4.383c-.216.758-.406,1.515-.568,2.3-.081.406-.189.839-.271,1.272l-.162,1.055a4.177,4.177,0,0,0-.108.812,32.373,32.373,0,0,0-.379,4l-6.98-3.815c.027-.541.054-1.082.108-1.6C28.139,19.56,50.784,6.033,73.591,2.083c12.824-2.354,29.49-3.869,40.988,3.274Z" transform="translate(44.515 -0.127)" fill="#dcdc03" stroke="#000" stroke-linejoin="bevel" stroke-width="0.25"/>
      <path id="路径_12059" data-name="路径 12059" d="M71.6,2.639C55.884,5.345,40.247,12.6,31.4,25.013a46,46,0,0,1,4.491-5.519c.406-.433.839-.839,1.272-1.272.46-.46.947-.92,1.434-1.353.108-.081.189-.162.3-.243.3-.3.649-.568.974-.839.46-.406.947-.785,1.434-1.163,6.872-5.3,17.613-9.983,29.084-12.634l1.217.649Z" transform="translate(53.537 3.05)" fill="#8bd4fa" stroke="#000" stroke-linejoin="bevel" stroke-width="0.25"/>
      <path id="路径_12060" data-name="路径 12060" d="M82.658,4.741C71.728.655,57.985,2.062,47.027,4.064L45.81,3.415C57.93.628,70.863.114,80.981,3.6,81.549,3.956,82.117,4.335,82.658,4.741Z" transform="translate(78.112 1.625)" fill="#8bd4fa" stroke="#000" stroke-linejoin="bevel" stroke-width="0.25"/>
      <path id="路径_12061" data-name="路径 12061" d="M67.421,57.266a9.422,9.422,0,0,1-1.163.6,26.035,26.035,0,0,1-3.463,1.461L55.76,55.534C73.643,49.474,82.49,26.667,72.534,10A25.2,25.2,0,0,0,65.689,2.48,26.966,26.966,0,0,1,76.836,9.974c.3.325.568.676.812,1A23.21,23.21,0,0,1,79.6,13.762C88.658,28.912,82.138,49.176,67.421,57.266Z" transform="translate(95.082 3.886)" fill="#8bd4fa" stroke="#000" stroke-linejoin="bevel" stroke-width="0.25"/>
      <path id="路径_12062" data-name="路径 12062" d="M55.76,25.58V22.09l7.061,3.788-.027,3.49L55.76,25.58Z" transform="translate(95.082 37.33)" fill="none" stroke="#000" stroke-linejoin="bevel" stroke-width="0.25"/>
      <path id="路径_12063" data-name="路径 12063" d="M79.054,50.408c1-14.853-7.792-27-23.294-27.028l7.034,3.788c15.529.027,24.322,12.2,23.321,27.055l-7.061-3.815Z" transform="translate(95.082 39.53)" fill="#dcdc03" stroke="#000" stroke-linejoin="bevel" stroke-width="0.25"/>
      <path id="路径_12064" data-name="路径 12064" d="M133.65,88.411a34.581,34.581,0,0,1-.054,3.734c0,.893-.054,1.759-.108,2.624a32.471,32.471,0,0,1-.514,3.625c-2.137,11.228-9.6,20.534-19.642,27.325-.487.352-1,.676-1.515,1a68,68,0,0,1-6.872,3.869,2.28,2.28,0,0,1-.379.162c-14.177,6.872-31.275,9.523-45.722,6.845A44.749,44.749,0,0,1,42.5,131.319c-.514-.3-.974-.622-1.434-.947-.162-.108-.325-.243-.46-.352h-.027a30.974,30.974,0,0,1-11.363-16.693c-.108-.487-.243-.974-.352-1.461l-.243-1.217c-.108-.541-.216-1.136-.3-1.7a7.807,7.807,0,0,1-.108-.785c-.054-.406-.108-.839-.135-1.272-.081-.73-.135-1.488-.162-2.246l26.405-7.061,6.033-1.623a15.706,15.706,0,0,0,.325,2.814,4.771,4.771,0,0,0,.189,1.082,4.284,4.284,0,0,0,.243.839,5.251,5.251,0,0,0,.325,1.055,2.67,2.67,0,0,0,.271.73,3.994,3.994,0,0,0,.325.785c.108.3.271.6.406.893.108.216.243.433.379.649.189.352.406.7.622,1.028a17.917,17.917,0,0,0,2,2.489,11.349,11.349,0,0,0,1.19,1.109h0c.541.46,1.082.893,1.65,1.3a19.7,19.7,0,0,0,3.057,1.7c.568.243,1.136.487,1.731.676a22.275,22.275,0,0,0,9.6,1.109,26.938,26.938,0,0,0,4.058-.812,5.925,5.925,0,0,0,.893-.325,4.879,4.879,0,0,0,.568-.216,20.764,20.764,0,0,0,2.408-1.028,23.829,23.829,0,0,0,2.083-1.272,21,21,0,0,0,3.544-3.084,15.486,15.486,0,0,0,1.055-1.217c.487-.622.947-1.245,1.38-1.84.433-.622.812-1.217,1.163-1.813a16.442,16.442,0,0,0,.92-1.623,15.054,15.054,0,0,0,.92-2.056,8.8,8.8,0,0,0,.46-1.245,1.114,1.114,0,0,0,.081-.216,10.925,10.925,0,0,0,.379-1.488,13.028,13.028,0,0,0,.3-3.9,3.36,3.36,0,0,0-.108-.893,5.164,5.164,0,0,0-.162-.893,4.238,4.238,0,0,0-.216-.839c-.081-.271-.162-.568-.271-.839a8.047,8.047,0,0,0-.73-1.542h0a8.426,8.426,0,0,0-.947-1.461,15.065,15.065,0,0,0-1.759-1.975,14.857,14.857,0,0,0-1.407-1.19c-.7-.487-1.407-.974-2.164-1.434H95.1a1.6,1.6,0,0,0-.162-.108h-.027a25.9,25.9,0,0,0-4.031-1.759c-.487-.189-.974-.352-1.488-.514-.649-.189-1.326-.379-2.029-.514H87.3a34.1,34.1,0,0,0-3.706-.6c-.785-.081-1.569-.135-2.381-.162-.379-.027-.785-.054-1.19-.054-.6,0-1.19.027-1.786.054h-.325A26.657,26.657,0,0,0,75,77.643c-.622.081-1.272.189-1.894.325V60.734c.3-.027.622-.054.947-.108a19.989,19.989,0,0,0,2.029-.352c.352-.054.7-.135,1.055-.216.379-.081.73-.162,1.109-.271a30.93,30.93,0,0,0,3.436-1.055c.406-.135.785-.271,1.19-.433a7.182,7.182,0,0,0,1.19-.46,10,10,0,0,0,1.136-.46s0-.027.054-.027c.812-.325,1.6-.7,2.381-1.109.785-.379,1.542-.785,2.3-1.217h0c.379-.216.758-.433,1.109-.676.73-.433,1.461-.893,2.164-1.407a31.72,31.72,0,0,0,2.922-2.354c.46-.406.893-.839,1.3-1.272.135-.135.271-.3.406-.433.271-.3.514-.6.758-.893a9.977,9.977,0,0,0,.676-.92,6.734,6.734,0,0,0,.514-.812,9.432,9.432,0,0,0,.487-.839,12.682,12.682,0,0,0,.568-1.245,10.965,10.965,0,0,0,.622-2.029,10.732,10.732,0,0,0,.216-2.11,10.033,10.033,0,0,0-.081-1.272,2.716,2.716,0,0,0-.108-.649c-.054-.271-.108-.568-.189-.866a3.269,3.269,0,0,0-.135-.487,13.418,13.418,0,0,0-1.326-2.949c-.189-.3-.352-.622-.568-.92s-.433-.622-.649-.92a29.748,29.748,0,0,0-2.57-2.841,7.05,7.05,0,0,0-.839-.73,6.1,6.1,0,0,0-.812-.649,8.378,8.378,0,0,0-.7-.487,4.078,4.078,0,0,0-.541-.325,3.221,3.221,0,0,0-.406-.243c-.135-.081-.3-.162-.433-.243a6.915,6.915,0,0,0-.649-.3c-.081,0-.135-.054-.216-.081-.216-.081-.406-.189-.622-.271-.325-.108-.622-.216-.947-.3a.1.1,0,0,0-.081-.027c-.3-.081-.622-.162-.947-.243H88.82a16.052,16.052,0,0,0-3.409-.379,18.5,18.5,0,0,0-2.137.135,7.469,7.469,0,0,0-1.082.162q-.933.162-1.867.406a1.319,1.319,0,0,0-.3.108,1.993,1.993,0,0,0-.379.108c-.487.135-1,.325-1.488.514-.433.162-.839.325-1.245.514a8.828,8.828,0,0,0-1.028.487c-.135.054-.243.135-.379.189l-1.136.649c-.162.108-.325.189-.487.3-.325.189-.649.406-.974.622-.379.243-.73.487-1.082.758-.406.3-.812.622-1.19.947a17.343,17.343,0,0,0-1.488,1.326,6.4,6.4,0,0,0-.758.73c-.514.514-1,1.055-1.488,1.623a.084.084,0,0,1-.027.054,16.88,16.88,0,0,0-1.353,1.759c-.433.622-.839,1.245-1.217,1.894s-.7,1.3-1,1.948c-.162.325-.3.649-.433,1-.108.271-.216.541-.3.812-.108.325-.216.622-.3.947a12.553,12.553,0,0,0-.325,1.272c-.081.352-.135.7-.189,1.028V45.2a12.743,12.743,0,0,0-.162,2L29.976,48.1a32.375,32.375,0,0,1,.379-4c.027-.271.054-.541.108-.812l.162-1.055c.081-.433.189-.866.271-1.272.162-.785.352-1.542.568-2.3a36.484,36.484,0,0,1,1.515-4.383c.271-.649.541-1.3.839-1.948.3-.6.6-1.217.92-1.813l.893-1.542c.271-.433.541-.893.839-1.326.271-.406.541-.812.839-1.217.622-.839,1.245-1.677,1.921-2.489.027-.054.081-.081.108-.135.433-.514.812-1.082,1.245-1.569.406-.46.812-.893,1.217-1.326s.839-.839,1.272-1.272c.46-.46.947-.92,1.434-1.353.108-.081.189-.162.3-.243.3-.3.649-.568.974-.839.46-.406.947-.785,1.434-1.163,6.872-5.3,17.613-9.983,29.084-12.634,12.12-2.787,25.053-3.3,35.171.189a30.031,30.031,0,0,1,8.225,4.275,25.22,25.22,0,0,1,4.6,4.356c.3.325.568.676.812,1,10.551,13.852,6.114,35.6-8.36,45.154l-.243.162a16.107,16.107,0,0,1-1.623.974,9.42,9.42,0,0,1-1.163.6,26.035,26.035,0,0,1-3.463,1.461v3.49c.676,0,1.326.027,1.975.081a9.627,9.627,0,0,1,1.272.135l.73.081c.433.054.839.135,1.245.216s.785.162,1.163.271c.487.108.92.243,1.38.379h.027c.406.135.812.271,1.19.433a5.078,5.078,0,0,1,.812.325c.027,0,.054.027.081.027.487.216.974.433,1.407.676.487.243.947.514,1.38.785s.839.541,1.245.839c.271.189.541.406.812.6.379.325.73.622,1.082.947a12.285,12.285,0,0,1,1.028,1.028,12.447,12.447,0,0,1,1.109,1.272,4.058,4.058,0,0,1,.514.676.729.729,0,0,1,.189.216c.3.379.568.812.839,1.217l.649,1.136a21.117,21.117,0,0,1,.947,1.921c.243.541.46,1.082.676,1.677a.2.2,0,0,0,.054.162,16.684,16.684,0,0,1,.541,1.759c.162.568.3,1.109.433,1.7v.189c.135.649.243,1.3.325,1.975a5.577,5.577,0,0,1,.081.7l.081.73V87.3c.027.352.054.7.081,1.082Z" transform="translate(47.602 1.608)" fill="#ffff5a" stroke="#000" stroke-linejoin="bevel" stroke-width="0.25"/>
    </g>
  </g>
</svg>
