<svg xmlns="http://www.w3.org/2000/svg" width="53.033" height="47.877" viewBox="0 0 53.033 47.877">
  <g id="图层_1" data-name="图层 1" transform="translate(0 0.124)">
    <g id="组_3622" data-name="组 3622" transform="translate(0 0)">
      <path id="路径_11994" data-name="路径 11994" d="M45.757,38.679h.009l1.882-.452c1.317-.311,2.644-.63,3.961-.941l-.188-.226-4.328-4.987-3.105.734-2.776.649-.969-1.11-3.058-3.51-2.437-2.8-3.3-3.792-1.957-2.249L26.478,16.54l-1.524-1.76-.772.179-2.333.555L6.361,19.127,0,43.977,3.98,48.54l24.793-5.853,3.086-.734,2.86,3.293,1.026,1.186.536.612.442.508.442-.1,5.824-1.374,2.766-.659,2.456-.583V41.512l-2.446-2.823h-.009Zm-33.177-1c.32-1.4.64-2.8.913-4.206a40.889,40.889,0,0,0,.941-7.763c.659.875,1.346,1.741,2.042,2.606.612.772,1.242,1.534,1.882,2.305,1.581,1.91,3.227,3.82,4.883,5.73l-8.224,1.929-2.428.574-.282.066C12.4,38.51,12.5,38.1,12.58,37.682Z" transform="translate(0 -0.986)" opacity="0.08"/>
      <path id="路径_11995" data-name="路径 11995" d="M51.1,39.946v2.973l-.009,3.321v2.183L48.63,47.078v-.254l.009-6.728V38.61l1.882,1.026Z" transform="translate(-2.873 -2.394)" fill="none" stroke="#000" stroke-linejoin="bevel" stroke-width="0.25"/>
      <path id="路径_11996" data-name="路径 11996" d="M36.9,49.21l11.037-1.6,2.456,1.346-11.046,1.6L36.9,49.21Z" transform="translate(-2.18 -2.926)" fill="none" stroke="#000" stroke-linejoin="bevel" stroke-width="0.25"/>
      <path id="路径_11997" data-name="路径 11997" d="M36.9,40.3v8.478l2.446,1.346.009-8.487L36.9,40.3Z" transform="translate(-2.18 -2.494)" fill="#0182e5" stroke="#000" stroke-linejoin="bevel" stroke-width="0.25"/>
      <path id="路径_11998" data-name="路径 11998" d="M13.38,43.48,35.511,40.3l2.456,1.336-22.159,3.19L13.38,43.48Z" transform="translate(-0.79 -2.494)" fill="none" stroke="#000" stroke-linejoin="bevel" stroke-width="0.25"/>
      <path id="路径_11999" data-name="路径 11999" d="M31.84,2.32,13.37,34.33l.009,6.906,2.428,1.346V35.666L34.3,3.628,31.84,2.32Z" transform="translate(-0.79 -0.25)" fill="#0182e5" stroke="#000" stroke-linejoin="bevel" stroke-width="0.25"/>
      <path id="路径_12000" data-name="路径 12000" d="M47.744.12,33,2.19,35.456,3.5l14.754-2.07L47.744.12Z" transform="translate(-1.95 -0.12)" fill="#0182e5" stroke="#000" stroke-linejoin="bevel" stroke-width="0.25"/>
      <path id="路径_12001" data-name="路径 12001" d="M53.308,29.5l-4.658.668,2.456,1.327,4.667-.668L53.308,29.5Z" transform="translate(-2.874 -1.856)" fill="#0182e5" stroke="#000" stroke-linejoin="bevel" stroke-width="0.25"/>
      <path id="路径_12002" data-name="路径 12002" d="M48.64,38.568,53.3,37.9l2.456,1.336L51.1,39.9,48.64,38.568Z" transform="translate(-2.873 -2.352)" fill="none" stroke="#000" stroke-linejoin="bevel" stroke-width="0.25"/>
      <path id="路径_12003" data-name="路径 12003" d="M38.594,33.216,26.437,34.957,24,33.621l3.453-.5,8.685-1.242Z" transform="translate(-1.418 -1.996)" fill="none" stroke="#000" stroke-linejoin="bevel" stroke-width="0.25"/>
      <path id="路径_12004" data-name="路径 12004" d="M39.986,10.787c-.536,7.038-.63,14.039-.63,21.1L36.9,30.556c.009-5.373.056-10.708.32-16.052.075-1.487.16-2.973.273-4.46.009-.188.019-.386.038-.574Z" transform="translate(-2.18 -0.672)" fill="none" stroke="#000" stroke-linejoin="bevel" stroke-width="0.25"/>
      <path id="路径_12005" data-name="路径 12005" d="M38.01,10.727c-.48,1.27-1,2.531-1.553,3.773-2.6,5.965-5.834,11.6-9,17.294l-1.016,1.835L24,32.293q1.553-2.809,3.124-5.608c2.343-4.206,4.629-8.431,6.586-12.825.442-.969.856-1.948,1.251-2.936,0-.009.009-.019.019-.038.113-.263.216-.536.32-.8l.254-.677,1.176.63,1.28.687Z" transform="translate(-1.418 -0.669)" fill="none" stroke="#000" stroke-linejoin="bevel" stroke-width="0.25"/>
      <path id="路径_12006" data-name="路径 12006" d="M36.28,9.41l1.214.056,2.456,1.317-1.214-.056L36.28,9.41Z" transform="translate(-2.143 -0.669)" fill="none" stroke="#000" stroke-linejoin="bevel" stroke-width="0.25"/>
      <path id="路径_12007" data-name="路径 12007" d="M51.376,29.531l-2.2.311V28.157L49.2,1.51l-2.465.348L34.449,3.58,27.42,15.756,19.3,29.841l-3.34,5.777v6.916l19.7-2.832,2.456-.358v8.487l11.046-1.6v-5.5l.009-2.973,4.658-.677.019-7.9-2.465.358ZM35.691,25.249c-.019,1.609-.028,3.218-.028,4.836l-8.685,1.242c1.825-3.284,3.679-6.549,5.41-9.87,1.28-2.437,2.493-4.9,3.594-7.424C35.795,17.769,35.719,21.5,35.691,25.249Z" transform="translate(-0.943 -0.202)" fill="#b3e5ff" stroke="#000" stroke-linejoin="bevel" stroke-width="0.25"/>
      <path id="路径_12008" data-name="路径 12008" d="M39.377,10.866c-.536,7.038-.63,14.039-.63,21.1L26.59,33.712l1.016-1.835,8.685-1.242c.009-5.373.056-10.708.32-16.052.555-1.242,1.073-2.5,1.553-3.773l1.214.056Z" transform="translate(-1.571 -0.752)" fill="#0182e5" stroke="#000" stroke-linejoin="bevel" stroke-width="0.25"/>
    </g>
  </g>
</svg>
