<?xml version="1.0" encoding="UTF-8"?>
<svg id="_图层_2" data-name="图层 2" xmlns="http://www.w3.org/2000/svg" viewBox="0 0 66.97 51.99">
  <defs>
    <style>
      .cls-1 {
        opacity: .08;
      }

      .cls-2 {
        fill: #8bd4fa;
      }

      .cls-2, .cls-3, .cls-4, .cls-5 {
        stroke: #000;
        stroke-linejoin: bevel;
        stroke-width: .25px;
      }

      .cls-3 {
        fill: #b3e5ff;
      }

      .cls-4 {
        fill: #d9f2ff;
      }

      .cls-5 {
        fill: none;
      }
    </style>
  </defs>
  <g id="_图层_1-2" data-name="图层 1">
    <g>
      <path class="cls-1" d="m66.19,37.6c-.15-.22-.32-.44-.51-.66l-1.31-1.36-.34-.31c-.06-.05-.12-.11-.18-.15h0s-.03-.04-.05-.05c-.34-.3-.68-.58-1.03-.86-.16-.11-.31-.23-.48-.34-.1-.08-.21-.16-.31-.22l-.02-.02s-.07-.05-.1-.07c-.04-.04-.1-.08-.16-.11-.32-.22-.67-.44-1.02-.64-.21-.13-.43-.27-.65-.39-.05-.02-.09-.04-.14-.07-.22-.12-.44-.24-.66-.35-.01,0-.04-.02-.05-.02-.52-.27-1.04-.51-1.6-.74-.03-.02-.04-.02-.07-.03-.19-.09-.4-.17-.61-.25-.1-.05-.21-.09-.32-.13-.2-.08-.4-.16-.61-.23-.46-.16-.93-.32-1.41-.46h-.01c-.16-.06-.32-.1-.48-.15-.2-.07-.4-.12-.61-.18-.35-.09-.69-.18-1.02-.27-.01,0-.03-.01-.04-.01s-.03,0-.04-.01c-.16-.03-.34-.08-.5-.11-.17-.04-.36-.08-.55-.12h-.02s-.04-.01-.06-.01c-.41-.09-.82-.17-1.24-.24h-.02s-.06-.02-.1-.03c-.36-.06-.72-.12-1.08-.17-.06-.01-.1-.02-.15-.02-.36-.06-.72-.1-1.11-.15-.07,0-.13-.01-.2-.02-.32-.04-.67-.08-1.01-.11-.36-.03-.71-.06-1.06-.08h-.16c-.1-.01-.19-.02-.29-.02-.02,0-.04,0-.05,0h-.02c-.15-.01-.3-.02-.45-.03h-.01c-.36-.01-.72-.02-1.07-.03-.32-.01-.63-.02-.95-.02h-.12c-.42,0-.86,0-1.29.01-.06,0-.1.01-.16.01-.11,0-.23,0-.35,0-.11,0-.22.01-.32.01-.35.01-.7.03-1.05.05-.35.02-.69.05-1.03.08-.36.03-.7.05-1.05.09-.35.04-.68.07-1.02.11h-.01c-.46.06-.92.13-1.37.2-.38.05-.77.12-1.15.19h-.02c-.25.05-.51.1-.76.15-.09.02-.19.04-.27.05-.18.04-.37.08-.54.12-.27.06-.54.12-.8.19-.27.06-.53.13-.79.2s-.52.14-.78.22c-.75.22-1.49.45-2.19.72-.03.01-.06.02-.09.03-.72.27-1.4.56-2.04.88-.44.21-.86.43-1.25.67-.18.1-.35.2-.52.31-.54.35-1.03.71-1.47,1.09-.23.19-.42.38-.6.58-.19.2-.37.4-.52.6-.16.21-.3.42-.43.62-.28-.23-.57-.48-.86-.73-.14-.12-.3-.25-.44-.38-.17-.14-.33-.29-.49-.44-.06-.05-.09-.09-.14-.13-.03-.03-.06-.06-.09-.09-.05-.06-.12-.11-.18-.17-.18-.19-.36-.36-.54-.55-.21-.21-.41-.42-.6-.64,0-.01-.02-.02-.04-.04-.19-.23-.39-.46-.58-.68-.13-.17-.26-.34-.38-.51-.01,0-.01-.02-.02-.02-.08-.11-.16-.22-.22-.32-.01-.02-.03-.04-.04-.06-.12-.19-.23-.38-.34-.56-.09-.15-.16-.31-.24-.46-.03-.07-.06-.13-.09-.19-.08-.19-.14-.38-.19-.56-.07-.21-.13-.42-.15-.62v-.03c-.03-.21-.04-.41-.02-.62,0-.1.02-.2.04-.3.01-.07.02-.14.04-.2.03-.1.06-.19.09-.28.02-.07.05-.14.09-.21,0-.02.02-.03.03-.05.03-.07.09-.15.13-.22.05-.08.11-.17.19-.26.06-.1.14-.19.23-.28.11-.11.21-.22.34-.32.1-.08.2-.15.3-.22,0-.01.02-.02.03-.03.16-.11.33-.22.53-.32.07-.04.13-.08.2-.11.22-.12.47-.22.74-.33.16-.07.33-.13.53-.2.15-.05.31-.1.47-.16.19-.05.39-.1.59-.16.26-.07.53-.13.81-.2,1-.22,2.07-.38,3.17-.47h.05c.14-.02.28-.03.42-.04.07,0,.12,0,.18,0,.21-.02.44-.03.67-.03.05-.01.1-.01.15-.01.27-.01.54-.01.81-.01.01,0,.02.01.02.01h.02c.26-.01.51,0,.78.01.27.01.57.02.86.04.19.02.37.03.55.05.04,0,.09,0,.13,0,.3.03.59.07.89.11.05,0,.12.02.17.02.21.04.44.07.63.1.04,0,.07.02.1.02t.04.01c.06.01.12.02.19.03.15.04.3.06.45.09.02.01.04.01.06.02.05.01.07.01.11.02.13.03.26.07.39.09.26.07.53.14.78.21h.02c1,.29,1.98.67,2.91,1.14l1.45-.57h.02s2.6-1.04,2.6-1.04h.01l7.54-2.99c-.22-.13-.43-.25-.64-.37-.23-.12-.46-.24-.68-.36-.22-.1-.44-.21-.66-.32-.11-.05-.22-.1-.33-.14,0-.01-.01-.01-.02-.01-1.37-.6-2.83-1.08-4.36-1.46-.91-.23-1.85-.42-2.81-.57-1.21-.21-2.46-.35-3.72-.45-.42-.04-.86-.06-1.27-.09-.8-.04-1.59-.06-2.4-.06-1.09-.01-2.18.02-3.26.08-3.86.18-7.64.71-10.95,1.41-2.82.6-5.3,1.32-7.2,2.06-3.28,1.25-5.44,2.76-6.65,4.45-2.15,2.93-1.35,6.43,1.62,10.12,6.65,8.27,19.02,14.9,33.02,16.22.5.05,1,.09,1.48.12.7.05,1.4.08,2.1.1.38,0,.75.02,1.13,0,4.42.03,8.96-.48,13.48-1.66.34-.08.69-.18,1.03-.28,1.1-.49,2.16-1.07,3.16-1.71.13-.07.26-.15.38-.24.01-.01.02-.01.03-.02,2.4-1.52,4.38-3.45,5.79-5.77.77-1.27,1.37-2.65,1.77-4.14,0,0-.01-.01-.02-.02Zm-29.46-3.01c.15-.01.3-.02.45-.03.11-.01.22-.02.33-.02.39-.02.78-.03,1.17-.03.4.08.8.17,1.19.29.01-.01.02,0,.03.01.89.24,1.74.56,2.53.96.18.08.36.18.52.28.58.34,1.11.73,1.58,1.16l.39.31c.09.07.16.12.23.19.05.04.08.08.12.12.16.14.31.27.45.4.07.06.13.13.19.19.99,1.09,1.13,2.11.66,3-.02.05-.04.09-.07.13-.35.6-.97,1.13-1.79,1.6-.04.02-.08.04-.12.07-1.35.74-3.2,1.28-5.27,1.57-.92.11-1.87.16-2.85.15-2.49-.53-4.86-1.51-6.75-3.04l-.11-.09c-.16-.13-.3-.26-.43-.39-1.12-1.1-1.37-2.14-1-3.06.79-1.96,4.39-3.4,8.55-3.77Z"/>
      <path class="cls-3" d="m33.35,49.04c.11.08.22.16.34.24-.4-.18-.8-.38-1.19-.59-.02-.01-.04-.02-.06-.03-.01,0-.03,0-.04-.02-.06-.03-.11-.07-.17-.11.02.01.05.02.07.03,0,.01.01.01.01.01.34.17.69.32,1.04.47Z"/>
      <path class="cls-3" d="m64.17,29.32c-.32-4.03-2-6.86-4.43-8.7,0-.01-.02-.02-.03-.02h-.01c-1.53-1.13-3.36-1.86-5.34-2.2-.21-.04-.41-.07-.62-.1-.17-.03-.34-.05-.5-.07-.25-.03-.5-.05-.76-.07-.73-.06-1.47-.07-2.21-.02-.24.01-.48.03-.71.05-3.12.29-6.29,1.3-9.08,2.93-.21.13-.42.26-.63.39-.22.13-.43.27-.63.42-.16.12-.33.24-.49.36-.2.15-.41.31-.61.46-.01,0-.02.01-.02.01-.17.14-.34.28-.51.43-.29.25-.57.51-.85.78-.25.25-.5.51-.74.77-.09-6.36,1.17-14.69,8.72-15.87.29-.05.57-.08.85-.1.52-.04,1.03-.04,1.53-.01.91.07,1.77.27,2.55.61.25.11.48.23.7.37.05.02.09.05.13.08.1.06.19.12.28.19.08.06.16.12.24.19.08.06.16.13.24.2.01,0,.01,0,.01,0h.01c.12.11.24.23.35.36.23.26.45.54.64.85.09.16.18.32.27.49.07.12.13.25.17.38.02.03.03.05.03.08.03.06.05.13.08.2t.01.02c.06.14.1.28.15.43l1.6-.63,9.35-3.65c-.04-.2-.08-.4-.13-.6-.6-2.46-1.91-4.28-3.67-5.57-3.46-1.36-7.78-1.45-11.73-.86-2.27.34-4.41.9-6.19,1.58-3.06,1.15-5.59,2.83-7.66,4.92-3.62,3.63-5.78,8.52-6.7,14.04-2.06,12.36.8,23.46,8.77,27.61.28.15.57.29.86.41,5.24,1.05,11.03-.09,15.87-2.76.14-.08.29-.15.44-.24,5.62-3.2,9.87-8.48,10.41-14.74.01-.01.01-.02,0-.04.02-.15.02-.3.03-.46v-.49c.03-.55.03-1.09.01-1.6-.01-.28-.03-.55-.05-.82Zm-11.32,4.15c0,.21,0,.41-.01.61-.01.1-.02.2-.03.3-.56,4.65-5.06,7.44-9.09,7.54-.67-.01-1.32-.1-1.94-.28-1.19-1.14-1.96-2.87-2-5.27v-.14c0-5.62,5.57-8.91,10.08-8.61.18.01.36.03.54.06.26.04.52.09.77.16.65.6,1.15,1.37,1.44,2.34.05.15.09.31.12.47.11.56.15,1.18.12,1.85v.49c.02.1.02.19.02.29,0,.06-.01.12-.02.19Z"/>
      <path class="cls-2" d="m60.11,2.77c-3.46-1.36-7.78-1.45-11.73-.86-2.27.34-4.41.9-6.19,1.58-3.06,1.15-5.59,2.83-7.66,4.92-.87.74-1.61,1.53-2.2,2.34l-2.21-1.2-.37-.2c.8-1.09,1.88-2.15,3.17-3.14.01-.01.01-.02.02-.02,1.12-1.11,2.33-2.03,3.6-2.73,2.6-1.43,6.25-2.59,10.04-3.08.03-.01.06-.01.09-.02,4.29-.53,8.76-.21,12.1,1.57,0,0,.01.01.02.01.46.25.91.53,1.32.83Z"/>
      <path class="cls-3" d="m33.69,49.28c.35.24.73.47,1.12.68-.33-.15-.66-.3-.97-.48-.03-.01-.07-.03-.1-.05-.11-.06-.21-.11-.32-.17-.14-.08-.28-.16-.42-.25-.07-.04-.15-.08-.22-.13-.11-.06-.23-.14-.34-.22-.01,0-.03,0-.04-.02-.06-.03-.11-.07-.17-.11.02.01.05.02.07.03,0,.01.01.01.01.01.34.17.69.32,1.04.47.11.08.22.16.34.24Z"/>
      <path class="cls-3" d="m66.81,33.63c-.02.71-.09,1.4-.2,2.07-.1.65-.24,1.29-.42,1.9-1.18,4.15-3.95,7.51-7.54,9.93-.01.01-.02.01-.03.02-.12.09-.25.17-.38.24-1.19.72-2.48,1.35-3.85,1.87-.12.04-.23.09-.34.12-5.28,1.97-9.77,2.41-13.48,1.66-1.11-.22-2.14-.55-3.11-.97-.29-.12-.58-.26-.86-.41,5.44,1.21,11.6.26,16.73-2.35.14-.08.29-.15.44-.24,4.98-2.66,8.9-6.94,10.08-12.35h0c.17-.78.28-1.58.33-2.39.01-.01.01-.02,0-.04.02-.15.02-.3.03-.46l2.6,1.4Z"/>
      <path class="cls-2" d="m58.24,47.79c-1,.64-2.06,1.22-3.16,1.71-4.84,2.19-10.51,2.93-15.64,1.93-1.61-.32-3.17-.81-4.63-1.47-.39-.21-.77-.44-1.12-.68-.12-.08-.23-.16-.34-.24-.35-.15-.7-.3-1.04-.47,0,0-.01,0-.01,0-.02-.01-.05-.02-.07-.03.06.04.11.08.17.11-.19-.1-.37-.21-.55-.32-5.25-3.17-7.7-9.24-8.04-15.98-.16-2.93.09-6,.68-9,.03-.13.05-.27.08-.4.33-2.07.82-4.09,1.45-5.99.94-2.88,2.21-5.49,3.73-7.6l.37.2,2.21,1.2c.59-.81,1.33-1.6,2.2-2.34-2.34,2.35-4.07,5.22-5.25,8.46-.65,1.76-1.13,3.63-1.45,5.58-.05.33-.11.66-.15.98-.37,2.52-.53,4.97-.49,7.33.05,2.7.38,5.26.99,7.6.27,1.07.61,2.09,1,3.06,1.56,3.85,4.02,6.87,7.42,8.64.28.15.57.29.86.41.97.42,2,.75,3.11.97,3.71.75,8.2.31,13.48-1.66.11-.03.22-.08.34-.12,1.37-.52,2.66-1.15,3.85-1.87Z"/>
      <path class="cls-3" d="m34.81,49.96c-.33-.15-.66-.3-.97-.48-.03-.01-.07-.03-.1-.05-.11-.06-.21-.11-.32-.17-.14-.08-.28-.16-.42-.25-.07-.04-.15-.08-.22-.13-.09-.06-.19-.12-.28-.19-.06-.03-.13-.08-.19-.12.34.17.69.32,1.04.47.11.08.22.16.34.24.35.24.73.47,1.12.68Z"/>
      <path class="cls-2" d="m48.38,1.91c-5.27,1.09-10.49,3.55-13.85,6.5,2.07-2.09,4.6-3.77,7.66-4.92,1.78-.68,3.92-1.24,6.19-1.58Z"/>
      <polygon class="cls-5" points="52.96 13.22 63.91 8.94 66.52 10.32 55.56 14.61 52.96 13.22 52.96 13.22"/>
      <path class="cls-2" d="m35.99,24.73c-.08-6.36,1.17-14.69,8.72-15.87,3.63-.57,7.09.57,8.25,4.35l2.6,1.39c-1.16-3.78-4.62-4.92-8.25-4.36-7.55,1.18-8.81,9.52-8.73,15.88l-2.59-1.41h0Z"/>
      <polygon class="cls-5" points="64.2 32.22 64.22 31.74 66.82 33.15 66.81 33.63 64.2 32.22 64.2 32.22"/>
      <path class="cls-5" d="m64.22,31.74c.64-16.77-19.35-16.79-28.23-7.01l2.59,1.41c8.88-9.79,28.89-9.77,28.25,7.01l-2.61-1.41h0Z"/>
      <path class="cls-5" d="m51.3,27.86s.02.01.03.02c-.05-.02-.1-.03-.16-.04-.25-.07-.51-.12-.77-.16-.18-.03-.36-.05-.54-.06-4.58-.37-10.27,2.93-10.08,8.61v.14l-2.59-1.41c-.37-7.59,10.08-11.16,14.11-7.1Z"/>
      <path class="cls-5" d="m55.46,34.4l-2.57-1.39-.03-.02v-.49c.02-.67-.02-1.29-.13-1.85-.03-.16-.07-.32-.12-.47-.24-.94-.69-1.7-1.28-2.3,1.99.55,3.56,1.94,4.03,4.28.13.67.17,1.41.1,2.24Z"/>
      <path class="cls-5" d="m41.22,41.46c.07.08.14.15.22.21-2.62-.69-4.56-2.82-4.25-6.68v-.03l2.59,1.41c-.19,2.28.4,3.95,1.44,5.09Z"/>
      <path class="cls-5" d="m55.46,34.4c.01.31.01.61,0,.91-.31,5.03-5.16,8.04-9.4,8.04-.09,0-.19,0-.28,0-1.67-.05-3.23-.58-4.34-1.67.16.05.33.09.5.11.57.12,1.17.16,1.78.14,4.03-.1,8.53-2.89,9.09-7.54.01-.1.02-.2.03-.3.02-.26.03-.53.03-.8,0-.1,0-.19-.01-.29l.03.02,2.57,1.39Z"/>
      <path class="cls-4" d="m66.79,30.95c-.01-.12-.02-.24-.03-.35v-.03s0-.07,0-.11c0-.06-.01-.12-.02-.18-.04-.35-.1-.7-.16-1.04-.04-.21-.08-.43-.13-.63-.01-.04-.02-.08-.03-.12-.05-.2-.1-.4-.16-.59,0-.01-.01-.03-.01-.04-.13-.45-.28-.87-.46-1.28-.01-.02-.01-.03-.02-.05-.06-.15-.13-.3-.2-.44-.03-.08-.07-.16-.11-.23-.07-.14-.14-.28-.21-.42-.23-.4-.48-.79-.75-1.15-.08-.12-.17-.23-.26-.34-.15-.19-.3-.37-.45-.54-.09-.09-.18-.19-.27-.27-.08-.09-.17-.18-.26-.26h-.01s-.02-.03-.03-.03c-.2-.19-.4-.37-.61-.54h-.01s-.03-.04-.05-.05c-.18-.15-.37-.29-.56-.42-.03-.02-.05-.04-.08-.05-.19-.14-.39-.26-.6-.39-.04-.02-.07-.04-.11-.06-.18-.11-.37-.22-.57-.32-.29-.14-.58-.28-.88-.4-.01-.01-.02-.02-.03-.02h-.01c-.09-.04-.18-.08-.27-.11h-.01c-.22-.08-.44-.16-.66-.23-.19-.07-.39-.13-.59-.19-.03,0-.05,0-.08-.02-.27-.07-.55-.14-.83-.2-.04-.01-.07-.01-.11-.02-.14-.03-.3-.06-.45-.08-.23-.04-.47-.08-.71-.11-.24-.03-.48-.05-.72-.07-.25-.02-.49-.04-.74-.05s-.49-.02-.74-.02h-.01c-.34,0-.68.01-1.02.03-.29.01-.59.04-.89.07h-.01c-.2.02-.4.04-.6.07-.07.01-.15.02-.22.03-.14.02-.29.04-.43.07-.22.03-.44.07-.66.12-.22.04-.44.09-.66.14-.22.05-.44.1-.66.16-.68.18-1.36.39-2.04.64-.67.25-1.33.53-1.98.85-.65.32-1.28.66-1.89,1.04s-1.2.79-1.77,1.23c-.29.22-.56.45-.83.69-.27.23-.54.48-.79.73-.26.25-.51.51-.75.77,0-.37,0-.75.01-1.14,0-.19,0-.4.01-.6,0-.22.01-.45.02-.68v-.03c0-.06.01-.11.01-.17,0-.04,0-.09,0-.13.01-.09.01-.18.02-.27.02-.28.04-.55.07-.83h0c.03-.33.06-.65.1-.97.01-.02.01-.04.01-.07.05-.34.1-.68.15-1.02.04-.25.09-.5.14-.75,0-.01,0-.03,0-.04.03-.16.06-.32.1-.47.01-.03.01-.06.02-.09.07-.28.14-.55.21-.81,0,0,.01-.02.01-.03.06-.22.12-.43.19-.64.03-.1.06-.19.09-.28.09-.27.19-.53.3-.79.12-.3.24-.59.38-.87,0-.01,0-.02.02-.03.14-.29.29-.57.46-.85.08-.14.17-.27.26-.41.06-.09.12-.18.18-.26.09-.13.18-.25.27-.37.07-.09.14-.18.22-.27.02-.02.03-.03.05-.05.08-.1.17-.19.25-.28.1-.11.21-.22.32-.32.12-.13.24-.24.37-.35.15-.13.3-.26.46-.37.12-.09.24-.17.36-.26.01-.01.03-.02.04-.03.19-.12.38-.24.59-.35.07-.04.14-.08.21-.11.23-.12.47-.22.72-.32.16-.07.32-.13.49-.18.14-.05.28-.09.43-.14.16-.04.33-.08.5-.12.22-.05.44-.09.67-.13.81-.13,1.62-.17,2.39-.11h.04c.1,0,.2.01.3.02.04.01.08.01.12.02.18.02.37.05.55.09.18.03.36.07.53.12.01,0,.01.01.01.01h0c.17.04.33.09.49.15.17.06.35.13.52.21.13.06.26.12.39.19.17.09.33.19.49.3.03.01.06.04.09.06.11.08.23.16.33.24.02,0,.03.03.05.04t.02.02s.06.05.09.08c.07.07.15.13.22.2l.03.03s.03.03.05.05c.06.06.12.13.18.19.12.13.24.27.34.41h.01c.42.57.76,1.25,1,2.04l10.96-4.29c-.04-.21-.08-.41-.13-.6-.05-.21-.11-.41-.16-.61-.06-.18-.12-.36-.18-.54-.97-2.62-2.84-4.38-5.19-5.48-.24-.12-.5-.23-.75-.33-3.46-1.36-7.78-1.45-11.73-.86-2.27.34-4.41.9-6.19,1.58-3.06,1.15-5.59,2.83-7.66,4.92-2.34,2.35-4.07,5.22-5.25,8.46-.65,1.76-1.13,3.63-1.45,5.58-.05.33-.11.66-.15.98-.37,2.52-.53,4.97-.49,7.33.05,2.7.38,5.26.99,7.6.27,1.07.61,2.09,1,3.06,1.56,3.85,4.02,6.87,7.42,8.64.28.15.57.29.86.41.97.42,2,.75,3.11.97,3.71.75,8.2.31,13.48-1.66.11-.03.22-.08.34-.12,1.37-.52,2.66-1.15,3.85-1.87.13-.07.26-.15.38-.24.01-.01.02-.01.03-.02,2.4-1.52,4.38-3.45,5.79-5.77.77-1.27,1.37-2.65,1.77-4.14.17-.62.3-1.26.4-1.92l.2-2.07.02-.48c.02-.54.02-1.07,0-1.57v-.08c-.01-.18-.02-.37-.04-.55Zm-16.93-3.33c.18,0,.36.03.54.06.26.04.52.09.77.16.49.46.9,1.01,1.19,1.68.1.21.18.43.25.66.05.15.09.31.12.47.11.56.15,1.18.12,1.85v.49c.02.1.02.19.02.29,0,.06-.01.12-.02.19,0,.21,0,.41-.01.61-.01.1-.02.2-.03.3-.43,3.56-3.17,6.03-6.24,7.04-.94.31-1.91.48-2.85.5-.67-.01-1.32-.1-1.94-.28-1.19-1.14-1.96-2.87-2-5.27v-.14c0-.49.04-.96.12-1.42.54-3.02,2.76-5.22,5.36-6.35,1.3-.56,2.7-.86,4.03-.86.19,0,.38.01.57.02Z"/>
      <path class="cls-2" d="m55.46,35.31c-.58,3.52-4.81,8.49-9.68,8.03-.8-.08-2.23-.35-3.84-1.56-.06-.04-.11-.09-.16-.14.62.18,1.27.27,1.94.28,4.03-.1,8.53-2.89,9.09-7.54.01-.1.02-.2.03-.3.01-.2.01-.4.01-.61,0-.16,0-.32,0-.48v-.49c.02-.67-.02-1.29-.13-1.85-.03-.16-.07-.32-.12-.47-.29-.97-.79-1.74-1.44-2.34-.25-.07-.51-.12-.77-.16.25.03.51.08.75.14.05.01.1.02.15.04,1.12.29,2.11.86,2.84,1.7.82.95,1.06,1.95,1.22,2.6,0,0,.37,1.51.1,3.15Z"/>
      <path class="cls-5" d="m52.81,34.38c-.44,4.83-5.01,7.64-9.09,7.54,4.03-.1,8.53-2.89,9.09-7.54Z"/>
    </g>
  </g>
</svg>