<svg xmlns="http://www.w3.org/2000/svg" width="126.106" height="100.677" viewBox="0 0 126.106 100.677">
  <g id="图层_1" data-name="图层 1" transform="translate(0 0.004)">
    <g id="组_3630" data-name="组 3630" transform="translate(0 0.12)">
      <path id="路径_12117" data-name="路径 12117" d="M72.684,33.29l-8.072-4.37L0,45.636l10.61,5.706L52.724,40.427C49.309,51.4,61.54,62.161,77.3,71.721l21.792-5.706c-16.582-10-29.921-21.219-26.41-32.745h0Z" transform="translate(0 26.037)" opacity="0.08"/>
      <path id="路径_12118" data-name="路径 12118" d="M39.09,52.843,61.607,49.58l4.98,2.748L44.051,55.61,39.09,52.843Z" transform="translate(35.502 44.801)" fill="none" stroke="#000" stroke-linejoin="bevel" stroke-width="0.25"/>
      <path id="路径_12119" data-name="路径 12119" d="M62.351,10.569C45.826,32.838,40.445,61.156,39.09,88.291l4.961,2.748c1.355-27.173,6.755-55.529,23.3-77.817l-5-2.672h0Z" transform="translate(35.502 9.353)" fill="#0182e5" stroke="#000" stroke-linejoin="bevel" stroke-width="0.25"/>
      <path id="路径_12120" data-name="路径 12120" d="M28.54,16.666,71.933,10.56l5,2.672L33.5,19.357,28.54,16.666Z" transform="translate(25.921 9.362)" fill="none" stroke="#000" stroke-linejoin="bevel" stroke-width="0.25"/>
      <path id="路径_12121" data-name="路径 12121" d="M28.53,4.99l.019,16.735,4.961,2.691V7.662L28.53,4.99Z" transform="translate(25.912 4.303)" fill="#0182e5" stroke="#000" stroke-linejoin="bevel" stroke-width="0.25"/>
      <path id="路径_12122" data-name="路径 12122" d="M95.07.12,28.53,9.413l4.98,2.672,66.578-9.312L95.07.12Z" transform="translate(25.912 -0.12)" fill="#0182e5" stroke="#000" stroke-linejoin="bevel" stroke-width="0.25"/>
      <path id="路径_12123" data-name="路径 12123" d="M73.379,8.7,74.753,6.81l5.019,2.652c-17.346,23.452-22.536,53.2-23.891,81.71L50.9,88.425C52.217,60.717,57.14,31.846,73.4,8.7h0Z" transform="translate(46.229 5.956)" fill="none" stroke="#000" stroke-linejoin="bevel" stroke-width="0.25"/>
      <path id="路径_12124" data-name="路径 12124" d="M97.7,14.3V1.51L31.14,10.822V27.576L74.571,21.47c-16.544,22.288-21.945,50.644-23.3,77.817l22.536-3.282C75.182,67.5,80.372,37.747,97.7,14.3h0Z" transform="translate(28.282 1.142)" fill="#b3e5ff" stroke="#000" stroke-linejoin="bevel" stroke-width="0.25"/>
    </g>
  </g>
</svg>
