<svg xmlns="http://www.w3.org/2000/svg" width="182.194" height="158.775" viewBox="0 0 182.194 158.775">
  <g id="图层_1" data-name="图层 1" transform="translate(0 0.156)">
    <g id="组_3631" data-name="组 3631" transform="translate(0 0)">
      <path id="路径_12125" data-name="路径 12125" d="M180.073,79.689a6.8,6.8,0,0,0-.724-.905,8.4,8.4,0,0,0-.815-1c-.211-.272-.483-.543-.724-.815-.694-.694-1.388-1.388-2.172-2.052-.332-.332-.694-.634-1.056-.935s-.724-.573-1.147-.875a4.253,4.253,0,0,0-.543-.422,18.639,18.639,0,0,0-1.6-1.086c-.091-.06-.181-.151-.241-.181-.664-.392-1.237-.784-1.9-1.147-.875-.513-1.78-1-2.685-1.448-.513-.272-1.056-.513-1.569-.754-.965-.422-2.022-.875-3.108-1.267-.724-.272-1.478-.573-2.233-.784-.362-.151-.815-.272-1.207-.392-.3-.121-.664-.181-1-.3-.091,0-.151-.06-.241-.06-.3-.091-.543-.151-.845-.241-.724-.181-1.448-.362-2.2-.513-.935-.211-1.871-.422-2.866-.573a1.307,1.307,0,0,0-.151-.03c-.453-.091-.935-.151-1.388-.211s-.935-.121-1.448-.181c-.513-.091-1-.121-1.478-.181s-1.026-.091-1.539-.151c-.06.03-.06,0-.121,0-.875-.091-1.81-.121-2.715-.151-.754-.03-1.509-.06-2.323-.06-.06.03-.151,0-.241,0-.272,0-.573.03-.905.03-.694,0-1.418.03-2.142.06-.754.06-1.509.091-2.233.151h-.573a.093.093,0,0,0-.06.03h-.453l-.3-.422-1.569-2.384c.694-.211,1.388-.453,2.022-.694.543-.181,1.026-.362,1.509-.573h.06c.211-.091.483-.181.724-.3,10.59-4.586,14.513-12.763,11.918-20.969,0-.03-.03-.06-.06-.121v-.06a23.426,23.426,0,0,0-5.582-8.75A39.131,39.131,0,0,0,135,23.238h-.03a50.621,50.621,0,0,0-4.948-2.746,72.739,72.739,0,0,0-24.469-6.457,19.068,19.068,0,0,0-2.233-.181c-.03-.06-.06,0-.06,0-.181,0-.332-.03-.513-.03a121.56,121.56,0,0,0-12.4-.332h-.754c-.272,0-.573.03-.905.03a194.833,194.833,0,0,0-22.629,1.3.105.105,0,0,1-.06.03q-4.526.5-9.052,1.267C52.657,16.781,48.4,17.6,44.3,18.561c-11.827,2.715-22.6,6.517-30.534,11.254-.03.03-.06.03-.091.06-9.2,5.431-14.6,12.1-13.547,19.793a9.719,9.719,0,0,0,.332,1.509c.06.272.151.6.211.905a16.33,16.33,0,0,0,.6,1.84,7.17,7.17,0,0,0,.392.875c.151.3.272.6.453.905a.228.228,0,0,0,.03.121c.151.241.272.543.453.815.272.453.543.935.845,1.388.453.664.905,1.328,1.418,1.961.151.211.332.453.513.664.453.543.966,1.116,1.478,1.629q.634.679,1.358,1.358a37.265,37.265,0,0,0,3.832,3.228,48.568,48.568,0,0,0,6.4,3.862c.664.3,1.328.6,2.052.905.694.332,1.358.573,2.082.875h.06c.513.181,1,.362,1.478.513.483.181.935.332,1.418.483h.06l.03.03a7.047,7.047,0,0,1,.754.211h.03c1.478.422,2.987.815,4.586,1.116.573.091,1.147.211,1.75.3.06,0,.151,0,.181.03.3.03.543.06.845.091.664.121,1.388.181,2.112.272.6.06,1.267.121,1.931.151.422.03.875.06,1.3.06,1.358.06,2.685.06,4.134.03.453-.03.935-.03,1.418-.06.634-.03,1.358-.091,2.022-.151l1.9,2.836c-1.177.332-2.353.724-3.409,1.116-1.086.392-2.052.815-3.017,1.207-1,.483-1.871.935-2.776,1.448,0,.03-.091.06-.091.06-.694.422-1.358.845-2.052,1.3-15.6,10.8-9.565,30.383,15.388,40.491.211.06.392.151.6.211.634.272,1.3.513,1.991.754.935.332,1.931.634,2.9.905.935.3,1.931.543,2.9.815a2.88,2.88,0,0,1-.634-.091c1,.3,1.991.543,2.987.815a116.95,116.95,0,0,0,27.366,2.927A207.881,207.881,0,0,0,155.755,119.3a56.957,56.957,0,0,0,7.151-4.435A47.925,47.925,0,0,0,173.073,105c.453-.543.875-1.116,1.267-1.69.09-.121.151-.211.241-.332.332-.453.634-.905.905-1.328l1-1.629c.362-.634.694-1.267,1.026-1.9a32.01,32.01,0,0,0,1.75-3.892l.724-2.082c.272-.935.543-1.871.784-2.806.151-.634.3-1.3.422-1.931.151-.845.3-1.72.422-2.595.121-.784.181-1.569.241-2.353a25.32,25.32,0,0,0-1.78-2.776ZM48.342,53.44c-5.461-7.271.754-13.487,10.832-17.047a54.084,54.084,0,0,1,6-1.72,62.4,62.4,0,0,1,15.78-1.448h.03c10.077.392,19.37,3.5,23.051,10.319,8.358,11.164-9.444,20.034-27.7,20.276A50.653,50.653,0,0,1,64.394,62.7a39.971,39.971,0,0,1-3.953-1.116.149.149,0,0,1-.091-.03A24.348,24.348,0,0,1,48.342,53.44Zm56.874,56.512a52.06,52.06,0,0,1-17.53-2.293,1.807,1.807,0,0,1-.6-.241c-5.491-1.9-9.806-5.039-11.858-9.534a.944.944,0,0,1-.151-.3,14.619,14.619,0,0,1-.966-1.75C70.157,87.172,81.562,80.172,95.8,77.517c1.237-.241,2.5-.422,3.8-.573a.383.383,0,0,1,.181-.03,60.524,60.524,0,0,1,7.422-.543c1.358-.03,2.715-.03,4.043.06a2.558,2.558,0,0,1,.483,0,48.725,48.725,0,0,1,5.1.543c.845.121,1.75.272,2.565.453a35.025,35.025,0,0,1,4.315,1.177c.694.241,1.358.483,2.022.724,4.405,1.78,7.935,4.465,9.927,8.116a.261.261,0,0,1,.09.181.631.631,0,0,1,.121.181,9.348,9.348,0,0,1,.543.784,9.784,9.784,0,0,1,1.026,1.9,7.7,7.7,0,0,1,.754,3.138c0,.272,0,.573-.03.875a9.324,9.324,0,0,1-2.715,5.793,10.367,10.367,0,0,1-.815.815c-5.7,5.371-17.53,8.81-29.418,8.84Z" transform="translate(0.003 26.763)" fill="#ffcae9" opacity="0.08"/>
      <path id="路径_12126" data-name="路径 12126" d="M127.323,63.447c-.513-.332-1.026-.664-1.569-.965a17.145,17.145,0,0,0-1.659-.845c-.453-.211-.905-.422-1.388-.6a4.691,4.691,0,0,0-.694-.241c-.483-.181-.966-.332-1.478-.483v3.228h.392c.694,0,1.418.03,2.112.091.543.03,1.086.091,1.6.151.241.03.453.06.664.091.06,0,.121.03.181.03a14.677,14.677,0,0,1,1.659.332,19.554,19.554,0,0,1,1.9.513,18.323,18.323,0,0,0-1.72-1.3ZM31.708,26.094a37.222,37.222,0,0,0-2.2,7.845,3.156,3.156,0,0,1,.121-.513c.091-.392.181-.815.272-1.207.121-.664.3-1.328.483-1.961C33.307,20.09,40.428,12.034,49.721,6c-7.845,4.707-14.392,11.194-18.013,20.094Zm5.672,38.137a.03.03,0,0,0,.03.03h0Zm73.167,31.5c.422-5.25-.875-9.293-3.289-12.22-.362-.422-.724-.815-1.116-1.207a13.759,13.759,0,0,0-2.565-2.022,10.862,10.862,0,0,0-1.659-.875,15.24,15.24,0,0,0-3.44-1.3,1.36,1.36,0,0,0-.332-.091l.06.03a13.613,13.613,0,0,1,1.81,2.142c.151.211.3.422.422.634h.03c.121.241.272.453.392.664A2.675,2.675,0,0,1,101.1,82l.09.181a.944.944,0,0,0,.151.3c.06.181.151.362.211.543a4.03,4.03,0,0,1,.211.543c.03.03.06.03,0,.06a18.524,18.524,0,0,1,.875,6.427v1.388c.03.362.03.724.03,1.086,0,.091-.03.211-.03.3v.151c0,.332,0,.634-.03.965-.03.453-.06.905-.121,1.358-1.9,14.12-17.982,22.237-31.168,21.482h-.181a23.37,23.37,0,0,1-3.892-.754c-3.168-2.987-5.22-7.362-5.491-13.306-.03-.332-.03-.664-.03-1-.664,6.125.965,10.681,4.013,13.819a1.354,1.354,0,0,0,.332.392,19.514,19.514,0,0,0,11.616,5.009c11.8,1.871,26.612-4.616,31.319-16.263.151-.362.3-.754.422-1.116a17.435,17.435,0,0,0,.966-4.164,18.864,18.864,0,0,0,.181-2.625c0-.332,0-.694-.03-1.056ZM61.91,98.96c1.6-11.737,13.095-19.431,24.5-21.3C74.824,79.438,63.178,87.223,61.91,98.96Zm46.767-64.568c.6-9.293-4.646-14.422-11.767-16.112h-.03c.3.3.6.6.875.935a9.618,9.618,0,0,1,.905,1.267,7.862,7.862,0,0,1,.513.845h0c.151.3.3.6.453.935l.181.543a1.918,1.918,0,0,1,.181.543,9.144,9.144,0,0,1,.362,1.3c.09.332.151.694.211,1.026a10.467,10.467,0,0,1,.181,1.358,17.147,17.147,0,0,1,.09,1.78v2.052a1.857,1.857,0,0,1-.06.573c0,.422-.03.845-.03,1.267-.03.422-.06.815-.121,1.237a15.456,15.456,0,0,1-.422,2.052c-.09.392-.211.754-.332,1.116a2.08,2.08,0,0,0-.121.3A11.034,11.034,0,0,1,99.2,38.8c-.121.272-.241.513-.362.754a6.67,6.67,0,0,1-.543,1.026c-.241.422-.483.845-.754,1.237a20.609,20.609,0,0,1-2.715,3.349c-.453.453-.905.875-1.388,1.3-.543.483-1.116.935-1.69,1.358a29.5,29.5,0,0,1-5.19,3.017h0a13.808,13.808,0,0,1-1.388.6c-.483.181-.966.362-1.448.513A28.236,28.236,0,0,1,79.078,53.1c-.3.06-.6.091-.875.121-.211.03-.422.06-.6.091a24.693,24.693,0,0,1-9.233-.573v.06c11.888,11.677,41.215,1.78,40.28-18.4ZM51.712,69.421a12.866,12.866,0,0,1-1.539-.06c-.362-.03-.724-.06-1.056-.091a22.825,22.825,0,0,1-2.987-.513c-.3-.06-.6-.151-.905-.241-.453-.121-.905-.272-1.328-.422v.965c-.815.241-1.6.513-2.384.815-.694.241-1.358.513-2.022.815A35.248,35.248,0,0,0,20,91.477c-.06.181-.151.392-.211.6a40.537,40.537,0,0,0-1.81,18.556c1.659,13,8.9,21.694,19.1,26.762.03.03.06.06.091.06a1.614,1.614,0,0,0,.422.181c-.573-.422-1.147-.905-1.72-1.388a19.66,19.66,0,0,1-1.659-1.539,13.525,13.525,0,0,1-1.086-1.207c-.121-.121-.211-.241-.332-.362-13.246-16.051-8.237-42.241,8.267-54.49.694-.483,1.388-.966,2.082-1.418.03-.03.091-.06.121-.091.875-.543,1.75-1.056,2.685-1.539.905-.422,1.81-.845,2.776-1.237s1.991-.754,3.017-1.056V69.421Z" transform="translate(35.556 11.717)" fill="#ff006e" stroke="#000" stroke-linejoin="bevel" stroke-width="0.25"/>
      <path id="路径_12127" data-name="路径 12127" d="M34.175,31.8,26.33,27.545V26.58c.422.151.875.3,1.328.422.3.091.6.181.905.241a22.824,22.824,0,0,0,2.987.513c.332.03.694.06,1.056.091.483.03,1.026.06,1.539.06V31.8Z" transform="translate(53.123 53.231)" fill="#ff006e" stroke="#000" stroke-linejoin="bevel" stroke-width="0.25"/>
      <path id="路径_12128" data-name="路径 12128" d="M24.2,25.3Z" transform="translate(48.766 50.649)" fill="#ffcae9" stroke="#000" stroke-linejoin="bevel" stroke-width="0.25"/>
      <path id="路径_12129" data-name="路径 12129" d="M27.146,27.4A18,18,0,0,1,24.34,25.44,18.635,18.635,0,0,0,27.146,27.4Z" transform="translate(49.109 50.931)" fill="#ffcae9" stroke="#000" stroke-linejoin="bevel" stroke-width="0.25"/>
      <path id="路径_12130" data-name="路径 12130" d="M121.743,8.009A10.226,10.226,0,0,0,120.2,7.5c0-.06-.03-.03-.03-.03a48.447,48.447,0,0,0-9.2-1.991h-.091c-.151,0-.3-.06-.453-.06-.211-.03-.422-.06-.664-.091C99.446,3.6,87.136,4.057,75.158,6.712A83.991,83.991,0,0,0,47.611,17.785c-.03.03-.06.03-.091.06C39.676,22.552,33.128,29.039,29.508,37.94a37.221,37.221,0,0,0-2.2,7.845c-.151.664-.241,1.3-.332,1.961-.06.392-.121.784-.151,1.207-.03.392-.091.815-.091,1.207a.272.272,0,0,0-.03.151c-.03.362-.06.754-.06,1.116-.03.634-.06,1.3-.06,1.931q0,1.358.091,2.715c0,.3.03.6.06.905.06.784.151,1.569.272,2.323.091.634.211,1.267.332,1.9a33.936,33.936,0,0,0,1.237,4.646,27.555,27.555,0,0,0,2.806,5.763c.332.483.664.966,1.026,1.448s.724.905,1.116,1.358v.03c.272.3.543.573.815.845s.543.513.815.784C24.861,73.15,19.792,63.4,18.857,52.814v-.06a42.379,42.379,0,0,1,2.776-19.038c4.375-10.771,13-17.982,23.082-22.78.362-.181.664-.332,1-.483C61.037,2.94,87.619-3.094,107.593,2.035a1.621,1.621,0,0,1,.634.151,35.157,35.157,0,0,1,13.487,5.823Z" transform="translate(37.756 -0.128)" fill="#ff006e" stroke="#000" stroke-linejoin="bevel" stroke-width="0.25"/>
      <path id="路径_12131" data-name="路径 12131" d="M60.58,40.23a32.009,32.009,0,0,1-1.75,3.892C59.464,42.855,60.037,41.558,60.58,40.23Z" transform="translate(118.682 80.766)" fill="none" stroke="#000" stroke-linejoin="bevel" stroke-width="0.25"/>
      <path id="路径_12132" data-name="路径 12132" d="M60.238,28.435a19.553,19.553,0,0,0-1.9-.513c-.543-.121-1.086-.241-1.659-.332-.06,0-.121-.03-.181-.03-.211-.03-.422-.06-.664-.091-.513-.06-1.056-.121-1.6-.151-.694-.06-1.418-.091-2.112-.091H51.73V24c.513.151,1,.3,1.478.483a4.69,4.69,0,0,1,.694.241c.483.181.935.392,1.388.6a17.146,17.146,0,0,1,1.659.845c.543.3,1.056.634,1.569.965a18.318,18.318,0,0,1,1.72,1.3Z" transform="translate(104.36 48.027)" fill="#ffcae9" stroke="#000" stroke-linejoin="bevel" stroke-width="0.25"/>
      <path id="路径_12133" data-name="路径 12133" d="M44.642,29.961a.616.616,0,0,1-.272-.06l-.06-.03A1.373,1.373,0,0,1,44.642,29.961Z" transform="translate(89.392 59.868)" fill="none" stroke="#000" stroke-linejoin="bevel" stroke-width="0.25"/>
      <path id="路径_12134" data-name="路径 12134" d="M56.469,47.5l-7.784-4.224-.121-.06V41.828a18.524,18.524,0,0,0-.875-6.427c.06-.03.03-.03,0-.06a4.03,4.03,0,0,0-.211-.543c-.06-.181-.151-.362-.211-.543a.944.944,0,0,1-.151-.3c0-.06-.06-.121-.091-.181a2.674,2.674,0,0,0-.241-.513A11.389,11.389,0,0,0,44.43,29.91a17.156,17.156,0,0,1,3.409,1.267,10.861,10.861,0,0,1,1.659.875,16.816,16.816,0,0,1,2.565,2.022c.392.392.754.784,1.116,1.207,2.414,2.927,3.711,6.97,3.289,12.22Z" transform="translate(89.635 59.948)" fill="none" stroke="#000" stroke-linejoin="bevel" stroke-width="0.25"/>
      <path id="路径_12135" data-name="路径 12135" d="M78.184,39.66A18.863,18.863,0,0,1,78,42.285a17.435,17.435,0,0,1-.966,4.164c-.121.362-.272.754-.422,1.116C71.848,59,57.093,65.156,45.3,63.828A19.514,19.514,0,0,1,33.68,58.82c.483.151.965.272,1.478.392a35.369,35.369,0,0,0,3.59.453h.181C52.115,60.419,68.2,52.3,70.1,38.182c.06-.453.091-.905.121-1.358.03-.332.03-.634.03-.965v-.151s.03-.211.03-.3c0-.362,0-.724-.03-1.086l.121.06L78.154,38.6c.03.362.03.724.03,1.056Z" transform="translate(67.95 68.844)" fill="none" stroke="#000" stroke-linejoin="bevel" stroke-width="0.25"/>
      <path id="路径_12136" data-name="路径 12136" d="M34.45,44.567a24.587,24.587,0,0,0,9.2.513c.181-.03.392-.06.6-.091a4.361,4.361,0,0,0,.875-.121,28.236,28.236,0,0,0,4.646-1.147c.483-.151.966-.332,1.448-.513.453-.211.935-.392,1.388-.6a29.5,29.5,0,0,0,5.19-3.017c.573-.422,1.147-.875,1.69-1.358.483-.422.935-.845,1.388-1.3A20.61,20.61,0,0,0,63.6,33.584c.272-.392.513-.815.754-1.237a6.673,6.673,0,0,0,.543-1.026c.121-.241.241-.483.362-.754a11.032,11.032,0,0,0,.543-1.388,2.081,2.081,0,0,1,.121-.3c.121-.362.241-.724.332-1.116a15.454,15.454,0,0,0,.422-2.052c.06-.422.091-.815.121-1.237a18.339,18.339,0,0,0,.09-1.84V20.58a11.538,11.538,0,0,0-.09-1.78,10.467,10.467,0,0,0-.181-1.358c-.06-.332-.121-.694-.211-1.026a9.141,9.141,0,0,0-.362-1.3,1.917,1.917,0,0,0-.181-.543l-.181-.543q-.226-.5-.453-.905H65.2a7.673,7.673,0,0,0-.483-.845,9.62,9.62,0,0,0-.905-1.267,12.434,12.434,0,0,0-.845-.935C70.083,11.77,75.333,16.9,74.73,26.192c.935,20.185-28.392,30.081-40.28,18.4Z" transform="translate(69.503 19.947)" fill="none" stroke="#000" stroke-linejoin="bevel" stroke-width="0.25"/>
      <path id="路径_12137" data-name="路径 12137" d="M141.363,98.086c-.03-.453-.06-.935-.121-1.388-.03-.362-.091-.754-.151-1.116-.151-1-.332-1.991-.573-2.957-.09-.453-.211-.875-.332-1.328-.121-.422-.241-.845-.392-1.267a4.787,4.787,0,0,0-.211-.6,13.053,13.053,0,0,0-.634-1.629.576.576,0,0,0-.091-.241c-.272-.6-.513-1.177-.815-1.72-.392-.754-.815-1.509-1.267-2.2-.241-.392-.513-.784-.784-1.147a17.068,17.068,0,0,0-1.629-2.022,16.887,16.887,0,0,0-1.237-1.3,6.915,6.915,0,0,0-.694-.634c-.181-.181-.392-.332-.573-.513-.06-.03-.091-.091-.151-.121a5.8,5.8,0,0,1-.513-.392c-.422-.332-.875-.634-1.328-.935a17.959,17.959,0,0,0-1.81-1.086c-.03,0-.06-.03-.091-.06-.3-.151-.6-.3-.905-.422-.3-.151-.634-.272-.966-.422s-.664-.272-1-.392-.694-.241-1.056-.362c0,0,0-.03-.06-.03a19.551,19.551,0,0,0-1.9-.513c-.543-.121-1.086-.241-1.659-.332-.06,0-.121-.03-.181-.03-.211-.03-.422-.06-.664-.091-.513-.06-1.056-.121-1.6-.151-.694-.06-1.418-.091-2.112-.091h-.392V68.668a17.781,17.781,0,0,0,1.78-.634c.483-.181.935-.362,1.388-.573h.03a6.456,6.456,0,0,0,.664-.3c9.9-4.737,16.655-14.935,18.707-25.918a.226.226,0,0,0,.03-.151V41a33.693,33.693,0,0,0-4.556-24.53A29.037,29.037,0,0,0,118.885,5.217a10.227,10.227,0,0,0-1.539-.513c0-.06-.03-.03-.03-.03a48.446,48.446,0,0,0-9.2-1.991h-.09c-.151,0-.3-.06-.453-.06-.211-.03-.422-.06-.664-.091C96.588.812,84.278,1.264,72.3,3.919A83.991,83.991,0,0,0,44.752,14.992c-.03.03-.06.03-.091.06C35.489,21,28.459,28.9,25.442,38.889c-.03.151-.091.272-.121.422-.181.634-.362,1.3-.483,1.961-.091.392-.181.815-.272,1.207-.181.815-.332,1.629-.453,2.474-.06.392-.121.784-.151,1.207-.03.392-.091.815-.091,1.207a.272.272,0,0,0-.03.151c-.03.362-.06.754-.06,1.116-.03.634-.06,1.3-.06,1.931q0,1.358.091,2.715c0,.3.03.6.06.905.06.784.151,1.569.272,2.323.091.634.211,1.267.332,1.9l.091.362a28.873,28.873,0,0,0,1.147,4.284,27.555,27.555,0,0,0,2.806,5.763c.332.483.664.965,1.026,1.448s.724.905,1.116,1.358v.03c.272.3.543.573.815.845s.543.513.815.784h.03l.03.03a5.011,5.011,0,0,1,.422.392h.03a18.634,18.634,0,0,0,2.806,1.961c.362.211.724.422,1.116.6.03.03.091.03.121.06.181.091.362.151.543.241.453.211.935.392,1.418.573.422.151.875.3,1.328.422.3.091.6.181.905.241a22.822,22.822,0,0,0,2.987.513c.332.03.694.06,1.056.091.483.03,1.026.06,1.539.06v3.892c-1,.3-2.022.664-2.987,1.056s-1.871.815-2.776,1.237c-.935.483-1.81,1-2.685,1.539-.03,0-.091.06-.121.091-.694.453-1.388.935-2.082,1.418-.091.06-.181.151-.272.211-16.293,12.34-21.181,38.318-8,54.279.121.121.211.241.332.362a13.523,13.523,0,0,0,1.086,1.207,20.035,20.035,0,0,0,1.659,1.539c.543.483,1.147.935,1.72,1.388a1.612,1.612,0,0,1-.422-.181c.573.483,1.177.935,1.78,1.388a41.644,41.644,0,0,0,16.233,6.577c20.547,4.1,47.823-1.871,65.021-11.073a56.957,56.957,0,0,0,7.151-4.435,47.925,47.925,0,0,0,10.168-9.866c.453-.543.875-1.116,1.267-1.69.09-.121.151-.211.241-.332.332-.453.634-.905.905-1.328l1-1.629c.362-.634.694-1.267,1.026-1.9.634-1.267,1.207-2.565,1.75-3.892l.724-2.082c.272-.935.543-1.871.784-2.806.151-.634.3-1.3.422-1.931.151-.845.3-1.72.422-2.595.121-.784.181-1.569.241-2.353,0-.121.03-.211.03-.332,0-.151.03-.332.03-.483.06-.724.09-1.509.09-2.263a37.9,37.9,0,0,0,.06-4.134c-.03-.422-.03-.845-.091-1.267ZM72.631,130.008A19.514,19.514,0,0,1,61.015,125a1.354,1.354,0,0,1-.332-.392c-3.047-3.138-4.677-7.694-4.013-13.819a1.856,1.856,0,0,1,.03-.392,20.631,20.631,0,0,1,.151-2.384,19.561,19.561,0,0,1,2.142-6.97C63.1,93.228,72.239,88.1,81.351,86.711a31.14,31.14,0,0,1,8.84-.181,19.694,19.694,0,0,1,2.323.422,1.948,1.948,0,0,1,.573.121,1.36,1.36,0,0,1,.332.091,2.966,2.966,0,0,1,.483.151,14.643,14.643,0,0,1,2.957,1.147,10.861,10.861,0,0,1,1.659.875,13.759,13.759,0,0,1,2.565,2.022c.392.392.754.784,1.116,1.207,2.414,2.927,3.711,6.97,3.289,12.22.03.362.03.724.03,1.056a18.863,18.863,0,0,1-.181,2.625,17.434,17.434,0,0,1-.965,4.164c-.121.362-.272.754-.422,1.116a24.9,24.9,0,0,1-9.927,11.465,31.8,31.8,0,0,1-21.392,4.8ZM91.82,27.333h.03c7.121,1.69,12.371,6.819,11.767,16.112a18.945,18.945,0,0,1-2.082,9.655c-6.819,13.366-28.422,18.375-38.2,8.75v-.06c-2.776-2.746-4.586-6.668-4.828-11.948a18.47,18.47,0,0,1,3.651-11.948c6.427-8.72,19.823-12.914,29.689-10.56Z" transform="translate(40.615 2.664)" fill="#ffcae9" stroke="#000" stroke-linejoin="bevel" stroke-width="0.25"/>
      <path id="路径_12138" data-name="路径 12138" d="M77.4,48.637a18.863,18.863,0,0,1-.181,2.625,17.435,17.435,0,0,1-.966,4.164c-.121.362-.272.754-.422,1.116C71.121,68.188,56.307,74.675,44.51,72.8a19.271,19.271,0,0,1-10.138-4.616,2.844,2.844,0,0,1-.3-.3,23.37,23.37,0,0,0,3.892.754h.181c13.185.754,29.267-7.362,31.168-21.482.06-.453.091-.905.121-1.358.03-.332.03-.634.03-.965v-.151s.03-.211.03-.3c0-.362,0-.724-.03-1.086V41.909a18.524,18.524,0,0,0-.875-6.427c.06-.03.03-.03,0-.06a4.028,4.028,0,0,0-.211-.543c-.06-.181-.151-.362-.211-.543a.944.944,0,0,1-.151-.3c0-.06-.06-.121-.09-.181a2.675,2.675,0,0,0-.241-.513c-.121-.211-.272-.422-.392-.634h-.03a4.961,4.961,0,0,0-.422-.664,13.614,13.614,0,0,0-1.81-2.142l-.06-.03a1.373,1.373,0,0,1,.332.091,15.24,15.24,0,0,1,3.44,1.3,10.86,10.86,0,0,1,1.659.875,13.759,13.759,0,0,1,2.565,2.022c.392.392.754.784,1.116,1.207,2.414,2.927,3.711,6.97,3.289,12.22.03.362.03.724.03,1.056Z" transform="translate(68.736 59.868)" fill="#ff006e" stroke="#000" stroke-linejoin="bevel" stroke-width="0.25"/>
      <path id="路径_12139" data-name="路径 12139" d="M66.588,35.6C65.019,49.992,48.7,58.41,35.42,57.082,48.605,57.837,64.687,49.72,66.588,35.6Z" transform="translate(71.46 71.426)" fill="none" stroke="#000" stroke-linejoin="bevel" stroke-width="0.25"/>
      <path id="路径_12140" data-name="路径 12140" d="M37.86,52.031a8.785,8.785,0,0,1-1.509-.483c-3.047-3.138-4.677-7.694-4.013-13.819,0,.332,0,.664.03,1,.272,5.944,2.323,10.319,5.491,13.306Z" transform="translate(64.947 75.723)" fill="none" stroke="#000" stroke-linejoin="bevel" stroke-width="0.25"/>
      <path id="路径_12141" data-name="路径 12141" d="M56.8,29.75c-11.405,1.871-22.9,9.564-24.5,21.3,1.267-11.737,12.914-19.521,24.5-21.3Z" transform="translate(65.166 59.625)" fill="none" stroke="#000" stroke-linejoin="bevel" stroke-width="0.25"/>
      <path id="路径_12142" data-name="路径 12142" d="M46.506,39.6c-.03.332-.06.664-.091,1.026,0-.362,0-.724-.03-1.086V38.157a18.524,18.524,0,0,0-.875-6.427,18.015,18.015,0,0,1,1,7.875Z" transform="translate(91.813 63.62)" fill="none" stroke="#000" stroke-linejoin="bevel" stroke-width="0.25"/>
      <path id="路径_12143" data-name="路径 12143" d="M34.45,44.567v-.06a24.694,24.694,0,0,0,9.233.573c.181-.03.392-.06.6-.091a4.678,4.678,0,0,0,.875-.121,28.236,28.236,0,0,0,4.646-1.147c.483-.151.966-.332,1.448-.513.453-.211.935-.392,1.388-.6a29.5,29.5,0,0,0,5.19-3.017c.573-.422,1.147-.875,1.69-1.358.483-.422.935-.845,1.388-1.3a20.609,20.609,0,0,0,2.715-3.349c.272-.392.513-.815.754-1.237a6.669,6.669,0,0,0,.543-1.026c.121-.241.241-.483.362-.754a11.033,11.033,0,0,0,.543-1.388,2.078,2.078,0,0,1,.121-.3c.121-.362.241-.724.332-1.116a15.453,15.453,0,0,0,.422-2.052c.06-.422.091-.815.121-1.237,0-.422.03-.845.03-1.267.03-.181.03-.392.06-.573V20.58a11.535,11.535,0,0,0-.091-1.78,10.465,10.465,0,0,0-.181-1.358c-.06-.332-.121-.694-.211-1.026a9.143,9.143,0,0,0-.362-1.3,1.918,1.918,0,0,0-.181-.543l-.181-.543q-.226-.5-.453-.905h-.03a7.67,7.67,0,0,0-.483-.845,9.617,9.617,0,0,0-.905-1.267c-.272-.332-.573-.634-.875-.935h.03C70.113,11.77,75.363,16.9,74.76,26.192,75.7,46.377,46.368,56.273,34.48,44.6Z" transform="translate(69.503 19.947)" fill="#ff006e" stroke="#000" stroke-linejoin="bevel" stroke-width="0.25"/>
      <path id="路径_12144" data-name="路径 12144" d="M56,15.94C54.1,23.755,47.284,29.366,39.53,31.9,47.194,29.306,53.952,23.694,56,15.94Z" transform="translate(79.75 31.768)" fill="none" stroke="#000" stroke-linejoin="bevel" stroke-width="0.25"/>
      <path id="路径_12145" data-name="路径 12145" d="M46.693,20.515a4.521,4.521,0,0,0-.06.664v-.694A16.012,16.012,0,0,0,44.49,10.8a15.694,15.694,0,0,1,2.233,9.715Z" transform="translate(89.756 21.4)" fill="none" stroke="#000" stroke-linejoin="bevel" stroke-width="0.25"/>
    </g>
  </g>
</svg>
