<svg xmlns="http://www.w3.org/2000/svg" width="157.558" height="137.322" viewBox="0 0 157.558 137.322">
  <g id="图层_1" data-name="图层 1" transform="translate(0 0.152)">
    <g id="组_3631" data-name="组 3631" transform="translate(0 0)">
      <path id="路径_12125" data-name="路径 12125" d="M155.706,70.727a5.881,5.881,0,0,0-.626-.783,7.258,7.258,0,0,0-.7-.861c-.183-.235-.417-.47-.626-.7-.6-.6-1.2-1.2-1.878-1.774-.287-.287-.6-.548-.913-.809s-.626-.5-.991-.757a3.678,3.678,0,0,0-.47-.365,16.112,16.112,0,0,0-1.383-.939c-.078-.052-.157-.13-.209-.157-.574-.339-1.07-.678-1.644-.991-.757-.444-1.539-.861-2.322-1.252-.444-.235-.913-.444-1.357-.652-.835-.365-1.748-.757-2.687-1.1-.626-.235-1.278-.5-1.931-.678-.313-.13-.7-.235-1.044-.339-.261-.1-.574-.157-.861-.261-.078,0-.13-.052-.209-.052-.261-.078-.47-.13-.73-.209-.626-.157-1.252-.313-1.9-.444-.809-.183-1.618-.365-2.478-.5a1.131,1.131,0,0,0-.13-.026c-.391-.078-.809-.13-1.2-.183s-.809-.1-1.252-.157c-.444-.078-.861-.1-1.278-.157s-.887-.078-1.331-.13c-.052.026-.052,0-.1,0-.757-.078-1.565-.1-2.348-.13-.652-.026-1.3-.052-2.009-.052-.052.026-.13,0-.209,0-.235,0-.5.026-.783.026-.6,0-1.226.026-1.852.052-.652.052-1.3.078-1.931.13h-.5a.081.081,0,0,0-.052.026h-.391l-.261-.365-1.357-2.061c.6-.183,1.2-.391,1.748-.6.47-.157.887-.313,1.3-.5h.052c.183-.078.417-.157.626-.261,9.157-3.966,12.549-11.036,10.305-18.132,0-.026-.026-.052-.052-.1v-.052a20.255,20.255,0,0,0-4.826-7.566,33.836,33.836,0,0,0-6.183-4.957H116.7a43.77,43.77,0,0,0-4.279-2.374,62.9,62.9,0,0,0-21.158-5.583,16.488,16.488,0,0,0-1.931-.157c-.026-.052-.052,0-.052,0-.157,0-.287-.026-.444-.026a105.111,105.111,0,0,0-10.723-.287h-.652c-.235,0-.5.026-.783.026a168.471,168.471,0,0,0-19.567,1.122.091.091,0,0,1-.052.026q-3.913.43-7.827,1.1c-3.7.574-7.383,1.278-10.931,2.113C28.078,20.219,18.764,23.506,11.9,27.6c-.026.026-.052.026-.078.052C3.867,32.35-.8,38.116.11,44.768a8.4,8.4,0,0,0,.287,1.3c.052.235.13.522.183.783A14.12,14.12,0,0,0,1.1,48.447a6.2,6.2,0,0,0,.339.757c.13.261.235.522.391.783a.2.2,0,0,0,.026.1c.13.209.235.47.391.7.235.391.47.809.73,1.2.391.574.783,1.148,1.226,1.7.13.183.287.391.444.574.391.47.835.965,1.278,1.409q.548.587,1.174,1.174a32.221,32.221,0,0,0,3.313,2.792,42,42,0,0,0,5.531,3.339c.574.261,1.148.522,1.774.783.6.287,1.174.5,1.8.757h.052c.444.157.861.313,1.278.444.417.157.809.287,1.226.417h.052l.026.026a6.09,6.09,0,0,1,.652.183h.026c1.278.365,2.583.7,3.966.965.5.078.991.183,1.513.261.052,0,.13,0,.157.026.261.026.47.052.73.078.574.1,1.2.157,1.826.235.522.052,1.1.1,1.67.13.365.026.757.052,1.122.052,1.174.052,2.322.052,3.574.026.391-.026.809-.026,1.226-.052.548-.026,1.174-.078,1.748-.13l1.644,2.452c-1.017.287-2.035.626-2.948.965-.939.339-1.774.7-2.609,1.044-.861.417-1.618.809-2.4,1.252,0,.026-.078.052-.078.052-.6.365-1.174.73-1.774,1.122-13.488,9.34-8.27,26.272,13.306,35.011.183.052.339.13.522.183.548.235,1.122.443,1.722.652.809.287,1.67.548,2.5.783.809.261,1.67.47,2.5.7a2.489,2.489,0,0,1-.548-.078c.861.261,1.722.47,2.583.7a101.126,101.126,0,0,0,23.663,2.531,179.753,179.753,0,0,0,56.222-9.575,49.248,49.248,0,0,0,6.183-3.835,41.441,41.441,0,0,0,8.792-8.531c.391-.47.757-.965,1.1-1.461.078-.1.13-.183.209-.287.287-.391.548-.783.783-1.148l.861-1.409c.313-.548.6-1.1.887-1.644A27.678,27.678,0,0,0,155,83.3l.626-1.8c.235-.809.47-1.618.678-2.426.13-.548.261-1.122.365-1.67.13-.73.261-1.487.365-2.244.1-.678.157-1.357.209-2.035a21.9,21.9,0,0,0-1.539-2.4ZM41.8,48.029c-4.722-6.287.652-11.662,9.366-14.74A46.768,46.768,0,0,1,56.358,31.8,53.954,53.954,0,0,1,70,30.55h.026c8.714.339,16.749,3.026,19.932,8.922C97.188,49.125,81.8,56.8,66.011,57a43.8,43.8,0,0,1-10.331-.965,34.564,34.564,0,0,1-3.418-.965.129.129,0,0,1-.078-.026A21.053,21.053,0,0,1,41.8,48.029ZM90.979,96.894a45.016,45.016,0,0,1-15.158-1.983A1.562,1.562,0,0,1,75.3,94.7c-4.748-1.644-8.479-4.357-10.253-8.244a.816.816,0,0,1-.13-.261,12.643,12.643,0,0,1-.835-1.513c-3.418-7.488,6.444-13.54,18.758-15.836,1.07-.209,2.165-.365,3.287-.5a.331.331,0,0,1,.157-.026,52.335,52.335,0,0,1,6.418-.47c1.174-.026,2.348-.026,3.5.052a2.212,2.212,0,0,1,.417,0,42.129,42.129,0,0,1,4.409.47c.73.1,1.513.235,2.218.391a30.285,30.285,0,0,1,3.731,1.017c.6.209,1.174.417,1.748.626,3.809,1.539,6.861,3.861,8.583,7.018a.225.225,0,0,1,.078.157.546.546,0,0,1,.1.157,8.077,8.077,0,0,1,.47.678,8.459,8.459,0,0,1,.887,1.644,6.657,6.657,0,0,1,.652,2.713c0,.235,0,.5-.026.757a8.062,8.062,0,0,1-2.348,5.009,8.962,8.962,0,0,1-.7.7c-4.931,4.644-15.158,7.618-25.437,7.644Z" transform="translate(0.003 21.32)" opacity="0.08"/>
      <path id="路径_12126" data-name="路径 12126" d="M112.479,55.673c-.444-.287-.887-.574-1.357-.835a14.825,14.825,0,0,0-1.435-.73c-.391-.183-.783-.365-1.2-.522a4.057,4.057,0,0,0-.6-.209c-.417-.157-.835-.287-1.278-.417v2.792h.339c.6,0,1.226.026,1.826.078.47.026.939.078,1.383.13.209.026.391.052.574.078.052,0,.1.026.157.026a12.691,12.691,0,0,1,1.435.287,16.908,16.908,0,0,1,1.644.444,15.842,15.842,0,0,0-1.487-1.122ZM29.8,23.375a32.184,32.184,0,0,0-1.9,6.783,2.729,2.729,0,0,1,.1-.444c.078-.339.157-.7.235-1.044.1-.574.261-1.148.417-1.7C31.185,18.184,37.342,11.218,45.377,6,38.594,10.07,32.933,15.679,29.8,23.375Zm4.9,32.976a.026.026,0,0,0,.026.026h0ZM97.973,83.588c.365-4.539-.757-8.035-2.844-10.566-.313-.365-.626-.7-.965-1.044a11.9,11.9,0,0,0-2.218-1.748,9.392,9.392,0,0,0-1.435-.757,13.178,13.178,0,0,0-2.974-1.122,1.175,1.175,0,0,0-.287-.078l.052.026a11.771,11.771,0,0,1,1.565,1.852c.13.183.261.365.365.548h.026c.1.209.235.391.339.574a2.313,2.313,0,0,1,.209.444l.078.157a.816.816,0,0,0,.13.261c.052.157.13.313.183.47a3.486,3.486,0,0,1,.183.47c.026.026.052.026,0,.052a16.017,16.017,0,0,1,.757,5.557v1.2c.026.313.026.626.026.939,0,.078-.026.183-.026.261v.13c0,.287,0,.548-.026.835-.026.391-.052.783-.1,1.174-1.644,12.21-15.549,19.228-26.95,18.575H63.9a20.208,20.208,0,0,1-3.366-.652c-2.739-2.583-4.513-6.366-4.748-11.505-.026-.287-.026-.574-.026-.861-.574,5.3.835,9.235,3.47,11.949a1.171,1.171,0,0,0,.287.339A16.874,16.874,0,0,0,69.562,105.4c10.2,1.618,23.011-3.992,27.081-14.062.13-.313.261-.652.365-.965a15.075,15.075,0,0,0,.835-3.6A16.309,16.309,0,0,0,98,84.5C98,84.215,98,83.9,97.973,83.588ZM55.917,86.38C57.3,76.231,67.24,69.579,77.1,67.961,67.084,69.5,57.013,76.231,55.917,86.38ZM96.356,30.55c.522-8.035-4.018-12.471-10.175-13.931h-.026c.261.261.522.522.757.809a8.315,8.315,0,0,1,.783,1.1,6.8,6.8,0,0,1,.444.73h0c.13.261.261.522.391.809l.157.47a1.659,1.659,0,0,1,.157.47,7.9,7.9,0,0,1,.313,1.122c.078.287.13.6.183.887a9.053,9.053,0,0,1,.157,1.174,14.828,14.828,0,0,1,.078,1.539V27.5a1.605,1.605,0,0,1-.052.5c0,.365-.026.73-.026,1.1-.026.365-.052.7-.1,1.07a13.366,13.366,0,0,1-.365,1.774c-.078.339-.183.652-.287.965a1.8,1.8,0,0,0-.1.261,9.539,9.539,0,0,1-.47,1.2c-.1.235-.209.444-.313.652a5.768,5.768,0,0,1-.47.887c-.209.365-.417.73-.652,1.07a17.82,17.82,0,0,1-2.348,2.9c-.391.391-.783.757-1.2,1.122-.47.417-.965.809-1.461,1.174a25.507,25.507,0,0,1-4.487,2.609h0a11.936,11.936,0,0,1-1.2.522c-.417.157-.835.313-1.252.444a24.417,24.417,0,0,1-4.018.991c-.261.052-.522.078-.757.1-.183.026-.365.052-.522.078a21.352,21.352,0,0,1-7.983-.5v.052C71.78,56.56,97.138,48,96.33,30.55ZM47.1,60.839a11.126,11.126,0,0,1-1.331-.052c-.313-.026-.626-.052-.913-.078a19.735,19.735,0,0,1-2.583-.444c-.261-.052-.522-.13-.783-.209-.391-.1-.783-.235-1.148-.365v.835c-.7.209-1.383.444-2.061.7-.6.209-1.174.444-1.748.7A30.479,30.479,0,0,0,19.679,79.91c-.052.157-.13.339-.183.522a35.051,35.051,0,0,0-1.565,16.045c1.435,11.244,7.7,18.758,16.515,23.141.026.026.052.052.078.052a1.394,1.394,0,0,0,.365.157c-.5-.365-.991-.783-1.487-1.2a17,17,0,0,1-1.435-1.331,11.692,11.692,0,0,1-.939-1.044c-.1-.1-.183-.209-.287-.313-11.453-13.879-7.122-36.524,7.148-47.117.6-.417,1.2-.835,1.8-1.226.026-.026.078-.052.1-.078.757-.47,1.513-.913,2.322-1.331.783-.365,1.565-.731,2.4-1.07s1.722-.652,2.609-.913V60.839Z" transform="translate(28.36 9.32)" fill="#dcdc03" stroke="#000" stroke-linejoin="bevel" stroke-width="0.25"/>
      <path id="路径_12127" data-name="路径 12127" d="M33.113,31.093,26.33,27.415V26.58c.365.13.757.261,1.148.365.261.078.522.157.783.209a19.734,19.734,0,0,0,2.583.444c.287.026.6.052.913.078.417.026.887.052,1.331.052v3.365Z" transform="translate(42.372 42.431)" fill="#dcdc03" stroke="#000" stroke-linejoin="bevel" stroke-width="0.25"/>
      <path id="路径_12128" data-name="路径 12128" d="M24.2,25.3Z" transform="translate(38.897 40.371)" fill="#b3e5ff" stroke="#000" stroke-linejoin="bevel" stroke-width="0.25"/>
      <path id="路径_12129" data-name="路径 12129" d="M26.766,27.136a15.564,15.564,0,0,1-2.426-1.7A16.113,16.113,0,0,0,26.766,27.136Z" transform="translate(39.17 40.596)" fill="#b3e5ff" stroke="#000" stroke-linejoin="bevel" stroke-width="0.25"/>
      <path id="路径_12130" data-name="路径 12130" d="M107.8,6.943a8.843,8.843,0,0,0-1.331-.444c0-.052-.026-.026-.026-.026a41.892,41.892,0,0,0-7.957-1.722H98.41c-.13,0-.261-.052-.391-.052-.183-.026-.365-.052-.574-.078a80.891,80.891,0,0,0-29.924,1.2A72.626,72.626,0,0,0,43.7,15.4c-.026.026-.052.026-.078.052-6.783,4.07-12.445,9.679-15.575,17.375a32.184,32.184,0,0,0-1.9,6.783c-.13.574-.209,1.122-.287,1.7-.052.339-.1.678-.13,1.044-.026.339-.078.7-.078,1.044a.235.235,0,0,0-.026.13c-.026.313-.052.652-.052.965-.026.548-.052,1.122-.052,1.67q0,1.174.078,2.348c0,.261.026.522.052.783.052.678.13,1.357.235,2.009.078.548.183,1.1.287,1.644a29.344,29.344,0,0,0,1.07,4.018,23.826,23.826,0,0,0,2.426,4.983c.287.417.574.835.887,1.252s.626.783.965,1.174v.026c.235.261.47.5.7.73s.47.444.7.678c-8.9-2.531-13.279-10.957-14.088-20.115v-.052a36.643,36.643,0,0,1,2.4-16.462C25.02,19.857,32.482,13.621,41.2,9.473c.313-.157.574-.287.861-.417C55.31,2.56,78.295-2.658,95.566,1.777a1.4,1.4,0,0,1,.548.13,30.4,30.4,0,0,1,11.662,5.035Z" transform="translate(30.115 -0.128)" fill="#dcdc03" stroke="#000" stroke-linejoin="bevel" stroke-width="0.25"/>
      <path id="路径_12131" data-name="路径 12131" d="M60.343,40.23A27.677,27.677,0,0,1,58.83,43.6C59.378,42.5,59.874,41.378,60.343,40.23Z" transform="translate(94.662 64.392)" fill="none" stroke="#000" stroke-linejoin="bevel" stroke-width="0.25"/>
      <path id="路径_12132" data-name="路径 12132" d="M59.087,27.835a16.906,16.906,0,0,0-1.644-.444c-.47-.1-.939-.209-1.435-.287-.052,0-.1-.026-.157-.026-.183-.026-.365-.052-.574-.078-.444-.052-.913-.1-1.383-.13-.6-.052-1.226-.078-1.826-.078H51.73V24c.444.13.861.261,1.278.417a4.057,4.057,0,0,1,.6.209c.417.157.809.339,1.2.522a14.823,14.823,0,0,1,1.435.73c.47.261.913.548,1.357.835a15.841,15.841,0,0,1,1.487,1.122Z" transform="translate(83.239 38.28)" fill="#dcdc03" stroke="#000" stroke-linejoin="bevel" stroke-width="0.25"/>
      <path id="路径_12133" data-name="路径 12133" d="M44.6,29.948a.533.533,0,0,1-.235-.052l-.052-.026A1.187,1.187,0,0,1,44.6,29.948Z" transform="translate(71.3 47.724)" fill="none" stroke="#000" stroke-linejoin="bevel" stroke-width="0.25"/>
      <path id="路径_12134" data-name="路径 12134" d="M54.84,45.12l-6.731-3.652-.1-.052v-1.2a16.017,16.017,0,0,0-.757-5.557c.052-.026.026-.026,0-.052a3.484,3.484,0,0,0-.183-.47c-.052-.157-.13-.313-.183-.47a.816.816,0,0,1-.13-.261c0-.052-.052-.1-.078-.157a2.313,2.313,0,0,0-.209-.444,9.848,9.848,0,0,0-2.035-2.9,14.834,14.834,0,0,1,2.948,1.1,9.391,9.391,0,0,1,1.435.757,14.541,14.541,0,0,1,2.218,1.748c.339.339.652.678.965,1.044C54.083,37.084,55.2,40.58,54.84,45.12Z" transform="translate(71.494 47.788)" fill="none" stroke="#000" stroke-linejoin="bevel" stroke-width="0.25"/>
      <path id="路径_12135" data-name="路径 12135" d="M72.162,38.938a16.308,16.308,0,0,1-.157,2.27,15.076,15.076,0,0,1-.835,3.6c-.1.313-.235.652-.365.965-4.122,9.888-16.88,15.21-27.081,14.062A16.874,16.874,0,0,1,33.68,55.5c.417.13.835.235,1.278.339a30.586,30.586,0,0,0,3.1.391h.157c11.4.652,25.307-6.366,26.95-18.575.052-.391.078-.783.1-1.174.026-.287.026-.548.026-.835v-.13s.026-.183.026-.261c0-.313,0-.626-.026-.939l.1.052,6.731,3.652c.026.313.026.626.026.913Z" transform="translate(54.198 54.883)" fill="none" stroke="#000" stroke-linejoin="bevel" stroke-width="0.25"/>
      <path id="路径_12136" data-name="路径 12136" d="M34.45,39.9a21.26,21.26,0,0,0,7.957.444c.157-.026.339-.052.522-.078a3.771,3.771,0,0,0,.757-.1,24.416,24.416,0,0,0,4.018-.991c.417-.13.835-.287,1.252-.444.391-.183.809-.339,1.2-.522a25.507,25.507,0,0,0,4.487-2.609c.5-.365.991-.757,1.461-1.174.417-.365.809-.73,1.2-1.122a17.82,17.82,0,0,0,2.348-2.9c.235-.339.444-.7.652-1.07a5.767,5.767,0,0,0,.47-.887c.1-.209.209-.417.313-.652a9.542,9.542,0,0,0,.47-1.2,1.8,1.8,0,0,1,.1-.261c.1-.313.209-.626.287-.965a13.363,13.363,0,0,0,.365-1.774c.052-.365.078-.7.1-1.07a15.854,15.854,0,0,0,.078-1.591V19.159a9.974,9.974,0,0,0-.078-1.539,9.048,9.048,0,0,0-.157-1.174c-.052-.287-.1-.6-.183-.887a7.905,7.905,0,0,0-.313-1.122,1.658,1.658,0,0,0-.157-.47l-.157-.47q-.2-.43-.391-.783h-.026a6.636,6.636,0,0,0-.417-.73,8.317,8.317,0,0,0-.783-1.1,10.753,10.753,0,0,0-.73-.809c6.157,1.461,10.7,5.9,10.175,13.931.809,17.453-24.55,26.011-34.829,15.914Z" transform="translate(55.436 15.884)" fill="none" stroke="#000" stroke-linejoin="bevel" stroke-width="0.25"/>
      <path id="路径_12137" data-name="路径 12137" d="M124.958,85.017c-.026-.391-.052-.809-.1-1.2-.026-.313-.078-.652-.13-.965-.13-.861-.287-1.722-.5-2.557-.078-.391-.183-.757-.287-1.148-.1-.365-.209-.73-.339-1.1a4.144,4.144,0,0,0-.183-.522,11.287,11.287,0,0,0-.548-1.409.5.5,0,0,0-.078-.209c-.235-.522-.444-1.017-.7-1.487-.339-.652-.7-1.3-1.1-1.9-.209-.339-.443-.678-.678-.991a14.757,14.757,0,0,0-1.409-1.748,14.6,14.6,0,0,0-1.07-1.122,5.977,5.977,0,0,0-.6-.548c-.157-.157-.339-.287-.5-.444-.052-.026-.078-.078-.13-.1a5.015,5.015,0,0,1-.444-.339c-.365-.287-.757-.548-1.148-.809a15.531,15.531,0,0,0-1.565-.939c-.026,0-.052-.026-.078-.052-.261-.13-.522-.261-.783-.365-.261-.13-.548-.235-.835-.365s-.574-.235-.861-.339-.6-.209-.913-.313c0,0,0-.026-.052-.026a16.907,16.907,0,0,0-1.644-.444c-.47-.1-.939-.209-1.435-.287-.052,0-.1-.026-.157-.026-.183-.026-.365-.052-.574-.078-.444-.052-.913-.1-1.383-.13-.6-.052-1.226-.078-1.826-.078h-.339V59.58a15.375,15.375,0,0,0,1.539-.548c.417-.157.809-.313,1.2-.5h.026a5.584,5.584,0,0,0,.574-.261c8.557-4.1,14.4-12.914,16.175-22.41a.2.2,0,0,0,.026-.13v-.078a29.133,29.133,0,0,0-3.939-21.21,25.107,25.107,0,0,0-12.653-9.731,8.843,8.843,0,0,0-1.331-.444c0-.052-.026-.026-.026-.026a41.892,41.892,0,0,0-7.957-1.722H96.13c-.13,0-.261-.052-.391-.052-.183-.026-.365-.052-.574-.078a80.891,80.891,0,0,0-29.924,1.2A72.626,72.626,0,0,0,41.42,13.168c-.026.026-.052.026-.078.052-7.931,5.14-14.01,11.975-16.619,20.61-.026.13-.078.235-.1.365-.157.548-.313,1.122-.417,1.7-.078.339-.157.7-.235,1.044-.157.7-.287,1.409-.391,2.139-.052.339-.1.678-.13,1.044-.026.339-.078.7-.078,1.044a.235.235,0,0,0-.026.13c-.026.313-.052.652-.052.965-.026.548-.052,1.122-.052,1.67q0,1.174.078,2.348c0,.261.026.522.052.783.052.678.13,1.357.235,2.009.078.548.183,1.1.287,1.644l.078.313a24.966,24.966,0,0,0,.991,3.7,23.826,23.826,0,0,0,2.426,4.983c.287.417.574.835.887,1.252s.626.783.965,1.174v.026c.235.261.47.5.7.73s.47.444.7.678h.026l.026.026a4.332,4.332,0,0,1,.365.339h.026a16.113,16.113,0,0,0,2.426,1.7c.313.183.626.365.965.522.026.026.078.026.1.052.157.078.313.13.47.209.391.183.809.339,1.226.5.365.13.757.261,1.148.365.261.078.522.157.783.209a19.736,19.736,0,0,0,2.583.444c.287.026.6.052.913.078.417.026.887.052,1.331.052v3.365c-.861.261-1.748.574-2.583.913s-1.618.7-2.4,1.07c-.809.417-1.565.861-2.322,1.331-.026,0-.078.052-.1.078-.6.391-1.2.809-1.8,1.226-.078.052-.157.13-.235.183C19.505,86.9,15.279,109.358,26.68,123.159c.1.1.183.209.287.313a11.7,11.7,0,0,0,.939,1.044,17.323,17.323,0,0,0,1.435,1.331c.47.417.991.809,1.487,1.2a1.394,1.394,0,0,1-.365-.157c.5.417,1.017.809,1.539,1.2a36.009,36.009,0,0,0,14.036,5.687c17.767,3.548,41.351-1.618,56.222-9.575a49.248,49.248,0,0,0,6.183-3.835,41.44,41.44,0,0,0,8.792-8.531c.391-.47.757-.965,1.1-1.461.078-.1.13-.183.209-.287.287-.391.548-.783.783-1.148l.861-1.409c.313-.548.6-1.1.887-1.644.548-1.1,1.044-2.218,1.513-3.365l.626-1.8c.235-.809.47-1.618.678-2.426.13-.548.261-1.122.365-1.67.13-.73.261-1.487.365-2.244.1-.678.157-1.357.209-2.035,0-.1.026-.183.026-.287,0-.13.026-.287.026-.417.052-.626.078-1.3.078-1.957a32.771,32.771,0,0,0,.052-3.574c-.026-.365-.026-.73-.078-1.1Zm-59.431,27.6a16.874,16.874,0,0,1-10.044-4.331,1.171,1.171,0,0,1-.287-.339C52.56,105.236,51.152,101.3,51.726,96a1.6,1.6,0,0,1,.026-.339,17.839,17.839,0,0,1,.13-2.061,16.914,16.914,0,0,1,1.852-6.027c3.548-6.757,11.453-11.192,19.332-12.392a26.927,26.927,0,0,1,7.644-.157,17.028,17.028,0,0,1,2.009.365,1.684,1.684,0,0,1,.5.1,1.176,1.176,0,0,1,.287.078,2.563,2.563,0,0,1,.417.13,12.66,12.66,0,0,1,2.557.991,9.391,9.391,0,0,1,1.435.757A11.9,11.9,0,0,1,90.129,79.2c.339.339.652.678.965,1.044,2.087,2.531,3.209,6.027,2.844,10.566.026.313.026.626.026.913a16.31,16.31,0,0,1-.157,2.27,15.075,15.075,0,0,1-.835,3.6c-.1.313-.235.652-.365.965a21.527,21.527,0,0,1-8.583,9.914,27.5,27.5,0,0,1-18.5,4.148ZM82.12,23.839h.026c6.157,1.461,10.7,5.9,10.175,13.931a16.381,16.381,0,0,1-1.8,8.348c-5.9,11.557-24.576,15.888-33.029,7.566v-.052A14.952,14.952,0,0,1,53.317,43.3,15.971,15.971,0,0,1,56.474,32.97c5.557-7.54,17.141-11.166,25.672-9.131Z" transform="translate(32.395 2.099)" fill="#ffff5a" stroke="#000" stroke-linejoin="bevel" stroke-width="0.25"/>
      <path id="路径_12138" data-name="路径 12138" d="M71.534,46.1a16.311,16.311,0,0,1-.157,2.27,15.076,15.076,0,0,1-.835,3.6c-.1.313-.235.652-.365.965C66.108,63,53.3,68.612,43.1,66.995A16.664,16.664,0,0,1,34.331,63a2.458,2.458,0,0,1-.261-.261,20.209,20.209,0,0,0,3.366.652h.157c11.4.652,25.307-6.366,26.95-18.575.052-.391.078-.783.1-1.174.026-.287.026-.548.026-.835v-.13s.026-.183.026-.261c0-.313,0-.626-.026-.939v-1.2a16.017,16.017,0,0,0-.757-5.557c.052-.026.026-.026,0-.052a3.486,3.486,0,0,0-.183-.47c-.052-.157-.13-.313-.183-.47a.816.816,0,0,1-.13-.261c0-.052-.052-.1-.078-.157a2.312,2.312,0,0,0-.209-.444c-.1-.183-.235-.365-.339-.548h-.026a4.292,4.292,0,0,0-.365-.574A11.772,11.772,0,0,0,60.838,29.9l-.052-.026a1.186,1.186,0,0,1,.287.078,13.178,13.178,0,0,1,2.974,1.122,9.391,9.391,0,0,1,1.435.757A11.9,11.9,0,0,1,67.7,33.575c.339.339.652.678.965,1.044,2.087,2.531,3.209,6.027,2.844,10.566.026.313.026.626.026.913Z" transform="translate(54.825 47.724)" fill="#dcdc03" stroke="#000" stroke-linejoin="bevel" stroke-width="0.25"/>
      <path id="路径_12139" data-name="路径 12139" d="M62.37,35.6C61.014,48.044,46.9,55.323,35.42,54.175,46.821,54.828,60.727,47.81,62.37,35.6Z" transform="translate(56.997 56.943)" fill="none" stroke="#000" stroke-linejoin="bevel" stroke-width="0.25"/>
      <path id="路径_12140" data-name="路径 12140" d="M37.093,50.1a7.6,7.6,0,0,1-1.3-.417c-2.635-2.713-4.044-6.653-3.47-11.949,0,.287,0,.574.026.861.235,5.14,2.009,8.922,4.748,11.505Z" transform="translate(51.802 60.37)" fill="none" stroke="#000" stroke-linejoin="bevel" stroke-width="0.25"/>
      <path id="路径_12141" data-name="路径 12141" d="M53.484,29.75c-9.862,1.618-19.8,8.27-21.184,18.419C33.4,38.02,43.466,31.289,53.484,29.75Z" transform="translate(51.977 47.531)" fill="none" stroke="#000" stroke-linejoin="bevel" stroke-width="0.25"/>
      <path id="路径_12142" data-name="路径 12142" d="M46.371,38.539c-.026.287-.052.574-.078.887,0-.313,0-.626-.026-.939v-1.2a16.017,16.017,0,0,0-.757-5.557,15.577,15.577,0,0,1,.861,6.809Z" transform="translate(73.231 50.716)" fill="none" stroke="#000" stroke-linejoin="bevel" stroke-width="0.25"/>
      <path id="路径_12143" data-name="路径 12143" d="M34.45,39.9v-.052a21.352,21.352,0,0,0,7.983.5c.157-.026.339-.052.522-.078a4.045,4.045,0,0,0,.757-.1,24.416,24.416,0,0,0,4.018-.991c.417-.13.835-.287,1.252-.444.391-.183.809-.339,1.2-.522a25.507,25.507,0,0,0,4.487-2.609c.5-.365.991-.757,1.461-1.174.417-.365.809-.73,1.2-1.122a17.82,17.82,0,0,0,2.348-2.9c.235-.339.444-.7.652-1.07a5.767,5.767,0,0,0,.47-.887c.1-.209.209-.417.313-.652a9.539,9.539,0,0,0,.47-1.2,1.8,1.8,0,0,1,.1-.261c.1-.313.209-.626.287-.965a13.362,13.362,0,0,0,.365-1.774c.052-.365.078-.7.1-1.07,0-.365.026-.73.026-1.1.026-.157.026-.339.052-.5V19.159a9.974,9.974,0,0,0-.078-1.539,9.048,9.048,0,0,0-.157-1.174c-.052-.287-.1-.6-.183-.887a7.907,7.907,0,0,0-.313-1.122,1.658,1.658,0,0,0-.157-.47l-.157-.47q-.2-.43-.391-.783h-.026a6.635,6.635,0,0,0-.417-.73,8.317,8.317,0,0,0-.783-1.1c-.235-.287-.5-.548-.757-.809h.026c6.157,1.461,10.7,5.9,10.175,13.931.809,17.453-24.55,26.011-34.829,15.914Z" transform="translate(55.436 15.884)" fill="#dcdc03" stroke="#000" stroke-linejoin="bevel" stroke-width="0.25"/>
      <path id="路径_12144" data-name="路径 12144" d="M53.775,15.94c-1.644,6.757-7.54,11.61-14.245,13.8C46.157,27.5,52,22.645,53.775,15.94Z" transform="translate(63.61 25.312)" fill="none" stroke="#000" stroke-linejoin="bevel" stroke-width="0.25"/>
      <path id="路径_12145" data-name="路径 12145" d="M46.395,19.2a3.908,3.908,0,0,0-.052.574v-.6A13.845,13.845,0,0,0,44.49,10.8a13.57,13.57,0,0,1,1.931,8.4Z" transform="translate(71.59 17.042)" fill="none" stroke="#000" stroke-linejoin="bevel" stroke-width="0.25"/>
    </g>
  </g>
</svg>
