<svg xmlns="http://www.w3.org/2000/svg" width="198.904" height="157.016" viewBox="0 0 198.904 157.016">
  <g id="图层_1" data-name="图层 1" transform="translate(0 0.172)">
    <g id="组_3632" data-name="组 3632" transform="translate(0 0)">
      <path id="路径_12146" data-name="路径 12146" d="M164.826,47.325c-13.064-14.6-31.077-25.163-52.861-29.961h-.06c-.815-.181-1.6-.362-2.384-.543-.815-.151-1.6-.3-2.414-.453a2.406,2.406,0,0,1-.453-.091c-3.832-.664-7.784-1.147-11.827-1.448-17.56-1.358-37.021.664-57.96,6.789-1.207.3-2.384.664-3.621,1.056-25.767,8-40.7,29.478-29.448,45.71a23.764,23.764,0,0,0,4.556,5.793,34.036,34.036,0,0,0,8.418,5.914h.06c8.871,4.586,21.814,7.573,39.616,7.815h.091c19.4,1.056,38.258-2.655,52.5-8.6.694-.272,1.388-.543,2.052-.845.151-.091.362-.151.513-.241.362-.151.724-.332,1.116-.513a63.264,63.264,0,0,0,9.9-5.672,48.612,48.612,0,0,0,4.224-3.259c.422-.392.845-.754,1.207-1.116.694-.664,1.267-1.328,1.871-1.991,10.56,13.125,18.616,31.349-11.345,36.84-9.474,1.75-19.521,1.931-28.332-.453A36.252,36.252,0,0,1,79.228,97.2L73.857,99.16l-32.5,11.978c.483.392.965.784,1.478,1.177.483.362.966.694,1.448,1.026.181.121.362.241.513.332.483.332.935.664,1.478.966.091.06.151.091.241.151.06,0,.091.06.151.06.422.272.905.513,1.358.754,1.056.573,2.142,1.116,3.289,1.629.694.332,1.478.664,2.233.965.784.3,1.509.6,2.263.875h.06c.6.241,1.267.453,1.871.664a3.9,3.9,0,0,1,.634.211c.634.211,1.207.362,1.78.543.845.241,1.72.453,2.595.664.483.121.965.211,1.478.362.694.181,1.388.3,2.112.453,1.9.392,3.8.724,5.763,1h.06c17.2,2.384,37.021.815,54.249-2.565a3357.01,3357.01,0,0,1,.543-.091.327.327,0,0,0,.181-.03c12.793-2.5,24.047-6.034,31.771-9.534,7.3-3.379,12.642-7.211,16.353-11.375v-.06a27.054,27.054,0,0,0,3.621-4.978c5.431-9.564,3.651-20.457-2.534-31.258-.422-.724-.845-1.448-1.328-2.142-.513-.784-1-1.509-1.509-2.293-.453-.634-.875-1.267-1.328-1.9-.543-.754-1.086-1.478-1.659-2.172a86.563,86.563,0,0,0-5.763-7.151Zm-56.06-2.142a20.162,20.162,0,0,1,1.509,1.961,10.494,10.494,0,0,1,.845,1.629,6.662,6.662,0,0,1,.422,1.237,8.234,8.234,0,0,1,.3,2.052c.272,8.539-13.849,14.875-29.388,15.659-.513.03-.966.06-1.448.06a58.642,58.642,0,0,1-17.952-1.629,2.425,2.425,0,0,1-.724-.211c-6.517-1.84-11.888-5.1-14.754-10.108a1.467,1.467,0,0,1-.332-.422.712.712,0,0,1-.181-.272c-.151-.151-.211-.3-.332-.422-7.664-10.681,7.815-19.25,25.465-21.09a20.659,20.659,0,0,1,2.353-.211c.754-.03,1.509-.091,2.293-.121,1-.03,2.022-.06,2.987-.06h1.026a45.756,45.756,0,0,1,18.133,3.711h.06c.694.332,1.358.664,1.991,1.026a25.353,25.353,0,0,1,3.621,2.444,14.063,14.063,0,0,1,1.539,1.448,19.323,19.323,0,0,1,2.534,3.319Z" transform="translate(-0.002 28.709)" opacity="0.08"/>
      <path id="路径_12147" data-name="路径 12147" d="M60.417,43.725,31.934,54.919,24.18,50.634,57.339,37.6A20.113,20.113,0,0,0,60.417,43.725Z" transform="translate(48.77 75.455)" fill="#b3e5ff" stroke="#000" stroke-linejoin="bevel" stroke-width="0.25"/>
      <path id="路径_12148" data-name="路径 12148" d="M71.951,20.48C67.637,32.036,54.663,38.4,43.65,37.1,54.693,37.889,67.576,31.794,71.951,20.48Z" transform="translate(88.045 40.921)" fill="#b3e5ff" stroke="#000" stroke-linejoin="bevel" stroke-width="0.25"/>
      <path id="路径_12149" data-name="路径 12149" d="M61.585,18.657a16.751,16.751,0,0,0-10.349-7.724c-.241-.06-.483-.121-.694-.181-.694-.181-1.418-.3-2.142-.422.694.091,1.418.211,2.082.362h0c.241.06.453.121.664.181a16.308,16.308,0,0,1,10.409,7.784Z" transform="translate(97.627 20.447)" fill="#b3e5ff" stroke="#000" stroke-linejoin="bevel" stroke-width="0.25"/>
      <path id="路径_12150" data-name="路径 12150" d="M85.644,27.49C85.915,46.8,81.812,72.6,58.489,75.433c-7.392.905-14.332-.392-19.1-4.918a29.09,29.09,0,0,0,11.284.634c18.737-2.263,25.043-19.4,26.642-36.086h0v-.091c1.6-1.177,3.138-2.444,4.586-3.741.483-.453.965-.875,1.418-1.328C84.135,29.119,84.889,28.3,85.644,27.49Z" transform="translate(79.452 55.062)" fill="#ff006e" stroke="#000" stroke-linejoin="bevel" stroke-width="0.25"/>
      <path id="路径_12151" data-name="路径 12151" d="M60.008,5.686c-.453-.362-.905-.694-1.358-1.056.362.241.724.483,1.086.754A2.45,2.45,0,0,0,60.008,5.686Z" transform="translate(118.303 8.949)" fill="#b3e5ff" stroke="#000" stroke-linejoin="bevel" stroke-width="0.25"/>
      <path id="路径_12152" data-name="路径 12152" d="M46.718,66.751a28.964,28.964,0,0,1-3.228-1.086A29.623,29.623,0,0,1,25.146,45.782c-.211-.664-.392-1.358-.573-2.082-.151-.573-.272-1.177-.392-1.78L31.934,46.2c.121.6.241,1.207.392,1.81.151.543.3,1.086.453,1.6.06.181.121.362.181.513a12.674,12.674,0,0,0,.513,1.509c.03.091.06.151.091.241.03.03.03.091.06.121.151.422.332.845.513,1.237a28.707,28.707,0,0,0,1.388,2.715,14.862,14.862,0,0,0,1.026,1.629c.362.543.724,1.026,1.086,1.509h.03c.3.422.634.815.935,1.177a3.615,3.615,0,0,1,.332.362c.332.362.634.664.935,1,.453.453.935.875,1.418,1.3.272.241.543.453.815.694.392.332.784.634,1.207.935a25.286,25.286,0,0,0,3.409,2.2Z" transform="translate(48.77 84.17)" fill="#ff006e" stroke="#000" stroke-linejoin="bevel" stroke-width="0.25"/>
      <path id="路径_12153" data-name="路径 12153" d="M64.521,42.921a40.965,40.965,0,0,1-5.4,5.974,58.082,58.082,0,0,0,5.1-6.155Z" transform="translate(119.251 85.824)" fill="none" stroke="#000" stroke-linejoin="bevel" stroke-width="0.25"/>
      <path id="路径_12154" data-name="路径 12154" d="M65.123,41.884l-4.707,1.84L31.934,54.919,24.18,50.634,57.339,37.6Z" transform="translate(48.77 75.455)" fill="#ff006e" stroke="#000" stroke-linejoin="bevel" stroke-width="0.25"/>
      <path id="路径_12155" data-name="路径 12155" d="M63.042,28.73a44.736,44.736,0,0,1-4.556,3.8h0A58.321,58.321,0,0,1,48.74,38.6a65.541,65.541,0,0,0,9.746-6.125c1.6-1.177,3.138-2.444,4.586-3.741Z" transform="translate(98.313 57.563)" fill="none" stroke="#000" stroke-linejoin="bevel" stroke-width="0.25"/>
      <path id="路径_12156" data-name="路径 12156" d="M75.564,28.65c-1.328,15.207-5.521,30.2-14.452,42.693l-.3-.181C69.56,59.093,74.086,44.128,75.564,28.65Z" transform="translate(122.66 57.401)" fill="none" stroke="#000" stroke-linejoin="bevel" stroke-width="0.25"/>
      <path id="路径_12157" data-name="路径 12157" d="M130.331,14.462c-.362-.272-.724-.513-1.086-.754-.483-.332-.935-.664-1.418-.966l-.272-.181a40.707,40.707,0,0,0-7.3-3.771C109,4.264,94.638,4.053,77.138,9.092c-1,.241-1.991.543-3.017.875-21.784,6.849-43.3,33.521-44.172,57.115a36.4,36.4,0,0,0,.06,8.508,28.275,28.275,0,0,0,2.625,9.233c-7.935-8.9-11.5-22.3-7.03-40.129A49.548,49.548,0,0,1,39.453,21.372a53.192,53.192,0,0,1,4.918-4.405c.6-.483,1.207-.935,1.81-1.388a3.205,3.205,0,0,0,.332-.272C66.185.795,94.97-4.365,116.15,4.476a38.95,38.95,0,0,1,14.181,9.987Z" transform="translate(47.708 -0.13)" fill="#ff006e" stroke="#000" stroke-linejoin="bevel" stroke-width="0.25"/>
      <path id="路径_12158" data-name="路径 12158" d="M80.313,54.172c-1.207-21.694-7.935-38.65-20.276-48.456h-.03c-.453-.392-.905-.724-1.358-1.086.362.241.724.483,1.086.754C72.529,14.919,79.227,31.905,80.313,54.172Z" transform="translate(118.303 8.949)" fill="none" stroke="#000" stroke-linejoin="bevel" stroke-width="0.25"/>
      <path id="路径_12159" data-name="路径 12159" d="M51.236,10.933c-.241-.06-.483-.121-.694-.181-.694-.181-1.418-.3-2.142-.422.694.091,1.418.211,2.082.362h0c.241.06.453.121.664.181.03,0,.03.03.06.06Z" transform="translate(97.627 20.447)" fill="none" stroke="#000" stroke-linejoin="bevel" stroke-width="0.25"/>
      <path id="路径_12161" data-name="路径 12161" d="M77.518,27.275c0,.332-.03.664-.06,1,0,.332,0,.634-.03.965,0,.332,0,.664-.03.965-.754,15.87-16.353,24.741-29.418,23.293a20.145,20.145,0,0,1-3.8-.724,8.783,8.783,0,0,1-1.509-.483c-3.47-3.47-5.431-8.69-4.737-15.87V34.788c.392-15.569,15.478-24.741,28.482-24.53a10.8,10.8,0,0,1,1.72.06c.543.06,1.086.091,1.629.181.724.121,1.448.241,2.142.422.211.06.453.121.694.181a16.426,16.426,0,0,1,4.556,9.534,9.38,9.38,0,0,1,.181,1.328,23.573,23.573,0,0,1,.151,5.31Z" transform="translate(76.232 20.277)" fill="none" stroke="#000" stroke-linejoin="bevel" stroke-width="0.25"/>
      <path id="路径_12162" data-name="路径 12162" d="M82.013,30.836c.06.966,0,1.931,0,2.866-.06.784-.151,1.569-.272,2.323a15.788,15.788,0,0,1-.362,1.72,21.648,21.648,0,0,1-.875,2.806C76.129,51.866,63.246,57.96,52.2,57.176c-.362-.03-.694-.06-1.026-.121A19.23,19.23,0,0,1,39.8,52.107a1.6,1.6,0,0,1-.392-.392,8.783,8.783,0,0,0,1.509.483,20.144,20.144,0,0,0,3.8.724C57.785,54.37,73.384,45.5,74.138,29.629c.03-.3.03-.634.03-.965.03-.332.03-.634.03-.965.03-.332.06-.664.06-1a23.574,23.574,0,0,0-.151-5.31,6.4,6.4,0,0,0-.181-1.328,16.426,16.426,0,0,0-4.556-9.534A16.751,16.751,0,0,1,79.72,18.254h.03a14.573,14.573,0,0,1,.815,1.69,18.34,18.34,0,0,1,1.177,3.832c.121.694.241,1.418.3,2.172a32.585,32.585,0,0,1,0,4.858Z" transform="translate(79.492 20.85)" fill="#ff006e" stroke="#000" stroke-linejoin="bevel" stroke-width="0.25"/>
      <path id="路径_12163" data-name="路径 12163" d="M71.951,20.48C67.637,32.036,54.663,38.4,43.65,37.1,54.693,37.889,67.576,31.794,71.951,20.48Z" transform="translate(88.045 40.921)" fill="#d9f2ff" stroke="#000" stroke-linejoin="bevel" stroke-width="0.25"/>
      <path id="路径_12160" data-name="路径 12160" d="M146.846,59.757c-1.207-21.694-7.935-38.65-20.276-48.456h-.03c-.453-.392-.905-.724-1.358-1.086-.483-.332-.935-.664-1.418-.966l-.272-.181a40.707,40.707,0,0,0-7.3-3.771C104.937.771,90.575.56,73.076,5.6c-1,.241-1.991.543-3.017.875-21.784,6.849-43.3,33.521-44.172,57.115a36.4,36.4,0,0,0,.06,8.508,28.275,28.275,0,0,0,2.625,9.233l.03.03C32.223,88.9,39.494,94.878,51.5,97.925l.06.03c12.672,4.375,27.487,2.263,40.34-3.59.6-.241,1.237-.513,1.84-.815.151-.091.332-.151.483-.241.332-.151.664-.332,1.026-.513A65.54,65.54,0,0,0,105,86.671c1.6-1.177,3.138-2.444,4.586-3.741.483-.453.965-.875,1.418-1.328.815-.784,1.569-1.6,2.323-2.414.272,19.31-3.832,45.107-27.155,47.943-7.392.905-14.332-.392-19.1-4.918a18.79,18.79,0,0,1-4.948-8.237l-4.707,1.84L28.934,127.011c.121.6.241,1.207.392,1.81.151.543.3,1.086.453,1.6.06.181.121.362.181.513a12.673,12.673,0,0,0,.513,1.509c.03.091.06.151.091.241.03.03.03.091.06.121.151.422.332.845.513,1.237a28.71,28.71,0,0,0,1.388,2.715,14.863,14.863,0,0,0,1.026,1.629c.362.543.724,1.026,1.086,1.509h.03c.3.422.634.815.935,1.177a3.617,3.617,0,0,1,.332.362c.332.362.634.664.935,1,.453.453.935.875,1.418,1.3.272.241.543.453.815.694.392.332.784.634,1.207.935a25.284,25.284,0,0,0,3.409,2.2h0c10.47,5.853,24.832,6.728,38.349,4.827a1977.487,1977.487,0,0,1,.453-.09.272.272,0,0,0,.151-.03,89.781,89.781,0,0,0,26.7-8.026,61.966,61.966,0,0,0,17.168-12.853l.03-.06a58.075,58.075,0,0,0,5.1-6.155c8.75-12.069,13.276-27.034,14.754-42.512.09-1.026.181-2.082.241-3.108.06-1.116.121-2.2.181-3.319,0-.935.06-1.84.091-2.776.03-1.086.03-2.142.03-3.2.091-3.621.03-7.121-.151-10.53ZM109.735,48.322c.06.966,0,1.931,0,2.866-.06.784-.151,1.569-.272,2.323a15.789,15.789,0,0,1-.362,1.72,21.648,21.648,0,0,1-.875,2.806c-4.315,11.556-17.289,17.922-28.3,16.625-.362-.03-.694-.06-1.026-.121a19.23,19.23,0,0,1-11.375-4.948,1.6,1.6,0,0,1-.392-.392c-3.47-3.47-5.431-8.69-4.737-15.87a2.02,2.02,0,0,1,0-.6V51.7c.392-15.569,15.478-24.741,28.482-24.53a10.8,10.8,0,0,1,1.72.06c.543.06,1.086.091,1.629.181.694.091,1.418.211,2.082.362h0c.241.06.453.121.664.181a16.308,16.308,0,0,1,10.409,7.784h.03a14.572,14.572,0,0,1,.815,1.69,18.34,18.34,0,0,1,1.177,3.832c.121.694.241,1.418.3,2.172a32.587,32.587,0,0,1,0,4.858Z" transform="translate(51.77 3.363)" fill="#ffcae9" stroke="#000" stroke-linejoin="bevel" stroke-width="0.25"/>
      <path id="路径_12164" data-name="路径 12164" d="M61.585,18.657a16.751,16.751,0,0,0-10.349-7.724c-.241-.06-.483-.121-.694-.181-.694-.181-1.418-.3-2.142-.422.694.091,1.418.211,2.082.362h0c.241.06.453.121.664.181a16.308,16.308,0,0,1,10.409,7.784Z" transform="translate(97.627 20.447)" fill="#d9f2ff" stroke="#000" stroke-linejoin="bevel" stroke-width="0.25"/>
      <path id="路径_12165" data-name="路径 12165" d="M71.951,20.48C67.637,32.036,54.663,38.4,43.65,37.1,54.693,37.889,67.576,31.794,71.951,20.48Z" transform="translate(88.045 40.921)" fill="#8bd4fa" stroke="#000" stroke-linejoin="bevel" stroke-width="0.25"/>
      <path id="路径_12166" data-name="路径 12166" d="M61.585,18.657a16.751,16.751,0,0,0-10.349-7.724c-.241-.06-.483-.121-.694-.181-.694-.181-1.418-.3-2.142-.422.694.091,1.418.211,2.082.362h0c.241.06.453.121.664.181a16.308,16.308,0,0,1,10.409,7.784Z" transform="translate(97.627 20.447)" fill="#8bd4fa" stroke="#000" stroke-linejoin="bevel" stroke-width="0.25"/>
      <path id="路径_12167" data-name="路径 12167" d="M50.542,10.752c-.694-.181-1.418-.3-2.142-.422.694.091,1.418.211,2.082.362h0l.03.06Z" transform="translate(97.627 20.447)" fill="none" stroke="#000" stroke-linejoin="bevel" stroke-width="0.25"/>
    </g>
  </g>
</svg>
