<svg xmlns="http://www.w3.org/2000/svg" xmlns:xlink="http://www.w3.org/1999/xlink" width="169" height="169.153" viewBox="0 0 169 169.153">
  <defs>
    <clipPath id="clip-path">
      <rect id="矩形_529" data-name="矩形 529" width="78.562" height="132.409" fill="none"/>
    </clipPath>
  </defs>
  <g id="组_3646" data-name="组 3646">
    <path id="路径_11508" data-name="路径 11508" d="M.5,20.2v111.43l74.9-19.273V.647Z" transform="translate(-0.203 -0.26)" fill="#ff086e"/>
    <g id="组_3351" data-name="组 3351">
      <g id="组_3350" data-name="组 3350" clip-path="url(#clip-path)">
        <path id="路径_11509" data-name="路径 11509" d="M75.4,112.352.5,131.626V20.2L75.4.647V112.352Z" transform="translate(-0.203 -0.26)" fill="none" stroke="#231f20" stroke-miterlimit="10" stroke-width="1"/>
      </g>
    </g>
    <path id="路径_11510" data-name="路径 11510" d="M77.462,2.542,5.625,21.3v111.43l74.9-19.273V1.748Z" transform="translate(-2.261 -0.703)" fill="#ffcae9"/>
    <g id="组_3353" data-name="组 3353">
      <g id="组_3352" data-name="组 3352" clip-path="url(#clip-path)">
        <path id="路径_11511" data-name="路径 11511" d="M80.524,113.452l-74.9,19.273V21.3L77.462,2.542l3.062-.8Z" transform="translate(-2.261 -0.702)" fill="none" stroke="#231f20" stroke-miterlimit="10" stroke-width="1"/>
        <path id="路径_11512" data-name="路径 11512" d="M43.521,107.557,73.8,99.639s-.676-16.654-15.141-13.353c-13.425,2.069-15.141,21.271-15.141,21.271Z" transform="translate(-17.493 -34.513)" fill="#fff"/>
        <path id="路径_11513" data-name="路径 11513" d="M43.521,107.557,73.8,99.639s-.676-16.654-15.141-13.353c-13.425,2.069-15.141,21.271-15.141,21.271Z" transform="translate(-17.493 -34.513)" fill="none" stroke="#231f20" stroke-miterlimit="10" stroke-width="1"/>
        <path id="路径_11514" data-name="路径 11514" d="M47.6,108.577l30.276-7.917S77.2,84,62.736,87.306C49.311,89.375,47.6,108.577,47.6,108.577Z" transform="translate(-19.133 -34.923)" fill="#fff"/>
        <path id="路径_11515" data-name="路径 11515" d="M47.6,108.577l30.276-7.917S77.2,84,62.736,87.306C49.311,89.375,47.6,108.577,47.6,108.577Z" transform="translate(-19.133 -34.923)" fill="none" stroke="#231f20" stroke-miterlimit="10" stroke-width="1"/>
        <path id="路径_11516" data-name="路径 11516" d="M72.084,56.526c.108,4.79-3.187,9.861-7.684,11.087-4.892,1.328-8.707-2.464-8.169-8.139.5-5.238,4.539-9.6,8.767-10.064,3.929-.431,6.991,2.649,7.092,7.116Z" transform="translate(-22.585 -19.847)" fill="#fff"/>
        <path id="路径_11517" data-name="路径 11517" d="M72.084,56.526c.108,4.79-3.187,9.861-7.684,11.087-4.892,1.328-8.707-2.464-8.169-8.139.5-5.238,4.539-9.6,8.767-10.064,3.929-.431,6.991,2.649,7.092,7.116Z" transform="translate(-22.585 -19.847)" fill="none" stroke="#231f20" stroke-miterlimit="10" stroke-width="1"/>
        <path id="路径_11518" data-name="路径 11518" d="M75.254,57.346c.108,4.79-3.187,9.861-7.684,11.087-4.892,1.328-8.707-2.464-8.169-8.139.5-5.238,4.539-9.6,8.767-10.064,3.929-.431,6.991,2.649,7.092,7.116Z" transform="translate(-23.859 -20.177)" fill="#fff"/>
        <path id="路径_11519" data-name="路径 11519" d="M75.254,57.346c.108,4.79-3.187,9.861-7.684,11.087-4.892,1.328-8.707-2.464-8.169-8.139.5-5.238,4.539-9.6,8.767-10.064,3.929-.431,6.991,2.649,7.092,7.116Z" transform="translate(-23.859 -20.177)" fill="none" stroke="#231f20" stroke-miterlimit="10" stroke-width="1"/>
        <line id="直线_49" data-name="直线 49" x1="3.068" y1="0.658" transform="translate(0.063 131.449)" fill="none" stroke="#231f20" stroke-miterlimit="10" stroke-width="1"/>
        <line id="直线_50" data-name="直线 50" x2="2.643" y2="0.568" transform="translate(25.824 73.085)" fill="none" stroke="#231f20" stroke-miterlimit="10" stroke-width="1"/>
        <line id="直线_51" data-name="直线 51" x2="3.062" y2="0.652" transform="translate(0.302 20.001)" fill="none" stroke="#231f20" stroke-miterlimit="10" stroke-width="1"/>
        <line id="直线_52" data-name="直线 52" x2="3.062" y2="0.658" transform="translate(75.434 0.297)" fill="none" stroke="#231f20" stroke-miterlimit="10" stroke-width="1"/>
        <path id="路径_11520" data-name="路径 11520" d="M3.479,219.233v-1.716H1.015V218.7Z" transform="translate(-0.408 -87.443)" fill="#f15a26"/>
        <path id="路径_11521" data-name="路径 11521" d="M125.849,1.037l1.764.371-2.368.622V1.193Z" transform="translate(-50.349 -0.417)" fill="#f15a26"/>
      </g>
    </g>
  </g>
  <g id="组_3647" data-name="组 3647" transform="translate(44.719 12.777)">
    <path id="路径_11508-2" data-name="路径 11508" d="M.5,20.2v111.43l74.9-19.273V.647Z" transform="translate(-0.203 -0.26)" fill="#ff086e"/>
    <g id="组_3351-2" data-name="组 3351">
      <g id="组_3350-2" data-name="组 3350" clip-path="url(#clip-path)">
        <path id="路径_11509-2" data-name="路径 11509" d="M75.4,112.352.5,131.626V20.2L75.4.647V112.352Z" transform="translate(-0.203 -0.26)" fill="none" stroke="#231f20" stroke-miterlimit="10" stroke-width="1"/>
      </g>
    </g>
    <path id="路径_11510-2" data-name="路径 11510" d="M77.462,2.542,5.625,21.3v111.43l74.9-19.273V1.748Z" transform="translate(-2.261 -0.703)" fill="#ffcae9"/>
    <g id="组_3353-2" data-name="组 3353">
      <g id="组_3352-2" data-name="组 3352" clip-path="url(#clip-path)">
        <path id="路径_11511-2" data-name="路径 11511" d="M80.524,113.452l-74.9,19.273V21.3L77.462,2.542l3.062-.8Z" transform="translate(-2.261 -0.702)" fill="none" stroke="#231f20" stroke-miterlimit="10" stroke-width="1"/>
        <path id="路径_11512-2" data-name="路径 11512" d="M43.521,107.557,73.8,99.639s-.676-16.654-15.141-13.353c-13.425,2.069-15.141,21.271-15.141,21.271Z" transform="translate(-17.493 -34.513)" fill="#fff"/>
        <path id="路径_11513-2" data-name="路径 11513" d="M43.521,107.557,73.8,99.639s-.676-16.654-15.141-13.353c-13.425,2.069-15.141,21.271-15.141,21.271Z" transform="translate(-17.493 -34.513)" fill="none" stroke="#231f20" stroke-miterlimit="10" stroke-width="1"/>
        <path id="路径_11514-2" data-name="路径 11514" d="M47.6,108.577l30.276-7.917S77.2,84,62.736,87.306C49.311,89.375,47.6,108.577,47.6,108.577Z" transform="translate(-19.133 -34.923)" fill="#fff"/>
        <path id="路径_11515-2" data-name="路径 11515" d="M47.6,108.577l30.276-7.917S77.2,84,62.736,87.306C49.311,89.375,47.6,108.577,47.6,108.577Z" transform="translate(-19.133 -34.923)" fill="none" stroke="#231f20" stroke-miterlimit="10" stroke-width="1"/>
        <path id="路径_11516-2" data-name="路径 11516" d="M72.084,56.526c.108,4.79-3.187,9.861-7.684,11.087-4.892,1.328-8.707-2.464-8.169-8.139.5-5.238,4.539-9.6,8.767-10.064,3.929-.431,6.991,2.649,7.092,7.116Z" transform="translate(-22.585 -19.847)" fill="#fff"/>
        <path id="路径_11517-2" data-name="路径 11517" d="M72.084,56.526c.108,4.79-3.187,9.861-7.684,11.087-4.892,1.328-8.707-2.464-8.169-8.139.5-5.238,4.539-9.6,8.767-10.064,3.929-.431,6.991,2.649,7.092,7.116Z" transform="translate(-22.585 -19.847)" fill="none" stroke="#231f20" stroke-miterlimit="10" stroke-width="1"/>
        <path id="路径_11518-2" data-name="路径 11518" d="M75.254,57.346c.108,4.79-3.187,9.861-7.684,11.087-4.892,1.328-8.707-2.464-8.169-8.139.5-5.238,4.539-9.6,8.767-10.064,3.929-.431,6.991,2.649,7.092,7.116Z" transform="translate(-23.859 -20.177)" fill="#fff"/>
        <path id="路径_11519-2" data-name="路径 11519" d="M75.254,57.346c.108,4.79-3.187,9.861-7.684,11.087-4.892,1.328-8.707-2.464-8.169-8.139.5-5.238,4.539-9.6,8.767-10.064,3.929-.431,6.991,2.649,7.092,7.116Z" transform="translate(-23.859 -20.177)" fill="none" stroke="#231f20" stroke-miterlimit="10" stroke-width="1"/>
        <line id="直线_49-2" data-name="直线 49" x1="3.068" y1="0.658" transform="translate(0.063 131.449)" fill="none" stroke="#231f20" stroke-miterlimit="10" stroke-width="1"/>
        <line id="直线_50-2" data-name="直线 50" x2="2.643" y2="0.568" transform="translate(25.824 73.085)" fill="none" stroke="#231f20" stroke-miterlimit="10" stroke-width="1"/>
        <line id="直线_51-2" data-name="直线 51" x2="3.062" y2="0.652" transform="translate(0.302 20.001)" fill="none" stroke="#231f20" stroke-miterlimit="10" stroke-width="1"/>
        <line id="直线_52-2" data-name="直线 52" x2="3.062" y2="0.658" transform="translate(75.434 0.297)" fill="none" stroke="#231f20" stroke-miterlimit="10" stroke-width="1"/>
        <path id="路径_11520-2" data-name="路径 11520" d="M3.479,219.233v-1.716H1.015V218.7Z" transform="translate(-0.408 -87.443)" fill="#f15a26"/>
        <path id="路径_11521-2" data-name="路径 11521" d="M125.849,1.037l1.764.371-2.368.622V1.193Z" transform="translate(-50.349 -0.417)" fill="#f15a26"/>
      </g>
    </g>
  </g>
  <g id="组_3648" data-name="组 3648" transform="translate(90.438 36.744)">
    <path id="路径_11508-3" data-name="路径 11508" d="M.5,20.2v111.43l74.9-19.273V.647Z" transform="translate(-0.203 -0.26)" fill="#ff086e"/>
    <g id="组_3351-3" data-name="组 3351">
      <g id="组_3350-3" data-name="组 3350" clip-path="url(#clip-path)">
        <path id="路径_11509-3" data-name="路径 11509" d="M75.4,112.352.5,131.626V20.2L75.4.647V112.352Z" transform="translate(-0.203 -0.26)" fill="none" stroke="#231f20" stroke-miterlimit="10" stroke-width="1"/>
      </g>
    </g>
    <path id="路径_11510-3" data-name="路径 11510" d="M77.462,2.542,5.625,21.3v111.43l74.9-19.273V1.748Z" transform="translate(-2.261 -0.703)" fill="#ffcae9"/>
    <g id="组_3353-3" data-name="组 3353">
      <g id="组_3352-3" data-name="组 3352" clip-path="url(#clip-path)">
        <path id="路径_11511-3" data-name="路径 11511" d="M80.524,113.452l-74.9,19.273V21.3L77.462,2.542l3.062-.8Z" transform="translate(-2.261 -0.702)" fill="none" stroke="#231f20" stroke-miterlimit="10" stroke-width="1"/>
        <path id="路径_11512-3" data-name="路径 11512" d="M43.521,107.557,73.8,99.639s-.676-16.654-15.141-13.353c-13.425,2.069-15.141,21.271-15.141,21.271Z" transform="translate(-17.493 -34.513)" fill="#fff"/>
        <path id="路径_11513-3" data-name="路径 11513" d="M43.521,107.557,73.8,99.639s-.676-16.654-15.141-13.353c-13.425,2.069-15.141,21.271-15.141,21.271Z" transform="translate(-17.493 -34.513)" fill="none" stroke="#231f20" stroke-miterlimit="10" stroke-width="1"/>
        <path id="路径_11514-3" data-name="路径 11514" d="M47.6,108.577l30.276-7.917S77.2,84,62.736,87.306C49.311,89.375,47.6,108.577,47.6,108.577Z" transform="translate(-19.133 -34.923)" fill="#fff"/>
        <path id="路径_11515-3" data-name="路径 11515" d="M47.6,108.577l30.276-7.917S77.2,84,62.736,87.306C49.311,89.375,47.6,108.577,47.6,108.577Z" transform="translate(-19.133 -34.923)" fill="none" stroke="#231f20" stroke-miterlimit="10" stroke-width="1"/>
        <path id="路径_11516-3" data-name="路径 11516" d="M72.084,56.526c.108,4.79-3.187,9.861-7.684,11.087-4.892,1.328-8.707-2.464-8.169-8.139.5-5.238,4.539-9.6,8.767-10.064,3.929-.431,6.991,2.649,7.092,7.116Z" transform="translate(-22.585 -19.847)" fill="#fff"/>
        <path id="路径_11517-3" data-name="路径 11517" d="M72.084,56.526c.108,4.79-3.187,9.861-7.684,11.087-4.892,1.328-8.707-2.464-8.169-8.139.5-5.238,4.539-9.6,8.767-10.064,3.929-.431,6.991,2.649,7.092,7.116Z" transform="translate(-22.585 -19.847)" fill="none" stroke="#231f20" stroke-miterlimit="10" stroke-width="1"/>
        <path id="路径_11518-3" data-name="路径 11518" d="M75.254,57.346c.108,4.79-3.187,9.861-7.684,11.087-4.892,1.328-8.707-2.464-8.169-8.139.5-5.238,4.539-9.6,8.767-10.064,3.929-.431,6.991,2.649,7.092,7.116Z" transform="translate(-23.859 -20.177)" fill="#fff"/>
        <path id="路径_11519-3" data-name="路径 11519" d="M75.254,57.346c.108,4.79-3.187,9.861-7.684,11.087-4.892,1.328-8.707-2.464-8.169-8.139.5-5.238,4.539-9.6,8.767-10.064,3.929-.431,6.991,2.649,7.092,7.116Z" transform="translate(-23.859 -20.177)" fill="none" stroke="#231f20" stroke-miterlimit="10" stroke-width="1"/>
        <line id="直线_49-3" data-name="直线 49" x1="3.068" y1="0.658" transform="translate(0.063 131.449)" fill="none" stroke="#231f20" stroke-miterlimit="10" stroke-width="1"/>
        <line id="直线_50-3" data-name="直线 50" x2="2.643" y2="0.568" transform="translate(25.824 73.085)" fill="none" stroke="#231f20" stroke-miterlimit="10" stroke-width="1"/>
        <line id="直线_51-3" data-name="直线 51" x2="3.062" y2="0.652" transform="translate(0.302 20.001)" fill="none" stroke="#231f20" stroke-miterlimit="10" stroke-width="1"/>
        <line id="直线_52-3" data-name="直线 52" x2="3.062" y2="0.658" transform="translate(75.434 0.297)" fill="none" stroke="#231f20" stroke-miterlimit="10" stroke-width="1"/>
        <path id="路径_11520-3" data-name="路径 11520" d="M3.479,219.233v-1.716H1.015V218.7Z" transform="translate(-0.408 -87.443)" fill="#f15a26"/>
        <path id="路径_11521-3" data-name="路径 11521" d="M125.849,1.037l1.764.371-2.368.622V1.193Z" transform="translate(-50.349 -0.417)" fill="#f15a26"/>
      </g>
    </g>
  </g>
</svg>
