<svg id="_09" data-name="09" xmlns="http://www.w3.org/2000/svg" width="199.682" height="186.521" viewBox="0 0 199.682 186.521">
  <path id="路径_11628" data-name="路径 11628" d="M149.642,206.33c39,0,70.623-7.284,70.623-16.269s-31.619-16.269-70.623-16.269-70.624,7.283-70.624,16.269S110.637,206.33,149.642,206.33Z" transform="translate(-20.583 -45.27)" fill="rgba(0,0,0,0.08)"/>
  <path id="路径_11629" data-name="路径 11629" d="M68.6,136.736A68.189,68.189,0,1,0,.413,68.547,68.189,68.189,0,0,0,68.6,136.736Z" transform="translate(-0.108 -0.093)" fill="#4de0f4"/>
  <path id="路径_11630" data-name="路径 11630" d="M63.934,3.794l1.942,7.4,4.177,1.172,4.727-2.711.257-.806,6.485-2.162,1.905-1.722,1.429.769h3.261l1.429,1.612L95.518,1.3S82.84.35,79.506.68c-3.371.366-7.8,1.1-7.8,1.1L65.656,3.355Z" transform="translate(-16.654 -0.159)" fill="#0182e5"/>
  <path id="路径_11631" data-name="路径 11631" d="M111.152,3.875l-2.675,3.151-2.528.256-.806,1.356V9.995h-3.3l.183,5.789.512,2.968-.916,4.8-3.591,4.69.879,2.528,3.445,1.319,3-3.224,1.575,2.272,2.821-1.466-1.026-5.386,4.433-7.035-.916,6.742L110.9,25.9l2.785,1.759-.549,6.119-2.565-.293-1.356,1.209h-1.429L105,32.2l-1.466,3.994-7.548,5.826-2.418.989,1.8,3.041,5.057,1.612-.073,4.03-5.606,2.821.476,2.711-.183,3.151,3.737,3.261,6.889-3.334-1.063-1.576.11-1.832-2.052-1.576.146-1.685,4.324-.22.769-2.931,3.591-2.052,4.324,1.832,9.929,1.1,1.282,1.026.183,2.931.66.366.879-4.067.586-.953-3.408-.623-2.088-.989-1.5-.623-3.994-2.345,5.387.879,4.36.586,3.884.366,1.576,2.308.989,2.675,2.6-.256,1.8.073,4.581-.22,2.968-.183.7,3.664-.66,4.544-8.941-2.528-.769,2.418-.916,1.246-6.339-1.319-.257-2.015-1.942-.33L114.23,60.852l-1.1,2.895L110.31,65.8l-.33,2.382L109.32,71l-2.088,2.675-2.6,7.8.952,3.811-.4,3.59,2.418,3.591,7.072,4.653,7.071-3.224,1.979,1.833,3.664-.037,5.02,4.727-1.5,5.129,4.434,6.742-1.063,3.445,4.91,3.884S153.949,104.2,157.21,92.034l-2.858-4.544,1.942-.806-.257-1.869,1.8-2.565,1.246-3.188-.477-1.026,1.319-1.172-1.648-3.738-9.087-6.779-2.162-4.873,2.748,1.026,3.408,3.847,4.4,2.345L160.8,73.42v-5.13l-.183-4.214-1.283-1.832-6.559-4.324,7.292.733-.512-3.884-2.125-7.108-2.272-6.119-2.235-4.434-2.272-3.921-3.884-5.533-3.738-4.287L139.293,19.7l-3.371-3.115L132,13.622l-3.518-2.308L125.3,9.482,121.375,7.5l-3.848-1.576-3.884-1.319Z" transform="translate(-24.372 -1.01)" fill="#0182e5"/>
  <path id="路径_11632" data-name="路径 11632" d="M83.257,38.2l1.722,3v2.565l3.188,2.382-1.649,1.319.953,1.5.366,1.576,4.214-2.492.4-2.858-.4-1.136L88.79,42.372,87.031,40.32l-.513-2.455-1.429.293Z" transform="translate(-21.687 -9.863)" fill="#0182e5"/>
  <path id="路径_11633" data-name="路径 11633" d="M80.828,43.068l1.392.22L82.074,44.9l1.172,1.539v1.685l-2.675-.293L79.143,44.57,79,44.24Z" transform="translate(-20.578 -11.219)" fill="#0182e5"/>
  <path id="路径_11634" data-name="路径 11634" d="M32.147,14.875l2.345.44.843.953.7.55.22,2.711-1.429,2.125,1.722,2.528L35.115,26.05l-4.1-1.466-1.5.769-3.664-1.209-1.026-1.685L20.165,27.3l-.953,2.089,1.209,1.759,3.737-3.224,8.281.4L32.11,33.6l.073,2.748-2.638,1.685-2.382-.513-2.308,2.345.073,1.576-1.466,1.869-5.13,9.966.22.733.769,1.209L18.7,57.891l-.147,2.931-8.281,4.837L6.5,68.151,5.252,69.1l-1.429.843L.562,76.835V68.261l.989-8.391L3.384,52.4l2.052-5.716,2.162-4.8,3-5.5,3.518-5.02,2.895-3.554,3.737-3.994,3.481-3.261,3.847-3.078Z" transform="translate(-0.146 -3.875)" fill="#0182e5"/>
  <path id="路径_11635" data-name="路径 11635" d="M.811,101.484,5.9,102.876l3.627,1.356,2.162.22-2.235,3.884,1.759,2.381-2.308-1.245L6.124,108.41l-2.931-.073-1.356-.11Z" transform="translate(-0.211 -26.435)" fill="#0182e5"/>
  <path id="路径_11636" data-name="路径 11636" d="M14.038,127.866l1.026-5.753.55-3.518,7.878-2.345,5.166.586,2.931,5.459,3.078,3.371,3.884.073-.33,3.517,9.124,2.492,2.162.733,3.481.366,3.371,1.209-.916,5.569-1.905,4.727,1.832,4.763-4.031,3,4.25,5.276.586,5.9.513,1.869-7.035-2.015-8.171-3.371-6.339-3.774-6.192-4.544-4.8-4.214-2.638-2.711,3.114-2.748-.953-2.272v-1.246l-1.209-2.015-4.4-4.03L16.457,130.5l3.078-1.576-1.282-1.319-1.942-3.994-.769,3.334-1.466,1.209Z" transform="translate(-3.657 -30.282)" fill="#0182e5"/>
  <path id="路径_11637" data-name="路径 11637" d="M131.1,41.681a84.757,84.757,0,0,1,.476,8.647,79.01,79.01,0,0,1-109.41,72.879A68.141,68.141,0,0,0,131.1,41.681Z" transform="translate(-5.774 -10.857)" fill="#25cff2"/>
  <path id="路径_11638" data-name="路径 11638" d="M166.464,107.661l1.942-.807-.257-1.868,1.8-2.565,1.246-3.187-.476-1.026,1.319-1.172L170.385,93.3,161.3,86.519l-2.015-4.507a78.81,78.81,0,0,1-19.64,34.04l4.836,4.544-1.5,5.13,4.433,6.741-1.063,3.445,4.91,3.884s9.526-9.966,14.986-20.189a73.023,73.023,0,0,0,3-7.218c0-.073.036-.109.036-.183Z" transform="translate(-36.375 -21.363)" fill="#057bc4"/>
  <path id="路径_11639" data-name="路径 11639" d="M168.658,41.73a83.816,83.816,0,0,1,.476,8.647,79.738,79.738,0,0,1-2.785,20.849l2.492.916,3.408,3.847,4.4,2.345,3.224,4.727v-5.13l-.183-4.214L178.4,71.885l-6.669-4.1,7.292.733-.4-2.821c-.146-.733-.33-1.5-.513-2.235l-1.759-5.9-1.979-5.276c-.33-.769-.7-1.576-1.063-2.345L172.1,47.556a13.542,13.542,0,0,0-.7-1.246l-.989-1.685c-.512-.879-1.063-1.722-1.612-2.565Z" transform="translate(-43.332 -10.87)" fill="#057bc4"/>
  <path id="路径_11640" data-name="路径 11640" d="M25.212,153.262l-.916.806c1.356,1.5,2.785,2.931,4.25,4.324l3,2.638c.037.037.073.037.11.073l6.156,4.507c.037.036.073.036.11.073l4.47,2.675q1.7.934,3.518,1.759l5.753,2.382c.44.146.916.33,1.356.476l5.936,1.722c.147.036.256.073.4.109l-.513-1.869-.586-5.9-4.25-5.276,4.031-3-.22-.512c-1.539.073-3.115.146-4.69.146A78.529,78.529,0,0,1,25.212,153.262Z" transform="translate(-6.329 -39.923)" fill="#057bc4"/>
  <path id="路径_11641" data-name="路径 11641" d="M138.525,119.267l-4.69-3.847,1.282-3.371-4.544-6.559,1.319-5.166-4.8-4.653-3.554.036-1.832-1.539-7.035,3.078-2.236-1.466-5.13-3.444L104.706,89l.4-3.664-.77-3.957,1.246-4.287,1.172-3.481L108.81,70.9l.842-2.711.4-2.6,2.784-2.2,1.026-3,.147-.037L127.2,57.454l2.272.476.183,2.089,6.009,1.173.66-.806.733-2.931,9.234,2.675.44-4.25-.66-3.444-7.035.623-1.833-.183-2.968.293-.989-2.711-1.832-2.272-6.705-.733-4.837-.916,2.712,1.8,3.334,1.429,3.737.769-.806,1.173-.916,4.25-1.136-.4-.11-3.041-1.026-.879-4.984-.44-5.166-.7-4.177-1.905L108,50.565l-.952,3.151-4.1-.037-.146,1.539,2.015,1.392-.183,1.942,1.1,1.832L98.55,64.049l-3.958-3.371.146-3.334-.513-3.188,5.716-2.492-.036-3.847-4.983-1.5L92.871,42.8l2.528-.953,4.14-3.371,3.591-2.528,1.722-4.4,2.821,2.785,1.136.11,1.319-1.246,2.491.257.586-5.606-3-1.832,1.612-1.905.549-5.24-3.554,5.423,1.063,5.423-3.261,1.905-1.356-2.528-3,3.3-3.664-1.649-1.063-2.418,3.261-4.14.476-.879.843-4.543-.44-2.968-.293-6.376,3.261.33.11-.879.843-1.942,2.454-.22,2.712-3.078.4.366L108.3,7.219l-2.345.256-.7,1.576-.11,1.319-3.188-.33.257,5.716.476,3-.916,4.763-.55.989L98.184,28.4l.843,1.905,3.078,1.429,3.261-3.554,1.466,2.675,2.418-1.429-1.026-5.24,4.91-7.511-.807,7.658-1.282,1.539,2.748,1.722-.7,6.486-2.785-.293-1.319,1.246-1.576-.183-2.382-2.308-1.465,3.774-3.7,2.6-4.25,3.444-1.942.733,1.612,2.785,5.166,1.539.037,4.617-5.643,2.455.44,2.821-.146,3.151,3.481,2.931,6.338-3.224-.916-1.5.183-1.8-2.015-1.392.257-2.345,4.178.037.879-2.968L111.3,48l4.433,1.979,5.02.66,5.13.44,1.356,1.136.073,2.931.22.073.806-3.737.4-.586-3-.623-3.445-1.466-5.02-3.334,7.548,1.466,6.889.7,2.052,2.6.843,2.345,2.6-.293,1.833.22,7.511-.66.733,4.03-.513,4.947-9.343-2.675L136.8,60.6l-.916,1.209-6.742-1.356-.183-2.089L127.2,58l-12.9,2.821-.989,2.895-2.748,2.162-.366,2.455-.916,2.858-2.052,2.711L106.1,77.277l-1.209,4.141.77,3.884-.367,3.554,2.418,3.078,7.036,4.69,7.035-3.115,1.978,1.612h3.554l5.2,5.057-1.356,5.2,4.544,6.595-1.209,3.3,4.4,3.59Z" transform="translate(-24.192 -0.945)"/>
  <path id="路径_11642" data-name="路径 11642" d="M181.164,83.192l-1.246-1.905-7.475-4.873,8.354.879-.073.55-6.082-.623,5.642,3.664L181.64,82.9Z" transform="translate(-44.919 -19.905)"/>
  <path id="路径_11643" data-name="路径 11643" d="M175.735,111.856l-3.078-4.726,1.979-.733-.183-1.8,1.429-1.9,1.722-3.885-.623-1.026,1.393-1.319-1.649-3.114-7.218-5.863-1.8-1.282-.806-2.125-1.8-3.408,3.445,1.5,3.3,3.627,4.763,2.675,3.261,4.837-.439.293-3.225-4.727-4.763-2.675-3.224-3.554-1.906-.843,1.063,2.015.77,2.015,1.685,1.209,7.329,5.936,1.9,3.591L177.677,97.9l.549.879-1.9,4.25-1.282,1.722.183,2.015-1.722.623,2.711,4.177Z" transform="translate(-43.009 -21.015)"/>
  <path id="路径_11644" data-name="路径 11644" d="M87.424,50.619,87.057,48.9l-1.282-1.649,1.686-1.319-3-2.2.256-2.6-2.2-3.444,2.382-.11,1.466-.4.66,2.821,1.832,2.052,1.685.843,1.5.953.513.989-.33,3.115Zm-.879-3.261,1.026,1.319.256,1.136,3.921-2.162.293-2.675-.366-.7L90.318,43.4,88.6,42.521l-2.015-2.235-.586-2.418-1.026.256L83.5,38.2l1.8,2.821-.257,2.492,3.334,2.418Z" transform="translate(-21.494 -9.683)"/>
  <path id="路径_11645" data-name="路径 11645" d="M83.324,48.364l-3.151-.33-.366-1.282-.843-1.832-.513-.806,1.942-1.392,2.015.22-.183,1.869,1.356,1.466Zm-2.711-.843,2.235.22.147-1.282-1.356-1.466.183-1.576-1.246-.147-1.319.953.256.4.879,1.905Z" transform="translate(-20.436 -11.128)"/>
  <path id="路径_11646" data-name="路径 11646" d="M70.036,13.05l-4.47-1.356L63.587,4.073l.513-.147,1.905,7.328,3.957,1.209,4.58-2.711.073-.953,6.522-2.2,2.235-1.576,1.319.7,3.371-.293,1.246,1.5L94.879,1.4l.367.4L89.309,7.737l-1.5-1.722-3.224.256-1.136-.623L81.358,7.114,75.129,9.2l-.073.879Z" transform="translate(-16.564 -0.364)"/>
  <path id="路径_11647" data-name="路径 11647" d="M.728,76.6l-.513-.22L1.277,73.96,3.512,69.6l1.832-.916L10.987,64.8l7.292-4.287.147-2.895.55-2.492-1.136-1.612,3.627-7.438,1.722-3,1.5-1.8-.33-1.392,2.528-2.748,2.565.586,2.528-1.539-.256-2.308.256-5.386-7.841-.44L20.221,31.42l-1.539-1.905,1.1-2.418,2.565-2.638,2.382-2.711L25.9,23.762l3.371,1.282,1.466-.806,4.177,1.392,1.173-1.576-.513-.66-1.282-1.832,1.576-1.979-.11-2.785-.733-.33-.916-.989-2.382-.4.11-.55,2.565.44.953,1.063.916.4.147,3.334L34.987,21.6l1.026,1.466.769.989L35.134,26.29,30.81,24.825l-1.466.843-3.811-1.429L24.654,22.7l-1.905,2.125-2.528,2.6L19.3,29.4l.989,1.246L23.921,27.5l8.647.476-.293,5.9.293,2.6-3,1.832-2.492-.55-2.125,2.272.33,1.392L23.628,43.4l-1.649,2.931-3.518,7.145,1.1,1.539-.586,2.675-.183,3.151-7.511,4.4L5.6,69.16,3.915,70,1.79,74.18Z" transform="translate(-0.056 -3.784)"/>
  <path id="路径_11648" data-name="路径 11648" d="M12.179,110.994l-6.266-2.382-2.931-.073-1.209-.22.11-.549,1.173.22,3.041.073,4.1,1.576-1.209-1.282,2.345-3.738-1.136-.146-4.544-1.466L.711,101.65l.147-.512L5.8,102.494l4.543,1.466,1.942.183-2.6,4.141Z" transform="translate(-0.185 -26.345)"/>
  <path id="路径_11649" data-name="路径 11649" d="M56.291,164.879l-.55-1.356-.44-5.972-4.507-5.423,4.177-3.188-1.979-4.69,1.979-4.873.953-5.35-3.151-1.136-4.4-.439-4.25-1.356-6.376-1.8.366-3.444-3.591-.037L31.3,122.412l-3-5.459-5.13-.549-7.511,2.418-1.392,8.611.879-.7.953-3.921,2.308,4.654,1.539,1.356-3.115,1.649,3.188,3.151,2.748,2.748.953,1.466.11,1.722.989,2.381-2.931,2.492-.366-.44,2.638-2.235-.879-2.125-.11-1.612-.879-1.319-2.638-2.675-3.737-3.664,3.078-1.648-1.026-.916-1.685-3.371-.66,2.6-2.125,1.722,1.686-10.369,7.914-2.528,5.569.586,3.115,5.679,2.968,3.151,3.994.037-.366,3.59,5.9,1.649,4.25,1.356,4.4.476,3.591,1.283-.989,5.862L53.58,144.25l2.052,4.873-4.067,3.114,4.287,5.093.4,6.083.55,1.246Z" transform="translate(-3.515 -30.178)"/>
  <path id="路径_11650" data-name="路径 11650" d="M68.605,136.936a68.678,68.678,0,0,1-7.255-.367A68.47,68.47,0,1,1,136.575,75.6a68.483,68.483,0,0,1-67.969,61.337ZM68.422.521a67.939,67.939,0,1,0,67.6,75.041l.257.037-.257-.037A68.21,68.21,0,0,0,68.422.521Z" transform="translate(0 0)"/>
  <path id="路径_11651" data-name="路径 11651" d="M120.2,136.286V172.51l.438,1.375.782.844.875.438,56.288,15.065,1.219-.063,1.407-.281.781-.469.407-.751.031-36.754-.625-1.656-.751-.688-.844-.344L123.635,134.1l-1.266.17-1.594.8Z" transform="translate(-31.31 -34.931)" fill="#fff"/>
  <path id="路径_11652" data-name="路径 11652" d="M120.409,142.679l60.226,15.971v9.438l-60.226-16Z" transform="translate(-31.365 -37.166)" fill="#0182e5"/>
  <path id="路径_11653" data-name="路径 11653" d="M201.591,158.14l1.625-.5.156,1.063v35.63l-.281,1.094-.594.469-1.251.469h-.625l.719-.626.25-.719.031-.781Z" transform="translate(-52.26 -41.063)" fill="#dbe1ea"/>
  <path id="路径_11654" data-name="路径 11654" d="M120.409,135.537l.907-.656.937-.688,1.438-.094,1,.219,56.256,15,.907.938.469,1.25-1.625.5-.75-1.469-.75-.625-.969-.344L122.1,134.724l-.375.063Z" transform="translate(-31.365 -34.931)" fill="#fff"/>
  <path id="路径_11655" data-name="路径 11655" d="M179.033,190.672a1.952,1.952,0,0,1-.594-.094l-56.288-15.1a3.169,3.169,0,0,1-2.25-2.875V136.416a1.753,1.753,0,0,1,.688-1.469,1.976,1.976,0,0,1,1.688-.282l56.288,15.1a3.169,3.169,0,0,1,2.25,2.875V188.86a1.754,1.754,0,0,1-.688,1.469A1.893,1.893,0,0,1,179.033,190.672Zm-.469-.532a1.472,1.472,0,0,0,1.282-.187,1.354,1.354,0,0,0,.5-1.094V152.605a2.63,2.63,0,0,0-1.906-2.406l-56.288-15.1a1.472,1.472,0,0,0-1.282.188,1.354,1.354,0,0,0-.5,1.094v36.254a2.632,2.632,0,0,0,1.906,2.407Z" transform="translate(-31.233 -35.06)"/>
  <path id="路径_11656" data-name="路径 11656" d="M120.218,142.214l-.121.453,60.436,16.193.121-.453Z" transform="translate(-31.284 -37.045)"/>
  <path id="路径_11657" data-name="路径 11657" d="M120.251,155.034l-.121.453,60.437,16.193.121-.453Z" transform="translate(-31.292 -40.384)"/>
  <path id="路径_11658" data-name="路径 11658" d="M152.223,173.806l-25.941-6.938V163.43l25.941,6.938Zm-25.472-7.313,25,6.688v-2.469l-25-6.688Z" transform="translate(-32.895 -42.571)"/>
  <path id="路径_11659" data-name="路径 11659" d="M187.346,199.673a2.771,2.771,0,0,1-.688-.094,4.185,4.185,0,0,1-2.813-3.938,2.682,2.682,0,0,1,.969-2.187,2.335,2.335,0,0,1,2-.344,4.184,4.184,0,0,1,2.813,3.938,2.685,2.685,0,0,1-.969,2.187A2.2,2.2,0,0,1,187.346,199.673Zm-1.219-6.188a1.7,1.7,0,0,0-1.032.344,2.2,2.2,0,0,0-.782,1.813,3.762,3.762,0,0,0,2.469,3.5,1.774,1.774,0,0,0,1.594-.281,2.2,2.2,0,0,0,.782-1.813,3.763,3.763,0,0,0-2.469-3.5A4.416,4.416,0,0,0,186.127,193.485Z" transform="translate(-47.889 -50.28)"/>
  <path id="路径_11660" data-name="路径 11660" d="M192.09,200.941a2.369,2.369,0,0,1-.657-.094,4.184,4.184,0,0,1-2.812-3.938,2.682,2.682,0,0,1,.969-2.187,2.336,2.336,0,0,1,2-.344,4.184,4.184,0,0,1,2.812,3.938,2.685,2.685,0,0,1-.969,2.187A2.37,2.37,0,0,1,192.09,200.941Zm-1.219-6.188a1.7,1.7,0,0,0-1.031.344,2.2,2.2,0,0,0-.782,1.813,3.762,3.762,0,0,0,2.469,3.5,1.774,1.774,0,0,0,1.594-.281,2.2,2.2,0,0,0,.782-1.813,3.763,3.763,0,0,0-2.469-3.5A4.415,4.415,0,0,0,190.871,194.753Z" transform="translate(-49.133 -50.611)"/>
  <path id="路径_11661" data-name="路径 11661" d="M179.962,190.307l-.032-.469c1.844-.187,2.438-.625,2.438-1.813V151.833a2.63,2.63,0,0,0-1.906-2.406l-56.288-15.1c-1.063-.281-1.938.188-3.25.938l-.219-.407c1.375-.75,2.344-1.313,3.594-.969l56.288,15.1a3.17,3.17,0,0,1,2.25,2.875v36.192C182.806,189.713,181.712,190.151,179.962,190.307Z" transform="translate(-31.442 -34.851)"/>
  <path id="路径_11662" data-name="路径 11662" d="M163.65,175.623l-43.631-11.832v18.2l43.631,12.117Z" transform="translate(-31.263 -42.666)" fill="rgba(0,0,0,0.08)"/>
  <path id="路径_11663" data-name="路径 11663" d="M121.3,177.539s-14.265.658-22.072-1.85a128.636,128.636,0,0,1-12.321-4.546l-5.863-3.48-4.985-3.637-4.922-2.947L66.4,158.915l-8.716-2.633-5.675-.941-7.556-.376H39.314v49.1h5.267l6.584.314,5.863.878,5.2,1.317,5.142,1.85,5.142,2.508L75.871,213l2.6,1.912,3.512,2.508,5.8,3.261,5.957,2.477,7.054,2.006,7.054,1.129,6.616.345H121.3Z" transform="translate(-10.241 -40.366)" fill="#ff74ba"/>
  <path id="路径_11664" data-name="路径 11664" d="M83.522,166.816V216.04s-13.011-9.97-20.536-10.221c0,0-7.493-1.536-9.468-1.568V154.965s9.5.753,15.739,3.606,8.9,4.389,8.9,4.389Z" transform="translate(-13.941 -40.366)" fill="#ff80df"/>
  <path id="路径_11665" data-name="路径 11665" d="M99.668,207.783c-.5,5.957-3.323,7.587-8.277,4.734-4.891-2.822-7.681-7.776-8.371-14.611l-1.944-1.128V194.3l1.787,1.035a8.507,8.507,0,0,1-.031-.878V194.4a7.361,7.361,0,0,1,.031-.847l-1.787-1.035v-2.477l1.944,1.129c.69-6.051,3.48-7.776,8.34-4.954,4.985,2.885,7.713,7.744,8.057,14.234l-3.668-1.285c-.094-4.765-1.6-7.87-4.358-9.469-2.634-1.5-4.076-.314-4.452,3.7l6.145,3.543-.5,2.194-5.769-3.323v1.818l5.393,3.1-.5,2.194-4.8-2.79c.376,4.452,1.85,7.337,4.483,8.873,2.759,1.6,4.264.189,4.484-4.483Z" transform="translate(-21.119 -48.162)" fill="#ff006e"/>
  <path id="路径_11666" data-name="路径 11666" d="M90.711,208.515c-2.195-1.6-3.449-4.359-3.794-8.4l3.794,2.195V199.83l-3.888-2.258v-1.818l3.888,2.258v-2.477l-3.794-2.195c.345-3.669,1.6-4.954,3.794-4.044v-3.543c-4.452-2.258-7.023-.439-7.65,5.33l-1.944-1.128v2.477l1.787,1.035a7.65,7.65,0,0,0-.031.847v.063a8.219,8.219,0,0,0,.031.878l-1.787-1.035v2.477l1.944,1.128c.658,6.49,3.2,11.287,7.65,14.172Z" transform="translate(-21.13 -48.141)" fill="#ff74ba"/>
  <path id="路径_11667" data-name="路径 11667" d="M121.444,226.8H114.39c-13.638,0-26.461-4.17-36.087-11.757-8.873-6.96-20.63-10.817-33.171-10.817H39.019v-49.6H45.1c12.635,0,24.518,3.888,33.453,10.911,9.562,7.525,22.292,11.663,35.8,11.663h7.054v49.6ZM39.489,203.756H45.1c12.635,0,24.518,3.888,33.453,10.911,9.562,7.525,22.292,11.663,35.8,11.663h6.584V177.67h-6.584c-13.639,0-26.462-4.169-36.087-11.757C69.4,158.953,57.642,155.1,45.1,155.1H39.489Z" transform="translate(-10.164 -40.278)"/>
  <path id="路径_11668" data-name="路径 11668" d="M95.262,214.114a8.624,8.624,0,0,1-4.2-1.411c-4.891-2.822-7.744-7.776-8.465-14.673L80.651,196.9v-3.01l1.787,1.035v-1.254l-1.787-1.035v-3.01l1.975,1.128c.408-3.041,1.379-4.985,2.884-5.737,1.442-.721,3.386-.407,5.738.972,5.079,2.947,7.838,7.807,8.152,14.422l.031.345-4.169-1.442v-.157c-.095-4.64-1.474-7.681-4.233-9.281a2.728,2.728,0,0,0-2.508-.439c-.815.439-1.348,1.693-1.568,3.794l6.176,3.574-.6,2.665-5.675-3.292v1.285l5.424,3.136-.6,2.664-4.7-2.7c.439,4.107,1.85,6.8,4.327,8.246a2.582,2.582,0,0,0,2.54.407c.941-.5,1.473-2.1,1.6-4.7l.031-.47,4.233,3.637v.126c-.251,3.136-1.16,5.11-2.7,5.926A4.211,4.211,0,0,1,95.262,214.114ZM81.09,196.651l1.913,1.1v.125c.69,6.8,3.449,11.664,8.246,14.423,2.32,1.348,4.17,1.662,5.487,1,1.348-.721,2.163-2.539,2.415-5.424l-3.323-2.853c-.189,2.539-.784,4.044-1.819,4.609-.784.439-1.787.282-3.01-.408-2.728-1.568-4.233-4.515-4.609-9.061l-.031-.439,4.922,2.853.376-1.693-5.361-3.1v-2.352l5.832,3.355.376-1.693-6.145-3.542v-.157c.219-2.383.815-3.794,1.85-4.327a3.086,3.086,0,0,1,2.978.439c2.853,1.63,4.358,4.828,4.484,9.5l3.2,1.1c-.407-6.27-3.041-10.879-7.9-13.7-2.226-1.285-4.013-1.6-5.3-.941-1.442.722-2.32,2.665-2.665,5.738l-.031.345-1.881-1.1v1.913l1.787,1.035v1.943l.031.439-1.818-1.035Z" transform="translate(-21.009 -48.097)"/>
</svg>
