<svg id="组_3738" data-name="组 3738" xmlns="http://www.w3.org/2000/svg" xmlns:xlink="http://www.w3.org/1999/xlink" width="119.824" height="74.964" viewBox="0 0 119.824 74.964">
  <defs>
    <clipPath id="clip-path">
      <rect id="矩形_1060" data-name="矩形 1060" width="119.824" height="74.964" fill="none"/>
    </clipPath>
    <clipPath id="clip-path-3">
      <rect id="矩形_1058" data-name="矩形 1058" width="99.372" height="46.177" fill="none"/>
    </clipPath>
  </defs>
  <g id="组_3737" data-name="组 3737" clip-path="url(#clip-path)">
    <g id="组_3736" data-name="组 3736">
      <g id="组_3735" data-name="组 3735" clip-path="url(#clip-path)">
        <g id="组_3734" data-name="组 3734" transform="translate(0 28.614)" opacity="0.08">
          <g id="组_3733" data-name="组 3733">
            <g id="组_3732" data-name="组 3732" clip-path="url(#clip-path-3)">
              <path id="路径_12213" data-name="路径 12213" d="M113.805,81.715c-.531.122-1.066.236-1.607.348l.37-.129c.176-.064.346-.125.51-.188.24-.009.486-.016.727-.03" transform="translate(-33.034 -52.673)"/>
              <path id="路径_12214" data-name="路径 12214" d="M113.079,81.744c.24-.009.486-.016.727-.03-.531.123-1.066.237-1.607.349l.37-.13c.176-.064.346-.124.51-.188" transform="translate(-33.034 -52.673)"/>
              <path id="路径_12215" data-name="路径 12215" d="M96.179,53.251a21.9,21.9,0,0,0-9.417,6.426C83.2,64.147,91.841,73.61,103.63,73.364c-.164.064-.334.126-.51.189l-.37.129c.541-.111,1.077-.226,1.607-.348.174-.008.356-.02.531-.038-5.681,1.195-10.253,1.9-15.634.364L80.693,60.918l-.588-.876a24.76,24.76,0,0,1,16.074-6.791" transform="translate(-23.585 -44.292)"/>
              <path id="路径_12216" data-name="路径 12216" d="M98.617,52.576A21.9,21.9,0,0,0,89.2,59c-3.565,4.47,5.079,13.934,16.867,13.687.241-.009.486-.016.727-.03,15.465-3.555,25.883-12.134,12.338-18.8a24.935,24.935,0,0,0-20.517-1.279m12.847,10.668c-2.473,2.35-8.559-.123-9.424-1.794a.928.928,0,0,1-.054-.128c-.88-2.077,3.418-3.506,6.7-1.364,1.775.756,3.982,2.143,2.777,3.286" transform="translate(-26.024 -43.617)"/>
              <path id="路径_12217" data-name="路径 12217" d="M114.312,63.27c1.775.756,3.982,2.143,2.777,3.286-2.473,2.35-8.559-.123-9.424-1.794a.926.926,0,0,1-.054-.128c-.88-2.077,3.418-3.506,6.7-1.364" transform="translate(-31.649 -46.93)"/>
              <path id="路径_12218" data-name="路径 12218" d="M37.375,94.105c-.524.12-1.048.234-1.583.344.126-.044.251-.088.382-.129.17-.061.34-.122.5-.186.228,0,.468-.013.7-.028" transform="translate(-10.538 -56.321)"/>
              <path id="路径_12219" data-name="路径 12219" d="M37.375,94.105c-.524.12-1.048.234-1.583.344.126-.044.251-.088.382-.129.17-.061.34-.122.5-.186.228,0,.468-.013.7-.028" transform="translate(-10.538 -56.321)"/>
              <path id="路径_12220" data-name="路径 12220" d="M18.676,65.478A22.266,22.266,0,0,0,9.114,71.96C5.47,76.486,14.227,85.995,26.141,85.7c-.164.064-.334.125-.5.186-.131.041-.257.085-.382.129.535-.109,1.058-.224,1.583-.344.175-.008.337-.017.507-.033-6.935,1.455-12.239,2.18-19.365-.969C1.308,81.724-1.9,77.837,1.171,73.782l.183-.234c3.268-4.057,9.822-7.7,17.322-8.07" transform="translate(0 -47.892)"/>
              <path id="路径_12221" data-name="路径 12221" d="M37.891,75.565c1.793.759,4,2.154,2.793,3.3-2.5,2.36-8.621-.115-9.5-1.8-.018-.042-.042-.083-.06-.125-.889-2.1,3.467-3.521,6.769-1.381" transform="translate(-9.129 -50.55)"/>
              <path id="路径_12222" data-name="路径 12222" d="M37.754,64.085A25.5,25.5,0,0,0,22.13,64.8a22.27,22.27,0,0,0-9.562,6.482C8.924,75.811,17.681,85.32,29.6,85.029c.228,0,.468-.013.7-.028,7.183-1.645,13.3-4.37,16.464-7.488,3.7-3.638,3.381-7.809-3.967-11.423a24.923,24.923,0,0,0-5.035-2.006M35.01,75.537c-2.5,2.36-8.621-.114-9.5-1.8-.018-.042-.042-.083-.06-.125-.889-2.1,3.467-3.521,6.769-1.381,1.794.76,4,2.154,2.793,3.3" transform="translate(-3.455 -47.217)"/>
              <path id="路径_12223" data-name="路径 12223" d="M48,49.729l23.92,35.627,1.68,2.509L65.81,89.432,55.15,73.552c3.7-3.638,3.381-7.809-3.967-11.423a24.878,24.878,0,0,0-5.035-2.005l-5.9-8.8Z" transform="translate(-11.849 -43.255)"/>
              <path id="路径_12224" data-name="路径 12224" d="M61.027,40.554,71.6,56.3l.588.876,8.561,12.742L86.6,78.631l-9.766,6.532-1.68-2.509L51.233,47.027l3.68-2.433Z" transform="translate(-15.084 -40.554)"/>
              <path id="路径_12225" data-name="路径 12225" d="M57.791,40.554l-6.115,4.04L48,47.027l-7.755,1.6,9.794-6.474Z" transform="translate(-11.848 -40.554)"/>
            </g>
          </g>
        </g>
        <path id="路径_12226" data-name="路径 12226" d="M124.205,89.128c-.487-.12-.967-.254-1.446-.4l.4.021c.191.007.374.014.557.014.162.12.325.247.494.36" transform="translate(-36.143 -26.125)" fill="#ffcae9"/>
        <path id="路径_12227" data-name="路径 12227" d="M124.205,89.128c-.487-.12-.967-.254-1.446-.4l.4.021c.191.007.374.014.557.014C123.874,88.888,124.036,89.015,124.205,89.128Z" transform="translate(-36.143 -26.125)" fill="none" stroke="#000" stroke-linejoin="bevel" stroke-width="1"/>
        <path id="路径_12228" data-name="路径 12228" d="M123.712,88.768c.162.12.325.247.494.36-.487-.12-.967-.254-1.446-.4l.4.021c.191.007.374.014.557.014" transform="translate(-36.143 -26.125)" fill="#ffcae9"/>
        <path id="路径_12229" data-name="路径 12229" d="M123.712,88.768c.162.12.325.247.494.36-.487-.12-.967-.254-1.446-.4l.4.021C123.345,88.761,123.528,88.768,123.712,88.768Z" transform="translate(-36.143 -26.125)" fill="none" stroke="#000" stroke-linejoin="bevel" stroke-width="1"/>
        <path id="路径_12230" data-name="路径 12230" d="M140.821,41.5c-4.424-.113-9.511,1.432-13.992,3.93-7.86,4.389-14.344,22.649-6.639,28.83-.183,0-.367-.007-.557-.014l-.4-.021c.48.141.96.275,1.446.4a3.474,3.474,0,0,0,.381.24c-5.066-1.446-8.82-2.978-10.266-8.142L121.46,43.835l.734-1.573c6.618-3.1,14.041-4.022,18.627-.762" transform="translate(-32.622 -11.617)" fill="#ff006e"/>
        <path id="路径_12231" data-name="路径 12231" d="M140.821,41.5c-4.424-.113-9.511,1.432-13.992,3.93-7.86,4.389-14.344,22.649-6.639,28.83-.183,0-.367-.007-.557-.014l-.4-.021c.48.141.96.275,1.446.4a3.474,3.474,0,0,0,.381.24c-5.066-1.446-8.82-2.978-10.266-8.142L121.46,43.835l.734-1.573C128.812,39.164,136.235,38.24,140.821,41.5Z" transform="translate(-32.622 -11.617)" fill="none" stroke="#000" stroke-linejoin="bevel" stroke-width="1"/>
        <path id="路径_12232" data-name="路径 12232" d="M143.3,42.351c-4.424-.113-9.511,1.432-13.992,3.93-7.86,4.389-14.344,22.649-6.639,28.83.162.12.325.247.494.36,14.175,3.507,31.5-2.935,31.4-19.932.275-9.356-4.791-13.032-11.261-13.187m-5.362,22.3c-4.509,1.976-5.214-4.918-3.655-7.775.042-.071.078-.141.127-.212,2.06-3.443,6.555-3.1,5.92,1.771.162,2.06-.2,5.257-2.392,6.216" transform="translate(-35.098 -12.467)" fill="#ffcae9"/>
        <path id="路径_12233" data-name="路径 12233" d="M143.3,42.351c-4.424-.113-9.511,1.432-13.992,3.93-7.86,4.389-14.344,22.649-6.639,28.83.162.12.325.247.494.36,14.175,3.507,31.5-2.935,31.4-19.932C154.833,46.182,149.767,42.506,143.3,42.351Zm-5.362,22.3c-4.509,1.976-5.214-4.918-3.655-7.775.042-.071.078-.141.127-.212,2.06-3.443,6.555-3.1,5.92,1.771C140.489,60.5,140.129,63.694,137.935,64.654Z" transform="translate(-35.098 -12.467)" fill="none" stroke="#000" stroke-linejoin="bevel" stroke-width="1"/>
        <path id="路径_12234" data-name="路径 12234" d="M146.3,63.462c.162,2.06-.2,5.257-2.392,6.216-4.509,1.976-5.214-4.918-3.655-7.775.042-.071.078-.141.127-.212,2.06-3.443,6.555-3.1,5.92,1.771" transform="translate(-41.074 -17.491)" fill="#ff006e"/>
        <path id="路径_12235" data-name="路径 12235" d="M146.3,63.462c.162,2.06-.2,5.257-2.392,6.216-4.509,1.976-5.214-4.918-3.655-7.775.042-.071.078-.141.127-.212C142.443,58.248,146.937,58.593,146.3,63.462Z" transform="translate(-41.074 -17.491)" fill="none" stroke="#000" stroke-linejoin="bevel" stroke-width="1"/>
        <path id="路径_12236" data-name="路径 12236" d="M60.674,64.421c-.48-.12-.953-.247-1.425-.388.134.007.268.014.4.028.183.007.367.014.55.014a5.8,5.8,0,0,0,.473.346" transform="translate(-17.444 -18.853)" fill="#ff006e"/>
        <path id="路径_12237" data-name="路径 12237" d="M60.674,64.421c-.48-.12-.953-.247-1.425-.388.134.007.268.014.4.028.183.007.367.014.55.014A5.8,5.8,0,0,0,60.674,64.421Z" transform="translate(-17.444 -18.853)" fill="none" stroke="#000" stroke-linejoin="bevel" stroke-width="1"/>
        <path id="路径_12238" data-name="路径 12238" d="M60.674,64.421c-.48-.12-.953-.247-1.425-.388.134.007.268.014.4.028.183.007.367.014.55.014a5.8,5.8,0,0,0,.473.346" transform="translate(-17.444 -18.853)" fill="#ff006e"/>
        <path id="路径_12239" data-name="路径 12239" d="M60.674,64.421c-.48-.12-.953-.247-1.425-.388.134.007.268.014.4.028.183.007.367.014.55.014A5.8,5.8,0,0,0,60.674,64.421Z" transform="translate(-17.444 -18.853)" fill="none" stroke="#000" stroke-linejoin="bevel" stroke-width="1"/>
        <path id="路径_12240" data-name="路径 12240" d="M77.13,16.569c-4.48-.127-9.624,1.418-14.154,3.93-7.98,4.424-14.45,22.811-6.611,29-.183,0-.367-.007-.55-.014-.134-.014-.268-.021-.4-.028.473.141.945.268,1.425.388a3.907,3.907,0,0,0,.36.233C51.017,48.305,46.776,46.4,46.268,37.969c-.473-7.9,2.406-15.205,9.434-19.276l.409-.233c7.155-3.965,15.854-5.525,21.019-1.891" transform="translate(-13.608 -4.276)" fill="#ff006e"/>
        <path id="路径_12241" data-name="路径 12241" d="M77.13,16.569c-4.48-.127-9.624,1.418-14.154,3.93-7.98,4.424-14.45,22.811-6.611,29-.183,0-.367-.007-.55-.014-.134-.014-.268-.021-.4-.028.473.141.945.268,1.425.388a3.907,3.907,0,0,0,.36.233C51.017,48.305,46.776,46.4,46.268,37.969c-.473-7.9,2.406-15.205,9.434-19.276l.409-.233C63.266,14.494,71.965,12.935,77.13,16.569Z" transform="translate(-13.608 -4.276)" fill="none" stroke="#000" stroke-linejoin="bevel" stroke-width="1"/>
        <path id="路径_12242" data-name="路径 12242" d="M82.889,38.631c.169,2.074-.2,5.285-2.406,6.251-4.537,1.976-5.264-4.939-3.7-7.825.042-.071.078-.141.12-.212,2.081-3.478,6.6-3.09,5.983,1.785" transform="translate(-22.387 -10.173)" fill="#ff006e"/>
        <path id="路径_12243" data-name="路径 12243" d="M82.889,38.631c.169,2.074-.2,5.285-2.406,6.251-4.537,1.976-5.264-4.939-3.7-7.825.042-.071.078-.141.12-.212C78.987,33.368,83.51,33.756,82.889,38.631Z" transform="translate(-22.387 -10.173)" fill="none" stroke="#000" stroke-linejoin="bevel" stroke-width="1"/>
        <path id="路径_12244" data-name="路径 12244" d="M90.587,25.054c-1.538-5.278-5.708-7.493-10.7-7.634-4.48-.127-9.624,1.418-14.154,3.93-7.98,4.424-14.45,22.811-6.611,29a5.8,5.8,0,0,0,.473.346A30.784,30.784,0,0,0,79.34,49.157c6.9-3.126,11.945-9.243,11.882-18.458a18,18,0,0,0-.635-5.645M74.457,39.836c-4.537,1.976-5.264-4.939-3.7-7.825.042-.071.078-.141.12-.212,2.081-3.478,6.6-3.09,5.983,1.785.169,2.074-.2,5.285-2.406,6.251" transform="translate(-16.361 -5.127)" fill="#ffcae9"/>
        <path id="路径_12245" data-name="路径 12245" d="M90.587,25.054c-1.538-5.278-5.708-7.493-10.7-7.634-4.48-.127-9.624,1.418-14.154,3.93-7.98,4.424-14.45,22.811-6.611,29a5.8,5.8,0,0,0,.473.346A30.784,30.784,0,0,0,79.34,49.157c6.9-3.126,11.945-9.243,11.882-18.458A18,18,0,0,0,90.587,25.054ZM74.457,39.836c-4.537,1.976-5.264-4.939-3.7-7.825.042-.071.078-.141.12-.212,2.081-3.478,6.6-3.09,5.983,1.785C77.033,35.659,76.666,38.869,74.457,39.836Z" transform="translate(-16.361 -5.127)" fill="none" stroke="#000" stroke-linejoin="bevel" stroke-width="1"/>
        <path id="路径_12246" data-name="路径 12246" d="M109.2,7.878,79.38,71.845l-2.1,4.5-6.858-2.081L83.712,45.753c6.9-3.126,11.945-9.243,11.882-18.458a18,18,0,0,0-.635-5.645l7.366-15.8Z" transform="translate(-20.733 -1.723)" fill="#ff006e"/>
        <path id="路径_12247" data-name="路径 12247" d="M109.2,7.878,79.38,71.845l-2.1,4.5-6.858-2.081L83.712,45.753c6.9-3.126,11.945-9.243,11.882-18.458a18,18,0,0,0-.635-5.645l7.366-15.8Z" transform="translate(-20.733 -1.723)" fill="none" stroke="#000" stroke-linejoin="bevel" stroke-width="1"/>
        <path id="路径_12248" data-name="路径 12248" d="M126.347,3.353l-13.18,28.279-.734,1.573L101.772,56.088,94.484,71.724,80.139,75.611l2.1-4.5L112.06,7.142l5.369-1.425Z" transform="translate(-23.595 -0.987)" fill="#ffcae9"/>
        <path id="路径_12249" data-name="路径 12249" d="M126.347,3.353l-13.18,28.279-.734,1.573L101.772,56.088,94.484,71.724,80.139,75.611l2.1-4.5L112.06,7.142l5.369-1.425Z" transform="translate(-23.595 -0.987)" fill="none" stroke="#000" stroke-linejoin="bevel" stroke-width="1"/>
        <path id="路径_12250" data-name="路径 12250" d="M136.8,2.508l-8.918,2.364L122.512,6.3l-6.872-2.025L129.927.483Z" transform="translate(-34.047 -0.142)" fill="#ff006e"/>
        <path id="路径_12251" data-name="路径 12251" d="M136.8,2.508l-8.918,2.364L122.512,6.3l-6.872-2.025L129.927.483Z" transform="translate(-34.047 -0.142)" fill="none" stroke="#000" stroke-linejoin="bevel" stroke-width="1"/>
      </g>
    </g>
  </g>
</svg>
