<svg xmlns="http://www.w3.org/2000/svg" xmlns:xlink="http://www.w3.org/1999/xlink" width="286" height="250" viewBox="0 0 286 250">
  <defs>
    <clipPath id="clip-path">
      <rect id="矩形_1044" data-name="矩形 1044" width="286" height="250" transform="translate(-41 219)" fill="#fff" stroke="#707070" stroke-width="1"/>
    </clipPath>
  </defs>
  <g id="蒙版组_15" data-name="蒙版组 15" transform="translate(41 -219)" clip-path="url(#clip-path)">
    <g id="_10" data-name="10" transform="translate(-41.896 218.55)">
      <path id="路径_11628" data-name="路径 11628" d="M42.267,336.517a45.105,45.105,0,0,0-19.91,0L0,330.511l153.57-41.192-21.615,58.432-67.33.111-22.357-6.006C47.791,340.41,47.791,338,42.267,336.517Z" transform="translate(0 -97.598)" fill="rgba(0,0,0,0.08)"/>
      <path id="路径_11629" data-name="路径 11629" d="M320.354,305.126V302.6L255.249,285.29l-153.57,41.229-.223.037-.074,2.484,22.431,6.006s6.6-1.594,11.123-1.113c0,0,6.562.111,9.121,1.186,2.558,1.038,3.189,1.372,3.189,1.372s-2.893,1.26-3.263,1.372c-.371.074-.186.3-.186.3v2.15l22.431,6.081Z" transform="translate(-34.2 -96.239)" fill="#ff8d19"/>
      <path id="路径_11630" data-name="路径 11630" d="M187.838,370.578l-.111,2.559-22.394-6.081v-2.187l.186-.3Z" transform="translate(-55.773 -122.983)" fill="#f50"/>
      <path id="路径_11631" data-name="路径 11631" d="M158.7,359.976s2.187-1.557-.26-2.893-7.045-1.854-7.045-1.854-6.488-.445-9.009-.3c-2.559.185-6.859,1-6.859,1l-.074,2.521s6.6-1.52,10.122-1.038a48.3,48.3,0,0,1,6.266.408,30.85,30.85,0,0,1,3.893.816c.963.408,2.558,1.076,2.558,1.076Z" transform="translate(-45.694 -119.721)" fill="#f50"/>
      <path id="路径_11632" data-name="路径 11632" d="M123.757,353.365V356l-22.431-6.006v-2.484Z" transform="translate(-34.181 -117.227)" fill="#f50"/>
      <path id="路径_11633" data-name="路径 11633" d="M143.722,340.782v-2.15l3.448-1.668s-2.521-1.891-7.823-2.224-10.011-.26-10.011-.26l-5.635,1-22.431-6.007V326.99l15.386-4-6.637-1.816,131.807-34.592,63.585,16.87L154.549,343.86Z" transform="translate(-34.162 -96.673)" fill="#f50"/>
      <path id="路径_11634" data-name="路径 11634" d="M320.354,288.975v-2.521l-65.105-17.278-153.57,41.191-.223.037-.074,2.484,22.431,6.006s6.6-1.594,11.123-1.112c0,0,6.562.111,9.121,1.186,2.558,1.038,3.189,1.372,3.189,1.372s-2.893,1.26-3.263,1.372c-.371.074-.186.3-.186.3v2.15l22.431,6.081Z" transform="translate(-34.2 -90.803)" fill="#ff8d19"/>
      <path id="路径_11635" data-name="路径 11635" d="M143.722,324.669v-2.15l3.448-1.669s-2.521-1.891-7.823-2.224-10.011-.26-10.011-.26l-5.635,1-22.431-6.006v-2.484l15.386-4-6.637-1.817,131.807-34.592,63.585,16.87L154.549,327.747Z" transform="translate(-34.162 -91.237)" fill="#f50"/>
      <path id="路径_11636" data-name="路径 11636" d="M187.838,354.427l-.111,2.559-22.394-6.081v-2.15l.186-.3Z" transform="translate(-55.773 -117.547)" fill="#f50"/>
      <path id="路径_11637" data-name="路径 11637" d="M158.7,343.806s2.187-1.557-.26-2.892-7.045-1.854-7.045-1.854-6.488-.445-9.009-.3c-2.559.185-6.859,1-6.859,1l-.074,2.521s6.6-1.52,10.122-1.038a48.2,48.2,0,0,1,6.266.408,30.809,30.809,0,0,1,3.893.815c.963.408,2.558,1.076,2.558,1.076Z" transform="translate(-45.694 -114.267)" fill="#f50"/>
      <path id="路径_11638" data-name="路径 11638" d="M123.757,337.214v2.633l-22.431-6.006v-2.447Z" transform="translate(-34.181 -111.791)" fill="#f50"/>
      <path id="路径_11639" data-name="路径 11639" d="M320.354,272.9v-2.522l-65.105-17.315-153.57,41.229-.223.037-.074,2.484,22.431,6.006s6.6-1.594,11.123-1.112c0,0,6.562.111,9.121,1.186,2.558,1.038,3.189,1.372,3.189,1.372s-2.893,1.26-3.263,1.372c-.371.074-.186.3-.186.3v2.15l22.431,6.081Z" transform="translate(-34.2 -85.367)" fill="#ff8d19"/>
      <path id="路径_11640" data-name="路径 11640" d="M143.722,308.555V306.4l3.448-1.668s-2.521-1.891-7.823-2.225-10.011-.26-10.011-.26l-5.635,1-22.431-6.006v-2.484l15.386-4-6.637-1.816L241.826,254.35l63.585,16.869L154.549,311.633Z" transform="translate(-34.162 -85.801)" fill="#f50"/>
      <path id="路径_11641" data-name="路径 11641" d="M187.838,338.369l-.111,2.559-22.394-6.081V332.66l.186-.26Z" transform="translate(-55.773 -112.13)" fill="#f50"/>
      <path id="路径_11642" data-name="路径 11642" d="M158.7,327.748s2.187-1.557-.26-2.892S151.4,323,151.4,323s-6.488-.445-9.009-.3a66.5,66.5,0,0,0-6.859,1l-.074,2.521s6.6-1.52,10.122-1.038a48.188,48.188,0,0,1,6.266.407,30.732,30.732,0,0,1,3.893.816c.963.407,2.558,1.075,2.558,1.075Z" transform="translate(-45.694 -108.85)" fill="#f50"/>
      <path id="路径_11643" data-name="路径 11643" d="M123.757,321.157v2.632l-22.431-6.006v-2.447Z" transform="translate(-34.181 -106.374)" fill="#f50"/>
      <path id="路径_11644" data-name="路径 11644" d="M320.354,256.9v-2.521l-65.105-17.315-153.57,41.192-.223.037-.074,2.484,22.431,6.006s6.6-1.594,11.123-1.113c0,0,6.562.111,9.121,1.187,2.558,1.038,3.189,1.372,3.189,1.372s-2.893,1.26-3.263,1.372c-.371.074-.186.3-.186.3v2.15l22.431,6.081Z" transform="translate(-34.2 -79.969)" fill="#ff8d19"/>
      <path id="路径_11645" data-name="路径 11645" d="M187.838,322.349l-.111,2.521-22.394-6.081v-2.15l.186-.3Z" transform="translate(-55.773 -106.714)" fill="#f50"/>
      <path id="路径_11646" data-name="路径 11646" d="M143.722,292.516v-2.15l3.448-1.669s-2.521-1.891-7.823-2.225-10.011-.259-10.011-.259l-5.635,1-22.431-6.006v-2.447l15.386-4-6.637-1.817L241.9,238.348l63.586,16.869L154.549,295.594Z" transform="translate(-34.162 -80.403)" fill="#f50"/>
      <path id="路径_11647" data-name="路径 11647" d="M158.7,311.7s2.187-1.557-.26-2.893-7.045-1.853-7.045-1.853-6.488-.445-9.009-.26a66.475,66.475,0,0,0-6.859,1l-.074,2.521s6.6-1.52,10.122-1.038a48.289,48.289,0,0,1,6.266.408,30.847,30.847,0,0,1,3.893.816c.963.371,2.558,1.075,2.558,1.075Z" transform="translate(-45.694 -103.444)" fill="#f50"/>
      <path id="路径_11648" data-name="路径 11648" d="M123.72,305.136l.037,2.633-22.431-6.044v-2.447Z" transform="translate(-34.181 -100.957)" fill="#f50"/>
      <path id="路径_11649" data-name="路径 11649" d="M320.354,240.784v-2.521l-65.105-17.315-153.57,41.229-.223.037-.074,2.484,22.431,6.006s6.6-1.594,11.123-1.112c0,0,6.562.111,9.121,1.186,2.558,1.038,3.189,1.372,3.189,1.372s-2.893,1.261-3.263,1.372c-.371.074-.186.3-.186.3v2.15l22.431,6.081Z" transform="translate(-34.2 -74.534)" fill="#ff8d19"/>
      <path id="路径_11650" data-name="路径 11650" d="M187.838,306.254l-.074,2.558-22.431-6.081v-2.187l.186-.26Z" transform="translate(-55.773 -101.297)" fill="#f50"/>
      <path id="路径_11651" data-name="路径 11651" d="M158.7,295.633s2.187-1.557-.26-2.892-7.045-1.854-7.045-1.854-6.488-.445-9.009-.3c-2.559.185-6.859,1-6.859,1l-.074,2.521s6.6-1.52,10.122-1.038a48.2,48.2,0,0,1,6.266.408,30.716,30.716,0,0,1,3.893.816c.963.407,2.558,1.075,2.558,1.075Z" transform="translate(-45.694 -98.016)" fill="#f50"/>
      <path id="路径_11652" data-name="路径 11652" d="M123.757,289.023v2.632l-22.431-6.006v-2.484Z" transform="translate(-34.181 -95.521)" fill="#f50"/>
      <path id="路径_11653" data-name="路径 11653" d="M143.722,276.44v-2.15l3.448-1.669s-2.521-1.891-7.823-2.225-10.011-.259-10.011-.259l-5.635,1-22.431-6.006v-2.484l15.386-4-6.637-1.817,131.807-34.592L305.412,239.1,154.549,279.518Z" transform="translate(-34.162 -74.968)" fill="#f50"/>
      <path id="路径_11654" data-name="路径 11654" d="M320.354,224.614v-2.521l-65.068-17.315L101.679,246.007l-.223.037-.074,2.484,22.431,6.006s6.6-1.594,11.123-1.112c0,0,6.562.111,9.121,1.186,2.558,1.038,3.189,1.372,3.189,1.372s-2.893,1.261-3.263,1.372c-.371.074-.186.3-.186.3v2.15l22.431,6.081Z" transform="translate(-34.2 -69.079)" fill="#ff8d19"/>
      <path id="路径_11655" data-name="路径 11655" d="M187.838,290.084l-.074,2.558-22.431-6.081v-2.187l.186-.26Z" transform="translate(-55.773 -95.842)" fill="#f50"/>
      <path id="路径_11656" data-name="路径 11656" d="M158.7,279.474s2.187-1.557-.26-2.892-7.045-1.853-7.045-1.853-6.488-.445-9.009-.26a66.493,66.493,0,0,0-6.859,1l-.074,2.521s6.6-1.52,10.122-1.038a48.289,48.289,0,0,1,6.266.408,30.839,30.839,0,0,1,3.893.816c.963.408,2.558,1.076,2.558,1.076Z" transform="translate(-45.694 -92.573)" fill="#f50"/>
      <path id="路径_11657" data-name="路径 11657" d="M123.757,272.853v2.632l-22.431-6.006v-2.484Z" transform="translate(-34.181 -90.067)" fill="#f50"/>
      <path id="路径_11658" data-name="路径 11658" d="M143.722,260.215v-2.15l3.448-1.669s-2.521-1.891-7.823-2.225-10.011-.26-10.011-.26l-5.635,1-22.431-6.006v-2.484l15.386-4L110.02,240.6l131.807-34.592,63.585,16.87L154.549,263.292Z" transform="translate(-34.162 -69.494)" fill="#f50"/>
      <path id="路径_11659" data-name="路径 11659" d="M320.354,208.5v-2.521l-65.105-17.315-153.57,41.192-.223.037-.074,2.484,22.431,6.006s6.6-1.594,11.123-1.113c0,0,6.562.111,9.121,1.187,2.558,1.038,3.189,1.372,3.189,1.372s-2.893,1.26-3.263,1.372c-.371.074-.186.3-.186.3v2.15l22.431,6.081Z" transform="translate(-34.2 -63.643)" fill="#ff8d19"/>
      <path id="路径_11660" data-name="路径 11660" d="M187.838,273.952l-.074,2.558-22.431-6.118v-2.15l.186-.3Z" transform="translate(-55.773 -90.388)" fill="#f50"/>
      <path id="路径_11661" data-name="路径 11661" d="M158.7,263.294s2.187-1.557-.26-2.892-7.045-1.854-7.045-1.854-6.488-.445-9.009-.3a66.351,66.351,0,0,0-6.859,1l-.074,2.521s6.6-1.52,10.122-1.038a48.212,48.212,0,0,1,6.266.408,30.729,30.729,0,0,1,3.893.816c.963.408,2.558,1.075,2.558,1.075Z" transform="translate(-45.694 -87.107)" fill="#f50"/>
      <path id="路径_11662" data-name="路径 11662" d="M123.757,256.739v2.632l-22.431-6.006v-2.484Z" transform="translate(-34.181 -84.631)" fill="#f50"/>
      <path id="路径_11663" data-name="路径 11663" d="M284.379,2.023V93.638L255.015,101.5l-15.906,22.8-4.894-1.668-13.236-11.9-27.289,7.23-4.745-1.743.074-91.467L279.3.391Z" transform="translate(-63.738 -0.132)" fill="#ff74ba"/>
      <path id="路径_11664" data-name="路径 11664" d="M193.913,38.819l-4.894-1.668-.074,91.467,4.745,1.742Z" transform="translate(-63.738 -12.532)" fill="#ff006e"/>
      <path id="路径_11665" data-name="路径 11665" d="M254.9,179.812l-.445-.779L239.473,165.5l-2.187.926,13.236,11.9Z" transform="translate(-80.045 -55.829)" fill="#ff006e"/>
      <path id="路径_11666" data-name="路径 11666" d="M284.416,2.023,279.337.391,189.056,24.751l4.894,1.668Z" transform="translate(-63.775 -0.132)" fill="#ff80df"/>
      <path id="路径_11667" data-name="路径 11667" d="M232.7,78.131l7.415-2.373,3.077,1.112.594-2.781.3-1.668,5.339-6.933,5.932-7.452,1.3-.519.89.185,3.559,1.186,1.557.927.593,1v.927L262.1,68.677l.593-.371,7.341-1.928,4.338,1.372,1.557.742.7.89.223,1.186-.037,4.746-.259.927-6.563,15.572-.63.927-.779,1-1.112.779-.742.3-15.313,4-1.149-.037-1.52-.556-3.189-1-1.075-.408-.037,3.559-7.342,1.78-.519.186-4.227-1.3Z" transform="translate(-78.384 -19.402)" fill="#fff"/>
      <path id="路径_11668" data-name="路径 11668" d="M232.7,88.625l4.486,1.446-.074,22.579-4.745-1.112Z" transform="translate(-78.384 -29.896)" fill="#e6e6e6"/>
      <path id="路径_11669" data-name="路径 11669" d="M249.292,82.527l4.486,1.186-.593,1.706v17.352l.223,2.373,1.372,1.705-3.708-1.186-1.113-.816L250,85.827l-1.3-.519.148-1.928Z" transform="translate(-83.895 -27.839)" fill="#e6e6e6"/>
      <path id="路径_11670" data-name="路径 11670" d="M278.584,73.518l4.042,1.186-5.9,1.928.334-2.558Z" transform="translate(-93.351 -24.8)" fill="#e6e6e6"/>
      <path id="路径_11671" data-name="路径 11671" d="M241.449,125.462l-16.017-14.386-29.549,7.935V26.8l91.059-24.4V94.577l-29.476,7.9ZM225.58,110.446l15.758,14.163,15.758-22.617,29.253-7.823V3.148L196.4,27.247V118.27Z" transform="translate(-66.078 -0.812)"/>
      <path id="路径_11672" data-name="路径 11672" d="M193.372,118.162l-4.931-1.817V24.322L279.2,0l5.228,1.594-.148.519L279.2.593,189,24.767v91.207l4.56,1.669Z" transform="translate(-63.568)"/>
      <path id="路径_11673" data-name="路径 11673" d="M255.321,180.876l-5.154-1.853-13.273-11.939.37-.408,13.2,11.864,5.042,1.817Z" transform="translate(-79.913 -56.226)"/>
      <path id="路径_11674" data-name="路径 11674" d="M188.985,36.813l-.162.532,4.931,1.5.162-.532Z" transform="translate(-63.697 -12.418)"/>
      <path id="路径_11675" data-name="路径 11675" d="M239.132,112.679V89.173l7.934-2.113v23.507Zm.556-23.1v22.357l6.822-1.817V87.764Z" transform="translate(-80.668 -29.368)"/>
      <path id="路径_11676" data-name="路径 11676" d="M258.562,99.716a3.481,3.481,0,0,1-2.15-.7,3.9,3.9,0,0,1-1.446-3.189V79.287A12.148,12.148,0,0,1,257.6,72.02l9.232-11.864a2.368,2.368,0,0,1,1.594-.964,1.522,1.522,0,0,1,1.149.334l.779.63a2.293,2.293,0,0,1,.7,2.262l-1.52,8.972,11.346-3.04a3.037,3.037,0,0,1,2.669.445,3.185,3.185,0,0,1,1.15,2.6V75.1a5.919,5.919,0,0,1-.445,2.187l-6.415,15.239a5.286,5.286,0,0,1-3.374,3.115L259.675,99.6C259.3,99.642,258.933,99.716,258.562,99.716Zm10.121-40.005h-.148a1.888,1.888,0,0,0-1.224.742l-9.232,11.864a11.548,11.548,0,0,0-2.521,6.933V95.786a3.327,3.327,0,0,0,1.223,2.744,3.136,3.136,0,0,0,2.781.445l14.793-3.967a4.826,4.826,0,0,0,3-2.781l6.414-15.238a5.325,5.325,0,0,0,.408-1.965V71.316a2.664,2.664,0,0,0-.927-2.15,2.481,2.481,0,0,0-2.187-.334l-12.161,3.263,1.631-9.825a1.865,1.865,0,0,0-.519-1.743l-.779-.63A.835.835,0,0,0,268.684,59.711Z" transform="translate(-86.009 -19.965)"/>
      <path id="路径_11677" data-name="路径 11677" d="M232.862,110.33H232.3V87.195l7.861-2.15,4.6,1.261-.148.556-4.449-1.223-7.3,1.965Z" transform="translate(-78.365 -28.688)"/>
      <path id="路径_11678" data-name="路径 11678" d="M277.158,73.251l-.148-.519,6.9-1.854a3.341,3.341,0,0,1,1.706-.037l-.148.519a2.751,2.751,0,0,0-1.446.037Z" transform="translate(-93.445 -23.865)"/>
      <path id="路径_11679" data-name="路径 11679" d="M248.864,76.846h-.556a10.957,10.957,0,0,1,2.632-6.9l9.232-11.864a2.367,2.367,0,0,1,1.594-.964,1.523,1.523,0,0,1,1.149.334l-.334.445a.976.976,0,0,0-.742-.185,1.888,1.888,0,0,0-1.223.742l-9.232,11.864A10.279,10.279,0,0,0,248.864,76.846Z" transform="translate(-83.763 -19.267)"/>
      <path id="路径_11680" data-name="路径 11680" d="M166.074,270.317,166,270.28l-23.358-6.266,1-.26c2.447-.667,3.93-1.557,3.93-2.41s-1.483-1.743-3.93-2.41a45.556,45.556,0,0,0-19.761,0l-.074.037-.074-.037-23.358-6.265,16.091-4.3.148.519-14.089,3.782,21.282,5.71a45.436,45.436,0,0,1,19.984.037c2.818.779,4.338,1.78,4.338,2.929,0,1.038-1.149,1.928-3.374,2.67l21.319,5.71,152.532-40.932-14.386-3.856.148-.519,16.388,4.412Z" transform="translate(-33.86 -75.704)"/>
      <path id="路径_11681" data-name="路径 11681" d="M234.971,270.855l-.146.537,2.147.581.146-.537Z" transform="translate(-79.215 -91.369)"/>
      <path id="路径_11682" data-name="路径 11682" d="M243.749,273.216l-.145.537,3.65.989.146-.537Z" transform="translate(-82.176 -92.166)"/>
      <path id="路径_11683" data-name="路径 11683" d="M254.788,276.2l-.146.537,2.147.582.146-.537Z" transform="translate(-85.9 -93.173)"/>
      <path id="路径_11684" data-name="路径 11684" d="M146.946,277.247a19.591,19.591,0,0,0-3.411-1.446,44.771,44.771,0,0,0-19.836,0l-.074.037-.074-.037-22.617-6.081v-2.669h.557v2.262l22.134,5.932a45.77,45.77,0,0,1,20.058.037,18.529,18.529,0,0,1,3.522,1.483Z" transform="translate(-34.049 -90.086)"/>
      <path id="路径_11685" data-name="路径 11685" d="M187.576,275.047l-.037-.037-22.654-6.081v-2.67h.557v2.262l22.134,5.932,153.94-41.34v-2.15h.557v2.558l-.223.074Z" transform="translate(-55.622 -77.912)"/>
      <path id="路径_11686" data-name="路径 11686" d="M257.984,277.514h-.556v2.447h.556Z" transform="translate(-86.84 -93.615)"/>
      <path id="路径_11687" data-name="路径 11687" d="M166.074,286.375l-.074-.037-23.358-6.266,1-.26c2.447-.667,3.93-1.557,3.93-2.409s-1.483-1.743-3.93-2.41a45.553,45.553,0,0,0-19.761,0l-.074.037-.074-.037-23.358-6.266,16.091-4.3.148.519-14.089,3.782,21.282,5.71a45.435,45.435,0,0,1,19.984.037c2.818.779,4.338,1.779,4.338,2.929,0,1.038-1.149,1.928-3.374,2.669l21.319,5.709,152.532-40.932-14.386-3.855.148-.52,16.388,4.412Z" transform="translate(-33.86 -81.12)"/>
      <path id="路径_11688" data-name="路径 11688" d="M235.022,286.959l-.146.537,2.147.582.146-.537Z" transform="translate(-79.232 -96.802)"/>
      <path id="路径_11689" data-name="路径 11689" d="M243.77,289.313l-.145.537,3.65.989.146-.537Z" transform="translate(-82.183 -97.596)"/>
      <path id="路径_11690" data-name="路径 11690" d="M254.8,292.324l-.146.537,2.147.582.146-.537Z" transform="translate(-85.905 -98.611)"/>
      <path id="路径_11691" data-name="路径 11691" d="M146.946,293.36a19.7,19.7,0,0,0-3.411-1.446,44.774,44.774,0,0,0-19.836,0l-.074.037-.074-.037-22.617-6.081v-2.669h.557v2.262l22.134,5.932a45.769,45.769,0,0,1,20.058.037,18.527,18.527,0,0,1,3.522,1.483Z" transform="translate(-34.049 -95.521)"/>
      <path id="路径_11692" data-name="路径 11692" d="M187.576,291.123h-.037l-22.654-6.081v-2.669h.557V284.6l22.134,5.969,153.94-41.377v-2.113h.557v2.559l-.223.037Z" transform="translate(-55.622 -83.348)"/>
      <path id="路径_11693" data-name="路径 11693" d="M257.984,293.627h-.556v2.447h.556Z" transform="translate(-86.84 -99.051)"/>
      <path id="路径_11694" data-name="路径 11694" d="M166.074,302.489l-.074-.037-23.358-6.266,1-.259c2.447-.668,3.93-1.557,3.93-2.41s-1.483-1.743-3.93-2.41a45.554,45.554,0,0,0-19.761,0l-.074.037-.074-.037-23.358-6.266,16.091-4.3.148.519-14.089,3.782,21.282,5.71a45.437,45.437,0,0,1,19.984.037c2.818.779,4.338,1.779,4.338,2.929,0,1.038-1.149,1.928-3.374,2.669l21.319,5.71,152.532-40.933-14.386-3.855.148-.52L320.757,261Z" transform="translate(-33.86 -86.556)"/>
      <path id="路径_11695" data-name="路径 11695" d="M234.989,303.043l-.146.537,2.147.582.146-.537Z" transform="translate(-79.221 -102.227)"/>
      <path id="路径_11696" data-name="路径 11696" d="M243.738,305.4l-.146.537,3.65.989.146-.537Z" transform="translate(-82.172 -103.021)"/>
      <path id="路径_11697" data-name="路径 11697" d="M254.771,308.408l-.146.537,2.147.581.146-.537Z" transform="translate(-85.894 -104.037)"/>
      <path id="路径_11698" data-name="路径 11698" d="M146.946,309.418a19.589,19.589,0,0,0-3.411-1.446,44.77,44.77,0,0,0-19.836,0l-.074.037-.074-.037-22.617-6.081v-2.67h.557v2.262l22.134,5.932a45.768,45.768,0,0,1,20.058.037,18.617,18.617,0,0,1,3.522,1.483Z" transform="translate(-34.049 -100.938)"/>
      <path id="路径_11699" data-name="路径 11699" d="M187.576,307.218l-.037-.037-22.654-6.043v-2.707h.557v2.262l22.134,5.932,153.94-41.34v-2.15h.557v2.558l-.223.074Z" transform="translate(-55.622 -88.765)"/>
      <path id="路径_11700" data-name="路径 11700" d="M257.984,309.684h-.556v2.447h.556Z" transform="translate(-86.84 -104.467)"/>
      <path id="路径_11701" data-name="路径 11701" d="M166.074,318.546l-.074-.037-23.358-6.266,1-.259c2.447-.667,3.93-1.557,3.93-2.41s-1.483-1.743-3.93-2.41a45.555,45.555,0,0,0-19.761,0l-.074.037-.074-.037L100.375,300.9l16.091-4.3.148.52L102.525,300.9l21.282,5.71a45.436,45.436,0,0,1,19.984.037c2.818.779,4.338,1.779,4.338,2.929,0,1.038-1.149,1.928-3.374,2.669l21.319,5.71,152.532-40.932-14.386-3.856.148-.52,16.388,4.412Z" transform="translate(-33.86 -91.973)"/>
      <path id="路径_11702" data-name="路径 11702" d="M235.009,319.141l-.145.537,2.147.582.145-.537Z" transform="translate(-79.228 -107.658)"/>
      <path id="路径_11703" data-name="路径 11703" d="M243.757,321.492l-.145.537,3.65.989.145-.537Z" transform="translate(-82.179 -108.451)"/>
      <path id="路径_11704" data-name="路径 11704" d="M254.8,324.48l-.146.537,2.147.582.146-.537Z" transform="translate(-85.903 -109.459)"/>
      <path id="路径_11705" data-name="路径 11705" d="M146.946,325.531a19.7,19.7,0,0,0-3.411-1.446,44.771,44.771,0,0,0-19.836,0l-.074.037-.074-.037L100.934,318v-2.67h.557V317.6l22.134,5.932a45.768,45.768,0,0,1,20.058.037,18.62,18.62,0,0,1,3.522,1.483Z" transform="translate(-34.049 -106.374)"/>
      <path id="路径_11706" data-name="路径 11706" d="M187.576,323.294h-.037l-22.654-6.081v-2.669h.557v2.262l22.134,5.932,153.94-41.377v-2.113h.557v2.559l-.223.037Z" transform="translate(-55.622 -94.2)"/>
      <path id="路径_11707" data-name="路径 11707" d="M257.984,325.8h-.556v2.447h.556Z" transform="translate(-86.84 -109.903)"/>
      <path id="路径_11708" data-name="路径 11708" d="M166.074,334.679l-.074-.037-23.358-6.266,1-.259c2.447-.667,3.93-1.557,3.93-2.41s-1.483-1.743-3.93-2.41a45.555,45.555,0,0,0-19.761,0l-.074.037-.074-.037-23.358-6.265,16.091-4.3.148.519-14.089,3.782,21.282,5.71a45.434,45.434,0,0,1,19.984.037c2.818.779,4.338,1.779,4.338,2.929,0,1.038-1.149,1.928-3.374,2.669l21.319,5.71,152.532-40.895-14.386-3.856.148-.52,16.388,4.412Z" transform="translate(-33.86 -97.428)"/>
      <path id="路径_11709" data-name="路径 11709" d="M235.03,335.24l-.145.537,2.147.582.146-.537Z" transform="translate(-79.235 -113.088)"/>
      <path id="路径_11710" data-name="路径 11710" d="M243.725,337.576l-.146.537,3.65.989.146-.537Z" transform="translate(-82.168 -113.876)"/>
      <path id="路径_11711" data-name="路径 11711" d="M254.817,340.577l-.146.537,2.148.582.145-.537Z" transform="translate(-85.91 -114.889)"/>
      <path id="路径_11712" data-name="路径 11712" d="M146.946,341.59a19.69,19.69,0,0,0-3.411-1.446,44.771,44.771,0,0,0-19.836,0l-.074.037-.074-.037-22.617-6.081v-2.669h.557v2.262l22.134,5.932a45.77,45.77,0,0,1,20.058.037,18.535,18.535,0,0,1,3.522,1.483Z" transform="translate(-34.049 -111.791)"/>
      <path id="路径_11713" data-name="路径 11713" d="M187.576,339.409l-.037-.037-22.654-6.044v-2.706h.557v2.261l22.134,5.933,153.94-41.34v-2.113h.557v2.558l-.223.037Z" transform="translate(-55.622 -99.636)"/>
      <path id="路径_11714" data-name="路径 11714" d="M257.984,341.856h-.556V344.3h.556Z" transform="translate(-86.84 -115.32)"/>
      <path id="路径_11715" data-name="路径 11715" d="M166.074,350.773l-.074-.037-23.358-6.266,1-.26c2.447-.667,3.93-1.557,3.93-2.41s-1.483-1.742-3.93-2.409a45.553,45.553,0,0,0-19.761,0l-.074.037-.074-.037-23.358-6.266,16.091-4.3.148.519-14.089,3.782,21.282,5.71a45.436,45.436,0,0,1,19.984.037c2.818.779,4.338,1.78,4.338,2.929,0,1.038-1.149,1.928-3.374,2.67l21.319,5.709,152.532-40.932-14.386-3.856.148-.519,16.388,4.412Z" transform="translate(-33.86 -102.845)"/>
      <path id="路径_11716" data-name="路径 11716" d="M234.964,351.314l-.145.537,2.147.581.145-.537Z" transform="translate(-79.213 -118.511)"/>
      <path id="路径_11717" data-name="路径 11717" d="M243.745,353.673l-.146.537,3.651.989.145-.537Z" transform="translate(-82.175 -119.307)"/>
      <path id="路径_11718" data-name="路径 11718" d="M254.784,356.659l-.145.537,2.147.582.145-.537Z" transform="translate(-85.899 -120.314)"/>
      <path id="路径_11719" data-name="路径 11719" d="M146.946,357.7a19.642,19.642,0,0,0-3.411-1.447,44.771,44.771,0,0,0-19.836,0l-.074.037-.074-.037-22.617-6.08v-2.67h.557v2.262l22.134,5.932a45.769,45.769,0,0,1,20.058.037,18.615,18.615,0,0,1,3.522,1.483Z" transform="translate(-34.049 -117.227)"/>
      <path id="路径_11720" data-name="路径 11720" d="M187.576,355.5l-.037-.037-22.654-6.08v-2.67h.557v2.262l22.134,5.932,153.94-41.34v-2.151h.557v2.559l-.223.074Z" transform="translate(-55.622 -105.053)"/>
      <path id="路径_11721" data-name="路径 11721" d="M257.984,357.97h-.556v2.447h.556Z" transform="translate(-86.84 -120.756)"/>
      <path id="路径_11722" data-name="路径 11722" d="M165.906,247.429l-.074-.037-23.358-6.266,1-.26c2.447-.667,3.93-1.557,3.93-2.409s-1.483-1.743-3.93-2.41a45.556,45.556,0,0,0-19.761,0l-.074.037-.074-.037-23.358-6.266,154.645-41.451.074.037,65.625,17.611Zm-21.319-6.3,21.319,5.71L318.438,205.9l-63.548-17.055L102.357,229.817l21.282,5.71a45.427,45.427,0,0,1,19.984.037c2.818.778,4.338,1.779,4.338,2.929C147.961,239.494,146.812,240.421,144.588,241.125Z" transform="translate(-33.803 -63.53)"/>
      <path id="路径_11723" data-name="路径 11723" d="M160.555,234.859l-.144.537,2.148.577.144-.537Z" transform="translate(-54.112 -79.226)"/>
      <path id="路径_11724" data-name="路径 11724" d="M221.975,251.931l-4-1.075.148-.519,4,1.075Zm-8.045-2.15-4-1.076.148-.519,4,1.075Zm-8.045-2.15-4-1.076.148-.519,4,1.075Zm-8.045-2.188-4-1.075.148-.519,4,1.075Zm-8.046-2.15-4-1.075.148-.52,4,1.076Zm-8.045-2.15-4-1.075.148-.52,4,1.075Zm-8.045-2.15-4-1.075.148-.52,4,1.076Z" transform="translate(-57.245 -80.083)"/>
      <path id="路径_11725" data-name="路径 11725" d="M254.842,260.128l-.144.537,2.149.576.144-.537Z" transform="translate(-85.919 -87.75)"/>
      <path id="路径_11726" data-name="路径 11726" d="M146.946,261.133a19.69,19.69,0,0,0-3.411-1.446,44.771,44.771,0,0,0-19.836,0l-.074.037-.074-.037-22.616-6.08v-2.67h.556V253.2l22.134,5.932a45.769,45.769,0,0,1,20.058.037,18.6,18.6,0,0,1,3.522,1.483Z" transform="translate(-34.049 -84.65)"/>
      <path id="路径_11727" data-name="路径 11727" d="M187.576,258.952l-.037-.037-22.654-6.044v-2.706h.557v2.262l22.134,5.932,153.94-41.34V214.9h.557v2.521l-.223.074Z" transform="translate(-55.622 -72.495)"/>
      <path id="路径_11728" data-name="路径 11728" d="M257.984,261.4h-.557v2.447h.557Z" transform="translate(-86.839 -88.18)"/>
      <path id="路径_11729" data-name="路径 11729" d="M199.46,277.066H198.9v2.447h.556Z" transform="translate(-67.097 -93.464)"/>
      <path id="路径_11730" data-name="路径 11730" d="M135.452,259.889H134.9v2.447h.556Z" transform="translate(-45.505 -87.67)"/>
      <path id="路径_11731" data-name="路径 11731" d="M135.452,276.115H134.9v2.447h.556Z" transform="translate(-45.505 -93.143)"/>
      <path id="路径_11732" data-name="路径 11732" d="M135.452,292.34H134.9v2.447h.556Z" transform="translate(-45.505 -98.617)"/>
      <path id="路径_11733" data-name="路径 11733" d="M135.452,308.286H134.9v2.447h.556Z" transform="translate(-45.505 -103.996)"/>
      <path id="路径_11734" data-name="路径 11734" d="M135.452,324.512H134.9v2.447h.556Z" transform="translate(-45.505 -109.47)"/>
      <path id="路径_11735" data-name="路径 11735" d="M135.452,340.4H134.9v2.521h.556Z" transform="translate(-45.505 -114.83)"/>
      <path id="路径_11736" data-name="路径 11736" d="M135.452,356.627H134.9v2.521h.556Z" transform="translate(-45.505 -120.303)"/>
      <path id="路径_11737" data-name="路径 11737" d="M199.46,293.292H198.9v2.447h.556Z" transform="translate(-67.097 -98.938)"/>
      <path id="路径_11738" data-name="路径 11738" d="M199.46,309.517H198.9v2.447h.556Z" transform="translate(-67.097 -104.411)"/>
      <path id="路径_11739" data-name="路径 11739" d="M199.46,325.183H198.9v2.633h.556Z" transform="translate(-67.097 -109.696)"/>
      <path id="路径_11740" data-name="路径 11740" d="M199.46,341.409H198.9v2.447h.556Z" transform="translate(-67.097 -115.169)"/>
      <path id="路径_11741" data-name="路径 11741" d="M199.46,357.634H198.9v2.447h.556Z" transform="translate(-67.097 -120.643)"/>
      <path id="路径_11742" data-name="路径 11742" d="M199.46,373.637H198.9v2.595h.556Z" transform="translate(-67.097 -126.041)"/>
      <path id="路径_11743" data-name="路径 11743" d="M232.782,88.293l-.162.532,4.576,1.391.162-.532Z" transform="translate(-78.471 -29.784)"/>
      <path id="路径_11744" data-name="路径 11744" d="M232.434,122.862l-.162.532,4.576,1.392.162-.532Z" transform="translate(-78.354 -41.446)"/>
      <path id="路径_11745" data-name="路径 11745" d="M256.607,118.972l-4.56-1.372a3.814,3.814,0,0,1-1.557-.853l.408-.371a3.424,3.424,0,0,0,1.3.7l4.56,1.41Z" transform="translate(-84.499 -39.258)"/>
      <path id="路径_11746" data-name="路径 11746" d="M289.558,70.693l-.162.532,4.576,1.392.162-.532Z" transform="translate(-97.624 -23.847)"/>
      <path id="路径_11747" data-name="路径 11747" d="M269.05,57.159l-.162.532,4.576,1.391.162-.532Z" transform="translate(-90.706 -19.282)"/>
    </g>
  </g>
</svg>
