<svg xmlns="http://www.w3.org/2000/svg" xmlns:xlink="http://www.w3.org/1999/xlink" width="238" height="281" viewBox="0 0 238 281">
  <defs>
    <clipPath id="clip-path">
      <rect id="矩形_1045" data-name="矩形 1045" width="238" height="281" transform="translate(99 219)" fill="#fff" stroke="#707070" stroke-width="1"/>
    </clipPath>
  </defs>
  <g id="蒙版组_16" data-name="蒙版组 16" transform="translate(-99 -219)" clip-path="url(#clip-path)">
    <g id="_02" data-name="02" transform="translate(99 229.548)">
      <path id="路径_11522" data-name="路径 11522" d="M118.338,250.759l-29.381,7.654-9.4-2.437-11.052.206,1.373-2.711-10.022-2.608,29.106-7.586Z" transform="translate(-19.712 -80.123)" fill="rgba(0,0,0,0.08)"/>
      <path id="路径_11523" data-name="路径 11523" d="M87.8,319.291l-38.3,9.953L37.2,326.053l-14.381.308,1.75-3.535-13.008-3.432,37.927-9.885Z" transform="translate(-3.809 -101.937)" fill="rgba(0,0,0,0.08)"/>
      <path id="路径_11524" data-name="路径 11524" d="M51.2,203.719V233l9.37,2.506,5.08,7.276,1.579-.514,4.222-3.81,8.718,2.334,1.51-.583V211L52.815,203.2Z" transform="translate(-16.863 -66.925)" fill="#ffebc9"/>
      <path id="路径_11525" data-name="路径 11525" d="M94.295,215.337l1.579-.515v29.209l-1.51.583Z" transform="translate(-31.056 -70.752)" fill="#ff8d19"/>
      <path id="路径_11526" data-name="路径 11526" d="M73,259.92l.137-.24,4.805-4.324.686.274-4.222,3.81Z" transform="translate(-24.044 -84.101)" fill="#0182e5"/>
      <path id="路径_11527" data-name="路径 11527" d="M51.2,203.719l1.613-.515L81.681,211l-1.579.515Z" transform="translate(-16.863 -66.925)" fill="#ff8d19"/>
      <path id="路径_11528" data-name="路径 11528" d="M62.684,227.1l2.3.618-.034,7.346-2.334-.653Z" transform="translate(-20.622 -74.797)" fill="#fff"/>
      <path id="路径_11529" data-name="路径 11529" d="M67.957,226.133l3.226-2.608s.481-.343.721-.137a1.9,1.9,0,0,1,.652,1.1c0,.378-.515,2.917-.515,2.917l3.879,1a1.694,1.694,0,0,1,.927,1,9.582,9.582,0,0,1,.1,1.751,3.5,3.5,0,0,1-.343.858c-.275.515-1.922,3.535-1.922,3.535s-.172.481-1,.309c-.824-.137-4.805-1.3-4.805-1.3a1.881,1.881,0,0,1-1.3-1.407v-6.281C67.614,226.854,67.819,226.237,67.957,226.133Z" transform="translate(-22.257 -73.551)" fill="#fff"/>
      <path id="路径_11530" data-name="路径 11530" d="M66.095,235.186l1.2-.309a2.794,2.794,0,0,1-.206-1.133c.034-.618.034-5.423.034-5.423a3.47,3.47,0,0,1,.24-.721c.069-.1-.069-.137-.069-.137l-1.2.412Z" transform="translate(-21.768 -74.915)" fill="#dbe1ea"/>
      <path id="路径_11531" data-name="路径 11531" d="M73.652,223.132l1.133-.378s.412-.069.789.686l.275.378.069.481L75.4,226.8l-1.339.48.515-3.055s-.275-.858-.686-.961C73.481,223.1,73.652,223.132,73.652,223.132Z" transform="translate(-24.246 -73.364)" fill="#dbe1ea"/>
      <path id="路径_11532" data-name="路径 11532" d="M80.3,235.313l1.3-.378-2.094,3.913a1.327,1.327,0,0,1-.721.549,5.286,5.286,0,0,1-.927.171l1.888-3.295Z" transform="translate(-25.645 -77.376)" fill="#dbe1ea"/>
      <path id="路径_11533" data-name="路径 11533" d="M62.717,226.851l1.236-.309,2.162.618-1.1.378Z" transform="translate(-20.656 -74.612)" fill="#fff"/>
      <path id="路径_11534" data-name="路径 11534" d="M81.5,234.641l.034-1.922,1.3-.343-.034,1.716-.1.412Z" transform="translate(-26.842 -76.533)" fill="#dbe1ea"/>
      <path id="路径_11535" data-name="路径 11535" d="M73.721,229.756l.481-.652,1.2-.412.412.171,3.57.961a2.412,2.412,0,0,1,.892,1.3l.034.069-1.407.378Z" transform="translate(-24.28 -75.32)" fill="#fff"/>
      <path id="路径_11536" data-name="路径 11536" d="M65.483,243.292,60.3,235.844l-9.507-2.54V203.512l29.415,7.894V241.2l-9.576-2.574Zm-14.175-10.4,9.267,2.471,4.977,7.1,4.977-4.462,9.2,2.471V211.75l-28.385-7.62v28.763Z" transform="translate(-16.729 -67.027)"/>
      <path id="路径_11537" data-name="路径 11537" d="M80.208,240.893l-.206-.48,1.373-.515V211.033l-28.66-7.688-1.579.48L51,203.31l1.716-.515.069.034,29.106,7.792v29.655Z" transform="translate(-16.797 -66.791)"/>
      <path id="路径_11538" data-name="路径 11538" d="M72.715,260.314l-.172-.48,1.579-.549,4.187-3.776.343.378L74.4,259.731Z" transform="translate(-23.892 -84.152)"/>
      <path id="路径_11539" data-name="路径 11539" d="M95.722,214.443l-1.576.478.149.493,1.576-.479Z" transform="translate(-31.007 -70.627)"/>
      <path id="路径_11540" data-name="路径 11540" d="M75.681,228.349l-1.445.438.149.493,1.445-.439Z" transform="translate(-24.45 -75.207)"/>
      <path id="路径_11541" data-name="路径 11541" d="M65.191,235.208l-2.883-.755v-7.86l2.883.755Zm-2.368-1.167,1.853.48v-6.8l-1.853-.48Z" transform="translate(-20.521 -74.628)"/>
      <path id="路径_11542" data-name="路径 11542" d="M74.033,236.013a1.172,1.172,0,0,1-.343-.034l-4.737-1.27a2.247,2.247,0,0,1-1.579-2.094v-5.286A2.482,2.482,0,0,1,68.3,225.3l2.952-2.2a.648.648,0,0,1,.515-.1.992.992,0,0,1,.618.378l.24.343a1.242,1.242,0,0,1,.24.961l-.446,2.506,3.535.961a1.88,1.88,0,0,1,1.3,1.716v1.2a1.594,1.594,0,0,1-.172.72l-2.059,3.776A1.423,1.423,0,0,1,74.033,236.013Zm-2.4-12.562c-.034,0-.069,0-.069.034l-2.952,2.2a2,2,0,0,0-.721,1.613v5.286a1.779,1.779,0,0,0,1.2,1.613l4.737,1.27a.59.59,0,0,0,.721-.275l2.059-3.776a.948.948,0,0,0,.1-.446v-1.2a1.331,1.331,0,0,0-.927-1.236L71.8,227.467l.549-2.952a.826.826,0,0,0-.137-.549l-.24-.343a1.077,1.077,0,0,0-.343-.172Z" transform="translate(-22.19 -73.442)"/>
      <path id="路径_11543" data-name="路径 11543" d="M66.185,227.3l-2.265-.618-1.3.275-.1-.481,1.407-.343,2.4.686Z" transform="translate(-20.589 -74.477)"/>
      <path id="路径_11544" data-name="路径 11544" d="M67.433,238.116l-1.189.336.14.5,1.189-.336Z" transform="translate(-21.817 -78.424)"/>
      <path id="路径_11545" data-name="路径 11545" d="M66.335,227.947l-.137-.481,1.476-.412v.583h-.206Z" transform="translate(-21.802 -74.78)"/>
      <path id="路径_11546" data-name="路径 11546" d="M76.4,235.719l-.137-.514,1.064-.275c.275-.068.412-.1.549-.378l2.025-3.6a.948.948,0,0,0,.1-.446v-1.2a1.53,1.53,0,0,0-.927-1.373L75.1,226.863l.549-2.849a.826.826,0,0,0-.137-.549l-.24-.343c-.069-.1-.275-.343-.446-.309l-1.167.343-.137-.481,1.167-.343c.24-.069.583-.035,1,.514l.24.343a1.241,1.241,0,0,1,.24.961l-.446,2.368,3.535.961a2.045,2.045,0,0,1,1.3,1.854v1.2a1.6,1.6,0,0,1-.172.721l-2.025,3.6a1.125,1.125,0,0,1-.892.618Z" transform="translate(-24.213 -73.217)"/>
      <path id="路径_11547" data-name="路径 11547" d="M.409,257.891v38.167l12.219,3.261,6.624,9.508,2.025-.687,5.526-4.977,11.361,3.021,1.991-.721-.034-38.1L2.5,257.2Z" transform="translate(-0.135 -84.71)" fill="#ffebc9"/>
      <path id="路径_11548" data-name="路径 11548" d="M56.552,273.04l2.059-.687.034,38.1-1.991.721Z" transform="translate(-18.625 -89.699)" fill="#ff8d19"/>
      <path id="路径_11549" data-name="路径 11549" d="M28.813,331.141l.172-.343,6.247-5.629.927.378-5.526,4.977Z" transform="translate(-9.489 -107.094)" fill="#0182e5"/>
      <path id="路径_11550" data-name="路径 11550" d="M.409,257.891,2.5,257.2l37.618,10.16-2.059.686Z" transform="translate(-0.135 -84.71)" fill="#ff8d19"/>
      <path id="路径_11551" data-name="路径 11551" d="M15.353,288.372l2.986.789-.034,9.576-3.055-.824Z" transform="translate(-5.023 -94.975)" fill="#fff"/>
      <path id="路径_11552" data-name="路径 11552" d="M22.231,287.1l4.222-3.364s.618-.446.927-.206a2.489,2.489,0,0,1,.858,1.442c0,.514-.652,3.809-.652,3.809l5.045,1.3s1.03.447,1.2,1.27a11.909,11.909,0,0,1,.1,2.265,3.5,3.5,0,0,1-.446,1.132c-.343.653-2.506,4.6-2.506,4.6s-.24.618-1.3.412-6.247-1.716-6.247-1.716a2.415,2.415,0,0,1-1.682-1.854v-8.169A6.076,6.076,0,0,1,22.231,287.1Z" transform="translate(-7.164 -93.356)" fill="#fff"/>
      <path id="路径_11553" data-name="路径 11553" d="M19.806,298.872l1.579-.412a3.9,3.9,0,0,1-.275-1.51c.069-.789.069-7.036.069-7.036a3.618,3.618,0,0,1,.309-.927c.1-.137-.1-.206-.1-.206l-1.579.515Z" transform="translate(-6.523 -95.11)" fill="#dbe1ea"/>
      <path id="路径_11554" data-name="路径 11554" d="M29.663,283.171l1.476-.481s.549-.068,1,.893l.343.48.1.618-.686,3.26-1.716.618.686-3.982s-.378-1.133-.892-1.235C29.457,283.171,29.663,283.171,29.663,283.171Z" transform="translate(-9.756 -93.104)" fill="#dbe1ea"/>
      <path id="路径_11555" data-name="路径 11555" d="M38.318,299.037l1.716-.48-2.746,5.114a1.7,1.7,0,0,1-.927.687,8.975,8.975,0,0,1-1.2.24l2.437-4.29Z" transform="translate(-11.58 -98.33)" fill="#dbe1ea"/>
      <path id="路径_11556" data-name="路径 11556" d="M15.405,288.016l1.613-.412,2.814.789-1.442.515Z" transform="translate(-5.074 -94.722)" fill="#fff"/>
      <path id="路径_11557" data-name="路径 11557" d="M39.919,298.182l.034-2.506,1.682-.446-.034,2.231-.137.515Z" transform="translate(-13.147 -97.234)" fill="#dbe1ea"/>
      <path id="路径_11558" data-name="路径 11558" d="M29.733,291.843l.618-.858,1.579-.515.549.24,4.668,1.236a2.812,2.812,0,0,1,1.133,1.716l.034.1-1.853.481Z" transform="translate(-9.792 -95.666)" fill="#fff"/>
      <path id="路径_11559" data-name="路径 11559" d="M19.049,309.372l-6.727-9.645L0,296.432V257.716l38.2,10.228v38.682L25.777,303.3ZM.515,296.02l12.116,3.261,6.521,9.336,6.521-5.835,12.047,3.227V268.356L.549,258.4V296.02Z" transform="translate(0 -84.879)"/>
      <path id="路径_11560" data-name="路径 11560" d="M38.149,306.288l-.172-.48,1.819-.653V267.366L2.35,257.344l-2.059.618-.137-.481,2.2-.686.069.034,37.892,10.16V305.5Z" transform="translate(-0.051 -84.575)"/>
      <path id="路径_11561" data-name="路径 11561" d="M28.422,331.62l-.172-.48,2.059-.755,5.492-4.908.343.378-5.56,4.977Z" transform="translate(-9.304 -107.196)"/>
      <path id="路径_11562" data-name="路径 11562" d="M58.442,271.972l-2.069.628.149.492,2.069-.628Z" transform="translate(-18.566 -89.574)"/>
      <path id="路径_11563" data-name="路径 11563" d="M32.382,290.116l-1.9.578.149.492,1.9-.577Z" transform="translate(-10.037 -95.55)"/>
      <path id="路径_11564" data-name="路径 11564" d="M18.6,298.861l-3.6-.961V287.809l3.6.961Zm-3.089-1.374,2.574.687v-9.027l-2.574-.687Z" transform="translate(-4.938 -94.79)"/>
      <path id="路径_11565" data-name="路径 11565" d="M30.176,299.879a1.728,1.728,0,0,1-.412-.068l-6.178-1.648a2.888,2.888,0,0,1-1.991-2.677v-6.9a3.077,3.077,0,0,1,1.167-2.574l3.844-2.883a.717.717,0,0,1,.583-.137,1.154,1.154,0,0,1,.755.481l.309.446a1.489,1.489,0,0,1,.309,1.167l-.618,3.33,4.668,1.235a2.318,2.318,0,0,1,1.647,2.162v1.545a2,2,0,0,1-.206.893l-2.677,4.908A1.286,1.286,0,0,1,30.176,299.879Zm-3.123-16.372a.374.374,0,0,0-.172.034l-3.844,2.883a2.591,2.591,0,0,0-.961,2.162v6.9a2.332,2.332,0,0,0,1.613,2.163l6.178,1.647a.873.873,0,0,0,1.03-.378l2.677-4.908a1.309,1.309,0,0,0,.137-.653v-1.545a1.85,1.85,0,0,0-1.27-1.682l-5.114-1.373.686-3.775a1.062,1.062,0,0,0-.206-.755l-.309-.447a.8.8,0,0,0-.412-.274Z" transform="translate(-7.113 -93.199)"/>
      <path id="路径_11566" data-name="路径 11566" d="M19.954,288.585l-2.986-.824-1.682.412-.137-.515,1.819-.412,3.123.858Z" transform="translate(-4.989 -94.604)"/>
      <path id="路径_11567" data-name="路径 11567" d="M21.534,302.851l-1.519.429.14.5,1.519-.43Z" transform="translate(-6.592 -99.744)"/>
      <path id="路径_11568" data-name="路径 11568" d="M20.149,289.453l-.137-.515,1.785-.515v.653h-.378Z" transform="translate(-6.591 -94.992)"/>
      <path id="路径_11569" data-name="路径 11569" d="M33.238,299.585l-.137-.515,1.373-.343c.378-.1.584-.137.789-.514l2.643-4.7a1.306,1.306,0,0,0,.137-.652v-1.545a2.06,2.06,0,0,0-1.27-1.854l-5.114-1.373.686-3.638a1.064,1.064,0,0,0-.206-.755l-.309-.446c-.172-.24-.412-.515-.652-.446l-1.51.446-.137-.481,1.51-.446c.412-.1.824.1,1.2.618l.309.447a1.488,1.488,0,0,1,.309,1.167l-.618,3.157,4.668,1.236a2.6,2.6,0,0,1,1.648,2.334v1.544a2,2,0,0,1-.206.892l-2.643,4.7a1.453,1.453,0,0,1-1.1.789Z" transform="translate(-9.726 -92.974)"/>
      <path id="路径_11570" data-name="路径 11570" d="M206.278,377.534l-50.146,13.043-16.063-4.187-18.843.378,2.334-4.634L106.5,377.671l49.631-12.94Z" transform="translate(-35.076 -120.124)" fill="rgba(0,0,0,0.08)"/>
      <path id="路径_11571" data-name="路径 11571" d="M91.865,297.146v49.94l16.029,4.29,8.649,12.424,2.677-.892,7.242-6.487,14.827,3.947,2.608-.961-.034-49.872L94.645,296.253Z" transform="translate(-30.256 -97.571)" fill="#ffebc9"/>
      <path id="路径_11572" data-name="路径 11572" d="M165.408,316.987l2.677-.927.034,49.872-2.609.961Z" transform="translate(-54.477 -104.094)" fill="#ff8d19"/>
      <path id="路径_11573" data-name="路径 11573" d="M129.123,392.994l.241-.412,8.169-7.379,1.2.514-7.242,6.487Z" transform="translate(-42.527 -126.867)" fill="#0182e5"/>
      <path id="路径_11574" data-name="路径 11574" d="M91.865,297.146l2.78-.893,49.219,13.283-2.677.927Z" transform="translate(-30.256 -97.571)" fill="#ff8d19"/>
      <path id="路径_11575" data-name="路径 11575" d="M111.45,337.043l3.913,1.064-.034,12.494-4.016-1.064Z" transform="translate(-36.661 -111.005)" fill="#fff"/>
      <path id="路径_11576" data-name="路径 11576" d="M120.51,335.364l5.525-4.428s.824-.583,1.236-.24a3.145,3.145,0,0,1,1.133,1.887c0,.687-.893,4.977-.893,4.977l6.624,1.682s1.373.583,1.579,1.682a19.334,19.334,0,0,1,.172,2.986,5.088,5.088,0,0,1-.583,1.476c-.447.858-3.261,6.006-3.261,6.006s-.309.789-1.716.549c-1.408-.274-8.169-2.231-8.169-2.231a3.164,3.164,0,0,1-2.2-2.4v-10.64A3.321,3.321,0,0,1,120.51,335.364Z" transform="translate(-39.508 -108.879)" fill="#fff"/>
      <path id="路径_11577" data-name="路径 11577" d="M117.3,350.786l2.06-.515a4.641,4.641,0,0,1-.343-1.956c.068-1.029.1-9.233.1-9.233a6.6,6.6,0,0,1,.378-1.2c.137-.172-.1-.275-.1-.275l-2.06.687Z" transform="translate(-38.633 -111.191)" fill="#dbe1ea"/>
      <path id="路径_11578" data-name="路径 11578" d="M130.177,330.24l1.956-.618s.721-.1,1.339,1.133l.447.618.137.789-.892,4.256-2.265.789.893-5.217s-.481-1.476-1.167-1.648C129.937,330.24,130.177,330.24,130.177,330.24Z" transform="translate(-42.86 -108.56)" fill="#dbe1ea"/>
      <path id="路径_11579" data-name="路径 11579" d="M141.5,351.019l2.231-.618-3.6,6.693a2.311,2.311,0,0,1-1.235.927,9.375,9.375,0,0,1-1.579.309L140.5,352.7Z" transform="translate(-45.224 -115.405)" fill="#dbe1ea"/>
      <path id="路径_11580" data-name="路径 11580" d="M111.517,336.586l2.094-.515,3.707,1.029-1.888.687Z" transform="translate(-36.728 -110.685)" fill="#fff"/>
      <path id="路径_11581" data-name="路径 11581" d="M143.606,349.913l.068-3.329,2.2-.583-.034,2.952-.206.687Z" transform="translate(-47.297 -113.955)" fill="#dbe1ea"/>
      <path id="路径_11582" data-name="路径 11582" d="M130.3,341.575l.824-1.133,2.06-.686.721.309,6.109,1.614a3.914,3.914,0,0,1,1.51,2.231l.035.137-2.4.618Z" transform="translate(-42.914 -111.899)" fill="#fff"/>
      <path id="路径_11583" data-name="路径 11583" d="M116.391,364.465l-8.787-12.6-16.1-4.325v-50.42l49.837,13.352V360.93l-16.2-4.324ZM92.021,347.2l15.892,4.256,8.546,12.253,8.547-7.688,15.823,4.222V310.854L92.021,297.777Z" transform="translate(-30.138 -97.858)"/>
      <path id="路径_11584" data-name="路径 11584" d="M141.308,360.475l-.172-.48,2.4-.893V309.54L94.492,296.394l-2.746.824-.137-.481,2.849-.892.1.034,49.493,13.283v50.283Z" transform="translate(-30.171 -97.437)"/>
      <path id="路径_11585" data-name="路径 11585" d="M128.579,393.591l-.172-.48,2.711-1,7.207-6.453.343.412-7.277,6.487Z" transform="translate(-42.291 -127.018)"/>
      <path id="路径_11586" data-name="路径 11586" d="M167.946,315.734l-2.693.818.15.492,2.693-.817Z" transform="translate(-54.426 -103.987)"/>
      <path id="路径_11587" data-name="路径 11587" d="M133.858,339.436l-2.5.76.15.492,2.5-.76Z" transform="translate(-43.264 -111.793)"/>
      <path id="路径_11588" data-name="路径 11588" d="M115.69,350.725l-4.531-1.2V336.481l4.531,1.2Zm-4.016-1.614,3.5.927V338.06l-3.5-.927Z" transform="translate(-36.61 -110.82)"/>
      <path id="路径_11589" data-name="路径 11589" d="M130.9,352.114a3.364,3.364,0,0,1-.549-.069l-8.066-2.162a3.728,3.728,0,0,1-2.574-3.4v-9.026a4.054,4.054,0,0,1,1.51-3.33l5.046-3.775a1.029,1.029,0,0,1,.72-.172,1.592,1.592,0,0,1,.927.583l.412.549a1.833,1.833,0,0,1,.378,1.475l-.824,4.428,6.178,1.648a2.989,2.989,0,0,1,2.094,2.78v2.025a2.508,2.508,0,0,1-.274,1.133l-3.5,6.418A1.652,1.652,0,0,1,130.9,352.114Zm-4.084-21.452a.63.63,0,0,0-.241.069l-5.045,3.775a3.57,3.57,0,0,0-1.3,2.917v9.027a3.178,3.178,0,0,0,2.2,2.917l8.066,2.163a1.18,1.18,0,0,0,1.441-.549l3.5-6.419a1.758,1.758,0,0,0,.206-.858v-2.06a2.431,2.431,0,0,0-1.716-2.265l-6.625-1.785.893-4.874a1.365,1.365,0,0,0-.275-1.064l-.412-.549a1.014,1.014,0,0,0-.583-.377C126.879,330.662,126.845,330.662,126.811,330.662Z" transform="translate(-39.425 -108.742)"/>
      <path id="路径_11590" data-name="路径 11590" d="M117.545,337.275l-3.947-1.064-2.231.515-.1-.515,2.334-.549,4.084,1.133Z" transform="translate(-36.645 -110.55)"/>
      <path id="路径_11591" data-name="路径 11591" d="M119.6,356.134l-2.015.57.14.5,2.015-.57Z" transform="translate(-38.727 -117.293)"/>
      <path id="路径_11592" data-name="路径 11592" d="M117.746,338.432l-.137-.514,2.231-.618v.755h-.515v-.068Z" transform="translate(-38.735 -111.089)"/>
      <path id="路径_11593" data-name="路径 11593" d="M134.87,351.727l-.137-.515,1.785-.446a1.29,1.29,0,0,0,1.064-.721l3.432-6.178a1.76,1.76,0,0,0,.206-.858v-2.025a2.78,2.78,0,0,0-1.716-2.506l-6.625-1.785.893-4.668a1.3,1.3,0,0,0-.309-1.064l-.412-.549c-.343-.48-.687-.686-.927-.583l-1.99.583-.137-.48,1.99-.583c.515-.137,1,.1,1.51.789l.412.549a1.833,1.833,0,0,1,.378,1.475l-.824,4.188L139.641,338a3.3,3.3,0,0,1,2.094,2.986v2.025a2.508,2.508,0,0,1-.274,1.133l-3.432,6.178a1.847,1.847,0,0,1-1.407,1Z" transform="translate(-42.814 -108.459)"/>
      <path id="路径_11594" data-name="路径 11594" d="M307.852,205.843l-3.844,1.064-16.509-4.5L248.13,213.326l-.378-.1-72.421,20.113.343.069-48.018,13.317,24.4,6.693,19.5,5.354,21.451,5.869,7.036-1.956,15.171,4.153,70.98-19.7-.343-.1,14.656-4.05.378.1,70.98-19.7Z" transform="translate(-42.044 -66.664)" fill="rgba(0,0,0,0.08)"/>
      <path id="路径_11595" data-name="路径 11595" d="M275.513,23.13,253.89,15.27l-2.094.481s-.48,4.668-3.5,5.972c-2.986,1.3-7.448-1.373-7.448-1.373l-2.128-1.75-1.51-1.785L235.6,13.966l-.721-2.2-.274-1.613V8.268L212.977.408l-2.094.481L197.566,152.974l62.468,22.756,2.06-.274Z" transform="translate(-65.068 -0.135)" fill="#ff8d19"/>
      <path id="路径_11596" data-name="路径 11596" d="M251.725,12.129l-2.265.412s.309,4.359,1.476,6.556a22.761,22.761,0,0,0,3.226,4.325l2.471,1.785,2.746,1.133,2.3.206,3.089-.446-2.677-.137-3.158-1.2-2.506-1.545-2.334-2.746-1.407-2.643-.721-2.2-.309-1.956Z" transform="translate(-82.16 -3.995)" fill="#ff9f48"/>
      <path id="路径_11597" data-name="路径 11597" d="M219.585.409l-2.06.481,21.418,7.791,2.265-.412Z" transform="translate(-71.642 -0.135)" fill="#ff9f48"/>
      <path id="路径_11598" data-name="路径 11598" d="M260.242,176.089l-.309-.1-62.674-22.824v-.206L210.576.562l22.1,8.032V8.8c-.48,5.32,3.4,11.224,8.615,13.111a7.777,7.777,0,0,0,6.967-.48,7.354,7.354,0,0,0,3.192-5.663l.034-.343,22.1,8.032v.206Zm-62.433-23.271,61.987,22.55L273.044,23.833l-21.109-7.688a7.684,7.684,0,0,1-3.4,5.732,8.292,8.292,0,0,1-7.414.515c-5.354-1.956-9.335-7.929-8.958-13.42L211.057,1.283Z" transform="translate(-64.967 -0.185)"/>
      <path id="路径_11599" data-name="路径 11599" d="M212.677,58.008l-.176.484,1.935.7.176-.484Z" transform="translate(-69.987 -19.105)"/>
      <path id="路径_11600" data-name="路径 11600" d="M272.009,80.207,268.1,78.8l.171-.481,3.913,1.407Zm-7.826-2.849-3.913-1.407.172-.481,3.913,1.407Zm-7.825-2.849L252.445,73.1l.172-.481,3.913,1.407Zm-7.792-2.849-3.913-1.407.172-.481,3.913,1.407Zm-7.826-2.849L236.828,67.4l.172-.481,3.913,1.407ZM232.915,66,229,64.59l.172-.481,3.913,1.407Zm-7.792-2.849-3.913-1.407.172-.481,3.913,1.407Z" transform="translate(-72.856 -20.176)"/>
      <path id="路径_11601" data-name="路径 11601" d="M251.512,11.938l-2.1.355.086.508,2.1-.355Z" transform="translate(-82.145 -3.932)"/>
      <path id="路径_11602" data-name="路径 11602" d="M253.122,22.379a9.845,9.845,0,0,1-3.364-.618C244.4,19.8,240.422,13.832,240.8,8.34L219.451.549l-2.265.343-.068-.515L219.485,0l21.864,7.963v.206c-.481,5.32,3.4,11.224,8.615,13.111a9.086,9.086,0,0,0,3.638.583l.034.515Z" transform="translate(-71.507)"/>
      <path id="路径_11603" data-name="路径 11603" d="M227.968,32.038,205.761,26.1l-2.06.652s-.068,4.7-2.952,6.247-7.552-.721-7.552-.721l-2.265-1.545-1.648-1.648-1.854-2.712-.892-2.128-.412-1.579-.172-1.888L163.75,14.842l-2.059.652V168.128l64.218,17.2,2.059-.447Z" transform="translate(-53.253 -4.888)" fill="#fff"/>
      <path id="路径_11604" data-name="路径 11604" d="M259.522,40.482l-1.956.652L257.5,193.769l2.025-.447Z" transform="translate(-84.807 -13.333)" fill="#dbe1ea"/>
      <path id="路径_11605" data-name="路径 11605" d="M248.308,37.584l-1.888.584L224.385,32.23l2.025-.652Z" transform="translate(-73.901 -10.4)" fill="#fff"/>
      <path id="路径_11606" data-name="路径 11606" d="M196.777,23.7l-2.231.618s.687,4.325,2.06,6.418a24.25,24.25,0,0,0,3.569,4.05l2.643,1.579,2.815.892h2.3l3.02-.721-2.677.1-3.261-.927-2.643-1.339-2.54-2.54-1.614-2.506-.892-2.128-.447-1.956Z" transform="translate(-64.074 -7.804)" fill="#fff"/>
      <path id="路径_11607" data-name="路径 11607" d="M163.75,14.791l-2.059.652,22.035,5.9,2.231-.583Z" transform="translate(-53.253 -4.871)" fill="#fff"/>
      <path id="路径_11608" data-name="路径 11608" d="M226.065,185.819l-64.733-17.333V15.3l22.722,6.075v.206c0,5.354,4.359,10.88,9.714,12.322a7.793,7.793,0,0,0,6.9-1.064,7.291,7.291,0,0,0,2.677-5.938v-.343l22.722,6.075Zm-64.218-17.745,63.7,17.059V33.048l-21.691-5.8a7.641,7.641,0,0,1-2.883,6.007,8.221,8.221,0,0,1-7.346,1.167c-5.491-1.476-9.988-7.1-10.091-12.6l-21.692-5.8v152.05Z" transform="translate(-53.135 -5.04)"/>
      <path id="路径_11609" data-name="路径 11609" d="M161.857,72.961l-.133.5,1.989.533.133-.5Z" transform="translate(-53.264 -24.03)"/>
      <path id="路径_11610" data-name="路径 11610" d="M222.9,89.836l-4.016-1.064.137-.481,4.016,1.064Zm-8.032-2.162-4.016-1.064.137-.48,4.016,1.064Zm-8.032-2.162-4.015-1.064.137-.481,4.016,1.064Zm-8.031-2.128-4.016-1.1.137-.481,4.015,1.064Zm-8.032-2.162-4.016-1.064.137-.481,4.016,1.064Zm-8.032-2.162-4.016-1.064.137-.481,4.016,1.064Zm-8.032-2.128L170.7,75.867l.137-.48,4.016,1.064Z" transform="translate(-56.22 -24.829)"/>
      <path id="路径_11611" data-name="路径 11611" d="M254.7,97.784l-.133.5,1.989.533.133-.5Z" transform="translate(-83.842 -32.205)"/>
      <path id="路径_11612" data-name="路径 11612" d="M246.662,191.129l-.172-.481,1.75-.583V37.637l-21.966-5.9-2.162.583-.137-.515,2.3-.583,22.482,6.006V190.443Z" transform="translate(-73.766 -10.282)"/>
      <path id="路径_11613" data-name="路径 11613" d="M259.5,40.188l-2.324.607.13.5,2.324-.607Z" transform="translate(-84.702 -13.236)"/>
      <path id="路径_11614" data-name="路径 11614" d="M259.621,97.734l-2.192.572.13.5,2.192-.572Z" transform="translate(-84.784 -32.189)"/>
      <path id="路径_11615" data-name="路径 11615" d="M196.536,23.5l-2.059.538.13.5L196.666,24Z" transform="translate(-64.051 -7.74)"/>
      <path id="路径_11616" data-name="路径 11616" d="M198.265,33.774a10.24,10.24,0,0,1-2.643-.378c-5.491-1.476-9.988-7.1-10.091-12.6L163.565,14.93l-2.2.549-.137-.515,2.335-.583h.068l22.413,6.006v.206c0,5.354,4.359,10.88,9.713,12.322a9.668,9.668,0,0,0,3.672.275l.069.515C199.123,33.739,198.711,33.774,198.265,33.774Z" transform="translate(-53.101 -4.736)"/>
      <path id="路径_11617" data-name="路径 11617" d="M156.4,48.141,133.505,46.15l-1.888,1s.721,4.634-1.819,6.693-7.551.584-7.551.584l-2.506-1.133-1.922-1.339-2.3-2.334L114.25,47.7l-.652-1.476-.515-1.853L90.19,42.375l-1.888,1L114.8,193.7l66.243,5.8,1.922-.824Z" transform="translate(-29.082 -13.956)" fill="#ff8d19"/>
      <path id="路径_11618" data-name="路径 11618" d="M188.945,50.974l-1.819,1L213.555,202.3l1.922-.789Z" transform="translate(-61.63 -16.788)" fill="#f50"/>
      <path id="路径_11619" data-name="路径 11619" d="M177.376,50.1l-1.785.892L152.836,49l1.922-1Z" transform="translate(-50.337 -15.811)" fill="#ff9f48"/>
      <path id="路径_11620" data-name="路径 11620" d="M124.224,45.344l-2.094,1s1.441,4.119,3.123,5.972a24.322,24.322,0,0,0,4.222,3.364l2.849,1.1,2.952.378,2.265-.412L140.39,55.5l-2.643.549-3.364-.343-2.814-.858-2.952-2.059-2.025-2.2-1.27-1.922-.789-1.819Z" transform="translate(-40.224 -14.934)" fill="#ff9f48"/>
      <path id="路径_11621" data-name="路径 11621" d="M90.137,42.324l-1.888,1,22.722,1.991,2.094-.961Z" transform="translate(-29.065 -13.939)" fill="#ff9f48"/>
      <path id="路径_11622" data-name="路径 11622" d="M181.146,200.135,114.388,194.3l-.034-.206L87.788,43.451,111.23,45.51l.034.206c.927,5.286,6.178,9.954,11.7,10.434a7.768,7.768,0,0,0,6.624-2.265,7.309,7.309,0,0,0,1.614-6.315l-.069-.343,23.443,2.059.034.206Zm-66.347-6.35,65.694,5.766L154.066,49.732l-22.379-1.956a7.708,7.708,0,0,1-1.785,6.418,8.171,8.171,0,0,1-7.036,2.4c-5.663-.481-11.052-5.251-12.116-10.674L88.371,43.966Z" transform="translate(-28.913 -14.31)"/>
      <path id="路径_11623" data-name="路径 11623" d="M98.344,100.044l-.045.513,2.051.18.045-.513Z" transform="translate(-32.375 -32.949)"/>
      <path id="路径_11624" data-name="路径 11624" d="M161.4,106.09l-4.153-.378.034-.514,4.153.378Zm-8.272-.721-4.153-.377.034-.515,4.153.378Zm-8.307-.72-4.153-.378.034-.515,4.153.378Zm-8.272-.721-4.153-.378.034-.515,4.153.378Zm-8.272-.721-4.153-.378.034-.514,4.153.378Zm-8.306-.721-4.153-.377.035-.515,4.153.378Zm-8.272-.72-4.153-.378.035-.515,4.153.378Z" transform="translate(-35.419 -33.223)"/>
      <path id="路径_11625" data-name="路径 11625" d="M194.076,108.429l-.045.513,2.052.179.045-.512Z" transform="translate(-63.904 -35.711)"/>
      <path id="路径_11626" data-name="路径 11626" d="M202.384,201.569l-.24-.446,1.613-.858L177.294,50.1l-22.653-1.956-2.025.927-.24-.481,2.162-1h.068l23.1,2.025.034.206,26.6,150.712Z" transform="translate(-50.185 -15.676)"/>
      <path id="路径_11627" data-name="路径 11627" d="M188.781,50.716l-2.184,1,.215.468,2.184-1Z" transform="translate(-61.456 -16.703)"/>
      <path id="路径_11628" data-name="路径 11628" d="M198.868,107.354l-2.059.944.215.468,2.059-.944Z" transform="translate(-64.819 -35.357)"/>
      <path id="路径_11629" data-name="路径 11629" d="M123.863,45.22l-1.935.887.215.468,1.935-.887Z" transform="translate(-40.157 -14.893)"/>
      <path id="路径_11630" data-name="路径 11630" d="M125.768,55.164a8.983,8.983,0,0,1-.961-.034c-5.664-.481-11.052-5.251-12.116-10.674L90.037,42.464l-2.094.927-.206-.481,2.2-1H90l23.1,2.025.034.206c.927,5.286,6.178,9.954,11.7,10.434a9.019,9.019,0,0,0,3.638-.378l.172.481A8.915,8.915,0,0,1,125.768,55.164Z" transform="translate(-28.896 -13.805)"/>
      <path id="路径_11631" data-name="路径 11631" d="M199,102.971c1.648.24,14.21,3.055,14.21,3.055l12.048,104.822-7.585-2.025Z" transform="translate(-65.54 -33.913)" fill="rgba(0,0,0,0.08)"/>
      <path id="路径_11632" data-name="路径 11632" d="M260.518,92.07l29.142,10.113-8.811,103.445-20.331-7.156Z" transform="translate(-85.802 -30.323)" fill="rgba(0,0,0,0.08)"/>
    </g>
  </g>
</svg>
