<svg xmlns="http://www.w3.org/2000/svg" xmlns:xlink="http://www.w3.org/1999/xlink" width="194.401" height="189.817" viewBox="0 0 194.401 189.817"><defs><clipPath id="a"><rect width="163.239" height="157.123" fill="none"/></clipPath><clipPath id="b"><rect width="14.06" height="14.06" fill="none"/></clipPath><clipPath id="e"><rect width="104.63" height="105.563" fill="none"/></clipPath><clipPath id="f"><rect width="65.466" height="30.789" fill="none"/></clipPath><clipPath id="g"><rect width="34.429" height="66.633" fill="none"/></clipPath><clipPath id="m"><rect width="18.396" height="18.396" fill="none"/></clipPath><clipPath id="o"><rect width="65.073" height="65.235" fill="none"/></clipPath><clipPath id="p"><rect width="74.102" height="21.893" fill="none"/></clipPath><clipPath id="q"><rect width="26.57" height="52.096" fill="none"/></clipPath><clipPath id="y"><rect width="18.397" height="18.396" fill="none"/></clipPath><clipPath id="aa"><rect width="60.318" height="83.846" fill="none"/></clipPath><clipPath id="ab"><rect width="65.074" height="65.235" fill="none"/></clipPath><clipPath id="ae"><rect width="3.18" height="3.659" fill="none"/></clipPath></defs><g transform="matrix(0.974, -0.225, 0.225, 0.974, 0, 36.721)"><g clip-path="url(#a)"><g transform="translate(42.405 142.029)" style="isolation:isolate"><g clip-path="url(#b)"><rect width="9.375" height="9.375" transform="translate(0.401 7.03) rotate(-45)" fill="#106bb5"/><rect width="9.375" height="9.375" transform="translate(0.401 7.03) rotate(-45)" fill="none" stroke="#1a1818" stroke-miterlimit="10" stroke-width="1"/></g></g><g transform="translate(44.92 143.063)" style="isolation:isolate"><g clip-path="url(#b)"><rect width="9.375" height="9.375" transform="translate(0.401 7.03) rotate(-45)" fill="#106bb5"/><rect width="9.375" height="9.375" transform="translate(0.401 7.03) rotate(-45)" fill="none" stroke="#1a1818" stroke-miterlimit="10" stroke-width="1"/></g></g></g><line x2="2.515" y2="1.035" transform="translate(42.91 149.032)" fill="none" stroke="#1a1818" stroke-miterlimit="10" stroke-width="1"/><line x2="2.515" y2="1.035" transform="translate(49.332 142.287)" fill="none" stroke="#1a1818" stroke-miterlimit="10" stroke-width="1"/><g clip-path="url(#a)"><line x2="2.515" y2="1.035" transform="translate(49.537 155.826)" fill="none" stroke="#1a1818" stroke-miterlimit="10" stroke-width="1"/><g transform="translate(4.068 41.64)" style="isolation:isolate"><g clip-path="url(#e)"><path d="M8.117,179.714,52.289,76.276s-7.859,9.215,20.643,40.335c0,0,24.586,26.106,39.159,19.053C78.632,150.628,8.117,179.714,8.117,179.714" transform="translate(-7.584 -74.677)" fill="#eb3e16"/><path d="M8.117,179.714,52.289,76.276s-7.859,9.215,20.643,40.335c0,0,24.586,26.106,39.159,19.053C78.632,150.628,8.117,179.714,8.117,179.714Z" transform="translate(-7.584 -74.677)" fill="none" stroke="#1a1818" stroke-miterlimit="10" stroke-width="1"/></g></g><g transform="translate(94.831 125.23)" style="isolation:isolate"><g clip-path="url(#f)"><path d="M167.813,238.986h8.441s-1.787,3.972,1.825,4.22,8.773-22.136,16.12-21.789,8.62,19.667,9.815,19.875,7.379-11.848,16.316-11.173,12.367,9.77,12.367,21.513h-8.626s-.1-12.1-4.532-12.69-9.236,13.441-17.761,12.62-5.964-16.52-8.288-16.4-5.9,16.473-15.481,16.473-10.2-12.649-10.2-12.649" transform="translate(-167.515 -221.13)" fill="#e3005c"/><path d="M167.813,238.986h8.441s-1.787,3.972,1.825,4.22,8.773-22.136,16.12-21.789,8.62,19.667,9.815,19.875,7.379-11.848,16.316-11.173,12.367,9.77,12.367,21.513h-8.626s-.1-12.1-4.532-12.69-9.236,13.441-17.761,12.62-5.964-16.52-8.288-16.4-5.9,16.473-15.481,16.473S167.813,238.986,167.813,238.986Z" transform="translate(-167.515 -221.13)" fill="none" stroke="#1a1818" stroke-miterlimit="10" stroke-width="1"/></g></g><g transform="translate(0 0.051)" style="isolation:isolate"><g clip-path="url(#g)"><path d="M10.363.728l2.224,8.143S8.284,8.194,9,11.744s23.666,2.63,25.266,9.808-16.7,13.5-16.585,14.705,13.373,4,15.077,12.8-6.165,14.5-17.494,17.6l-2.273-8.321s11.643-3.287,11.048-7.716S8.636,45.247,7.182,36.807,21.547,26.7,20.818,24.491,3.371,23.136.847,13.9,10.363.728,10.363.728" transform="translate(-0.216 -0.366)" fill="#e3005c"/><path d="M10.363.728l2.224,8.143S8.284,8.194,9,11.744s23.666,2.63,25.266,9.808-16.7,13.5-16.585,14.705,13.373,4,15.077,12.8-6.165,14.5-17.494,17.6l-2.273-8.321s11.643-3.287,11.048-7.716S8.636,45.247,7.182,36.807,21.547,26.7,20.818,24.491,3.371,23.136.847,13.9,10.363.728,10.363.728Z" transform="translate(-0.216 -0.366)" fill="none" stroke="#1a1818" stroke-miterlimit="10" stroke-width="1"/></g></g><g transform="translate(85.814 25.589)" style="isolation:isolate"><g clip-path="url(#b)"><rect width="9.375" height="9.375" transform="translate(0.401 7.03) rotate(-45)" fill="#f67614"/><rect width="9.375" height="9.375" transform="translate(0.401 7.03) rotate(-45)" fill="none" stroke="#1a1818" stroke-miterlimit="10" stroke-width="1"/></g></g><g transform="translate(77.73)" style="isolation:isolate"><g clip-path="url(#b)"><rect width="9.375" height="9.375" transform="translate(0.401 7.03) rotate(-45)" fill="#106bb5"/><rect width="9.375" height="9.375" transform="translate(0.401 7.03) rotate(-45)" fill="none" stroke="#1a1818" stroke-miterlimit="10" stroke-width="1"/></g></g><g transform="translate(29.804)" style="isolation:isolate"><g clip-path="url(#b)"><rect width="9.375" height="9.375" transform="translate(0.401 7.03) rotate(-45)" fill="#ffe600"/><rect width="9.375" height="9.375" transform="translate(0.401 7.03) rotate(-45)" fill="none" stroke="#1a1818" stroke-miterlimit="10" stroke-width="1"/></g></g><g transform="translate(146.665 47.237)" style="isolation:isolate"><g clip-path="url(#b)"><rect width="9.375" height="9.375" transform="translate(0.401 7.03) rotate(-45)" fill="#e3005c"/><rect width="9.375" height="9.375" transform="translate(0.401 7.03) rotate(-45)" fill="none" stroke="#1a1818" stroke-miterlimit="10" stroke-width="1"/></g></g><g transform="translate(124.717 94.7)" style="isolation:isolate"><g clip-path="url(#b)"><rect width="9.375" height="9.375" transform="translate(0.401 7.03) rotate(-45)" fill="#ffe600"/><rect width="9.375" height="9.375" transform="translate(0.401 7.03) rotate(-45)" fill="none" stroke="#1a1818" stroke-miterlimit="10" stroke-width="1"/></g></g><g transform="translate(73.156 124.797)" style="isolation:isolate"><g clip-path="url(#m)"><rect width="12.441" height="12.441" transform="translate(0.401 9.198) rotate(-45)" fill="#e3005c"/><rect width="12.441" height="12.441" transform="translate(0.401 9.198) rotate(-45)" fill="none" stroke="#1a1818" stroke-miterlimit="10" stroke-width="1"/></g></g><g transform="translate(142.018 107.518)" style="isolation:isolate"><g clip-path="url(#m)"><rect width="12.441" height="12.441" transform="translate(0.401 9.198) rotate(-45)" fill="#f67614"/><rect width="12.441" height="12.441" transform="translate(0.401 9.198) rotate(-45)" fill="none" stroke="#1a1818" stroke-miterlimit="10" stroke-width="1"/></g></g><g transform="translate(47.519 38.844)" style="isolation:isolate"><g clip-path="url(#o)"><path d="M88.454,69.449s-15.068,6.585,12.382,38.422c32.429,35.986,45.665,23.854,45.665,23.854s11.8-8.544-17.661-40.562C102.423,64.125,88.454,69.449,88.454,69.449" transform="translate(-84.044 -68.741)" fill="#7c4393"/><path d="M88.454,69.449s-15.068,6.585,12.382,38.422c32.429,35.986,45.665,23.854,45.665,23.854s11.8-8.544-17.661-40.562C102.423,64.125,88.454,69.449,88.454,69.449Z" transform="translate(-84.044 -68.741)" fill="none" stroke="#1a1818" stroke-miterlimit="10" stroke-width="1"/></g></g><path d="M173.795,48.777c.617-2.086-12.9-16.362-6.72-22.729s27.725,3.783,28.418.441-8.7-10.656-1.639-19.229,23.44-6.243,23.44-6.243V9.428s-15.886-1-17.134,3.821,4.806,8.224,3.783,15.635-10.408,6.58-17.782,5.024S175.3,30.472,174.08,32.326s8.492,10.42,8.338,16.079-2.336,8.884-11.611,12.059-20.276,2.858-39.276,12.653c0,0,5.624-11.478,29.75-18.987,9.455-3.2,11.742-2.745,12.514-5.353" transform="translate(-56.969 -0.315)" fill="#f98313"/><path d="M173.795,48.777c.617-2.086-12.9-16.362-6.72-22.729s27.725,3.783,28.418.441-8.7-10.656-1.639-19.229,23.44-6.243,23.44-6.243V9.428s-15.886-1-17.134,3.821,4.806,8.224,3.783,15.635-10.408,6.58-17.782,5.024S175.3,30.472,174.08,32.326s8.492,10.42,8.338,16.079-2.336,8.884-11.611,12.059-20.276,2.858-39.276,12.653c0,0,5.624-11.478,29.75-18.987C170.736,50.932,173.023,51.385,173.795,48.777Z" transform="translate(-56.969 -0.315)" fill="none" stroke="#1a1718" stroke-miterlimit="10" stroke-width="1"/><g transform="translate(85.996 73.491)" style="isolation:isolate"><g clip-path="url(#p)"><path d="M154.234,142.78a61.262,61.262,0,0,1,37.786-12.633c20.328.26,34.6,7.968,34.6,21.321h-8.466s.624-12.53-25.922-12.829c-26.44-.3-38,4.141-38,4.141" transform="translate(-152.799 -129.859)" fill="#106bb5"/><path d="M154.234,142.78a61.262,61.262,0,0,1,37.786-12.633c20.328.26,34.6,7.968,34.6,21.321h-8.466s.624-12.53-25.922-12.829C165.79,138.34,154.234,142.78,154.234,142.78Z" transform="translate(-152.799 -129.859)" fill="none" stroke="#1a1818" stroke-miterlimit="10" stroke-width="1"/></g></g><g transform="translate(51.844 8.652)" style="isolation:isolate"><g clip-path="url(#q)"><path d="M105.059,66.912s6.652-19.8,2.52-33.815c-3.326-8.869-15.622-8.768-15.622-8.768V15.762s25.7-.252,26,25.575a31.014,31.014,0,0,1-12.9,25.575" transform="translate(-91.673 -15.478)" fill="#e3005c"/><path d="M105.059,66.912s6.652-19.8,2.52-33.815c-3.326-8.869-15.622-8.768-15.622-8.768V15.762s25.7-.252,26,25.575A31.014,31.014,0,0,1,105.059,66.912Z" transform="translate(-91.673 -15.478)" fill="none" stroke="#1a1818" stroke-miterlimit="10" stroke-width="1"/></g></g><path d="M12.553,181.539,56.725,78.1s-7.859,9.215,20.643,40.335c0,0,24.586,26.106,39.159,19.053-33.459,14.964-103.974,44.05-103.974,44.05" transform="translate(-5.437 -33.828)" fill="#f67614"/><path d="M12.553,181.539,56.725,78.1s-7.859,9.215,20.643,40.335c0,0,24.586,26.106,39.159,19.053C83.068,152.453,12.553,181.539,12.553,181.539Z" transform="translate(-5.437 -33.828)" fill="none" stroke="#1a1818" stroke-miterlimit="10" stroke-width="1"/><g transform="translate(97.346 126.264)" style="isolation:isolate"><g clip-path="url(#f)"><path d="M172.25,240.811h8.441s-1.787,3.972,1.825,4.22,8.774-22.136,16.12-21.789,8.62,19.667,9.815,19.875,7.379-11.848,16.316-11.173,12.368,9.77,12.368,21.513h-8.626s-.1-12.1-4.532-12.69-9.236,13.441-17.761,12.62-5.964-16.52-8.288-16.4-5.9,16.473-15.481,16.473-10.2-12.649-10.2-12.649" transform="translate(-171.952 -222.954)" fill="#e3005c"/><path d="M172.25,240.811h8.441s-1.787,3.972,1.825,4.22,8.774-22.136,16.12-21.789,8.62,19.667,9.815,19.875,7.379-11.848,16.316-11.173,12.368,9.77,12.368,21.513h-8.626s-.1-12.1-4.532-12.69-9.236,13.441-17.761,12.62-5.964-16.52-8.288-16.4-5.9,16.473-15.481,16.473S172.25,240.811,172.25,240.811Z" transform="translate(-171.952 -222.954)" fill="none" stroke="#1a1818" stroke-miterlimit="10" stroke-width="1"/></g></g><g transform="translate(2.515 1.086)" style="isolation:isolate"><g clip-path="url(#g)"><path d="M14.8,2.553,17.024,10.7s-4.3-.677-3.591,2.873S37.1,16.2,38.7,23.377,22,36.874,22.115,38.082s13.373,4,15.077,12.8-6.165,14.5-17.494,17.6l-2.273-8.321s11.643-3.287,11.048-7.716-15.4-5.368-16.854-13.808S25.984,28.526,25.255,26.316,7.808,24.961,5.284,15.723,14.8,2.553,14.8,2.553" transform="translate(-4.653 -2.191)" fill="#e3005c"/><path d="M14.8,2.553,17.024,10.7s-4.3-.677-3.591,2.873S37.1,16.2,38.7,23.377,22,36.874,22.115,38.082s13.373,4,15.077,12.8-6.165,14.5-17.494,17.6l-2.273-8.321s11.643-3.287,11.048-7.716-15.4-5.368-16.854-13.808S25.984,28.526,25.255,26.316,7.808,24.961,5.284,15.723,14.8,2.553,14.8,2.553Z" transform="translate(-4.653 -2.191)" fill="none" stroke="#1a1818" stroke-miterlimit="10" stroke-width="1"/></g></g><g transform="translate(88.329 26.623)" style="isolation:isolate"><g clip-path="url(#b)"><rect width="9.375" height="9.375" transform="translate(0.401 7.03) rotate(-45)" fill="#f67614"/><rect width="9.375" height="9.375" transform="translate(0.401 7.03) rotate(-45)" fill="none" stroke="#1a1818" stroke-miterlimit="10" stroke-width="1"/></g></g><g transform="translate(80.245 1.035)" style="isolation:isolate"><g clip-path="url(#b)"><rect width="9.375" height="9.375" transform="translate(0.401 7.03) rotate(-45)" fill="#106bb5"/><rect width="9.375" height="9.375" transform="translate(0.401 7.03) rotate(-45)" fill="none" stroke="#1a1818" stroke-miterlimit="10" stroke-width="1"/></g></g><g transform="translate(32.319 1.035)" style="isolation:isolate"><g clip-path="url(#b)"><rect width="9.375" height="9.375" transform="translate(0.401 7.03) rotate(-45)" fill="#ffe600"/><rect width="9.375" height="9.375" transform="translate(0.401 7.03) rotate(-45)" fill="none" stroke="#1a1818" stroke-miterlimit="10" stroke-width="1"/></g></g><g transform="translate(149.179 48.272)" style="isolation:isolate"><g clip-path="url(#b)"><rect width="9.375" height="9.375" transform="translate(0.401 7.03) rotate(-45)" fill="#e3005c"/><rect width="9.375" height="9.375" transform="translate(0.401 7.03) rotate(-45)" fill="none" stroke="#1a1818" stroke-miterlimit="10" stroke-width="1"/></g></g><g transform="translate(127.232 95.734)" style="isolation:isolate"><g clip-path="url(#b)"><rect width="9.375" height="9.375" transform="translate(0.401 7.03) rotate(-45)" fill="#ffe600"/><rect width="9.375" height="9.375" transform="translate(0.401 7.03) rotate(-45)" fill="none" stroke="#1a1818" stroke-miterlimit="10" stroke-width="1"/></g></g><g transform="translate(75.67 125.831)" style="isolation:isolate"><g clip-path="url(#y)"><rect width="12.441" height="12.441" transform="translate(0.401 9.198) rotate(-45)" fill="#e3005c"/><rect width="12.441" height="12.441" transform="translate(0.401 9.198) rotate(-45)" fill="none" stroke="#1a1818" stroke-miterlimit="10" stroke-width="1"/></g></g><g transform="translate(144.533 108.552)" style="isolation:isolate"><g clip-path="url(#y)"><rect width="12.441" height="12.441" transform="translate(0.401 9.198) rotate(-45)" fill="#f67614"/><rect width="12.441" height="12.441" transform="translate(0.401 9.198) rotate(-45)" fill="none" stroke="#1a1818" stroke-miterlimit="10" stroke-width="1"/></g></g><g transform="translate(7.119 63.945)" style="isolation:isolate"><g clip-path="url(#aa)"><path d="M12.989,196.853,61.916,113.7,72.7,128.15Z" transform="translate(-12.744 -113.193)" fill="#ffe944"/><path d="M12.989,196.853,61.916,113.7,72.7,128.15Z" transform="translate(-12.744 -113.193)" fill="none" stroke="#1a1818" stroke-miterlimit="10" stroke-width="1"/></g></g><g transform="translate(50.034 39.879)" style="isolation:isolate"><g clip-path="url(#ab)"><path d="M92.89,71.274S77.822,77.859,105.272,109.7c32.429,35.986,45.665,23.854,45.665,23.854s11.8-8.545-17.661-40.562C106.859,65.95,92.89,71.274,92.89,71.274" transform="translate(-88.48 -70.566)" fill="#a273af"/><path d="M92.89,71.274S77.822,77.859,105.272,109.7c32.429,35.986,45.665,23.854,45.665,23.854s11.8-8.545-17.661-40.562C106.859,65.95,92.89,71.274,92.89,71.274Z" transform="translate(-88.48 -70.566)" fill="none" stroke="#1a1818" stroke-miterlimit="10" stroke-width="1"/></g></g><path d="M178.231,50.6c.617-2.086-12.9-16.362-6.72-22.729s27.725,3.783,28.418.441-8.7-10.656-1.639-19.229,23.44-6.243,23.44-6.243v8.411s-15.886-1-17.135,3.821S209.4,23.3,208.378,30.71s-10.408,6.58-17.782,5.024-10.859-3.436-12.08-1.582,8.492,10.42,8.339,16.079-2.336,8.884-11.611,12.059-20.277,2.858-39.276,12.653c0,0,5.624-11.478,29.75-18.987,9.455-3.2,11.742-2.745,12.514-5.353" transform="translate(-58.891 -1.106)" fill="#f98313"/><path d="M178.231,50.6c.617-2.086-12.9-16.362-6.72-22.729s27.725,3.783,28.418.441-8.7-10.656-1.639-19.229,23.44-6.243,23.44-6.243v8.411s-15.886-1-17.135,3.821S209.4,23.3,208.378,30.71s-10.408,6.58-17.782,5.024-10.859-3.436-12.08-1.582,8.492,10.42,8.339,16.079-2.336,8.884-11.611,12.059-20.277,2.858-39.276,12.653c0,0,5.624-11.478,29.75-18.987C175.172,52.757,177.459,53.21,178.231,50.6Z" transform="translate(-58.891 -1.106)" fill="none" stroke="#1a1718" stroke-miterlimit="10" stroke-width="1"/><g transform="translate(88.511 74.526)" style="isolation:isolate"><g clip-path="url(#p)"><path d="M158.67,144.605a61.262,61.262,0,0,1,37.786-12.633c20.328.26,34.6,7.968,34.6,21.321h-8.466s.624-12.53-25.922-12.83c-26.44-.3-38,4.141-38,4.141" transform="translate(-157.235 -131.684)" fill="#106bb5"/><path d="M158.67,144.605a61.262,61.262,0,0,1,37.786-12.633c20.328.26,34.6,7.968,34.6,21.321h-8.466s.624-12.53-25.922-12.83C170.226,140.165,158.67,144.605,158.67,144.605Z" transform="translate(-157.235 -131.684)" fill="none" stroke="#1a1818" stroke-miterlimit="10" stroke-width="1"/></g></g><g transform="translate(54.359 9.686)" style="isolation:isolate"><g clip-path="url(#q)"><path d="M109.5,68.737s6.652-19.8,2.52-33.815c-3.326-8.869-15.622-8.768-15.622-8.768V17.587s25.7-.252,26,25.575a31.014,31.014,0,0,1-12.9,25.575" transform="translate(-96.11 -17.303)" fill="#e3005c"/><path d="M109.5,68.737s6.652-19.8,2.52-33.815c-3.326-8.869-15.622-8.768-15.622-8.768V17.587s25.7-.252,26,25.575A31.014,31.014,0,0,1,109.5,68.737Z" transform="translate(-96.11 -17.303)" fill="none" stroke="#1a1818" stroke-miterlimit="10" stroke-width="1"/></g></g><line x2="2.515" y2="1.035" transform="translate(4.184 146.935)" fill="none" stroke="#1a1818" stroke-miterlimit="10" stroke-width="1"/><g transform="translate(4.805 144.103)" style="isolation:isolate"><g clip-path="url(#ae)"><rect width="3.06" height="2.153" transform="translate(0 2.816) rotate(-66.932)" fill="#eb3e16"/></g></g><g transform="translate(4.097 77.378)" style="isolation:isolate"><g clip-path="url(#b)"><rect width="9.375" height="9.375" transform="translate(0.401 7.03) rotate(-45)" fill="#106bb5"/><rect width="9.375" height="9.375" transform="translate(0.401 7.03) rotate(-45)" fill="none" stroke="#1a1818" stroke-miterlimit="10" stroke-width="1"/></g></g><g transform="translate(6.612 78.413)" style="isolation:isolate"><g clip-path="url(#b)"><rect width="9.375" height="9.375" transform="translate(0.401 7.03) rotate(-45)" fill="#106bb5"/><rect width="9.375" height="9.375" transform="translate(0.401 7.03) rotate(-45)" fill="none" stroke="#1a1818" stroke-miterlimit="10" stroke-width="1"/></g></g><line x2="2.515" y2="1.035" transform="translate(4.601 84.382)" fill="none" stroke="#1a1818" stroke-miterlimit="10" stroke-width="1"/><line x2="2.515" y2="1.035" transform="translate(11.024 77.636)" fill="none" stroke="#1a1818" stroke-miterlimit="10" stroke-width="1"/><line x2="2.515" y2="1.035" transform="translate(11.228 91.176)" fill="none" stroke="#1a1818" stroke-miterlimit="10" stroke-width="1"/></g></g></svg>