<?xml version="1.0" encoding="UTF-8"?><svg id="Layer_2" xmlns="http://www.w3.org/2000/svg" viewBox="0 0 131.37 221.42"><g id="Layer_1-2"><polygon points="125.75 187.45 .5 219.68 .5 33.34 125.75 .65 125.75 1.75 125.75 187.45" fill="#f15a26" stroke="#231f20" stroke-miterlimit="10"/><polygon points="130.87 188.55 5.62 220.78 5.62 34.44 125.75 3.08 130.87 1.75 130.87 188.55" fill="#f78d26" stroke="#231f20" stroke-miterlimit="10"/><path d="m43.52,122.15l50.63-13.24s-1.13-27.85-25.32-22.33c-22.45,3.46-25.32,35.57-25.32,35.57Z" fill="#fff" stroke="#231f20" stroke-miterlimit="10"/><path d="m47.6,123.17l50.63-13.24s-1.13-27.85-25.32-22.33c-22.45,3.46-25.32,35.57-25.32,35.57Z" fill="#fff" stroke="#231f20" stroke-miterlimit="10"/><path d="m82.77,61.34c.18,8.01-5.33,16.49-12.85,18.54-8.18,2.22-14.56-4.12-13.66-13.61.83-8.76,7.59-16.05,14.66-16.83,6.57-.72,11.69,4.43,11.86,11.9Z" fill="#fff" stroke="#231f20" stroke-miterlimit="10"/><path d="m85.94,62.16c.18,8.01-5.33,16.49-12.85,18.54-8.18,2.22-14.56-4.12-13.66-13.61.83-8.76,7.59-16.05,14.66-16.83,6.57-.72,11.69,4.43,11.86,11.9Z" fill="#fff" stroke="#231f20" stroke-miterlimit="10"/><line x1="5.23" y1="220.92" x2=".1" y2="219.82" fill="none" stroke="#231f20" stroke-miterlimit="10"/><line x1="43.18" y1="122.22" x2="47.6" y2="123.17" fill="none" stroke="#231f20" stroke-miterlimit="10"/><line x1=".5" y1="33.45" x2="5.62" y2="34.54" fill="none" stroke="#231f20" stroke-miterlimit="10"/><line x1="126.14" y1=".5" x2="131.26" y2="1.6" fill="none" stroke="#231f20" stroke-miterlimit="10"/><polygon points="5.13 220.39 5.13 217.52 1.01 217.52 1.01 219.5 5.13 220.39" fill="#f15a26"/><polygon points="126.25 1.04 129.2 1.66 125.24 2.7 125.24 1.3 126.25 1.04" fill="#f15a26"/></g></svg>