<svg xmlns="http://www.w3.org/2000/svg" width="296.796" height="95.831" viewBox="0 0 296.796 95.831"><g transform="translate(-0.628 -125.21)"><g transform="translate(8.386 119.073)"><g transform="translate(217.985 5.836) rotate(2)"><path d="M39.23,8.495a19.268,19.268,0,0,0-6.823-5.933C22.235-2.692,7.167.78,2.03,7.15A8.784,8.784,0,0,0,.042,11.816C-.466,17,3.722,22.018,5.374,23.829c5.233-1.2,10.477-2.381,15.71-3.581-4.736-5.1-2.572-9.014.591-8.384,1.316.264,3.434,2.311,4.4,4.057.346.621,1.127,2.268.044,5.594a14.27,14.27,0,0,1-2.395,4.527,133.725,133.725,0,0,0-8.048,11.316c2.306,2.994,4.612,6.007,6.909,9L59.475,35.453l-7.646-9.992c-5.635,1.659-11.461,3.161-16.782,5.132l-.411-.448c4.757-5.583,11.17-12.9,4.594-21.67Z" transform="translate(0 21.308)" opacity="0.08"/><g transform="translate(23.939 0)"><g transform="translate(0 0)"><path d="M.072.748,0,0,2.828,1.909,2.9,2.67.072.748Z" transform="translate(23.651 47.994)" fill="none" stroke="#040000" stroke-linejoin="bevel" stroke-width="1"/><path d="M19.99,0C13.322,1.105,6.587,1.957,0,3.61L2.828,5.532c6.6-1.653,13.333-2.5,20.012-3.609L20,.013h0Z" transform="translate(23.734 45.145)" fill="#f8d99d" stroke="#040000" stroke-linejoin="bevel" stroke-width="1"/><path d="M0,7.355,43.664,0,46.5,1.923,2.807,9.291,0,7.355Z" transform="translate(0.198 61.803)" fill="none" stroke="#040000" stroke-linejoin="bevel" stroke-width="1"/><path d="M0,0,.165,15.005l2.807,1.936L2.806,1.922,0,0Z" transform="translate(0.033 54.153)" fill="#f8d99d" stroke="#040000" stroke-linejoin="bevel" stroke-width="1"/><path d="M12.266,29.051q-4.691,4.413-9.459,8.705L0,35.82c3.172-2.848,6.332-5.736,9.448-8.692,4.445-4.2,18.08-14.632,16.587-23.9A14.588,14.588,0,0,0,25.293.231c1.441-.785,2.845.336,3.581,4.891C30.367,14.392,16.71,24.855,12.266,29.051Z" transform="translate(0.044 18.333)" fill="#f8d99d" stroke="#040000" stroke-linejoin="bevel" stroke-width="1"/><path d="M0,1.54,17.6,0l2.828,1.9L2.806,3.449,0,1.54Z" transform="translate(0.109 30.062)" fill="none" stroke="#040000" stroke-linejoin="bevel" stroke-width="1"/><path d="M39.135,3.649C31.209-.273,19.017,2.923,12.468,7.47c-7.6,5.337-10.258,15.619-9.553,26.041l-2.806-1.9c-.7-10.423,1.942-20.7,9.542-26.028C17.037.449,31.616-2.95,39.135,3.649Z" transform="translate(0 0)" fill="#f8d99d" stroke="#040000" stroke-linejoin="bevel" stroke-width="1"/><path d="M20.2.52l0-.52,2.849,1.883c0,14.59-11.54,23.914-20.214,31.067L0,31.027C8.546,23.979,19.945,14.8,20.187.52h0Z" transform="translate(23.641 16.953)" fill="none" stroke="#040000" stroke-linejoin="bevel" stroke-width="1"/><path d="M7.559,15.2,4.72,13.318C4.9,6.918,3.008,2.658,0,0,4.614,2.261,7.782,6.961,7.559,15.2Z" transform="translate(39.135 3.649)" fill="#b3e5ff" stroke="#040000" stroke-linejoin="bevel" stroke-width="1"/><path d="M44.146,17.6c0-2.214-.02-6.588-2.3-10.453C35.8-3.072,18.665-1.527,9.05,6.7A24.162,24.162,0,0,0,3.73,13.15C-.542,20.734-.116,29.167.162,32.264Q9.07,31.5,17.989,30.713c-.872-8.7,4.07-14.015,6.669-12.308,1.077.7,1.651,4.245,1.31,7.082-.12,1.012-.56,3.648-4.038,8.334a37.771,37.771,0,0,1-5.615,6.144C12.479,43.219,7.433,47.862.291,54.83c.048,5,.1,10.017.154,15.018l43.7-7.368L44,45.809c-6.668,1.119-13.414,1.957-20.012,3.609l-.072-.761C32.595,41.5,44.134,32.181,44.135,17.591Z" transform="translate(2.537 1.232)" fill="#f0933b" stroke="#040000" stroke-linejoin="bevel" stroke-width="1"/></g></g></g><g transform="translate(166.322 4.191) rotate(5)"><g transform="matrix(0.998, -0.07, 0.07, 0.998, -4.924, 6.394)"><path d="M43.183,4.833,38.249,0,0,17.134l6.485,6.311,24.93-11.189c-1.778,11.8,5.8,23.593,15.461,34.14l12.9-5.852C49.613,29.512,41.362,17.208,43.183,4.812h0Z" transform="translate(11.224 12.023) rotate(14)" opacity="0.08"/><path d="M0,2.169,14.664,0l3.261,1.947L3.249,4.129,0,2.169Z" transform="translate(46.117 65.886)" fill="none" stroke="#000" stroke-linejoin="bevel" stroke-width="1"/><path d="M14.774.013C4.112,15.5.747,35.282,0,54.252L3.249,56.2c.746-19,4.124-38.8,14.8-54.305L14.774,0h0Z" transform="translate(46.117 13.803)" fill="#f8d99d" stroke="#000" stroke-linejoin="bevel" stroke-width="1"/><path d="M0,4.052,28.26,0l3.273,1.894L3.248,5.959,0,4.052Z" transform="translate(32.631 13.816)" fill="none" stroke="#000" stroke-linejoin="bevel" stroke-width="1"/><path d="M0,0,.1,11.7l3.248,1.907L3.261,1.893,0,0Z" transform="translate(32.534 6.164)" fill="#f8d99d" stroke="#000" stroke-linejoin="bevel" stroke-width="1"/><path d="M43.335,0,0,6.164,3.261,8.058,46.621,1.88,43.335,0Z" transform="translate(32.534 0)" fill="#f8d99d" stroke="#000" stroke-linejoin="bevel" stroke-width="1"/><path d="M14.254,1.314,15.14,0l3.285,1.88C7.235,18.194,4,38.974,3.261,58.905L0,56.958C.719,37.587,3.783,17.42,14.266,1.314h0Z" transform="translate(60.794 8.928)" fill="none" stroke="#000" stroke-linejoin="bevel" stroke-width="1"/><path d="M43.412,8.941,43.348,0,0,6.177.084,17.895,28.37,13.843c-10.674,15.5-14.052,35.308-14.8,54.305l14.676-2.182C29,46.035,32.234,25.256,43.412,8.941h0Z" transform="translate(35.795 1.88)" fill="#f0933b" stroke="#000" stroke-linejoin="bevel" stroke-width="1"/></g></g><g transform="matrix(0.998, 0.07, -0.07, 0.998, 53.294, 23.432)"><g transform="translate(0 0)"><path d="M57.2,28.207a2.941,2.941,0,0,0-.232-.385,3.6,3.6,0,0,0-.261-.423c-.068-.115-.154-.231-.231-.346-.222-.3-.443-.59-.693-.873-.106-.141-.221-.27-.337-.4s-.231-.244-.366-.373a1.514,1.514,0,0,0-.173-.18,6.262,6.262,0,0,0-.51-.463c-.029-.026-.058-.064-.077-.077-.211-.167-.394-.334-.605-.489-.279-.219-.567-.425-.855-.618-.163-.116-.336-.219-.5-.322-.307-.181-.643-.374-.989-.542a7.59,7.59,0,0,0-.71-.336,3.782,3.782,0,0,0-.384-.168c-.1-.052-.211-.078-.317-.129-.029,0-.048-.026-.077-.026-.1-.039-.173-.065-.269-.1-.23-.078-.46-.156-.7-.221-.3-.091-.594-.182-.911-.248-.01,0-.029-.013-.048-.013-.144-.039-.3-.065-.441-.092s-.3-.053-.46-.079-.316-.053-.469-.079-.326-.04-.489-.066c-.019.013-.019,0-.038,0-.278-.04-.575-.054-.862-.068-.239-.014-.479-.028-.737-.029-.019.013-.048,0-.077,0-.086,0-.182.012-.287.011-.22,0-.45.01-.68.022s-.478.036-.708.06h-.182a.026.026,0,0,0-.019.013h-.144l-.1-.179-.5-1.013c.22-.088.439-.189.64-.291a4.731,4.731,0,0,0,.477-.24H42.9c.067-.038.153-.076.229-.127a7.746,7.746,0,0,0,3.738-8.866.215.215,0,0,0-.019-.051V10.37a10.924,10.924,0,0,0-1.789-3.717,14.11,14.11,0,0,0-2.28-2.441h-.01A15.734,15.734,0,0,0,41.2,3.041,18.886,18.886,0,0,0,33.42.265a4.582,4.582,0,0,0-.709-.08c-.01-.026-.019,0-.019,0-.057,0-.105-.013-.163-.014A28.95,28.95,0,0,0,28.594.01h-.239c-.086,0-.182.012-.287.011a46.389,46.389,0,0,0-7.177.513s-.01.013-.019.013q-1.435.2-2.869.522A41.133,41.133,0,0,0,14,2.082,29.4,29.4,0,0,0,4.332,6.8c-.01.013-.019.013-.029.025C1.395,9.112-.305,11.929.046,15.19a5.357,5.357,0,0,0,.108.64c.02.115.049.256.069.384.049.256.117.512.2.781a3.652,3.652,0,0,0,.126.371c.048.128.087.256.145.384A.124.124,0,0,0,.7,17.8c.048.1.087.231.145.346.087.192.174.4.271.589.145.282.29.564.454.833.048.09.106.192.164.282.145.231.309.475.472.693q.2.289.434.578A13.713,13.713,0,0,0,3.862,22.5,15.581,15.581,0,0,0,5.9,24.144c.211.129.422.258.653.387s.432.245.662.374h.019c.163.078.317.155.47.22s.3.142.451.207h.019l.01.013a1.836,1.836,0,0,1,.24.091h.01a13.031,13.031,0,0,0,1.457.481c.182.039.364.091.556.131.019,0,.048,0,.057.013l.268.04c.211.052.441.079.671.119.192.027.4.053.613.067.134.013.278.027.412.028.431.028.852.03,1.312.02.144-.012.3-.011.45-.023.2-.012.431-.036.641-.061l.609,1.2c-.373.139-.745.3-1.079.467s-.649.342-.955.506c-.315.2-.592.393-.878.609,0,.013-.029.025-.029.025-.219.178-.429.356-.648.546C6.962,34.16,8.917,42.467,16.854,46.791c.067.026.125.065.192.09.2.116.413.219.633.323.3.142.614.272.921.388s.614.233.921.35a.7.7,0,0,1-.2-.039c.317.129.633.233.949.35a28.355,28.355,0,0,0,8.688,1.285,50.969,50.969,0,0,0,20.607-4.585,17.931,17.931,0,0,0,2.26-1.868,18.192,18.192,0,0,0,3.206-4.164c.142-.229.275-.472.4-.714.028-.051.047-.089.076-.14.1-.191.2-.382.284-.561l.313-.689c.114-.268.218-.536.322-.8a15.989,15.989,0,0,0,.547-1.646l.226-.881c.084-.4.168-.792.243-1.188.047-.268.093-.549.13-.818.046-.358.092-.728.129-1.1.037-.332.054-.665.072-1a11.8,11.8,0,0,0-.57-1.179ZM15.35,16.868c-1.748-3.09.212-5.714,3.4-7.206a13.881,13.881,0,0,1,1.9-.719,14.962,14.962,0,0,1,5-.588h.01c3.2.183,6.153,1.515,7.335,4.41,2.674,4.744-2.955,8.474-8.746,8.546a12.234,12.234,0,0,1-3.793-.493,10.44,10.44,0,0,1-1.256-.48.04.04,0,0,1-.029-.013A8.19,8.19,0,0,1,15.35,16.868Zm18.16,24.039a12.751,12.751,0,0,1-5.566-1,.509.509,0,0,1-.192-.1,6.95,6.95,0,0,1-3.782-4.059.468.468,0,0,1-.048-.128,7.11,7.11,0,0,1-.31-.743c-1.272-3.676,2.332-6.623,6.845-7.725a12.128,12.128,0,0,1,1.2-.237.094.094,0,0,1,.057-.012,14.437,14.437,0,0,1,2.354-.218,10.707,10.707,0,0,1,1.283.032.609.609,0,0,1,.153,0,11.781,11.781,0,0,1,1.619.238c.268.053.556.118.815.2a9.1,9.1,0,0,1,1.371.506c.221.1.432.207.643.31a6.893,6.893,0,0,1,3.166,3.455.129.129,0,0,1,.029.077.291.291,0,0,1,.039.077c.068.115.126.231.174.333a4.781,4.781,0,0,1,.329.807,4.207,4.207,0,0,1,.246,1.331c0,.115,0,.243-.008.371a4.58,4.58,0,0,1-.85,2.45,3.988,3.988,0,0,1-.257.344c-1.8,2.266-5.544,3.7-9.315,3.7Z" transform="translate(0 19.486)" opacity="0.08"/><path d="M.012,0Z" transform="translate(15.229 33.489)" fill="#b3e5ff" stroke="#000" stroke-linejoin="bevel" stroke-width="1"/><path d="M1.161.874A7.544,7.544,0,0,1,0,0,7.81,7.81,0,0,0,1.161.874Z" transform="translate(15.441 33.677)" fill="#b3e5ff" stroke="#000" stroke-linejoin="bevel" stroke-width="1"/><path d="M.713,0A14.544,14.544,0,0,1,0,1.719C.258,1.159.492.586.713,0Z" transform="translate(58.435 53.648)" fill="none" stroke="#000" stroke-linejoin="bevel" stroke-width="1"/><path d="M3.516,1.981a7.686,7.686,0,0,0-.785-.231c-.224-.055-.448-.109-.685-.15-.025,0-.05-.014-.075-.014-.087-.014-.174-.028-.274-.041-.212-.028-.436-.056-.659-.07C.753,1.446.455,1.431.169,1.429H.007L0,0C.212.068.411.136.61.217A1.864,1.864,0,0,1,.9.325c.2.081.386.176.573.27a6.983,6.983,0,0,1,.686.377c.224.135.437.283.649.431a7.738,7.738,0,0,1,.712.578Z" transform="translate(49.493 31.93)" fill="#8bd4fa" stroke="#000" stroke-linejoin="bevel" stroke-width="1"/><path d="M.137.041A.241.241,0,0,1,.025.013L0,0A.539.539,0,0,1,.137.041Z" transform="translate(40.304 39.72)" fill="none" stroke="#000" stroke-linejoin="bevel" stroke-width="1"/><path d="M5,7.809,1.782,5.924,1.732,5.9l0-.614a8.792,8.792,0,0,0-.374-2.846c.025-.013.012-.013,0-.027a1.883,1.883,0,0,0-.088-.241c-.025-.08-.063-.161-.088-.241a.435.435,0,0,1-.063-.134c0-.027-.025-.054-.038-.08a1.238,1.238,0,0,0-.1-.227A5.126,5.126,0,0,0,0,0,6.842,6.842,0,0,1,1.408.568a4.436,4.436,0,0,1,.686.391,7.135,7.135,0,0,1,1.061.9c.162.174.313.349.463.536A7.735,7.735,0,0,1,5,7.809Z" transform="translate(40.453 39.774)" fill="none" stroke="#000" stroke-linejoin="bevel" stroke-width="1"/><path d="M18.3,2.38a8.936,8.936,0,0,1-.069,1.161,8.145,8.145,0,0,1-.389,1.84c-.049.16-.11.333-.172.493C15.731,10.925,9.663,13.617,4.8,13A7.873,7.873,0,0,1,0,10.763c.2.068.4.122.61.177a13.683,13.683,0,0,0,1.481.208h.075c5.436.362,12.047-3.2,12.8-9.439.024-.2.035-.4.047-.6.012-.147.011-.28.01-.427V.614s.012-.093.012-.133c0-.16,0-.32-.015-.481l.05.027,3.217,1.886c.013.16.014.32.015.467Z" transform="translate(27.166 45.67)" fill="none" stroke="#000" stroke-linejoin="bevel" stroke-width="1"/><path d="M0,15.2a9.476,9.476,0,0,0,3.794.247c.075-.013.162-.026.249-.039a1.675,1.675,0,0,0,.36-.052,10.9,10.9,0,0,0,1.913-.5c.2-.066.4-.145.6-.224s.385-.172.571-.264a11.829,11.829,0,0,0,2.132-1.324c.235-.186.471-.385.693-.6.2-.186.384-.372.569-.571A8.9,8.9,0,0,0,11.989,10.4c.111-.173.21-.359.308-.546a3,3,0,0,0,.222-.453c.049-.107.1-.213.148-.333a5.054,5.054,0,0,0,.221-.613.952.952,0,0,1,.049-.133c.049-.16.1-.32.134-.493a7.242,7.242,0,0,0,.17-.907c.024-.187.036-.36.047-.547.024-.267.035-.534.033-.814V5.255l0-.6a5.485,5.485,0,0,0-.041-.788,4.972,4.972,0,0,0-.078-.6c-.026-.147-.051-.307-.089-.454a4.312,4.312,0,0,0-.152-.575A.9.9,0,0,0,12.881,2l-.076-.241q-.094-.221-.188-.4H12.6a3.511,3.511,0,0,0-.2-.375,4.325,4.325,0,0,0-.376-.563C11.916.268,11.8.134,11.678,0c2.938.763,5.113,3.044,4.884,7.155C16.991,16.088,4.925,20.4,0,15.213Z" transform="translate(27.988 13.295)" fill="none" stroke="#000" stroke-linejoin="bevel" stroke-width="1"/><path d="M49.92,42.835c-.013-.2-.027-.414-.053-.614-.013-.16-.039-.334-.065-.494-.064-.441-.141-.882-.243-1.31-.038-.2-.089-.388-.14-.588s-.1-.374-.164-.562A2.247,2.247,0,0,0,49.168,39a6.1,6.1,0,0,0-.265-.722.269.269,0,0,0-.038-.107c-.113-.268-.214-.522-.339-.763-.163-.335-.339-.669-.527-.977-.1-.174-.213-.348-.326-.509a7.591,7.591,0,0,0-.676-.9,7.383,7.383,0,0,0-.513-.577,2.979,2.979,0,0,0-.287-.282c-.075-.08-.162-.148-.237-.228-.025-.013-.037-.04-.062-.054a2.453,2.453,0,0,1-.212-.175c-.175-.148-.362-.282-.549-.417a7.418,7.418,0,0,0-.748-.484c-.012,0-.025-.013-.037-.027-.125-.067-.249-.135-.374-.189s-.262-.122-.4-.189-.274-.122-.411-.176-.287-.108-.436-.162c0,0,0-.013-.025-.013a7.684,7.684,0,0,0-.785-.231c-.224-.055-.448-.109-.685-.15-.025,0-.05-.014-.075-.014-.087-.014-.174-.028-.274-.041-.212-.028-.436-.056-.659-.07-.286-.028-.585-.043-.871-.045H39.2l-.008-1.736a6.933,6.933,0,0,0,.732-.277c.2-.079.385-.158.571-.251H40.5a2.546,2.546,0,0,0,.273-.132c4.069-2.075,6.833-6.573,7.655-11.429a.106.106,0,0,0,.012-.067v-.04A15.908,15.908,0,0,0,46.513,6.7a12.288,12.288,0,0,0-6.055-5.011,4.055,4.055,0,0,0-.635-.23c0-.027-.013-.013-.013-.013a18.921,18.921,0,0,0-3.8-.9h-.037c-.062,0-.124-.027-.187-.028C35.7.507,35.615.493,35.515.479a35.93,35.93,0,0,0-14.261.54A32.95,32.95,0,0,0,9.924,5.861c-.012.013-.025.013-.037.027A19.009,19.009,0,0,0,2.017,16.394c-.012.067-.037.12-.049.187-.073.28-.146.573-.195.867-.036.173-.073.36-.109.533-.073.36-.133.72-.181,1.094-.024.173-.048.347-.06.534s-.036.36-.035.534a.127.127,0,0,0-.012.067c-.012.16-.023.334-.022.494-.011.28-.022.574-.021.854q0,.6.043,1.2c0,.134.014.267.027.4.027.347.066.695.117,1.029.039.281.09.561.141.842l.038.16a13.629,13.629,0,0,0,.482,1.9,12.734,12.734,0,0,0,1.169,2.556c.138.214.276.429.426.643s.3.4.463.6V30.9c.113.134.225.255.338.376s.225.228.337.349h.012l.012.013a2.162,2.162,0,0,1,.175.174h.012a7.81,7.81,0,0,0,1.161.874c.15.094.3.188.461.269.012.013.037.014.05.027.075.04.15.068.224.108.187.094.386.176.586.257.174.068.361.135.548.19.125.041.249.081.374.109a8.869,8.869,0,0,0,1.232.233l.435.042c.2.014.423.029.634.03l.008,1.722c-.41.131-.832.289-1.229.461s-.769.356-1.141.541c-.384.212-.744.437-1.1.675-.012,0-.037.027-.05.04-.285.2-.57.411-.855.623-.037.027-.074.066-.111.093-6.689,5.426-8.648,16.911-3.18,24,.05.054.088.107.138.161a5.949,5.949,0,0,0,.45.536,8.649,8.649,0,0,0,.687.684c.225.215.475.416.712.618a.648.648,0,0,1-.174-.081c.237.215.487.416.737.618a16.711,16.711,0,0,0,6.7,2.945c8.477,1.86,19.706-.726,26.775-4.761a22.955,22.955,0,0,0,2.938-1.947,20.179,20.179,0,0,0,4.17-4.344c.185-.239.358-.492.519-.745.037-.053.062-.093.1-.146.136-.2.259-.4.37-.586l.407-.719c.148-.28.283-.559.419-.839.258-.559.492-1.132.713-1.719l.294-.92c.11-.413.22-.827.317-1.24.061-.28.122-.573.17-.854.06-.374.121-.76.169-1.147.048-.347.071-.694.094-1.041,0-.053.012-.093.012-.147s.012-.147.011-.214c.023-.32.034-.667.032-1a18,18,0,0,0,.016-1.829c-.013-.187-.014-.374-.04-.561ZM21.66,56.814a7.873,7.873,0,0,1-4.8-2.241.6.6,0,0,1-.138-.174,7.669,7.669,0,0,1-1.683-6.123.879.879,0,0,1,.012-.174,9.775,9.775,0,0,1,.057-1.054,9.053,9.053,0,0,1,.868-3.08c1.675-3.449,5.432-5.7,9.184-6.294a11.958,11.958,0,0,1,3.643-.061,7.66,7.66,0,0,1,.958.192.76.76,0,0,1,.237.055.535.535,0,0,1,.137.041,1.173,1.173,0,0,1,.2.068,5.854,5.854,0,0,1,1.221.514,4.436,4.436,0,0,1,.686.391,5.838,5.838,0,0,1,1.061.9c.162.174.313.349.463.536a7.735,7.735,0,0,1,1.382,5.414c.013.16.014.32.015.467a8.936,8.936,0,0,1-.069,1.161,8.145,8.145,0,0,1-.389,1.84c-.049.16-.11.333-.172.493a10.676,10.676,0,0,1-4.067,5.052,12.311,12.311,0,0,1-8.807,2.077Zm7.69-45.393h.012c2.938.763,5.113,3.044,4.884,7.155a8.85,8.85,0,0,1-.837,4.268c-2.782,5.9-11.675,8.07-15.725,3.79v-.027a8.025,8.025,0,0,1-2.015-5.3,8.529,8.529,0,0,1,1.479-5.279,12.091,12.091,0,0,1,12.214-4.61Z" transform="translate(10.304 1.86)" fill="#f0933b" stroke="#000" stroke-linejoin="bevel" stroke-width="1"/><path d="M12.8,0C12.184,6.365,5.474,10.055,0,9.439,5.436,9.8,12.047,6.244,12.8,0Z" transform="translate(29.331 47.379)" fill="none" stroke="#000" stroke-linejoin="bevel" stroke-width="1"/><path d="M2.361,6.34a3.477,3.477,0,0,1-.623-.217A7.669,7.669,0,0,1,.055,0c0,.147,0,.294.015.441a8.687,8.687,0,0,0,2.292,5.9Z" transform="translate(25.289 50.136)" fill="none" stroke="#000" stroke-linejoin="bevel" stroke-width="1"/><path d="M10.052,0C5.356.8.634,4.183,0,9.374.5,4.183,5.281.763,10.052,0Z" transform="translate(25.413 39.534)" fill="none" stroke="#000" stroke-linejoin="bevel" stroke-width="1"/><path d="M.427,3.487C.415,3.634.4,3.78.392,3.94c0-.16,0-.32-.015-.481l0-.614A8.792,8.792,0,0,0,0,0,8.547,8.547,0,0,1,.427,3.487Z" transform="translate(41.808 42.211)" fill="none" stroke="#000" stroke-linejoin="bevel" stroke-width="1"/><g transform="translate(7.172 0)"><path d="M45.125,25.586c-.212-.148-.424-.3-.649-.431a6.983,6.983,0,0,0-.686-.377c-.187-.094-.374-.189-.573-.27a1.864,1.864,0,0,0-.287-.108c-.2-.081-.4-.149-.61-.217l.007,1.429h.162c.286,0,.585.016.871.045.224.015.448.042.659.07.1.014.187.028.274.041.025,0,.05.014.075.014a5.72,5.72,0,0,1,.685.15,7.686,7.686,0,0,1,.785.231A7.737,7.737,0,0,0,45.125,25.586ZM5.638,8.853a17.294,17.294,0,0,0-.891,3.467,1.475,1.475,0,0,1,.049-.227c.036-.173.073-.36.109-.533.048-.293.122-.587.195-.867A18.975,18.975,0,0,1,13.019,0,17.918,17.918,0,0,0,5.638,8.853ZM8.057,25.741s0,.013.012.013h0ZM38.28,39.836A7.735,7.735,0,0,0,36.9,34.421c-.15-.188-.3-.362-.463-.536a5.837,5.837,0,0,0-1.061-.9,4.436,4.436,0,0,0-.686-.391,6.084,6.084,0,0,0-1.42-.581.535.535,0,0,0-.137-.041l.025.013a6.026,6.026,0,0,1,.751.952c.063.094.125.188.175.281h.012c.05.107.113.2.163.295a1.238,1.238,0,0,1,.1.227l.038.08a.435.435,0,0,0,.063.134c.025.08.063.161.088.241a1.881,1.881,0,0,1,.088.241c.012.013.025.013,0,.027a8.792,8.792,0,0,1,.374,2.846l0,.614c.013.16.014.32.015.481,0,.04-.012.093-.012.133V38.6c0,.147,0,.28-.01.427-.011.2-.023.4-.047.6-.753,6.244-7.364,9.8-12.8,9.439h-.075a9.1,9.1,0,0,1-1.606-.342,8.687,8.687,0,0,1-2.292-5.9c-.013-.147-.014-.294-.015-.441a7.669,7.669,0,0,0,1.683,6.123.6.6,0,0,0,.138.174,7.873,7.873,0,0,0,4.8,2.241c4.866.853,10.958-1.986,12.873-7.129.061-.16.123-.333.172-.493a8.144,8.144,0,0,0,.389-1.84,8.934,8.934,0,0,0,.069-1.161C38.294,40.156,38.293,40,38.28,39.836ZM18.241,41.16c.634-5.19,5.356-8.57,10.052-9.374C23.522,32.55,18.738,35.97,18.241,41.16ZM37.378,12.689c.229-4.111-1.946-6.392-4.884-7.155h-.012c.125.134.25.268.363.416a4.324,4.324,0,0,1,.376.563,3.582,3.582,0,0,1,.213.375h0c.063.134.126.268.189.415l.076.241a.9.9,0,0,1,.076.241,4.311,4.311,0,0,1,.152.575c.038.147.064.307.089.454a4.974,4.974,0,0,1,.078.6c.026.254.04.521.041.788l0,.6v.307a.877.877,0,0,1-.024.254c0,.187-.011.374-.01.561s-.023.36-.047.547a7.245,7.245,0,0,1-.17.907c-.036.173-.085.333-.134.493a.953.953,0,0,0-.049.133,5.054,5.054,0,0,1-.221.613c-.049.12-.1.226-.148.333a3,3,0,0,1-.222.453c-.1.186-.2.373-.308.546a8.9,8.9,0,0,1-1.112,1.476c-.186.2-.371.385-.569.571-.223.212-.458.411-.693.6A11.829,11.829,0,0,1,28.3,19.918h0a5.432,5.432,0,0,1-.571.264c-.2.079-.4.158-.6.224a10.9,10.9,0,0,1-1.913.5c-.124.026-.249.039-.36.052-.087.013-.174.026-.249.039A9.52,9.52,0,0,1,20.8,20.72v.027c4.924,5.192,16.991.876,16.562-8.058Zm-23.4,15.379a4.949,4.949,0,0,1-.634-.03L12.905,28a8.869,8.869,0,0,1-1.232-.233c-.124-.027-.249-.068-.374-.109-.187-.054-.374-.122-.548-.19l0,.427c-.335.105-.658.224-.981.355-.285.105-.559.224-.831.356A15,15,0,0,0,.952,37.76c-.024.08-.061.173-.086.267A19.137,19.137,0,0,0,.16,46.234,14.9,14.9,0,0,0,8.089,58.117c.013.013.025.027.037.027a.648.648,0,0,0,.174.081c-.237-.188-.474-.4-.712-.618a8.49,8.49,0,0,1-.687-.684,5.948,5.948,0,0,1-.45-.536c-.05-.054-.088-.107-.138-.161C.82,49.094,2.829,37.516,9.6,32.131c.285-.212.57-.424.855-.623.012-.013.037-.027.05-.04.359-.238.719-.464,1.1-.675.372-.185.744-.37,1.141-.541A12.606,12.606,0,0,1,14,29.79l-.008-1.722Z" transform="translate(0 7.747)" fill="#f8d99d" stroke="#000" stroke-linejoin="bevel" stroke-width="1"/><path d="M42.377,3.553a4.055,4.055,0,0,0-.635-.23c0-.027-.012-.013-.012-.013a18.921,18.921,0,0,0-3.8-.9h-.037c-.062,0-.124-.027-.187-.028-.087-.014-.174-.028-.274-.041a35.93,35.93,0,0,0-14.261.54,32.95,32.95,0,0,0-11.33,4.841c-.012.013-.025.013-.037.027A17.918,17.918,0,0,0,4.426,16.6a17.294,17.294,0,0,0-.891,3.467c-.061.293-.1.574-.133.867-.024.173-.048.347-.06.534s-.036.36-.035.534a.127.127,0,0,0-.012.067c-.012.16-.023.334-.022.494-.011.28-.022.574-.021.854q0,.6.043,1.2c0,.134.014.267.027.4.027.347.066.695.117,1.029.039.281.09.561.141.842a16.02,16.02,0,0,0,.52,2.059A12.734,12.734,0,0,0,5.268,31.5c.138.214.276.429.426.643s.3.4.463.6v.013c.113.134.225.255.338.376s.225.228.337.349C2.586,32.171.476,27.848.068,23.16v-.027a19.937,19.937,0,0,1,1.1-8.419A18.562,18.562,0,0,1,10.635,4.684c.149-.079.273-.145.409-.211C17.346,1.181,28.289-1.433,36.532.88a.635.635,0,0,1,.261.068,14.161,14.161,0,0,1,5.571,2.606Z" transform="translate(1.212 0)" fill="#f8d99d" stroke="#000" stroke-linejoin="bevel" stroke-width="1"/><path d="M17.816,8.331a8.935,8.935,0,0,1-.069,1.161,8.145,8.145,0,0,1-.389,1.84c-.049.16-.11.333-.172.493-1.915,5.143-8.007,7.982-12.873,7.129A7.8,7.8,0,0,1,.125,16.891,1.238,1.238,0,0,1,0,16.756a9.1,9.1,0,0,0,1.606.342H1.68c5.436.362,12.047-3.2,12.8-9.439.024-.2.035-.4.047-.6.012-.147.011-.28.01-.427V6.565s.012-.093.012-.133c0-.16,0-.32-.015-.481l0-.614a8.792,8.792,0,0,0-.374-2.846c.025-.013.012-.013,0-.027a1.882,1.882,0,0,0-.088-.241c-.025-.08-.063-.161-.088-.241a.435.435,0,0,1-.063-.134c0-.027-.025-.054-.038-.08a1.238,1.238,0,0,0-.1-.227c-.05-.094-.113-.187-.163-.281H13.6a2.253,2.253,0,0,0-.176-.295,6.026,6.026,0,0,0-.751-.952L12.653,0a.539.539,0,0,1,.137.041,6.084,6.084,0,0,1,1.42.581,4.436,4.436,0,0,1,.686.391,5.838,5.838,0,0,1,1.061.9c.163.174.313.349.463.536A7.735,7.735,0,0,1,17.8,7.863c.013.16.014.32.015.467Z" transform="translate(20.479 39.72)" fill="#f8d99d" stroke="#000" stroke-linejoin="bevel" stroke-width="1"/><path d="M0,15.2v-.027a9.521,9.521,0,0,0,3.806.273c.075-.013.162-.026.249-.039a1.8,1.8,0,0,0,.36-.052,10.9,10.9,0,0,0,1.913-.5c.2-.066.4-.145.6-.224s.385-.172.571-.264a11.828,11.828,0,0,0,2.132-1.324c.235-.186.471-.385.693-.6.2-.186.384-.372.569-.571A8.9,8.9,0,0,0,12,10.4c.111-.173.21-.359.308-.546a3,3,0,0,0,.222-.453c.049-.107.1-.213.148-.333a5.054,5.054,0,0,0,.221-.613.952.952,0,0,1,.049-.133c.049-.16.1-.32.134-.493a7.242,7.242,0,0,0,.17-.907c.024-.187.036-.36.047-.547s.011-.374.01-.561c.012-.08.012-.173.024-.254V5.255l0-.6a5.485,5.485,0,0,0-.041-.788,4.972,4.972,0,0,0-.078-.6c-.026-.147-.051-.307-.089-.454a4.313,4.313,0,0,0-.152-.575A.9.9,0,0,0,12.894,2l-.076-.241q-.094-.221-.188-.4h-.012a3.511,3.511,0,0,0-.2-.375,4.325,4.325,0,0,0-.376-.563C11.928.268,11.8.134,11.678,0h.012c2.938.763,5.113,3.044,4.884,7.155C17,16.088,4.937,20.405.013,15.213Z" transform="translate(20.816 13.295)" fill="#f8d99d" stroke="#000" stroke-linejoin="bevel" stroke-width="1"/></g><path d="M6.756,0A10.018,10.018,0,0,1,0,7.028,10.311,10.311,0,0,0,6.756,0Z" transform="translate(34.304 21.126)" fill="none" stroke="#000" stroke-linejoin="bevel" stroke-width="1"/><path d="M.929,4.3A2.138,2.138,0,0,0,.905,4.6V4.29A7.554,7.554,0,0,0,0,0,7.4,7.4,0,0,1,.941,4.3Z" transform="translate(40.405 14.26)" fill="none" stroke="#000" stroke-linejoin="bevel" stroke-width="1"/></g></g><g transform="matrix(0.998, 0.07, -0.07, 0.998, -3.465, 30.134)"><g transform="translate(0 0)"><path d="M53.832,25.687c.149.249.289.487.421.736.088.151.158.292.237.433a12.389,12.389,0,0,1,1.687,6.651c-.384,3.835-5.494,7.574-12.07,9.7-6.011,2.333-13.385,2.942-19.579.714-.487-.176-.982-.373-1.451-.581a18.073,18.073,0,0,1-5.423-3.721c-.305-.3-.593-.629-.881-.954L25.5,34.709l1.331-.6.547.144h0a8.6,8.6,0,0,0,2.691,2.022h.009C36.594,39.5,45.5,34.126,41.859,28.466a11.213,11.213,0,0,0-8.274-4.882c-4.841-.57-9.543,1.62-9.278,5.459L12.172,30.494,11.5,29.207,0,7.371,34.34.533,36.99,0l4.187,7.163L15.4,12.31l3.42,6.565h0l1.456,2.8a13.539,13.539,0,0,1,4.557-3.4c.519-.255,1.063-.489,1.617-.712a24.139,24.139,0,0,1,6.537-1.413c.295-.02.589-.039.875-.048a5.461,5.461,0,0,1,.589-.018q.351-.014.7,0l.746,0c.494,0,.988.039,1.492.085s.989.1,1.483.171c.174.033.347.045.521.079s.33.056.495.089h.043c.365.078.729.145,1.085.233a.11.11,0,0,1,.078.022c.208.055.425.1.643.166a.348.348,0,0,1,.148.044c.217.055.434.121.651.187.478.143.947.308,1.416.483.209.077.391.153.591.241a1.761,1.761,0,0,1,.252.1c.183.077.365.164.556.252.339.153.678.317,1.009.492h0c.331.185.652.36.983.556a14.962,14.962,0,0,1,1.262.817c.209.141.409.294.618.446a17.794,17.794,0,0,1,1.726,1.509c.183.174.358.358.541.553s.349.38.524.575a4.317,4.317,0,0,1,.489.607c.157.206.315.412.472.628s.306.444.455.682c.122.184.245.39.368.584Z" transform="translate(0 16.231)" opacity="0.08"/><path d="M13.159,2.66,2.775,7.315,0,5.519,12.308,0l.1.451A7.8,7.8,0,0,0,13.159,2.66Z" transform="translate(15.919 47.973)" fill="#8bd4fa" stroke="#000" stroke-linejoin="bevel" stroke-width="1"/><path d="M40,0l.013,2.192L3.86,7.882,2.838,40.937,0,41.082,1.075,6.123Z" transform="translate(16.038 0)" fill="#8bd4fa" stroke="#000" stroke-linejoin="bevel" stroke-width="1"/><path d="M2.838,0,2.775,1.941,0,.144Z" transform="translate(16.038 40.937)" fill="#8bd4fa" stroke="#000" stroke-linejoin="bevel" stroke-width="1"/><g transform="translate(15.919 0)"><path d="M21.652,3.273a1.124,1.124,0,0,0-.279-.115h-.011l-.022-.025-.419-.191c-.15-.064-.3-.115-.451-.178a11.748,11.748,0,0,0-1.31-.434A12.744,12.744,0,0,0,17.8,2.021c-.225-.039-.461-.078-.7-.1a5.736,5.736,0,0,0-.665-.079A4.215,4.215,0,0,0,15.87,1.8c-.279-.014-.568-.029-.857-.031A19.643,19.643,0,0,0,8.067,3.01c-.641.246-1.282.518-1.913.827A22.208,22.208,0,0,0,0,8.205L.146,3.973c.213-.149.427-.3.651-.447,0,0,0-.013.011-.012A21.836,21.836,0,0,1,10.846.047l.685-.033a15.589,15.589,0,0,1,2.025.051c.246.014.5.041.75.08a13.633,13.633,0,0,1,7.346,3.128Z" transform="translate(15.345 22.919)" fill="#f8d99d" stroke="#000" stroke-linejoin="bevel" stroke-width="1"/><path d="M15.388,8.1C15.74,16.754,4.4,23.456,0,17.98c5.171,1.311,12.881-4.513,12.581-11.666A9.386,9.386,0,0,0,10.24,0C13.009.907,15.189,3.526,15.388,8.1Z" transform="translate(16.636 35.493)" fill="#f8d99d" stroke="#000" stroke-linejoin="bevel" stroke-width="1"/><path d="M7.229,10.378C3.77,8.766,1.159,5.668.144.765.089.514.044.263,0,0L2.775,1.8c.089.514.188,1.016.309,1.492a13.956,13.956,0,0,0,3.09,6.069A12.413,12.413,0,0,0,7.229,10.378Z" transform="translate(0 53.492)" fill="#f8d99d" stroke="#000" stroke-linejoin="bevel" stroke-width="1"/><path d="M15.093,1.8l-.353.161-1.581.7L2.775,7.315,0,5.519,12.308,0Z" transform="translate(0 47.973)" fill="#f8d99d" stroke="#000" stroke-linejoin="bevel" stroke-width="1"/><path d="M3.86,1.759,2.838,34.814l-.063,1.941L0,34.958,1.075,0Z" transform="translate(0.118 6.123)" fill="#f8d99d" stroke="#000" stroke-linejoin="bevel" stroke-width="1"/><path d="M41.731,1.746l-2.793.445L2.785,7.882,0,6.123,38.925,0Z" transform="translate(1.193 0)" fill="#f8d99d" stroke="#000" stroke-linejoin="bevel" stroke-width="1"/></g><path d="M21.341,3.133l-.419-.191c-.15-.064-.3-.115-.451-.178a11.746,11.746,0,0,0-1.31-.434A12.744,12.744,0,0,0,17.8,2.021c-.225-.039-.461-.078-.7-.1a5.738,5.738,0,0,0-.665-.079A4.214,4.214,0,0,0,15.87,1.8c-.279-.014-.568-.029-.857-.031A19.643,19.643,0,0,0,8.067,3.01c-.641.246-1.282.518-1.913.827A22.208,22.208,0,0,0,0,8.205L.146,3.973h0A7.739,7.739,0,0,1,.8,3.526s0-.013.011-.012A21.07,21.07,0,0,1,10.846.047l.685-.033a15.589,15.589,0,0,1,2.025.051c.246.014.5.041.75.08A13.666,13.666,0,0,1,21.341,3.133Z" transform="translate(31.264 22.919)" fill="none" stroke="#000" stroke-linejoin="bevel" stroke-width="1"/><path d="M42.057,39.3c0,.376,0,.739,0,1.115,0,.225-.008.438-.017.664a26.9,26.9,0,0,1-2.03,9.843c-2.452,5.52-9.311,10.309-16.679,12.579C16.38,66.133,9.085,66.123,4.454,62.124A12.416,12.416,0,0,1,3.4,61.1a13.957,13.957,0,0,1-3.09-6.069c-.121-.477-.22-.978-.309-1.492l10.385-4.654,1.581-.7.441.278h0a7.2,7.2,0,0,0,1.444,3.265h.011C18.265,57.2,29.6,50.5,29.25,41.845c-.2-4.572-2.379-7.191-5.148-8.1-4.261-1.418-9.891,1.176-11.732,6.775l-12.251.61.063-1.941L1.2,6.136,37.357.445,40.15,0l.066,10.9-27.152,4.3-.347,9.941h0l-.146,4.244a22.208,22.208,0,0,1,6.155-4.369c.63-.309,1.271-.58,1.913-.827a19.643,19.643,0,0,1,6.945-1.245c.289,0,.579.016.857.031a4.214,4.214,0,0,1,.568.041,5.737,5.737,0,0,1,.665.079c.236.027.472.066.7.1a12.745,12.745,0,0,1,1.362.309c.44.128.88.269,1.31.434.15.064.3.115.451.178l.419.191.021.013h.011c.312.152.612.3.9.469a.09.09,0,0,1,.065.038c.172.1.344.2.516.316a.251.251,0,0,1,.118.076c.172.114.344.228.516.354a10.88,10.88,0,0,1,1.076.871c.151.139.291.265.431.416a.8.8,0,0,1,.183.177c.129.139.259.277.388.428.237.265.464.541.691.831h0c.216.3.421.6.627.931a9.87,9.87,0,0,1,.747,1.345c.119.239.228.477.336.729a16.874,16.874,0,0,1,.807,2.4c.077.276.143.564.209.865s.121.589.177.9a6.577,6.577,0,0,1,.134.94c.034.313.068.639.1.965s.047.689.06,1.04C42.043,38.7,42.056,39,42.057,39.3Z" transform="translate(18.694 1.747)" fill="#f0933b" stroke="#000" stroke-linejoin="bevel" stroke-width="1"/><path d="M.9.457Q.467.21,0,0A1.125,1.125,0,0,1,.279.115,6.252,6.252,0,0,1,.9.457Z" transform="translate(52.638 26.077)" fill="none" stroke="#000" stroke-linejoin="bevel" stroke-width="1"/><path d="M.807,2.4A16.872,16.872,0,0,0,0,0,14.551,14.551,0,0,1,.807,2.4Z" transform="translate(59.236 33.045)" fill="none" stroke="#000" stroke-linejoin="bevel" stroke-width="1"/><path d="M0,0,0,.451c0,.376,0,.739,0,1.115C.018,1.027.015.514,0,0Z" transform="translate(60.747 40.594)" fill="none" stroke="#000" stroke-linejoin="bevel" stroke-width="1"/><path d="M.084,1.478C.07.977.046.476,0,0,.023.338.047.689.06,1.04.071,1.19.083,1.328.084,1.478Z" transform="translate(60.665 39.116)" fill="none" stroke="#000" stroke-linejoin="bevel" stroke-width="1"/><path d="M.441.439,0,.161.353,0C.375.15.408.3.441.439Z" transform="translate(30.66 49.769)" fill="#d9f2ff" stroke="#000" stroke-linejoin="bevel" stroke-width="1"/></g></g><g transform="matrix(0.999, 0.052, -0.052, 0.999, 123.203, 78.721)"><g transform="translate(0 0)" fill="#f8d99d"><path d="M 4.396402359008789 8.845830917358398 L 4.37758207321167 8.845781326293945 C 2.250602245330811 8.834771156311035 0.5111523270606995 6.951651096343994 0.5000523328781128 4.6479811668396 C 0.4944823086261749 3.492301225662231 0.9378622770309448 2.380751132965088 1.716492295265198 1.598361134529114 C 2.421372413635254 0.8900711536407471 3.341922283172607 0.4999911785125732 4.308542251586914 0.4999911785125732 L 4.327362537384033 0.5000411868095398 C 6.454342365264893 0.5110511779785156 8.193792343139648 2.394171237945557 8.204892158508301 4.697841167449951 C 8.21046257019043 5.853521347045898 7.767082214355469 6.965071201324463 6.988452434539795 7.747461318969727 C 6.283572196960449 8.455751419067383 5.363022327423096 8.845830917358398 4.396402359008789 8.845830917358398 Z" stroke="none"/><path d="M 4.308542251586914 0.9999914169311523 C 3.475932121276855 0.9999914169311523 2.681252479553223 1.337751388549805 2.070902347564697 1.951051235198975 C 1.385432243347168 2.639841079711914 0.9951224327087402 3.621951103210449 1.000052452087402 4.645571231842041 C 1.009832382202148 6.676280975341797 2.526142120361328 8.336191177368164 4.380552291870117 8.345790863037109 L 4.396402359008789 8.345830917358398 C 5.229012489318848 8.345830917358398 6.02369213104248 8.008070945739746 6.634042263031006 7.394771099090576 C 7.319512367248535 6.705981254577637 7.709822177886963 5.723871231079102 7.704892158508301 4.70025110244751 C 7.695112228393555 2.669541358947754 6.178802490234375 1.009631156921387 4.324392318725586 1.000031471252441 L 4.308542251586914 0.9999914169311523 M 4.308541774749756 -3.814697265625e-06 C 4.315722465515137 -3.814697265625e-06 4.322763442993164 1.430511474609375e-05 4.329952239990234 5.14984130859375e-05 C 6.73372220993042 0.01249122619628906 8.692452430725098 2.114681243896484 8.704882621765137 4.695431232452393 C 8.71732234954834 7.276171207427979 6.778765678405762 9.358201026916504 4.374992370605469 9.345770835876465 C 1.971222400665283 9.333331108093262 0.01249217987060547 7.231141090393066 6.198883056640625e-05 4.650391101837158 C -0.01234054565429688 2.077369213104248 1.914748668670654 -3.814697265625e-06 4.308541774749756 -3.814697265625e-06 Z" stroke="none" fill="#000"/></g><g transform="translate(2.494 1.348)" fill="#f0933b"><path d="M 4.396402359008789 8.845830917358398 L 4.37758207321167 8.845781326293945 C 2.250602245330811 8.834771156311035 0.5111523270606995 6.951651096343994 0.5000523328781128 4.6479811668396 C 0.4944823086261749 3.492301225662231 0.9378622770309448 2.380751132965088 1.716492295265198 1.598361134529114 C 2.421372413635254 0.8900711536407471 3.341922283172607 0.4999911785125732 4.308542251586914 0.4999911785125732 L 4.327362537384033 0.5000411868095398 C 6.454342365264893 0.5110511779785156 8.193792343139648 2.394171237945557 8.204892158508301 4.697841167449951 C 8.21046257019043 5.853521347045898 7.767082214355469 6.965071201324463 6.988452434539795 7.747461318969727 C 6.283572196960449 8.455751419067383 5.363022327423096 8.845830917358398 4.396402359008789 8.845830917358398 Z" stroke="none"/><path d="M 4.308542251586914 0.9999914169311523 C 3.475932121276855 0.9999914169311523 2.681252479553223 1.337751388549805 2.070902347564697 1.951051235198975 C 1.385432243347168 2.639841079711914 0.9951224327087402 3.621951103210449 1.000052452087402 4.645571231842041 C 1.009832382202148 6.676280975341797 2.526142120361328 8.336191177368164 4.380552291870117 8.345790863037109 L 4.396402359008789 8.345830917358398 C 5.229012489318848 8.345830917358398 6.02369213104248 8.008070945739746 6.634042263031006 7.394771099090576 C 7.319512367248535 6.705981254577637 7.709822177886963 5.723871231079102 7.704892158508301 4.70025110244751 C 7.695112228393555 2.669541358947754 6.178802490234375 1.009631156921387 4.324392318725586 1.000031471252441 L 4.308542251586914 0.9999914169311523 M 4.308541774749756 -3.814697265625e-06 C 4.315722465515137 -3.814697265625e-06 4.322763442993164 1.430511474609375e-05 4.329952239990234 5.14984130859375e-05 C 6.73372220993042 0.01249122619628906 8.692452430725098 2.114681243896484 8.704882621765137 4.695431232452393 C 8.71732234954834 7.276171207427979 6.778765678405762 9.358201026916504 4.374992370605469 9.345770835876465 C 1.971222400665283 9.333331108093262 0.01249217987060547 7.231141090393066 6.198883056640625e-05 4.650391101837158 C -0.01234054565429688 2.077369213104248 1.914748668670654 -3.814697265625e-06 4.308541774749756 -3.814697265625e-06 Z" stroke="none" fill="#000"/></g></g><g transform="translate(133.831 14.708) rotate(2)"><g transform="translate(0 0)"><path d="M46.767,32.494h.01c.644-.2,1.278-.4,1.921-.6,1.345-.41,2.7-.832,4.044-1.242l-.195-.307-4.477-6.78-3.17.968-2.834.856-1-1.51L37.9,19.113,35.379,15.3l-3.416-5.156L29.939,7.087l-3.114-4.7L25.248,0,24.46.236,22.078.968,6.266,5.733,0,39.3l4.117,6.2,25.311-7.721,3.151-.968,2.959,4.477L36.6,42.9l.555.832.457.691.451-.137,5.946-1.812,2.824-.869,2.507-.77-.032-4.493-2.531-3.838h-.01ZM12.811,30.883c.314-1.894.627-3.788.893-5.682a72.094,72.094,0,0,0,.887-10.493c.682,1.189,1.394,2.365,2.115,3.542.633,1.049,1.286,2.085,1.948,3.133,1.636,2.6,3.339,5.193,5.052,7.79l-8.4,2.544-2.478.757-.288.087C12.636,32,12.728,31.442,12.811,30.883Z" transform="translate(0 17.691)" opacity="0.08"/><path d="M3.261,1.92l.03,4.217.021,4.711.022,3.1L.074,12.011l0-.36L.015,2.109,0,0,2.5,1.474Z" transform="translate(52.696 51.366)" fill="none" stroke="#000" stroke-linejoin="bevel" stroke-width="1"/><path d="M0,2.156,14.577,0l3.261,1.933L3.248,4.089,0,2.156Z" transform="translate(38.193 63.377)" fill="none" stroke="#000" stroke-linejoin="bevel" stroke-width="1"/><path d="M0,4.285,29.229,0,32.49,1.92,3.224,6.218,0,4.285Z" transform="translate(8.878 53.509)" fill="none" stroke="#000" stroke-linejoin="bevel" stroke-width="1"/><path d="M0,.9,6.152,0,9.412,1.92l-6.152.9L0,.9Z" transform="translate(52.696 50.466)" fill="none" stroke="#000" stroke-linejoin="bevel" stroke-width="1"/><path d="M19.292,1.92,3.236,4.265,0,2.345l4.561-.672L16.031,0Z" transform="translate(21.994 42.272)" fill="none" stroke="#000" stroke-linejoin="bevel" stroke-width="1"/><path d="M3.9,1.893c-.637,9.977-.69,19.9-.618,29.927L.019,29.9C-.024,22.28-.016,14.714.278,7.137.362,5.029.459,2.921.593.814.6.547.614.267.637,0L3.9,1.893Z" transform="translate(38.007 12.371)" fill="none" stroke="#000" stroke-linejoin="bevel" stroke-width="1"/><path d="M18.3,1.893c-.622,1.8-1.293,3.58-2.014,5.336C12.917,15.664,8.7,23.624,4.561,31.666L3.236,34.258,0,32.338q2.024-3.968,4.073-7.922c3.055-5.941,6.035-11.91,8.578-18.123.575-1.37,1.112-2.754,1.625-4.151,0-.013.012-.027.024-.053.147-.373.281-.758.415-1.131L15.044,0l1.562.906,1.7.987Z" transform="translate(21.994 12.279)" fill="none" stroke="#000" stroke-linejoin="bevel" stroke-width="1"/><path d="M0,0,1.605.092,4.866,1.986,3.261,1.893,0,0Z" transform="translate(37.038 12.279)" fill="none" stroke="#000" stroke-linejoin="bevel" stroke-width="1"/><g transform="translate(8.795 0)"><path d="M0,0,.087,12.024l3.248,1.933L3.261,1.92,0,0Z" transform="translate(29.312 53.509)" fill="#f8d99d" stroke="#000" stroke-linejoin="bevel" stroke-width="1"/><path d="M24.095,0,0,45.212l.083,9.8,3.224,1.933-.071-9.809L27.355,1.88,24.095,0Z" transform="translate(0 2.785)" fill="#f8d99d" stroke="#000" stroke-linejoin="bevel" stroke-width="1"/><path d="M19.474,0,0,2.785l3.26,1.88L22.747,1.88,19.474,0Z" transform="translate(24.095 0)" fill="#f8d99d" stroke="#000" stroke-linejoin="bevel" stroke-width="1"/><path d="M6.151,0,0,.9,3.261,2.807l6.164-.9L6.151,0Z" transform="translate(43.833 39.256)" fill="#f8d99d" stroke="#000" stroke-linejoin="bevel" stroke-width="1"/><path d="M16.674.092c-.637,9.977-.69,19.9-.618,29.927L0,32.365l1.325-2.592L12.8,28.1c-.042-7.62-.035-15.187.259-22.764C13.776,3.58,14.447,1.8,15.069,0l1.605.092Z" transform="translate(16.436 14.172)" fill="#f8d99d" stroke="#000" stroke-linejoin="bevel" stroke-width="1"/></g><path d="M46.766,39.765l-2.908.418-.017-2.389L43.606,0,40.35.469,24.119,2.785l-9.169,17.2L4.358,39.878,0,48.038l.071,9.809,26.023-3.816,3.243-.482.069,9.622.017,2.416L44.013,63.43l-.056-7.807-.018-4.217,6.151-.913-.056-11.21-3.256.482ZM25.983,33.532c-.008,2.282,0,4.564.012,6.859l-11.47,1.673c2.38-4.639,4.8-9.251,7.053-13.944,1.667-3.443,3.247-6.927,4.677-10.493C26.043,22.924,25.982,28.221,25.983,33.532Z" transform="translate(12.031 1.88)" fill="#f0933b" stroke="#000" stroke-linejoin="bevel" stroke-width="1"/></g></g></g></g></svg>