<svg xmlns="http://www.w3.org/2000/svg" width="131.732" height="134.26" viewBox="0 0 131.732 134.26"><g transform="translate(22.866 -379.398)"><path d="M116.922,94.8h0L81.124,59l35.8-35.8h0a3.7,3.7,0,0,0,0-5.214L100.01,1.077a3.7,3.7,0,0,0-5.214,0h0L59,36.874,23.2,1.077h0a3.7,3.7,0,0,0-5.214,0L1.077,17.987a3.7,3.7,0,0,0,0,5.214h0L36.874,59,1.077,94.8h0a3.7,3.7,0,0,0,0,5.214l16.91,16.91a3.7,3.7,0,0,0,5.214,0h0L59,81.124l35.8,35.8h0a3.7,3.7,0,0,0,5.213,0l16.91-16.91a3.7,3.7,0,0,0,0-5.214Z" transform="matrix(0.995, -0.105, 0.105, 0.995, -22.264, 392.334)" fill="#b9313b" stroke="#000" stroke-width="1"/><path d="M116.922,94.8h0L81.124,59l35.8-35.8h0a3.7,3.7,0,0,0,0-5.214L100.01,1.077a3.7,3.7,0,0,0-5.214,0h0L59,36.874,23.2,1.077h0a3.7,3.7,0,0,0-5.214,0L1.077,17.987a3.7,3.7,0,0,0,0,5.214h0L36.874,59,1.077,94.8h0a3.7,3.7,0,0,0,0,5.214l16.91,16.91a3.7,3.7,0,0,0,5.214,0h0L59,81.124l35.8,35.8h0a3.7,3.7,0,0,0,5.213,0l16.91-16.91a3.7,3.7,0,0,0,0-5.214Z" transform="matrix(0.995, -0.105, 0.105, 0.995, -21.421, 395.705)" fill="#ef0563" stroke="#000" stroke-width="1"/></g></svg>