<?xml version="1.0" standalone="no"?>
<!DOCTYPE svg PUBLIC "-//W3C//DTD SVG 20010904//EN"
 "http://www.w3.org/TR/2001/REC-SVG-20010904/DTD/svg10.dtd">
<svg version="1.0" xmlns="http://www.w3.org/2000/svg"
 width="976.000000pt" height="976.000000pt" viewBox="0 0 976.000000 976.000000"
 preserveAspectRatio="xMidYMid meet">
<metadata>
Created by potrace 1.14, written by Peter Selinger 2001-2017
</metadata>
<g transform="translate(0.000000,976.000000) scale(0.100000,-0.100000)"
fill="#000000" stroke="none">
<path d="M7442 9028 c-17 -76 -308 -1231 -537 -2133 -52 -203 -169 -667 -260
-1030 -156 -620 -236 -938 -540 -2140 -68 -269 -196 -778 -285 -1130 -89 -352
-206 -816 -261 -1032 -54 -215 -99 -398 -99 -406 0 -8 12 -17 28 -19 15 -3
459 -114 987 -248 528 -133 967 -243 974 -244 17 -1 -4 -79 312 1174 116 459
255 1011 309 1225 54 215 167 660 250 990 255 1010 416 1649 535 2120 63 248
193 765 290 1150 97 385 210 831 251 992 41 160 74 296 74 300 0 5 -55 23
-122 40 -68 17 -518 130 -1000 252 -482 121 -879 221 -882 221 -2 0 -13 -37
-24 -82z"/>
<path d="M3250 4295 l0 -3075 1033 2 1032 3 0 3070 0 3070 -1032 3 -1033 2 0
-3075z"/>
<path d="M1010 4775 c-525 -151 -965 -276 -977 -280 -13 -3 -23 -12 -23 -20 0
-16 1075 -3789 1088 -3817 6 -14 129 19 997 267 865 247 990 285 989 301 0 11
-245 875 -544 1922 -428 1497 -547 1902 -559 1901 -9 0 -446 -124 -971 -274z"/>
</g>
</svg>
