<?xml version="1.0" encoding="UTF-8"?><svg id="Layer_2" xmlns="http://www.w3.org/2000/svg" viewBox="0 0 207.67 232.94"><g id="Layer_1-2"><path d="m7.45,190.19v-100.34S12.31.45,105.36.45s94.87,90.61,94.87,90.61v99.12H7.45Z" fill="#ffa766" stroke="#000" stroke-miterlimit="10" stroke-width=".9"/><line x1="19.66" y1="48.58" x2="189.13" y2="48.58" fill="none" stroke="#000" stroke-miterlimit="10" stroke-width=".9"/><rect x="20.13" y="68.54" width="167.41" height="111" rx="13.77" ry="13.77" fill="#ffd894" stroke="#000" stroke-miterlimit="10" stroke-width=".9"/><path d="m203.5,189.8H4.18c-2.06,0-3.73,1.67-3.73,3.73v35.23c0,2.06,1.67,3.73,3.73,3.73h73.74v-12.73c0-4.76,3.86-8.61,8.61-8.61h35.39c4.33,0,7.85,3.51,7.85,7.85v13.5h73.74c2.06,0,3.73-1.67,3.73-3.73v-35.23c0-2.06-1.67-3.73-3.73-3.73Z" fill="#ff8d19" stroke="#000" stroke-miterlimit="10" stroke-width=".9"/><circle cx="43.69" cy="212.64" r="7.08" fill="#ffd894" stroke="#000" stroke-miterlimit="10" stroke-width=".9"/><line x1="7.75" y1="88.17" x2="19.66" y2="88.17" fill="none" stroke="#000" stroke-miterlimit="10" stroke-width=".9"/><line x1="187.54" y1="88.17" x2="200.11" y2="88.32" fill="none" stroke="#000" stroke-miterlimit="10" stroke-width=".9"/></g></svg>