<?xml version="1.0" encoding="UTF-8"?><svg id="Layer_2" xmlns="http://www.w3.org/2000/svg" viewBox="0 0 246.43 290.13"><g id="Layer_1-2"><rect x=".47" y="191.89" width="206.77" height="42.69" rx="3.73" ry="3.73" fill="#ffd894" stroke="#000" stroke-miterlimit="10" stroke-width=".9"/><rect x=".47" y="259.99" width="206.77" height="16.83" rx="2.34" ry="2.34" fill="#ffd894" stroke="#000" stroke-miterlimit="10" stroke-width=".9"/><rect x="7.47" y="234.57" width="192.78" height="25.42" rx="2.78" ry="2.78" fill="#ffd894" stroke="#000" stroke-miterlimit="10" stroke-width=".9"/><path d="m7.47,191.89v-101.28S12.05.45,120.54.45c100.47,0,101.68,93.04,101.68,93.04l1.53,98.39H7.47Z" fill="#ffd894" stroke="#000" stroke-miterlimit="10" stroke-width=".9"/><rect x="20.7" y="191.89" width="206.77" height="42.69" rx="3.73" ry="3.73" fill="#ffd894" stroke="#000" stroke-miterlimit="10" stroke-width=".9"/><path d="m230.42,135.22s15.66-.69,15.56,11.88c-.1,13.14-15.56,12.33-15.56,12.33v-24.21Z" fill="#ffd894" stroke="#000" stroke-miterlimit="10" stroke-width=".9"/><rect x="211.48" y="119.98" width="18.94" height="55.27" rx="8.81" ry="8.81" fill="#ffd894" stroke="#000" stroke-miterlimit="10" stroke-width=".9"/><polygon points="2.81 276.82 17.01 287.39 17.01 276.82 2.81 276.82" fill="#ffd894" stroke="#000" stroke-miterlimit="10" stroke-width=".9"/><rect x=".47" y="191.83" width="206.77" height="42.69" rx="3.73" ry="3.73" fill="#ffd894" stroke="#000" stroke-miterlimit="10" stroke-width=".9"/><path d="m4.47,276.19h12.71c.32,0,.57.26.57.57h0c0,.33-.26.59-.57.59H4.28c-.45-.37-1.02-.76-1.34-.99" fill="#ffd894"/><path d="m23.57,260.57h-14.01c-.32,0-.58-.26-.58-.58h0c0-.32.01-1.15.58-.58h14.01c.32,0,.58.26.58.58h0c0,.32-.26.58-.58.58Z" fill="#ffd894"/><rect x="8.57" y="233.99" width="8.79" height="1.16" rx=".46" ry=".46" fill="#ffd894"/><rect x="7.97" y="190.15" width="16.49" height="3.12" fill="#ffd894"/><path d="m24.15,205.12v-100.34S29.02,15.39,122.06,15.39s94.87,90.61,94.87,90.61v99.12H24.15Z" fill="#ffa766" stroke="#000" stroke-miterlimit="10" stroke-width=".9"/><rect x="17.15" y="272.84" width="206.77" height="16.83" rx="2.34" ry="2.34" fill="#ff8d19" stroke="#000" stroke-miterlimit="10" stroke-width=".9"/><rect x="24.15" y="247.42" width="192.78" height="25.42" rx="2.78" ry="2.78" fill="#ffa766" stroke="#000" stroke-miterlimit="10" stroke-width=".9"/><line x1="36.37" y1="63.52" x2="205.83" y2="63.52" fill="none" stroke="#000" stroke-miterlimit="10" stroke-width=".9"/><rect x="36.84" y="83.47" width="167.41" height="111" rx="13.77" ry="13.77" fill="#ffd894" stroke="#000" stroke-miterlimit="10" stroke-width=".9"/><line x1="1.08" y1="261" x2="17.78" y2="273.84" stroke="#000" stroke-miterlimit="10" stroke-width=".9"/><line x1="8.84" y1="259.61" x2="25.71" y2="272.6" stroke="#000" stroke-miterlimit="10" stroke-width=".9"/><line x1=".45" y1="196.95" x2="17.44" y2="210.01" stroke="#000" stroke-miterlimit="10" stroke-width=".9"/><line x1="7.47" y1="191.89" x2="24.46" y2="204.95" stroke="#000" stroke-miterlimit="10" stroke-width=".9"/><line x1="19.97" y1="50.93" x2="36.37" y2="63.27" stroke="#000" stroke-miterlimit="10" stroke-width=".9"/><line x1="7.47" y1="90.04" x2="24.46" y2="103.1" stroke="#000" stroke-miterlimit="10" stroke-width=".9"/><circle cx="60.39" cy="227.57" r="7.08" fill="#ffd894" stroke="#000" stroke-miterlimit="10" stroke-width=".9"/><rect x="217.38" y="190.51" width="5.91" height="4.8" fill="#ffd894"/><line x1="24.46" y1="103.1" x2="36.37" y2="103.1" fill="none" stroke="#000" stroke-miterlimit="10" stroke-width=".9"/><line x1="204.24" y1="103.1" x2="216.81" y2="103.26" fill="none" stroke="#000" stroke-miterlimit="10" stroke-width=".9"/><polygon points="17.11 241.91 17.15 208.99 .45 196.95 .47 229.9 17.11 241.91" fill="#ffd894" stroke="#000" stroke-miterlimit="10" stroke-width=".9"/><path d="m18.07,246.14l-16.55-12.56s-1.05-.71-1.05-5c3.34,2.41,16.63,12.09,16.63,12.09,0,0-.17,4.59.97,5.48Z" fill="#ffd894" stroke="#000" stroke-miterlimit="10" stroke-width=".9"/></g></svg>